<svg id="Group_128023" data-name="Group 128023" xmlns="http://www.w3.org/2000/svg" xmlns:xlink="http://www.w3.org/1999/xlink" width="100" height="100.001" viewBox="0 0 100 100.001">
  <defs>
    <clipPath id="clip-path">
      <rect id="Rectangle_41211" data-name="Rectangle 41211" width="100" height="100.001" transform="translate(0 0)" fill="#fff"/>
    </clipPath>
  </defs>
  <g id="Group_128022" data-name="Group 128022" clip-path="url(#clip-path)">
    <path id="Path_192293" data-name="Path 192293" d="M19.909,100a3.783,3.783,0,0,1-3.779-3.779V80.646H11.291A11.306,11.306,0,0,1,0,69.355V43.548A11.306,11.306,0,0,1,11.291,32.257H40.5v3.226H11.291a8.074,8.074,0,0,0-8.065,8.065V69.355a8.074,8.074,0,0,0,8.065,8.065h8.065v18.8a.575.575,0,0,0,.94.395l11.029-19.2H66.131A8.074,8.074,0,0,0,74.2,69.355V58.95h3.226V69.355A11.306,11.306,0,0,1,66.131,80.646H33.193l-10.3,17.9A3.756,3.756,0,0,1,19.909,100Z" fill="#040506"/>
    <path id="Path_192294" data-name="Path 192294" d="M70.97,35.483H67.744v-8.6l4.195-5.592a3.268,3.268,0,0,0,.644-1.935,3.226,3.226,0,0,0-6.452,0v1.612H62.9V19.354A6.452,6.452,0,1,1,74.52,23.221l-3.55,4.734Z" fill="#040506"/>
    <path id="Path_192295" data-name="Path 192295" d="M69.357,48.387A4.839,4.839,0,1,1,74.2,43.548a4.845,4.845,0,0,1-4.839,4.839m0-6.452a1.613,1.613,0,1,0,1.613,1.613,1.614,1.614,0,0,0-1.613-1.613" fill="#040506"/>
    <path id="Path_192296" data-name="Path 192296" d="M24.194,61.291a4.839,4.839,0,1,1,4.839-4.839,4.845,4.845,0,0,1-4.839,4.839m0-6.452a1.613,1.613,0,1,0,1.613,1.613,1.614,1.614,0,0,0-1.613-1.613" fill="#040506"/>
    <path id="Path_192297" data-name="Path 192297" d="M37.1,61.291a4.839,4.839,0,1,1,4.839-4.839A4.845,4.845,0,0,1,37.1,61.291m0-6.452a1.613,1.613,0,1,0,1.613,1.613A1.614,1.614,0,0,0,37.1,54.839" fill="#040506"/>
    <path id="Path_192298" data-name="Path 192298" d="M11.291,61.291a4.839,4.839,0,1,1,4.839-4.839,4.845,4.845,0,0,1-4.839,4.839m0-6.452A1.613,1.613,0,1,0,12.9,56.452a1.614,1.614,0,0,0-1.613-1.613" fill="#040506"/>
    <path id="Path_192299" data-name="Path 192299" d="M91.012,8.96a30.632,30.632,0,1,0-42.623,44V63.863a3.878,3.878,0,0,0,6.664,2.7L61.221,60.2A30.65,30.65,0,0,0,91.012,8.96ZM69.357,53.226A22.581,22.581,0,1,1,91.938,30.645,22.581,22.581,0,0,1,69.357,53.226" fill="#fdd835"/>
    <path id="Path_192300" data-name="Path 192300" d="M69.357,54.838A24.194,24.194,0,1,1,93.551,30.644,24.221,24.221,0,0,1,69.357,54.838m0-45.162A20.968,20.968,0,1,0,90.325,30.644,20.992,20.992,0,0,0,69.357,9.676" fill="#040506"/>
    <path id="Path_192301" data-name="Path 192301" d="M80,44.838l-1.939-2.581a14.4,14.4,0,0,0,5.807-11.613H87.1A17.61,17.61,0,0,1,80,44.838" fill="#040506"/>
    <path id="Path_192302" data-name="Path 192302" d="M83.581,27.738a14.347,14.347,0,0,0-.915-2.9l2.955-1.292A17.477,17.477,0,0,1,86.744,27.1Z" fill="#040506"/>
    <path id="Path_192303" data-name="Path 192303" d="M66.131,74.194H58.066V70.968h8.065a1.613,1.613,0,0,0,1.613-1.613V64.516H70.97v4.839a4.845,4.845,0,0,1-4.839,4.839" fill="#040506"/>
    <rect id="Rectangle_41209" data-name="Rectangle 41209" width="3.226" height="3.226" transform="translate(51.614 70.968)" fill="#040506"/>
    <rect id="Rectangle_41210" data-name="Rectangle 41210" width="3.226" height="3.226" transform="translate(45.163 70.968)" fill="#040506"/>
  </g>
</svg>
