<svg id="Group_128036" data-name="Group 128036" xmlns="http://www.w3.org/2000/svg" xmlns:xlink="http://www.w3.org/1999/xlink" width="100" height="100" viewBox="0 0 100 100">
  <defs>
    <clipPath id="clip-path">
      <rect id="Rectangle_41207" data-name="Rectangle 41207" width="100" height="100" fill="none"/>
    </clipPath>
  </defs>
  <path id="Path_192273" data-name="Path 192273" d="M25.806,69.355l-1.613,3.226L22.58,71.5v9.14h12.9V69.355Z" fill="#f89119"/>
  <g id="Group_128018" data-name="Group 128018">
    <g id="Group_128017" data-name="Group 128017" clip-path="url(#clip-path)">
      <path id="Path_192274" data-name="Path 192274" d="M54.139,49.873c-1.613-1.11-2.526-1.8-2.526-3.108s.913-2,2.526-3.107c1.75-1.2,3.926-2.7,3.926-5.764,0-2.924-1.632-4.419-2.944-5.619-1.245-1.141-1.895-1.8-1.895-3.242V24.194a24.194,24.194,0,1,0-48.387,0v4.839c0,1.438-.65,2.1-1.9,3.242C1.633,33.475,0,34.97,0,37.894c0,3.066,2.176,4.563,3.926,5.764,1.613,1.11,2.526,1.8,2.526,3.107s-.913,2-2.526,3.108C2.176,51.076,0,52.573,0,55.641s2.176,4.564,3.926,5.767a11.232,11.232,0,0,1,1.831,1.441l.114.121a19.315,19.315,0,0,1,10.747-6.755l5.963-1.376V51a1.611,1.611,0,0,0-.892-1.442l-.76-.38A14.515,14.515,0,0,1,12.9,36.192V33.871H11.291a4.838,4.838,0,1,1,0-9.677H12.9a4.837,4.837,0,0,1,4.464-4.824,10.778,10.778,0,0,0,7.677,3.211,3.989,3.989,0,0,0,3.988-3.906,20.823,20.823,0,0,0,12.141,3.906,3.988,3.988,0,0,0,3.988-3.987v5.6h1.612a4.838,4.838,0,1,1,0,9.677H45.162v2.321a14.514,14.514,0,0,1-8.025,12.983l-.759.379A1.612,1.612,0,0,0,35.484,51v3.842l5.965,1.376a19.32,19.32,0,0,1,10.746,6.753l.115-.122A11.376,11.376,0,0,1,54.142,61.4c1.747-1.2,3.923-2.7,3.923-5.763s-2.176-4.565-3.926-5.768" fill="#f89119"/>
      <path id="Path_192275" data-name="Path 192275" d="M37.1,27.419a1.613,1.613,0,1,1-1.613,1.613A1.613,1.613,0,0,1,37.1,27.419" fill="#040506"/>
      <path id="Path_192276" data-name="Path 192276" d="M20.968,27.419a1.613,1.613,0,1,1-1.613,1.613,1.613,1.613,0,0,1,1.613-1.613" fill="#040506"/>
      <path id="Path_192277" data-name="Path 192277" d="M28.14,38.54l1.782-.892a3.226,3.226,0,0,0,1.444-4.327l-.721-1.444V29.032H27.419v3.226a1.622,1.622,0,0,0,.169.721l.892,1.782-1.782.892Z" fill="#040506"/>
      <path id="Path_192278" data-name="Path 192278" d="M29.032,40.323a8.1,8.1,0,0,0-6.985,4.031l2.791,1.616a4.843,4.843,0,0,1,8.388,0l2.79-1.616a8.1,8.1,0,0,0-6.984-4.031" fill="#040506"/>
      <path id="Path_192279" data-name="Path 192279" d="M46.774,22.581V18.593a5.569,5.569,0,0,0-3.1-5.009l-1.021-.51L41.214,15.96l1.021.509a2.375,2.375,0,0,1-1.061,4.5,19.076,19.076,0,0,1-10.592-3.2,5.566,5.566,0,0,0-3.034-4.182l-1.021-.51L25.085,15.96l1.021.509a2.375,2.375,0,0,1-1.061,4.5A9.133,9.133,0,0,1,16.526,15.2l-.515-1.286-2.993,1.2.514,1.285a12.573,12.573,0,0,0,1.142,2.147,6.479,6.479,0,0,0-3.15,4.036H11.29a6.452,6.452,0,0,0,0,12.9h0v.708a16.04,16.04,0,0,0,8.916,14.424l.76.381v2.558l-4.715,1.088A20.877,20.877,0,0,0,0,75.076v5.569H3.226v12.9A6.458,6.458,0,0,0,9.677,100h38.71a6.459,6.459,0,0,0,6.452-6.452v-12.9h3.225V75.076A20.877,20.877,0,0,0,41.811,54.643L37.1,53.555V51l.761-.379a16.041,16.041,0,0,0,8.916-14.425v-.708a6.452,6.452,0,1,0,0-12.9M11.29,32.258a3.226,3.226,0,1,1,0-6.452h0ZM12.9,80.645v3.523a4.773,4.773,0,0,0-1.613-.3H9.677a6.388,6.388,0,0,0-3.226.9V80.645Zm5.645,16.129H15.832a4.773,4.773,0,0,0,.3-1.613V70.968h2.737l5.952,3.967L26.8,70.968H41.935v10.2l-8.463,3.386,2.094,6.282,3.06-1.021-1.133-3.4,4.442-1.778V95.161a4.773,4.773,0,0,0,.3,1.613H22.58m-12.9,0a3.229,3.229,0,0,1-3.226-3.226V90.323A3.229,3.229,0,0,1,9.677,87.1H11.29A1.614,1.614,0,0,1,12.9,88.71v1.613H9.677v3.225H12.9v1.613a1.614,1.614,0,0,1-1.613,1.613Zm41.936-3.226a3.229,3.229,0,0,1-3.226,3.226H46.774a1.614,1.614,0,0,1-1.613-1.613V93.548h3.226V90.323H45.161V88.71A1.614,1.614,0,0,1,46.774,87.1h1.613a3.229,3.229,0,0,1,3.226,3.226v3.225Zm0-8.78a6.386,6.386,0,0,0-3.226-.9H46.774a4.778,4.778,0,0,0-1.613.3V80.645h6.452ZM19.843,67.742H12.9v9.677H3.226V75.076a17.649,17.649,0,0,1,12.346-16.9l1.307,1.306a17.187,17.187,0,0,0,24.306,0l1.307-1.306a17.65,17.65,0,0,1,12.347,16.9v2.343H45.161V67.742H24.809m11.605-20.01-.759.379A3.205,3.205,0,0,0,33.871,51v5.126l4.961,1.145a13.95,13.95,0,0,1-19.6,0l4.961-1.145V51a3.209,3.209,0,0,0-1.784-2.886l-.759-.379a12.827,12.827,0,0,1-7.132-11.538l0-12a3.24,3.24,0,0,1,2.335-3.1,12.344,12.344,0,0,0,8.194,3.1,5.587,5.587,0,0,0,4.934-3.006,22.27,22.27,0,0,0,11.195,3.006,5.56,5.56,0,0,0,2.374-.546V36.194a12.833,12.833,0,0,1-7.133,11.538m10.36-15.474V25.806a3.226,3.226,0,1,1,0,6.452" fill="#040506"/>
      <path id="Path_192280" data-name="Path 192280" d="M74.193,16.129V23.2l-4.458-2.229H52.985a24.166,24.166,0,0,1,.241,3.226H67.742V27.42H53.226v1.613a2.981,2.981,0,0,0,.425,1.612H67.742v3.226H56.674A6.156,6.156,0,0,1,58.008,37.1H69.735l4.458-2.229v7.068H100V16.129Zm2.675,13.8-5.9,2.95V25.191l5.9,2.95a1,1,0,0,1,0,1.784M96.774,38.71H77.419V33.255l.892-.447a4.222,4.222,0,0,0,0-7.553l-.892-.445V19.355H96.774Z" fill="#040506"/>
      <path id="Path_192281" data-name="Path 192281" d="M74.194,70.968H100V45.162H74.194Zm3.225-22.581H96.774V67.742H77.419Z" fill="#040506"/>
      <path id="Path_192282" data-name="Path 192282" d="M83.871,60.623l-2.085-2.085L79.5,60.818l4.366,4.366L94.689,54.367l-2.281-2.281Z" fill="#040506"/>
      <path id="Path_192283" data-name="Path 192283" d="M74.194,100H100V74.194H74.194Zm3.225-22.581H96.774V96.774H77.419Z" fill="#040506"/>
      <path id="Path_192284" data-name="Path 192284" d="M83.871,89.655,81.786,87.57,79.5,89.85l4.366,4.366L94.689,83.4l-2.281-2.281Z" fill="#040506"/>
      <path id="Path_192285" data-name="Path 192285" d="M79.5,34.343l2.281,2.281L87.1,31.313l5.311,5.312,2.281-2.281-5.311-5.311,5.311-5.312-2.281-2.28L87.1,26.752,81.786,21.44,79.5,23.721l5.311,5.312Z" fill="#040506"/>
      <rect id="Rectangle_41206" data-name="Rectangle 41206" width="26.103" height="25.806" transform="translate(16.129 70.968)" fill="#f89119"/>
    </g>
  </g>
</svg>
