<svg id="Group_128031" data-name="Group 128031" xmlns="http://www.w3.org/2000/svg" xmlns:xlink="http://www.w3.org/1999/xlink" width="100" height="96.774" viewBox="0 0 100 96.774">
  <defs>
    <clipPath id="clip-path">
      <rect id="Rectangle_41227" data-name="Rectangle 41227" width="100" height="96.774" transform="translate(0 0)" fill="none"/>
    </clipPath>
  </defs>
  <path id="Path_192319" data-name="Path 192319" d="M3.226,90.322H96.774v3.226H3.226Zm37.1-25.182V87.1H35.484V65.513l1.489.745ZM80.645,64.6l1.612.537V79.032H51.613V64.6l4.839,1.613L61.29,64.6l4.839,1.613L70.967,64.6l4.838,1.613Zm4.839,17.655V66.216L90.322,64.6V87.1H43.548V65.14l3.226,1.076,1.613-.537V82.258ZM9.678,64.516h4.838V87.1H9.678Zm8.064,0H32.258V87.1H17.742ZM9.678,59.677h22.58V61.29H9.678Zm43.548,2.064V59.97l4.343-11.583h3.507l-1.385,11.09-.008,2.264-3.231,1.075Zm29.032,0V59.385l-4.124-11h4.74l5.835,11.671v1.684l-3.225,1.076ZM9.678,48.387H39.026l-5.04,8.064H9.678ZM35.484,61.906V60.14l7.345-11.753h2.949L40.323,59.3v2.446l-3.1,1.034Zm8.064-.166V60.058l5.836-11.671h4.74L50,59.384V61.74l-3.226,1.075Zm19.355,0V59.779l1.425-11.392h3.6l1.425,11.392v1.963l-3.226,1.076Zm9.678,0V59.677l-1.4-11.29h3.508l4.344,11.584v1.771l-3.226,1.076Zm19.355,0V59.295L86.481,48.387h3.012L96.774,58.58v3.326l-1.737.868ZM9.678,38.709H90.322v6.452H9.678ZM3.226,32.258H96.774v3.225H3.226Zm6.1-6.451H90.676l.806,3.225H8.518ZM6.8,22.58,5.192,29.032H0v9.677H6.451V87.1H0v9.678H100V87.1H93.549V65.679l1.737.579L100,63.9V57.549l-6.543-9.162h.092V38.709H100V29.032H94.808L93.195,22.58Z" fill="#272727"/>
  <g id="Group_128030" data-name="Group 128030">
    <g id="Group_128029" data-name="Group 128029" clip-path="url(#clip-path)">
      <path id="Path_192320" data-name="Path 192320" d="M85.484,25.806H14.516V4.838A4.845,4.845,0,0,1,19.355,0h61.29a4.845,4.845,0,0,1,4.839,4.838Z" fill="#f89119"/>
      <path id="Path_192321" data-name="Path 192321" d="M27.419,17.742H25.806a1.615,1.615,0,0,1-1.612-1.613H20.968a4.844,4.844,0,0,0,4.838,4.838h1.613a4.838,4.838,0,1,0,0-9.677H25.806a1.613,1.613,0,0,1,0-3.226h1.613a1.616,1.616,0,0,1,1.613,1.613h3.226a4.845,4.845,0,0,0-4.839-4.839H25.806a4.839,4.839,0,0,0,0,9.678h1.613a1.613,1.613,0,0,1,0,3.226" fill="#272727"/>
      <path id="Path_192322" data-name="Path 192322" d="M38.71,14.516h6.452v6.452h3.225V4.839H45.162V11.29H38.71V4.839H35.484V20.968H38.71Z" fill="#272727"/>
      <path id="Path_192323" data-name="Path 192323" d="M58.065,20.967a6.457,6.457,0,0,0,6.451-6.451V11.29a6.451,6.451,0,1,0-12.9,0v3.226a6.458,6.458,0,0,0,6.452,6.451M54.839,11.29a3.226,3.226,0,1,1,6.452,0v3.226a3.226,3.226,0,1,1-6.452,0Z" fill="#272727"/>
      <path id="Path_192324" data-name="Path 192324" d="M70.968,14.516h3.226a4.839,4.839,0,0,0,0-9.678H67.742V20.967h3.226Zm0-6.452h3.226a1.613,1.613,0,0,1,0,3.226H70.968Z" fill="#272727"/>
    </g>
  </g>
</svg>
