<svg xmlns="http://www.w3.org/2000/svg" xmlns:xlink="http://www.w3.org/1999/xlink" width="100" height="100" viewBox="0 0 100 100">
  <defs>
    <clipPath id="clip-path">
      <rect id="Rectangle_41226" data-name="Rectangle 41226" width="100" height="100" fill="none"/>
    </clipPath>
  </defs>
  <g id="Group_128027" data-name="Group 128027" clip-path="url(#clip-path)">
    <path id="Path_192307" data-name="Path 192307" d="M62.9,43.548H60.468v0a22.583,22.583,0,1,1-2.731-29.036v0h9.882l.023-.57-.3-.437a30.658,30.658,0,1,0-2.113,37.028Z" fill="#ffce1c"/>
    <path id="Path_192308" data-name="Path 192308" d="M50.679,71.036a6.387,6.387,0,0,0,.934-3.294,3.229,3.229,0,0,0-3.226-3.225v-3.91a30.9,30.9,0,0,1-3.226.513v3.4H38.71v-3.4a29.831,29.831,0,0,1-3.226-.524v3.923h-3.5A18.328,18.328,0,0,0,17.721,71.4a3.187,3.187,0,0,0-1.592-.437H0V93.549H16.129a3.19,3.19,0,0,0,2.011-.724,17.986,17.986,0,0,0,11.284,3.95h6.358A4.833,4.833,0,0,0,40.324,100H43.55a4.845,4.845,0,0,0,4.839-4.838V93.549H50a4.818,4.818,0,0,0,3.58-8.065,4.764,4.764,0,0,0,0-6.451,4.8,4.8,0,0,0-2.9-8M16.129,90.323H3.226V74.194h12.9ZM51.613,75.807A1.615,1.615,0,0,1,50,77.42H46.774a1.613,1.613,0,0,1,0-3.226H50a1.615,1.615,0,0,1,1.613,1.613m0,6.451A1.614,1.614,0,0,1,50,83.871H46.774a1.612,1.612,0,1,1,0-3.225H50a1.614,1.614,0,0,1,1.613,1.612M19.355,89.612V74.692a15.066,15.066,0,0,1,12.63-6.95h16.4a3.229,3.229,0,0,1-3.226,3.226H39.326l-.445.892a7.049,7.049,0,0,1-4.1,3.558l-1.418.473,1.021,3.058,1.1-.368v7.274a16.548,16.548,0,0,0-5.942-3.514L28.521,85.4a13.33,13.33,0,0,1,6.835,5.221l.128.192v2.737h-6.06A14.791,14.791,0,0,1,19.355,89.612Zm24.193,7.163H40.323a1.615,1.615,0,0,1-1.613-1.613V76.939a10.161,10.161,0,0,0,2.553-2.745h.969a4.688,4.688,0,0,0,.962,4.839,4.761,4.761,0,0,0,0,6.451,4.793,4.793,0,0,0,1.967,7.768v1.91a1.615,1.615,0,0,1-1.613,1.613M50,90.323H46.774a1.613,1.613,0,0,1,0-3.226H50a1.613,1.613,0,0,1,0,3.226" fill="#040506"/>
    <path id="Path_192309" data-name="Path 192309" d="M95.161,12.9H58.35a24.2,24.2,0,1,0,2.9,32.258h.5l2.349,7.045a3.851,3.851,0,0,0,7.306,0l2.348-7.045H95.161A4.845,4.845,0,0,0,100,40.323V17.742A4.845,4.845,0,0,0,95.161,12.9M41.935,51.613A20.968,20.968,0,1,1,53.1,12.9H38.709a4.844,4.844,0,0,0-4.838,4.838V40.323a4.845,4.845,0,0,0,4.838,4.839H57.021a20.973,20.973,0,0,1-15.086,6.451m54.839-11.29a1.615,1.615,0,0,1-1.613,1.613H71.418l-3.084,9.25a.651.651,0,0,1-1.186,0l-3.082-9.25H38.709A1.614,1.614,0,0,1,37.1,40.323V17.742a1.614,1.614,0,0,1,1.612-1.613H95.161a1.615,1.615,0,0,1,1.613,1.613Z" fill="#040506"/>
    <path id="Path_192310" data-name="Path 192310" d="M66.129,83.871a4.839,4.839,0,1,0,4.839,4.839,4.845,4.845,0,0,0-4.839-4.839m0,6.452a1.613,1.613,0,1,1,1.613-1.613,1.615,1.615,0,0,1-1.613,1.613" fill="#040506"/>
    <path id="Path_192311" data-name="Path 192311" d="M67.742,61.29H64.516a3.229,3.229,0,0,0-3.226,3.226v12.9a3.229,3.229,0,0,0,3.226,3.226h3.226a3.229,3.229,0,0,0,3.226-3.226v-12.9a3.229,3.229,0,0,0-3.226-3.226M64.516,77.419v-12.9h3.226v12.9Z" fill="#040506"/>
    <path id="Path_192312" data-name="Path 192312" d="M79.032,83.871a4.839,4.839,0,1,0,4.839,4.839,4.845,4.845,0,0,0-4.839-4.839m0,6.452a1.613,1.613,0,1,1,1.613-1.613,1.615,1.615,0,0,1-1.613,1.613" fill="#040506"/>
    <path id="Path_192313" data-name="Path 192313" d="M80.645,61.29H77.419a3.229,3.229,0,0,0-3.226,3.226v12.9a3.229,3.229,0,0,0,3.226,3.226h3.226a3.229,3.229,0,0,0,3.226-3.226v-12.9a3.229,3.229,0,0,0-3.226-3.226M77.419,77.419v-12.9h3.226v12.9Z" fill="#040506"/>
    <path id="Path_192314" data-name="Path 192314" d="M91.936,83.871a4.839,4.839,0,1,0,4.838,4.839,4.845,4.845,0,0,0-4.838-4.839m0,6.452a1.613,1.613,0,1,1,1.613-1.613,1.615,1.615,0,0,1-1.613,1.613" fill="#040506"/>
    <path id="Path_192315" data-name="Path 192315" d="M93.549,61.29H90.323A3.229,3.229,0,0,0,87.1,64.516v12.9a3.229,3.229,0,0,0,3.226,3.226h3.226a3.229,3.229,0,0,0,3.226-3.226v-12.9a3.229,3.229,0,0,0-3.226-3.226M90.323,77.419v-12.9h3.226v12.9Z" fill="#040506"/>
    <path id="Path_192316" data-name="Path 192316" d="M48.226,25.55l-2.491.57-.781-3.167,4.328-1.224h2.976V36.613H48.226Z" fill="#161615"/>
    <path id="Path_192317" data-name="Path 192317" d="M60.239,33.53l5.531-4.222c1.373-1.077,1.9-1.774,1.9-2.66a1.472,1.472,0,0,0-1.646-1.5c-.993,0-1.774.57-2.935,1.9l-2.766-2.3c1.584-2.047,3.146-3.166,6.017-3.166,3.23,0,5.447,1.921,5.447,4.708v.042c0,2.364-1.224,3.589-3.42,5.172l-2.533,1.774h6.1v3.335h-11.7Z" fill="#161615"/>
    <path id="Path_192318" data-name="Path 192318" d="M78.945,34.29l2.576-2.575A4.833,4.833,0,0,0,85.046,33.4c1.161,0,1.9-.591,1.9-1.5v-.042c0-.951-.865-1.521-2.406-1.521H82.808l-.591-2.131,3.4-3.062H79.958V21.835H90.641V24.77l-3.526,3.017c2.111.466,3.822,1.648,3.822,4.161v.042c0,3-2.407,4.918-5.7,4.918a8.055,8.055,0,0,1-6.291-2.618" fill="#161615"/>
  </g>
</svg>
