<svg xmlns="http://www.w3.org/2000/svg" xmlns:xlink="http://www.w3.org/1999/xlink" width="100" height="87.097" viewBox="0 0 100 87.097">
  <defs>
    <clipPath id="clip-path">
      <rect id="Rectangle_41208" data-name="Rectangle 41208" width="100" height="87.097" transform="translate(0 0)" fill="none"/>
    </clipPath>
  </defs>
  <g id="Group_128020" data-name="Group 128020" transform="translate(0 0)" clip-path="url(#clip-path)">
    <path id="Path_192286" data-name="Path 192286" d="M31.753,0H29.538A19.859,19.859,0,0,0,11.324,27.777l.392.9a4.833,4.833,0,0,1,4.413-2.871h1.613V22.392a6.453,6.453,0,0,1,4.411-6.121l2.358-.786.473-.172a5.938,5.938,0,0,0,5.661,4.042h7.943a4.96,4.96,0,0,1,4.96,4.96v1.491h1.613a4.831,4.831,0,0,1,4.413,2.873l.392-.9A19.86,19.86,0,0,0,31.753,0" fill="#ffce1c"/>
    <path id="Path_192287" data-name="Path 192287" d="M37.1,35.484H33.871A1.615,1.615,0,0,1,32.258,37.1H25.807v3.226h6.451A4.845,4.845,0,0,0,37.1,35.484" fill="#040506"/>
    <path id="Path_192288" data-name="Path 192288" d="M24.194,25.807a1.613,1.613,0,1,1-1.613,1.613,1.613,1.613,0,0,1,1.613-1.613" fill="#040506"/>
    <path id="Path_192289" data-name="Path 192289" d="M37.1,25.807a1.613,1.613,0,1,1-1.613,1.613A1.613,1.613,0,0,1,37.1,25.807" fill="#040506"/>
    <path id="Path_192290" data-name="Path 192290" d="M70.968,76.3V50.668l.864-.863a8.012,8.012,0,0,0,2.362-5.7V40.323a4.845,4.845,0,0,0-4.839-4.839H67.742V30.645a4.838,4.838,0,0,0-9.677,0v5.136a4.832,4.832,0,0,0-3.226,4.542V44.1a8.011,8.011,0,0,0,2.361,5.7l.766.766-1.111,7.782A30.967,30.967,0,0,0,39.911,45.007a11.3,11.3,0,0,0,5.121-7.91h.129a6.451,6.451,0,1,0,0-12.9h-.013a6.572,6.572,0,0,0-6.561-6.452H30.645c-3.827,0-4.839-4.219-4.839-6.452H22.581a12.433,12.433,0,0,0,.369,3.015l-1.308.437a8.053,8.053,0,0,0-5.513,7.65v1.8a6.451,6.451,0,1,0,0,12.9h.129a11.294,11.294,0,0,0,5.1,7.9A30.7,30.7,0,0,0,0,74.194V87.1H100V83.871H67.855A10.759,10.759,0,0,0,70.968,76.3M48.387,30.645a3.229,3.229,0,0,1-3.226,3.226V27.419a3.229,3.229,0,0,1,3.226,3.226m-35.484,0a3.229,3.229,0,0,1,3.226-3.226v6.452A3.229,3.229,0,0,1,12.9,30.645m58.065,9.678v1.613H66.129a1.613,1.613,0,0,1,0-3.226h3.226a1.614,1.614,0,0,1,1.613,1.613M62.9,29.032a1.615,1.615,0,0,1,1.613,1.613v5.136a4.818,4.818,0,0,0-1.613.961,4.776,4.776,0,0,0-1.613-.961V30.645A1.615,1.615,0,0,1,62.9,29.032M58.065,40.323a1.613,1.613,0,1,1,3.225,0,4.845,4.845,0,0,0,4.839,4.838h4.723a4.79,4.79,0,0,1-1.3,2.363l-.863.863H60.345l-.863-.863A4.807,4.807,0,0,1,58.065,44.1Zm-32.259,6.9a27.482,27.482,0,0,1,4.839-.454,26.914,26.914,0,0,1,4.839.455v1.158c0,1.545-2.686,3.553-4.839,4.662-2.153-1.109-4.839-3.117-4.839-4.662Zm1.613-3.679a8.074,8.074,0,0,1-8.064-8.065V22.392A4.836,4.836,0,0,1,22.663,17.8l1.529-.508a7.361,7.361,0,0,0,6.453,3.676h7.944a3.35,3.35,0,0,1,3.346,3.347V35.484a8.073,8.073,0,0,1-8.064,8.065ZM3.226,74.194A27.463,27.463,0,0,1,22.581,47.989v.4c0,4.478,6.648,7.584,7.4,7.924l.66.3.66-.3c.756-.34,7.4-3.446,7.4-7.924v-.379A27.6,27.6,0,0,1,56.06,63.921l-1.205,8.431,3.192.456,3.029-21.195h6.666V76.3a7.581,7.581,0,0,1-7.573,7.572,6.366,6.366,0,0,1-5.892-3.929L48.263,65.508,45.285,66.75l1.489,3.573V83.871H14.516V66.129H11.29V83.871H3.226ZM51.3,81.184a9.582,9.582,0,0,0,1.708,2.687H50V78.065Z" fill="#040506"/>
    <path id="Path_192291" data-name="Path 192291" d="M88.44,17.053c-1.623-1.624-4.114-2.492-7.776-2.492A20.515,20.515,0,0,0,72.4,16.147L73.869,21.2a14.388,14.388,0,0,1,5.625-1.132c2.755,0,4.076,1.208,4.076,3.322v.34a15.639,15.639,0,0,0-4.907-.793c-4.794,0-8,2.189-8,6.417v.076c0,4.077,2.982,6.3,6.87,6.3a7.7,7.7,0,0,0,6-2.567v2.114h7.1V23.546c0-2.869-.642-4.983-2.19-6.493M83.646,27.887a3.282,3.282,0,0,1-3.548,3.36,2.251,2.251,0,0,1-2.53-2.228v-.075c0-1.51,1.208-2.529,3.284-2.529a7.513,7.513,0,0,1,2.794.528Z" fill="#161615"/>
    <path id="Path_192292" data-name="Path 192292" d="M81.834,6.067l6.682,2.152-5.55,4.832H77.908Z" fill="#040506"/>
  </g>
</svg>
