<svg id="Group_128025" data-name="Group 128025" xmlns="http://www.w3.org/2000/svg" xmlns:xlink="http://www.w3.org/1999/xlink" width="100" height="100" viewBox="0 0 100 100">
  <defs>
    <clipPath id="clip-path">
      <rect id="Rectangle_41225" data-name="Rectangle 41225" width="100" height="100" fill="none"/>
    </clipPath>
  </defs>
  <g id="Group_128024" data-name="Group 128024" clip-path="url(#clip-path)">
    <path id="Path_192304" data-name="Path 192304" d="M64.516,48.112a6.174,6.174,0,0,0-10.541-4.367L39.666,58.055a21.088,21.088,0,0,1-6.784,4.523,12.9,12.9,0,1,0-18.445,2.259A17.762,17.762,0,0,0,0,82.258V100H37.1V79.308a2.932,2.932,0,0,1,.863-2.085L62.708,52.476A6.132,6.132,0,0,0,64.516,48.112ZM24.193,67.742l1.45-.2C25.229,69.5,24,70.968,22.58,70.968c-1.372,0-2.564-1.371-3.021-3.226ZM12.9,54.839a9.677,9.677,0,1,1,9.677,9.677A9.687,9.687,0,0,1,12.9,54.839M60.427,50.2,35.679,74.944a6.128,6.128,0,0,0-1.808,4.364V96.774H11.29V77.42H8.064V96.774H3.225V82.258a14.537,14.537,0,0,1,13.05-14.442c.623,3.639,3.21,6.378,6.305,6.378,3.307,0,6.007-3.136,6.378-7.145a24.338,24.338,0,0,0,12.988-6.715l14.31-14.31a2.95,2.95,0,0,1,5.034,2.088A2.935,2.935,0,0,1,60.427,50.2Z" fill="#040506"/>
    <path id="Path_192305" data-name="Path 192305" d="M90.348,64.876a12.9,12.9,0,1,0-10.919,2.543,12.525,12.525,0,0,0-4.158,6.371l-2.31,8.468h-15.7a5.645,5.645,0,1,0,0,11.29H72.58V100H100V77.1a12.6,12.6,0,0,0-9.652-12.227M72.58,54.838a9.677,9.677,0,1,1,9.678,9.678,9.687,9.687,0,0,1-9.678-9.678M96.774,96.774H75.806V93.548h1.352a6.439,6.439,0,0,0,6.119-4.411L88.626,73.09l-3.058-1.021L80.219,88.116a3.223,3.223,0,0,1-3.061,2.206h-19.9a2.419,2.419,0,0,1,0-4.838H75.426l2.958-10.845A9.36,9.36,0,0,1,96.774,77.1Z" fill="#040506"/>
    <rect id="Rectangle_41214" data-name="Rectangle 41214" width="3.226" height="3.226" transform="translate(19.355 16.129)" fill="#040506"/>
    <rect id="Rectangle_41215" data-name="Rectangle 41215" width="19.355" height="3.226" transform="translate(25.806 16.129)" fill="#040506"/>
    <rect id="Rectangle_41216" data-name="Rectangle 41216" width="25.806" height="3.226" transform="translate(19.355 22.581)" fill="#040506"/>
    <rect id="Rectangle_41217" data-name="Rectangle 41217" width="25.806" height="3.226" transform="translate(19.355 29.032)" fill="#040506"/>
    <rect id="Rectangle_41218" data-name="Rectangle 41218" width="3.226" height="3.226" transform="translate(90.323 12.903)" fill="#040506"/>
    <rect id="Rectangle_41219" data-name="Rectangle 41219" width="32.258" height="3.226" transform="translate(54.839 12.903)" fill="#040506"/>
    <rect id="Rectangle_41220" data-name="Rectangle 41220" width="38.71" height="3.226" transform="translate(54.839 19.355)" fill="#040506"/>
    <rect id="Rectangle_41221" data-name="Rectangle 41221" width="38.71" height="3.226" transform="translate(54.839 25.806)" fill="#040506"/>
    <path id="Path_192306" data-name="Path 192306" d="M91.935,0H56.451a8.073,8.073,0,0,0-8.064,8.064V9.677H19.355A6.459,6.459,0,0,0,12.9,16.129V32.258a6.458,6.458,0,0,0,6.452,6.451H33.871v7.854L45.65,38.709h2.737a6.479,6.479,0,0,0,5.761-3.6,7.966,7.966,0,0,0,2.3.376H60.8L72.58,43.337V35.484H91.935A8.074,8.074,0,0,0,100,27.419V8.064A8.073,8.073,0,0,0,91.935,0M48.387,35.484H44.672L37.1,40.534v-5.05H19.355a3.229,3.229,0,0,1-3.226-3.226V16.129A3.229,3.229,0,0,1,19.355,12.9H48.387V27.419a8.013,8.013,0,0,0,2.926,6.163,3.237,3.237,0,0,1-2.926,1.9m48.387-8.065a4.845,4.845,0,0,1-4.839,4.839H69.355v5.05l-7.576-5.05H56.451a4.845,4.845,0,0,1-4.838-4.839V8.064a4.845,4.845,0,0,1,4.838-4.839H91.935a4.845,4.845,0,0,1,4.839,4.839Z" fill="#040506"/>
    <rect id="Rectangle_41222" data-name="Rectangle 41222" width="3.226" height="3.226" transform="translate(54.839 6.452)" fill="#040506"/>
    <rect id="Rectangle_41223" data-name="Rectangle 41223" width="3.226" height="3.226" transform="translate(61.29 6.452)" fill="#040506"/>
    <rect id="Rectangle_41224" data-name="Rectangle 41224" width="25.806" height="3.226" transform="translate(67.742 6.452)" fill="#040506"/>
  </g>
</svg>
