<svg xmlns="http://www.w3.org/2000/svg" width="87.467" height="87.467" viewBox="0 0 87.467 87.467">
  <g id="enlace" transform="translate(0)">
    <path id="Path_192532" data-name="Path 192532" d="M10,69.621V25.033L25.033,10H66.7a3.417,3.417,0,0,1,3.417,3.417V83.8A3.417,3.417,0,0,1,66.7,87.217H13.417A3.416,3.416,0,0,1,10,83.8Zm0,0" transform="translate(-8.292 -8.291)" fill="#fff"/>
    <path id="Path_192533" data-name="Path 192533" d="M10,25.033,25.033,10V21.852a3.181,3.181,0,0,1-3.182,3.181Zm0,0" transform="translate(-8.292 -8.291)" fill="#ffedd1"/>
    <path id="Path_192534" data-name="Path 192534" d="M329.934,202.725l3.9-3.9a13.083,13.083,0,0,1,18.5,18.5l-3.9,3.9a13.083,13.083,0,1,1-18.5-18.5Zm8.764.974-3.9,3.9a6.2,6.2,0,0,0,8.765,8.765l3.9-3.9A6.2,6.2,0,1,0,338.7,203.7Zm0,0" transform="translate(-270.398 -161.69)" fill="#91def5"/>
    <path id="Path_192535" data-name="Path 192535" d="M198.826,333.83l3.9-3.9a13.083,13.083,0,0,1,18.5,18.5l-3.9,3.9a13.083,13.083,0,1,1-18.5-18.5Zm8.764.974-3.9,3.9a6.2,6.2,0,0,0,8.764,8.765l3.9-3.9a6.2,6.2,0,1,0-8.765-8.765Zm0,0" transform="translate(-161.688 -270.399)" fill="#91def5"/>
    <path id="Path_192536" data-name="Path 192536" d="M288.449,307.3a3.442,3.442,0,0,0,4.869,0L307.3,293.318a3.443,3.443,0,0,0-4.869-4.869l-13.978,13.978A3.442,3.442,0,0,0,288.449,307.3Zm0,0" transform="translate(-238.336 -238.336)" fill="#cff1fb"/>
    <path id="Path_192537" data-name="Path 192537" d="M67.957,163.681a1.709,1.709,0,0,0,1.708,1.708h36.9a1.708,1.708,0,0,0,0-3.417h-36.9A1.709,1.709,0,0,0,67.957,163.681Zm0,0" transform="translate(-56.348 -134.302)"/>
    <path id="Path_192538" data-name="Path 192538" d="M168.843,109.4a1.708,1.708,0,0,0,0-3.417H145.185a1.708,1.708,0,1,0,0,3.417Zm0,0" transform="translate(-118.966 -87.875)"/>
    <path id="Path_192539" data-name="Path 192539" d="M69.665,221.409H95.811a1.708,1.708,0,0,0,0-3.417H69.665a1.708,1.708,0,0,0,0,3.417Zm0,0" transform="translate(-56.348 -180.752)"/>
    <path id="Path_192540" data-name="Path 192540" d="M69.665,277.4h34.1a1.708,1.708,0,1,0,0-3.417h-34.1a1.708,1.708,0,1,0,0,3.417Zm0,0" transform="translate(-56.348 -227.178)"/>
    <path id="Path_192541" data-name="Path 192541" d="M69.665,333.421h12.9a1.708,1.708,0,1,0,0-3.417h-12.9a1.708,1.708,0,1,0,0,3.417Zm0,0" transform="translate(-56.348 -273.628)"/>
    <path id="Path_192542" data-name="Path 192542" d="M272.079,217.992h-2.8a1.708,1.708,0,1,0,0,3.417h2.8a1.708,1.708,0,0,0,0-3.417Zm0,0" transform="translate(-221.861 -180.752)"/>
    <path id="Path_192543" data-name="Path 192543" d="M83.141,35.931a14.81,14.81,0,0,0-19.605-1.162V5.125A5.131,5.131,0,0,0,58.411,0H16.742l-.057,0-.059,0a1.648,1.648,0,0,0-.214.027h0A1.623,1.623,0,0,0,16.2.092l-.054.019A1.742,1.742,0,0,0,15.952.2L15.939.2a1.73,1.73,0,0,0-.188.118l-.045.034A1.641,1.641,0,0,0,15.534.5L.5,15.534a1.641,1.641,0,0,0-.148.172c-.012.015-.023.03-.034.046a1.76,1.76,0,0,0-.118.187l-.005.012a1.572,1.572,0,0,0-.084.192C.1,16.161.1,16.178.091,16.2a1.783,1.783,0,0,0-.059.212.008.008,0,0,1,0,0,1.9,1.9,0,0,0-.027.214c0,.019,0,.039,0,.058s0,.039,0,.057V31.261a1.708,1.708,0,0,0,3.417,0V18.45H13.56a4.9,4.9,0,0,0,4.89-4.889V3.417H58.412A1.711,1.711,0,0,1,60.12,5.125V38.034l-1.792,1.792a14.833,14.833,0,0,0-3.667,14.835,14.863,14.863,0,0,0-12.419,1.715h-7.2a1.708,1.708,0,1,0,0,3.417h3.319L35.93,62.224a14.8,14.8,0,0,0-3.613,14.994H5.125a1.71,1.71,0,0,1-1.708-1.708V46.636a1.708,1.708,0,1,0-3.417,0V75.509a5.131,5.131,0,0,0,5.125,5.125h28.8a14.8,14.8,0,0,0,22.928,2.508l3.9-3.9a14.834,14.834,0,0,0,3.667-14.834,14.831,14.831,0,0,0,14.835-3.668l3.9-3.9a14.807,14.807,0,0,0,0-20.918ZM15.033,13.561a1.475,1.475,0,0,1-1.473,1.473H5.832l9.2-9.2ZM70.167,48.9a5.153,5.153,0,0,0-4.951-1.337,4.583,4.583,0,0,1,.4-.457l3.9-3.9a4.489,4.489,0,0,1,6.348,6.349l-3.9,3.9a4.585,4.585,0,0,1-.452.394A5.156,5.156,0,0,0,70.167,48.9ZM65.3,51.321a1.735,1.735,0,0,1,2.453,2.453L53.774,67.752A1.735,1.735,0,0,1,51.321,65.3l1.148-1.148a1.716,1.716,0,0,0,.5-.5ZM48.9,70.167a5.118,5.118,0,0,0,3.643,1.509,5.185,5.185,0,0,0,1.305-.167,4.418,4.418,0,0,1-.394.452l-3.9,3.9a4.489,4.489,0,0,1-6.348-6.348l3.9-3.9a4.5,4.5,0,0,1,.452-.394A5.156,5.156,0,0,0,48.9,70.167Zm9.424,6.663-3.9,3.9A11.375,11.375,0,0,1,38.347,64.639l3.9-3.9a11.411,11.411,0,0,1,11.571-2.77l-2.932,2.933a7.881,7.881,0,0,0-6.186,2.29l-3.9,3.9a7.906,7.906,0,0,0,11.18,11.18l3.9-3.9a7.9,7.9,0,0,0,2.289-6.184L61.1,65.259a11.41,11.41,0,0,1-2.77,11.571Zm22.4-22.4-3.9,3.9A11.411,11.411,0,0,1,65.259,61.1l2.934-2.935c.2.015.4.025.6.025a7.892,7.892,0,0,0,5.586-2.314l3.9-3.9A7.906,7.906,0,0,0,67.092,40.8l-3.9,3.9a7.9,7.9,0,0,0-2.289,6.184l-2.934,2.934a11.41,11.41,0,0,1,2.77-11.571l3.9-3.9A11.375,11.375,0,0,1,80.725,54.433Zm0,0" transform="translate(0)"/>
    <path id="Path_192544" data-name="Path 192544" d="M1.708,221.409a1.708,1.708,0,1,1,1.208-2.916,1.708,1.708,0,0,1-1.208,2.916Zm0,0" transform="translate(0 -180.752)"/>
  </g>
</svg>
