<svg xmlns="http://www.w3.org/2000/svg" width="85.285" height="74.959" viewBox="0 0 85.285 74.959">
  <g id="offset" transform="translate(0 -30.995)">
    <g id="Group_128156" data-name="Group 128156" transform="translate(1.253 32.25)">
      <g id="Group_128155" data-name="Group 128155" transform="translate(0 0)">
        <g id="Group_128130" data-name="Group 128130" transform="translate(7.671 24.999)">
          <path id="Path_192637" data-name="Path 192637" d="M53.574,188.612h67.449v17.57H53.574Z" transform="translate(-53.574 -188.612)" fill="#a8c6e2"/>
        </g>
        <g id="Group_128131" data-name="Group 128131" transform="translate(7.671 24.999)">
          <path id="Path_192638" data-name="Path 192638" d="M57.324,202.451V188.612h-3.75v17.57h67.449v-3.731Z" transform="translate(-53.574 -188.612)" fill="#8bb2d8"/>
        </g>
        <g id="Group_128132" data-name="Group 128132" transform="translate(0 6.3)">
          <path id="Path_192639" data-name="Path 192639" d="M7.521,76.351h7.671v5H7.521Z" transform="translate(-7.521 -76.351)" fill="#57758d"/>
        </g>
        <g id="Group_128133" data-name="Group 128133" transform="translate(0 6.3)">
          <path id="Path_192640" data-name="Path 192640" d="M7.521,76.351h3.836v5H7.521Z" transform="translate(-7.521 -76.351)" fill="#4b6276"/>
        </g>
        <g id="Group_128134" data-name="Group 128134" transform="translate(75.12 6.3)">
          <path id="Path_192641" data-name="Path 192641" d="M458.495,76.351h7.671v5h-7.671Z" transform="translate(-458.495 -76.351)" fill="#57758d"/>
        </g>
        <g id="Group_128135" data-name="Group 128135" transform="translate(75.12 6.3)">
          <path id="Path_192642" data-name="Path 192642" d="M458.495,76.351h3.836v5h-3.836Z" transform="translate(-458.495 -76.351)" fill="#4b6276"/>
        </g>
        <g id="Group_128136" data-name="Group 128136" transform="translate(0 31.286)">
          <path id="Path_192643" data-name="Path 192643" d="M7.521,226.351h7.671v5H7.521Z" transform="translate(-7.521 -226.351)" fill="#57758d"/>
        </g>
        <g id="Group_128137" data-name="Group 128137" transform="translate(0 31.286)">
          <path id="Path_192644" data-name="Path 192644" d="M7.521,226.351h3.836v5H7.521Z" transform="translate(-7.521 -226.351)" fill="#4b6276"/>
        </g>
        <g id="Group_128138" data-name="Group 128138" transform="translate(75.12 31.286)">
          <path id="Path_192645" data-name="Path 192645" d="M458.495,226.351h7.671v5h-7.671Z" transform="translate(-458.495 -226.351)" fill="#57758d"/>
        </g>
        <g id="Group_128139" data-name="Group 128139" transform="translate(75.12 31.286)">
          <path id="Path_192646" data-name="Path 192646" d="M458.495,226.351h3.836v5h-3.836Z" transform="translate(-458.495 -226.351)" fill="#4b6276"/>
        </g>
        <g id="Group_128140" data-name="Group 128140" transform="translate(7.671 0)">
          <path id="Path_192647" data-name="Path 192647" d="M53.574,38.532h67.449V56.1H53.574Z" transform="translate(-53.574 -38.532)" fill="#a8c6e2"/>
        </g>
        <g id="Group_128141" data-name="Group 128141" transform="translate(15.155 17.602)">
          <path id="Path_192648" data-name="Path 192648" d="M98.5,144.2h52.47V199.1H98.5Z" transform="translate(-98.5 -144.202)" fill="#e3edf6"/>
        </g>
        <g id="Group_128142" data-name="Group 128142" transform="translate(15.155 17.602)">
          <path id="Path_192649" data-name="Path 192649" d="M102.2,195.4V144.2H98.5V199.1h52.47v-3.7Z" transform="translate(-98.5 -144.202)" fill="#c5d9ec"/>
        </g>
        <g id="Group_128143" data-name="Group 128143" transform="translate(7.671)">
          <path id="Path_192650" data-name="Path 192650" d="M57.324,52.371V38.532h-3.75V56.1h67.449V52.371Z" transform="translate(-53.574 -38.532)" fill="#8bb2d8"/>
        </g>
        <g id="Group_128144" data-name="Group 128144" transform="translate(49.165 37.611)">
          <path id="Path_192651" data-name="Path 192651" d="M304.48,277.4a6.162,6.162,0,0,1,0-8.714l4.357-4.357,4.357,4.357a6.162,6.162,0,0,1-8.714,8.714Z" transform="translate(-302.675 -264.327)" fill="#57758d"/>
        </g>
        <g id="Group_128145" data-name="Group 128145" transform="translate(49.165 39.627)">
          <path id="Path_192652" data-name="Path 192652" d="M309,286.08a9.852,9.852,0,0,0-2.162-9.639l-.013-.014-2.342,2.342a6.162,6.162,0,1,0,9.839,7.171A6.176,6.176,0,0,1,309,286.08Z" transform="translate(-302.675 -276.426)" fill="#4b6276"/>
        </g>
        <g id="Group_128146" data-name="Group 128146" transform="translate(39.94 37.611)">
          <path id="Path_192653" data-name="Path 192653" d="M249.1,277.4a6.162,6.162,0,0,1,0-8.714l4.357-4.357,4.357,4.357A6.162,6.162,0,1,1,249.1,277.4Z" transform="translate(-247.294 -264.327)" fill="#feef8f"/>
        </g>
        <g id="Group_128147" data-name="Group 128147" transform="translate(40.011 39.627)">
          <path id="Path_192654" data-name="Path 192654" d="M254.04,286.08a9.852,9.852,0,0,0-2.162-9.639l-.013-.014-2.342,2.342a6.162,6.162,0,1,0,9.839,7.171A6.176,6.176,0,0,1,254.04,286.08Z" transform="translate(-247.72 -276.426)" fill="#fee95d"/>
        </g>
        <g id="Group_128148" data-name="Group 128148" transform="translate(30.697 37.611)">
          <path id="Path_192655" data-name="Path 192655" d="M193.613,277.4a6.162,6.162,0,0,1,0-8.714l4.357-4.357,4.357,4.357a6.162,6.162,0,1,1-8.714,8.714Z" transform="translate(-191.809 -264.327)" fill="#f696c3"/>
        </g>
        <g id="Group_128149" data-name="Group 128149" transform="translate(30.697 39.627)">
          <path id="Path_192656" data-name="Path 192656" d="M198.129,286.08a9.852,9.852,0,0,0-2.162-9.639l-.013-.014-2.342,2.342a6.162,6.162,0,1,0,9.839,7.171A6.176,6.176,0,0,1,198.129,286.08Z" transform="translate(-191.808 -276.426)" fill="#f072ae"/>
        </g>
        <g id="Group_128150" data-name="Group 128150" transform="translate(21.455 37.611)">
          <path id="Path_192657" data-name="Path 192657" d="M138.126,277.4a6.162,6.162,0,0,1,0-8.714l4.357-4.357,4.357,4.357a6.162,6.162,0,0,1-8.714,8.714Z" transform="translate(-136.322 -264.327)" fill="#54c9f3"/>
        </g>
        <g id="Group_128151" data-name="Group 128151" transform="translate(21.455 39.342)">
          <path id="Path_192658" data-name="Path 192658" d="M140.752,283.432a6.162,6.162,0,0,1,0-8.714l-2.626,2.626a6.162,6.162,0,1,0,9.825,7.2A6.164,6.164,0,0,1,140.752,283.432Z" transform="translate(-136.321 -274.718)" fill="#2ec2f1"/>
        </g>
        <g id="Group_128152" data-name="Group 128152" transform="translate(11.423 3.743)">
          <path id="Path_192659" data-name="Path 192659" d="M76.1,61h2.5v2.5H76.1Z" transform="translate(-76.096 -61)" fill="#fff"/>
        </g>
        <g id="Group_128153" data-name="Group 128153" transform="translate(16.42 3.743)">
          <path id="Path_192660" data-name="Path 192660" d="M106.1,61h2.5v2.5h-2.5Z" transform="translate(-106.096 -61)" fill="#fff"/>
        </g>
        <g id="Group_128154" data-name="Group 128154" transform="translate(25.149 44.969)">
          <path id="Path_192661" data-name="Path 192661" d="M158.5,308.5H161V311h-2.5Z" transform="translate(-158.5 -308.5)" fill="#fff"/>
        </g>
      </g>
    </g>
    <g id="Group_128157" data-name="Group 128157" transform="translate(0 30.995)">
      <path id="Path_192662" data-name="Path 192662" d="M77.614,51.063V44.79h7.671v-7.5H77.614v-6.3H57.628v2.5H75.116v15.07H10.169V33.494h44.96v-2.5H7.671v6.3H0v7.5H7.671v6.273h7.49v4.97H7.671v6.294H0v7.5H7.671v6.2h7.49v29.934H55.129v-2.5H17.659V51.063H67.629v52.393h-5v2.5h7.5V76.021h7.487v-6.2h7.671v-7.5H77.614V56.033H70.127v-4.97Zm5.172-11.27v2.5H77.614v-2.5ZM2.5,42.291v-2.5H7.671v2.5Zm0,25.033v-2.5H7.671v2.5Zm7.671,6.2V58.531h4.992V73.522Zm72.618-8.7v2.5H77.614v-2.5Zm-7.671-6.294V73.522H70.127V58.531Z" transform="translate(0 -30.995)"/>
      <path id="Path_192663" data-name="Path 192663" d="M345.961,466.005h2.5v2.5h-2.5Z" transform="translate(-288.333 -393.544)"/>
      <path id="Path_192664" data-name="Path 192664" d="M169.189,258.912l-5.24-5.24-4.621,4.621-4.621-4.621-4.621,4.621-4.621-4.621-3.008,3.008,1.767,1.767,1.242-1.242,3.473,3.473a4.912,4.912,0,0,1-6.43,7.4,7.422,7.422,0,0,0-1.046-9.162l-5.24-5.24-5.24,5.24a7.41,7.41,0,0,0,9.861,11.032,7.418,7.418,0,0,0,9.242,0,7.418,7.418,0,0,0,9.242,0,7.41,7.41,0,0,0,9.861-11.032Zm-36.44,8.713a4.918,4.918,0,0,1,0-6.947l3.473-3.473,3.473,3.473a4.912,4.912,0,1,1-6.947,6.947Zm19,.449a7.432,7.432,0,0,0-.026-7.886l2.982-2.982,3.473,3.473a4.912,4.912,0,0,1-6.429,7.4Zm15.671-.449a4.919,4.919,0,0,1-6.43.449,7.432,7.432,0,0,0-.026-7.886l2.982-2.982,3.473,3.473A4.918,4.918,0,0,1,167.423,267.626Z" transform="translate(-107.359 -216.58)"/>
    </g>
  </g>
</svg>
