<svg xmlns="http://www.w3.org/2000/svg" width="412.985" height="335.039" viewBox="0 0 412.985 335.039">
  <g id="Group_128316" data-name="Group 128316" transform="translate(-250.778 -12544.568)">
    <g id="Group_128177" data-name="Group 128177" transform="translate(-112.521 99.568)">
      <rect id="Rectangle_41377" data-name="Rectangle 41377" width="274.451" height="274.451" transform="translate(478.605 12467.871)" fill="#26ccda"/>
      <g id="Rectangle_41378" data-name="Rectangle 41378" transform="translate(495.646 12484.912)" fill="#fff" stroke="#9b5003" stroke-width="2" stroke-dasharray="5 4">
        <rect width="240.369" height="240.369" stroke="none"/>
        <rect x="1" y="1" width="238.369" height="238.369" fill="none"/>
      </g>
      <g id="Group_128171" data-name="Group 128171" transform="translate(455.285 12485.36)">
        <line id="Line_474" data-name="Line 474" x2="30" transform="translate(0 -0.279)" fill="none" stroke="#000" stroke-width="3"/>
        <line id="Line_476" data-name="Line 476" x2="30" transform="translate(291 -0.279)" fill="none" stroke="#000" stroke-width="3"/>
        <line id="Line_475" data-name="Line 475" x2="30" transform="translate(0 240.721)" fill="none" stroke="#000" stroke-width="3"/>
        <line id="Line_477" data-name="Line 477" x2="30" transform="translate(291 240.721)" fill="none" stroke="#000" stroke-width="3"/>
      </g>
      <g id="Group_128172" data-name="Group 128172" transform="translate(736.014 12445) rotate(90)">
        <line id="Line_474-2" data-name="Line 474" x2="30.495" transform="translate(0 0)" fill="none" stroke="#000" stroke-width="3"/>
        <line id="Line_476-2" data-name="Line 476" x2="30.495" transform="translate(290.595 0)" fill="none" stroke="#000" stroke-width="3"/>
        <line id="Line_475-2" data-name="Line 475" x2="30.495" transform="translate(0 240.369)" fill="none" stroke="#000" stroke-width="3"/>
        <line id="Line_477-2" data-name="Line 477" x2="30.495" transform="translate(290.595 240.369)" fill="none" stroke="#000" stroke-width="3"/>
      </g>
      <path id="Path_193427" data-name="Path 193427" d="M30.9,15.6a1.268,1.268,0,0,0-.479-1.055,5.954,5.954,0,0,0-1.683-.782,16.147,16.147,0,0,1-1.969-.782Q24.28,11.758,24.28,9.622a3.011,3.011,0,0,1,.62-1.876A4.008,4.008,0,0,1,26.653,6.48,6.823,6.823,0,0,1,29.2,6.027a5.969,5.969,0,0,1,2.474.492,3.917,3.917,0,0,1,1.7,1.4A3.661,3.661,0,0,1,33.983,10H30.907a1.547,1.547,0,0,0-.479-1.213,1.867,1.867,0,0,0-1.3-.431,2.106,2.106,0,0,0-1.305.365,1.074,1.074,0,0,0,.048,1.819,6.65,6.65,0,0,0,1.854.826,11.36,11.36,0,0,1,2.18.918,3.663,3.663,0,0,1,2.074,3.3,3.125,3.125,0,0,1-1.266,2.637,5.629,5.629,0,0,1-3.472.958,6.888,6.888,0,0,1-2.817-.558,4.247,4.247,0,0,1-1.9-1.529,3.985,3.985,0,0,1-.637-2.237h3.094a1.963,1.963,0,0,0,.532,1.516,2.513,2.513,0,0,0,1.727.488,1.985,1.985,0,0,0,1.208-.33A1.088,1.088,0,0,0,30.9,15.6ZM40.786,19a3.344,3.344,0,0,1-.281-.853,2.754,2.754,0,0,1-2.285,1.028,3.374,3.374,0,0,1-2.285-.813,2.588,2.588,0,0,1-.94-2.043,2.66,2.66,0,0,1,1.143-2.338,5.821,5.821,0,0,1,3.322-.791h.914v-.5q0-1.31-1.134-1.31a.925.925,0,0,0-1.055,1.037H35.223A2.659,2.659,0,0,1,36.4,10.176a4.927,4.927,0,0,1,2.993-.861,4.323,4.323,0,0,1,2.874.888,3.086,3.086,0,0,1,1.081,2.435v4.21a4.311,4.311,0,0,0,.4,2V19Zm-1.854-1.934a1.652,1.652,0,0,0,.918-.237,1.487,1.487,0,0,0,.523-.536V14.772h-.861q-1.547,0-1.547,1.389a.848.848,0,0,0,.272.655A.986.986,0,0,0,38.932,17.066ZM47.7,9.49l.1,1.116a3.225,3.225,0,0,1,2.716-1.292,2.713,2.713,0,0,1,2.219.888,4.226,4.226,0,0,1,.76,2.672V19H50.524V13a1.6,1.6,0,0,0-.29-1.059A1.342,1.342,0,0,0,49.18,11.6a1.413,1.413,0,0,0-1.292.686V19H44.926V9.49Zm7.084,4.685a6.421,6.421,0,0,1,.475-2.549,3.821,3.821,0,0,1,1.362-1.709,3.591,3.591,0,0,1,2.065-.6,2.855,2.855,0,0,1,2.32,1l.105-.826H63.8V18.64a4.009,4.009,0,0,1-.584,2.184,3.75,3.75,0,0,1-1.692,1.424,6.219,6.219,0,0,1-2.566.5,5.365,5.365,0,0,1-2.026-.4,3.657,3.657,0,0,1-1.5-1.028l1.239-1.74a2.716,2.716,0,0,0,2.18.976,1.764,1.764,0,0,0,1.969-2.021v-.3a2.781,2.781,0,0,1-2.153.94,3.437,3.437,0,0,1-2.812-1.332,5.517,5.517,0,0,1-1.072-3.564Zm2.971.185a3.383,3.383,0,0,0,.439,1.85,1.387,1.387,0,0,0,1.23.681,1.573,1.573,0,0,0,1.4-.642v-4a1.534,1.534,0,0,0-1.38-.65,1.4,1.4,0,0,0-1.239.708A3.858,3.858,0,0,0,57.758,14.359ZM71.24,12.171l-.976-.07a1.752,1.752,0,0,0-1.793.879V19H65.51V9.49h2.777l.1,1.222a2.294,2.294,0,0,1,2.083-1.4,2.888,2.888,0,0,1,.826.105ZM77.4,19a3.344,3.344,0,0,1-.281-.853,2.754,2.754,0,0,1-2.285,1.028,3.374,3.374,0,0,1-2.285-.813,2.588,2.588,0,0,1-.94-2.043,2.66,2.66,0,0,1,1.143-2.338,5.821,5.821,0,0,1,3.322-.791h.914v-.5q0-1.31-1.134-1.31A.925.925,0,0,0,74.8,12.417H71.838a2.659,2.659,0,0,1,1.173-2.241A4.927,4.927,0,0,1,76,9.314a4.323,4.323,0,0,1,2.874.888,3.086,3.086,0,0,1,1.081,2.435v4.21a4.311,4.311,0,0,0,.4,2V19Zm-1.854-1.934a1.652,1.652,0,0,0,.918-.237,1.487,1.487,0,0,0,.523-.536V14.772h-.861q-1.547,0-1.547,1.389a.848.848,0,0,0,.272.655A.986.986,0,0,0,75.547,17.066Zm5.678-2.892a5.809,5.809,0,0,1,.976-3.56,3.211,3.211,0,0,1,2.725-1.3,2.731,2.731,0,0,1,2.145,1V5.5H90.04V19H87.377l-.149-1.02a2.8,2.8,0,0,1-2.32,1.2,3.205,3.205,0,0,1-2.689-1.3A5.993,5.993,0,0,1,81.225,14.175Zm2.962.185q0,2.531,1.477,2.531a1.458,1.458,0,0,0,1.406-.826V12.443a1.419,1.419,0,0,0-1.389-.844q-1.371,0-1.485,2.215Zm7.163-.2a5.613,5.613,0,0,1,.554-2.536,3.96,3.96,0,0,1,1.591-1.709,4.791,4.791,0,0,1,2.435-.6,4.373,4.373,0,0,1,3.366,1.323,5.076,5.076,0,0,1,1.23,3.6v.105a4.925,4.925,0,0,1-1.235,3.529,4.384,4.384,0,0,1-3.344,1.305,4.434,4.434,0,0,1-3.261-1.217,4.761,4.761,0,0,1-1.327-3.3Zm2.962.185a3.538,3.538,0,0,0,.413,1.934,1.376,1.376,0,0,0,1.222.615q1.582,0,1.617-2.435v-.3q0-2.558-1.635-2.558-1.485,0-1.608,2.206Z" transform="translate(339.406 12589)" fill="#26ccda"/>
      <path id="Path_193428" data-name="Path 193428" d="M43.563,6.2l2.856,8.9,2.848-8.9h4.061V19H50.234V16.012l.3-6.117L47.439,19H45.4L42.3,9.886l.3,6.126V19H39.512V6.2ZM60.509,19a3.344,3.344,0,0,1-.281-.853,2.754,2.754,0,0,1-2.285,1.028,3.374,3.374,0,0,1-2.285-.813,2.588,2.588,0,0,1-.94-2.043,2.66,2.66,0,0,1,1.143-2.338,5.821,5.821,0,0,1,3.322-.791H60.1v-.5q0-1.31-1.134-1.31a.925.925,0,0,0-1.055,1.037H54.945a2.659,2.659,0,0,1,1.173-2.241,4.927,4.927,0,0,1,2.993-.861,4.323,4.323,0,0,1,2.874.888,3.086,3.086,0,0,1,1.081,2.435v4.21a4.311,4.311,0,0,0,.4,2V19Zm-1.854-1.934a1.652,1.652,0,0,0,.918-.237,1.487,1.487,0,0,0,.523-.536V14.772h-.861q-1.547,0-1.547,1.389a.848.848,0,0,0,.272.655A.986.986,0,0,0,58.654,17.066ZM59.393,5.5h3.129L60.078,8.26H57.661Zm11.065,6.671-.976-.07a1.752,1.752,0,0,0-1.793.879V19H64.728V9.49H67.5l.1,1.222a2.294,2.294,0,0,1,2.083-1.4,2.888,2.888,0,0,1,.826.105Zm.721,2a6.421,6.421,0,0,1,.475-2.549,3.821,3.821,0,0,1,1.362-1.709,3.591,3.591,0,0,1,2.065-.6,2.855,2.855,0,0,1,2.32,1l.105-.826H80.2V18.64a4.009,4.009,0,0,1-.584,2.184,3.75,3.75,0,0,1-1.692,1.424,6.219,6.219,0,0,1-2.566.5,5.365,5.365,0,0,1-2.026-.4,3.657,3.657,0,0,1-1.5-1.028l1.239-1.74a2.716,2.716,0,0,0,2.18.976,1.764,1.764,0,0,0,1.969-2.021v-.3a2.781,2.781,0,0,1-2.153.94,3.437,3.437,0,0,1-2.812-1.332,5.517,5.517,0,0,1-1.072-3.564Zm2.971.185a3.383,3.383,0,0,0,.439,1.85,1.387,1.387,0,0,0,1.23.681,1.573,1.573,0,0,0,1.4-.642v-4a1.534,1.534,0,0,0-1.38-.65,1.4,1.4,0,0,0-1.239.708A3.858,3.858,0,0,0,74.149,14.359ZM86.48,19.176a4.889,4.889,0,0,1-3.542-1.305,4.507,4.507,0,0,1-1.354-3.4v-.246a5.84,5.84,0,0,1,.541-2.575A3.955,3.955,0,0,1,83.7,9.925a4.763,4.763,0,0,1,2.461-.611,4.117,4.117,0,0,1,3.164,1.244,4.887,4.887,0,0,1,1.16,3.467v1.151H84.6a2.135,2.135,0,0,0,.694,1.257,2.066,2.066,0,0,0,1.389.457,2.662,2.662,0,0,0,2.2-.984l1.354,1.6a3.784,3.784,0,0,1-1.569,1.217A5.3,5.3,0,0,1,86.48,19.176ZM86.146,11.6q-1.3,0-1.547,1.723h2.988v-.229a1.467,1.467,0,0,0-.36-1.1A1.434,1.434,0,0,0,86.146,11.6ZM94.4,9.49l.1,1.116a3.225,3.225,0,0,1,2.716-1.292,2.713,2.713,0,0,1,2.219.888,4.226,4.226,0,0,1,.76,2.672V19H97.221V13a1.6,1.6,0,0,0-.29-1.059,1.342,1.342,0,0,0-1.055-.338,1.413,1.413,0,0,0-1.292.686V19H91.622V9.49Z" transform="translate(350.406 12637.082)" fill="#f57c00"/>
      <path id="Path_193429" data-name="Path 193429" d="M11.071,16.627h5.37V19H7.986V6.2h3.085ZM20.836,19H17.856V9.49h2.979ZM19.729,5.676h3.129l-2.443,2.76H18Zm5.73,3.814.1,1.116a3.225,3.225,0,0,1,2.716-1.292,2.713,2.713,0,0,1,2.219.888,4.226,4.226,0,0,1,.76,2.672V19H28.28V13a1.6,1.6,0,0,0-.29-1.059,1.342,1.342,0,0,0-1.055-.338,1.413,1.413,0,0,0-1.292.686V19H22.682V9.49Zm12.032,9.686a4.889,4.889,0,0,1-3.542-1.305,4.507,4.507,0,0,1-1.354-3.4v-.246a5.84,5.84,0,0,1,.541-2.575,3.955,3.955,0,0,1,1.578-1.727,4.763,4.763,0,0,1,2.461-.611,4.117,4.117,0,0,1,3.164,1.244,4.887,4.887,0,0,1,1.16,3.467v1.151H35.61a2.135,2.135,0,0,0,.694,1.257,2.066,2.066,0,0,0,1.389.457,2.662,2.662,0,0,0,2.2-.984l1.354,1.6a3.784,3.784,0,0,1-1.569,1.217A5.3,5.3,0,0,1,37.491,19.176ZM37.157,11.6q-1.3,0-1.547,1.723H38.6v-.229a1.467,1.467,0,0,0-.36-1.1A1.434,1.434,0,0,0,37.157,11.6ZM48.047,19a3.344,3.344,0,0,1-.281-.853,2.754,2.754,0,0,1-2.285,1.028,3.374,3.374,0,0,1-2.285-.813,2.588,2.588,0,0,1-.94-2.043A2.66,2.66,0,0,1,43.4,13.981a5.821,5.821,0,0,1,3.322-.791h.914v-.5q0-1.31-1.134-1.31a.925.925,0,0,0-1.055,1.037H42.483a2.659,2.659,0,0,1,1.173-2.241,4.927,4.927,0,0,1,2.993-.861,4.323,4.323,0,0,1,2.874.888A3.086,3.086,0,0,1,50.6,12.637v4.21a4.311,4.311,0,0,0,.4,2V19Zm-1.854-1.934a1.652,1.652,0,0,0,.918-.237,1.487,1.487,0,0,0,.523-.536V14.772h-.861q-1.547,0-1.547,1.389a.848.848,0,0,0,.272.655A.986.986,0,0,0,46.192,17.066Zm10.16-2.892a5.809,5.809,0,0,1,.976-3.56,3.211,3.211,0,0,1,2.725-1.3,2.731,2.731,0,0,1,2.145,1V5.5h2.971V19H62.5l-.149-1.02a2.8,2.8,0,0,1-2.32,1.2,3.205,3.205,0,0,1-2.689-1.3A5.993,5.993,0,0,1,56.353,14.175Zm2.962.185q0,2.531,1.477,2.531a1.458,1.458,0,0,0,1.406-.826V12.443a1.419,1.419,0,0,0-1.389-.844q-1.371,0-1.485,2.215Zm12.138,4.816a4.889,4.889,0,0,1-3.542-1.305,4.507,4.507,0,0,1-1.354-3.4v-.246a5.84,5.84,0,0,1,.541-2.575,3.955,3.955,0,0,1,1.578-1.727,4.763,4.763,0,0,1,2.461-.611A4.117,4.117,0,0,1,74.3,10.558a4.887,4.887,0,0,1,1.16,3.467v1.151H69.571a2.135,2.135,0,0,0,.694,1.257,2.066,2.066,0,0,0,1.389.457,2.662,2.662,0,0,0,2.2-.984l1.354,1.6a3.784,3.784,0,0,1-1.569,1.217A5.3,5.3,0,0,1,71.452,19.176ZM71.118,11.6q-1.3,0-1.547,1.723H72.56v-.229a1.467,1.467,0,0,0-.36-1.1A1.434,1.434,0,0,0,71.118,11.6Zm14.036,5.291a1.317,1.317,0,0,0,.967-.338,1.241,1.241,0,0,0,.334-.945h2.777a3.288,3.288,0,0,1-1.121,2.566,4.168,4.168,0,0,1-2.887,1,4.22,4.22,0,0,1-3.27-1.3,5.125,5.125,0,0,1-1.2-3.6v-.123a5.792,5.792,0,0,1,.532-2.544,3.872,3.872,0,0,1,1.534-1.7A4.573,4.573,0,0,1,85.2,9.314a4.116,4.116,0,0,1,2.944,1.028,3.647,3.647,0,0,1,1.09,2.786H86.455A1.626,1.626,0,0,0,86.095,12a1.244,1.244,0,0,0-.967-.4q-1.151,0-1.345,1.468a10.357,10.357,0,0,0-.062,1.283,4.068,4.068,0,0,0,.343,1.986A1.187,1.187,0,0,0,85.154,16.891Zm4.957-2.733a5.613,5.613,0,0,1,.554-2.536,3.96,3.96,0,0,1,1.591-1.709,4.791,4.791,0,0,1,2.435-.6,4.373,4.373,0,0,1,3.366,1.323,5.076,5.076,0,0,1,1.23,3.6v.105a4.925,4.925,0,0,1-1.235,3.529,4.384,4.384,0,0,1-3.344,1.305,4.434,4.434,0,0,1-3.261-1.217,4.761,4.761,0,0,1-1.327-3.3Zm2.962.185a3.538,3.538,0,0,0,.413,1.934,1.376,1.376,0,0,0,1.222.615q1.582,0,1.617-2.435v-.3q0-2.558-1.635-2.558-1.485,0-1.608,2.206Zm13.271-2.171-.976-.07a1.752,1.752,0,0,0-1.793.879V19h-2.962V9.49h2.777l.1,1.222a2.294,2.294,0,0,1,2.083-1.4,2.888,2.888,0,0,1,.826.105ZM111.3,7.126V9.49h1.564v2.057H111.3V15.9a1.111,1.111,0,0,0,.193.747,1.037,1.037,0,0,0,.765.211A4.345,4.345,0,0,0,113,16.8v2.118a5.466,5.466,0,0,1-1.67.255,3.1,3.1,0,0,1-2.259-.721,2.954,2.954,0,0,1-.729-2.188v-4.72h-1.213V9.49h1.213V7.126Zm7.33,12.05a4.889,4.889,0,0,1-3.542-1.305,4.507,4.507,0,0,1-1.354-3.4v-.246a5.84,5.84,0,0,1,.541-2.575,3.955,3.955,0,0,1,1.578-1.727,4.763,4.763,0,0,1,2.461-.611,4.117,4.117,0,0,1,3.164,1.244,4.887,4.887,0,0,1,1.16,3.467v1.151h-5.889a2.135,2.135,0,0,0,.694,1.257,2.066,2.066,0,0,0,1.389.457,2.662,2.662,0,0,0,2.2-.984l1.354,1.6a3.784,3.784,0,0,1-1.569,1.217A5.3,5.3,0,0,1,118.632,19.176ZM118.3,11.6q-1.3,0-1.547,1.723h2.988v-.229a1.467,1.467,0,0,0-.36-1.1A1.434,1.434,0,0,0,118.3,11.6Z" transform="translate(554.285 12760.863)" fill="#9b5003"/>
      <line id="Line_478" data-name="Line 478" y2="293" transform="translate(515.785 12461.5)" fill="none" stroke="#f57c00" stroke-width="2" stroke-dasharray="5 3"/>
      <line id="Line_479" data-name="Line 479" y2="293" transform="translate(760.285 12705) rotate(90)" fill="none" stroke="#f57c00" stroke-width="2" stroke-dasharray="5 3"/>
      <g id="Union_18" data-name="Union 18" transform="translate(-18331.879 -5432)" fill="#fff">
        <path d="M 18795.533203125 18044.318359375 L 18795.533203125 18036.998046875 L 18795.533203125 18036.248046875 L 18794.783203125 18036.248046875 L 18776.037109375 18036.248046875 L 18776.037109375 18028.751953125 L 18794.783203125 18028.751953125 L 18795.533203125 18028.751953125 L 18795.533203125 18028.001953125 L 18795.533203125 18020.681640625 L 18808.6640625 18032.5 L 18795.533203125 18044.318359375 Z" stroke="none"/>
        <path d="M 18796.283203125 18042.634765625 L 18807.54296875 18032.5 L 18796.283203125 18022.365234375 L 18796.283203125 18029.501953125 L 18776.787109375 18029.501953125 L 18776.787109375 18035.498046875 L 18796.283203125 18035.498046875 L 18796.283203125 18042.634765625 M 18794.783203125 18046.001953125 L 18794.783203125 18036.998046875 L 18775.287109375 18036.998046875 L 18775.287109375 18028.001953125 L 18794.783203125 18028.001953125 L 18794.783203125 18018.998046875 L 18809.78515625 18032.5 L 18794.783203125 18046.001953125 Z" stroke="none" fill="#26ccda"/>
      </g>
      <g id="Union_16" data-name="Union 16" transform="translate(-18173 -5293.928)" fill="#fff">
        <path d="M 18792.537109375 18052.75 L 18785.033203125 18052.75 L 18785.033203125 18034.001953125 L 18785.033203125 18033.251953125 L 18784.283203125 18033.251953125 L 18776.96875 18033.251953125 L 18788.78515625 18020.12109375 L 18800.6015625 18033.251953125 L 18793.287109375 18033.251953125 L 18792.537109375 18033.251953125 L 18792.537109375 18034.001953125 L 18792.537109375 18052.75 Z" stroke="none"/>
        <path d="M 18791.787109375 18052 L 18791.787109375 18032.501953125 L 18798.91796875 18032.501953125 L 18788.78515625 18021.2421875 L 18778.65234375 18032.501953125 L 18785.783203125 18032.501953125 L 18785.783203125 18052 L 18791.787109375 18052 M 18793.287109375 18053.5 L 18784.283203125 18053.5 L 18784.283203125 18034.001953125 L 18775.28515625 18034.001953125 L 18788.78515625 18019 L 18802.28515625 18034.001953125 L 18793.287109375 18034.001953125 L 18793.287109375 18053.5 Z" stroke="none" fill="#9b5003"/>
      </g>
      <g id="Union_17" data-name="Union 17" transform="translate(-18319.879 -5383)" fill="#fff">
        <path d="M 18821.416015625 18044.318359375 L 18821.416015625 18037.001953125 L 18821.416015625 18036.251953125 L 18820.666015625 18036.251953125 L 18776.03515625 18036.251953125 L 18776.03515625 18028.751953125 L 18820.666015625 18028.751953125 L 18821.416015625 18028.751953125 L 18821.416015625 18028.001953125 L 18821.416015625 18020.68359375 L 18834.54296875 18032.501953125 L 18821.416015625 18044.318359375 Z" stroke="none"/>
        <path d="M 18822.166015625 18042.6328125 L 18833.421875 18032.501953125 L 18822.166015625 18022.369140625 L 18822.166015625 18029.501953125 L 18776.78515625 18029.501953125 L 18776.78515625 18035.501953125 L 18822.166015625 18035.501953125 L 18822.166015625 18042.6328125 M 18820.666015625 18046.001953125 L 18820.666015625 18037.001953125 L 18775.28515625 18037.001953125 L 18775.28515625 18028.001953125 L 18820.666015625 18028.001953125 L 18820.666015625 18019 L 18835.6640625 18032.501953125 L 18820.666015625 18046.001953125 Z" stroke="none" fill="#f57c00"/>
      </g>
    </g>
  </g>
</svg>
