<svg xmlns="http://www.w3.org/2000/svg" xmlns:xlink="http://www.w3.org/1999/xlink" width="103" height="103" viewBox="0 0 103 103">
  <defs>
    <filter id="Ellipse_4281" x="0" y="0" width="103" height="103" filterUnits="userSpaceOnUse">
      <feOffset dy="3" input="SourceAlpha"/>
      <feGaussianBlur stdDeviation="3" result="blur"/>
      <feFlood flood-opacity="0.161"/>
      <feComposite operator="in" in2="blur"/>
      <feComposite in="SourceGraphic"/>
    </filter>
  </defs>
  <g id="Group_128164" data-name="Group 128164" transform="translate(-170.285 -10934)">
    <g transform="matrix(1, 0, 0, 1, 170.29, 10934)" filter="url(#Ellipse_4281)">
      <g id="Ellipse_4281-2" data-name="Ellipse 4281" transform="translate(9 6)" fill="#fff" stroke="#fdd835" stroke-width="2">
        <circle cx="42.5" cy="42.5" r="42.5" stroke="none"/>
        <circle cx="42.5" cy="42.5" r="41.5" fill="none"/>
      </g>
    </g>
    <g id="cmyk" transform="translate(198.285 10958.512)">
      <path id="Path_192665" data-name="Path 192665" d="M149.04,37.725c12.5,0,16.669-14.125,0-29.736C132.372,23.6,136.542,37.725,149.04,37.725Zm0,0" transform="translate(-125.181 -6.802)" fill="#4e555c"/>
      <path id="Path_192666" data-name="Path 192666" d="M152.768,34.929c-11.616,0-16.039-12.2-3.221-26.459q-.251-.241-.507-.482c-16.668,15.612-12.5,29.736,0,29.736,3.919,0,7.018-1.389,8.914-3.776a13.18,13.18,0,0,1-5.186.98Zm0,0" transform="translate(-125.181 -6.802)" fill="#43494f"/>
      <path id="Path_192667" data-name="Path 192667" d="M18.481,111.065c12.5,0,16.669-14.124,0-29.736C1.813,96.94,5.983,111.065,18.481,111.065Zm0,0" transform="translate(-6.79 -73.307)" fill="#7f9cdc"/>
      <path id="Path_192668" data-name="Path 192668" d="M21.277,108.269c-11.745,0-16.135-12.474-2.789-26.933l-.008-.007c-16.668,15.612-12.5,29.736,0,29.736,4.329,0,7.658-1.695,9.469-4.558a12.27,12.27,0,0,1-6.673,1.762Zm0,0" transform="translate(-6.79 -73.307)" fill="#6686cc"/>
      <path id="Path_192669" data-name="Path 192669" d="M279.6,111.065c-12.5,0-16.668-14.124,0-29.736C296.268,96.94,292.1,111.065,279.6,111.065Zm0,0" transform="translate(-243.573 -73.307)" fill="#f1cf79"/>
      <path id="Path_192670" data-name="Path 192670" d="M282.4,108.269c-11.745,0-16.135-12.474-2.789-26.933l-.008-.007c-16.668,15.612-12.5,29.736,0,29.736,4.329,0,7.658-1.695,9.469-4.558a12.267,12.267,0,0,1-6.673,1.762Zm0,0" transform="translate(-243.573 -73.307)" fill="#d4b25f"/>
      <path id="Path_192671" data-name="Path 192671" d="M149.04,203.287c12.5,0,16.669-14.125,0-29.736C132.372,189.163,136.542,203.287,149.04,203.287Zm0,0" transform="translate(-125.181 -156.934)" fill="#ee8688"/>
      <path id="Path_192672" data-name="Path 192672" d="M151.836,200.491c-11.745,0-16.135-12.473-2.789-26.933l-.008-.007c-16.668,15.612-12.5,29.736,0,29.736,4.329,0,7.658-1.7,9.469-4.559a12.267,12.267,0,0,1-6.673,1.762Zm0,0" transform="translate(-125.181 -156.934)" fill="#cf5564"/>
      <path id="Path_192676" data-name="Path 192676" d="M11.69,38.457q.338,0,.677-.014a10.988,10.988,0,0,0,.585,2.057,9.791,9.791,0,0,0,4.081,4.819,13.011,13.011,0,0,0,6.825,1.733,13.011,13.011,0,0,0,6.825-1.733A9.789,9.789,0,0,0,34.764,40.5a11.017,11.017,0,0,0,.585-2.057q.338.014.676.014A13.412,13.412,0,0,0,42.2,37.086a.7.7,0,1,0-.638-1.244,12.036,12.036,0,0,1-5.537,1.217q-.251,0-.5-.009a16.388,16.388,0,0,0-.837-6.072,26.85,26.85,0,0,0-2.98-6.21,40.176,40.176,0,0,0-3.891-5.1c.007-.015.2-.391.286-.563a35.7,35.7,0,0,1,4.766-6.818c.005-.006.009-.013.014-.019q1.437-1.644,3.145-3.28C44.887,17.47,46.284,24.16,46.319,27.423a9.219,9.219,0,0,1-2.62,6.893.7.7,0,0,0,.977,1,10.577,10.577,0,0,0,3.041-7.907c-.065-6.119-4.047-13.185-11.213-19.9a.7.7,0,0,0-.956,0q-1.653,1.549-3.074,3.11A43.666,43.666,0,0,0,24.336.677a.7.7,0,0,0-.956,0,43.666,43.666,0,0,0-8.138,9.945q-1.421-1.561-3.074-3.11a.7.7,0,0,0-.956,0,52.847,52.847,0,0,0-4.149,4.334.7.7,0,0,0,1.066.9A50.715,50.715,0,0,1,11.69,8.985q1.708,1.635,3.145,3.281l.013.019A35.7,35.7,0,0,1,19.615,19.1l.287.564a32.006,32.006,0,0,0-6.873,11.317,16.4,16.4,0,0,0-.836,6.069c-.167.005-.336.008-.5.008-4.314,0-7.7-1.8-9.28-4.942A11.356,11.356,0,0,1,1.7,24.711a25.294,25.294,0,0,1,4.713-9.793.7.7,0,0,0-1.124-.831A26.658,26.658,0,0,0,.326,24.433a12.732,12.732,0,0,0,.836,8.314c1.831,3.629,5.669,5.71,10.529,5.71Zm12.168,7.2c-4.681,0-8.182-2.066-9.606-5.668-1.533-3.878-.341-8.267,1.449-11.837a39.384,39.384,0,0,1,7.739-10.165c.008-.008.285-.277.417-.4.133.127.408.4.415.4a39.382,39.382,0,0,1,7.74,10.165C33.8,31.718,35,36.107,33.464,39.986c-1.423,3.6-4.924,5.668-9.606,5.668Zm0-43.5a40.971,40.971,0,0,1,7.637,9.581,36.8,36.8,0,0,0-4.457,6.392l-.233.439q-.848-.9-1.776-1.8-.344-.333-.693-.661a.709.709,0,0,0-.956,0c-.232.218-.467.435-.692.66q-.927.9-1.776,1.8l-.233-.441a36.831,36.831,0,0,0-4.457-6.391A40.988,40.988,0,0,1,23.858,2.15Zm0,0" transform="translate(0 0)"/>
    </g>
  </g>
</svg>
