<svg xmlns="http://www.w3.org/2000/svg" xmlns:xlink="http://www.w3.org/1999/xlink" width="103" height="103" viewBox="0 0 103 103">
  <defs>
    <filter id="Ellipse_5556" x="0" y="0" width="103" height="103" filterUnits="userSpaceOnUse">
      <feOffset dy="3" input="SourceAlpha"/>
      <feGaussianBlur stdDeviation="3" result="blur"/>
      <feFlood flood-opacity="0.161"/>
      <feComposite operator="in" in2="blur"/>
      <feComposite in="SourceGraphic"/>
    </filter>
  </defs>
  <g id="Group_128165" data-name="Group 128165" transform="translate(-170.285 -11090)">
    <g transform="matrix(1, 0, 0, 1, 170.29, 11090)" filter="url(#Ellipse_5556)">
      <g id="Ellipse_5556-2" data-name="Ellipse 5556" transform="translate(9 6)" fill="#fff" stroke="#fdd835" stroke-width="2">
        <circle cx="42.5" cy="42.5" r="42.5" stroke="none"/>
        <circle cx="42.5" cy="42.5" r="41.5" fill="none"/>
      </g>
    </g>
    <g id="_007-layers" data-name="007-layers" transform="translate(199.793 11113.999)">
      <path id="Path_192677" data-name="Path 192677" d="M48.9,305.311,28.874,296.1a.715.715,0,0,0-.6,0L8.251,305.311a.714.714,0,0,0,0,1.3l20.026,9.213a.715.715,0,0,0,.6,0L48.9,306.608A.714.714,0,0,0,48.9,305.311Zm0,0" transform="translate(-6.644 -267.841)" fill="#f1cf79"/>
      <path id="Path_192678" data-name="Path 192678" d="M130.017,304.675l8.727-4.015-9.922-4.564a.713.713,0,0,0-.6,0L118.3,300.66l8.727,4.015a3.571,3.571,0,0,0,2.985,0Zm0,0" transform="translate(-106.592 -267.838)" fill="#e2c171"/>
      <path id="Path_192679" data-name="Path 192679" d="M48.9,161.042l-20.026-9.213a.715.715,0,0,0-.6,0L8.251,161.042a.714.714,0,0,0,0,1.3l20.026,9.213a.715.715,0,0,0,.6,0L48.9,162.34A.714.714,0,0,0,48.9,161.042Zm0,0" transform="translate(-6.644 -137.311)" fill="#99d1c2"/>
      <path id="Path_192680" data-name="Path 192680" d="M130.017,160.408l8.727-4.015-9.922-4.564a.715.715,0,0,0-.6,0l-9.922,4.564,8.727,4.015a3.57,3.57,0,0,0,2.985,0Zm0,0" transform="translate(-106.592 -137.31)" fill="#75c6b9"/>
      <path id="Path_192681" data-name="Path 192681" d="M48.9,16.772,28.874,7.559a.715.715,0,0,0-.6,0L8.251,16.772a.714.714,0,0,0,0,1.3l20.026,9.213a.715.715,0,0,0,.6,0L48.9,18.069A.714.714,0,0,0,48.9,16.772Zm0,0" transform="translate(-6.644 -6.78)" fill="#aad8ee"/>
      <path id="Path_192685" data-name="Path 192685" d="M21.335.132,8.414,6.076a.714.714,0,1,0,.6,1.3L21.932,1.429l20.026,9.213L21.932,19.854,1.906,10.642l4.573-2.1a.714.714,0,0,0-.6-1.3l-4.574,2.1a1.44,1.44,0,0,0,0,2.6l12.112,5.572L1.309,23.083a1.44,1.44,0,0,0,0,2.6l12.112,5.572L1.309,36.822a1.44,1.44,0,0,0,0,2.6L21.335,48.63a1.446,1.446,0,0,0,1.194,0l13.137-6.043a.714.714,0,0,0-.6-1.3L21.932,47.332,1.906,38.12,15.13,32.037l6.2,2.854a1.436,1.436,0,0,0,1.194,0l6.205-2.854L41.958,38.12l-4.122,1.9a.714.714,0,0,0,.6,1.3l4.122-1.9a1.44,1.44,0,0,0,0-2.6L30.443,31.25l12.112-5.571a1.44,1.44,0,0,0,0-2.6L30.443,17.511l12.112-5.572a1.439,1.439,0,0,0,0-2.6L22.529.132a1.427,1.427,0,0,0-1.194,0Zm7.4,18.166,13.224,6.083L21.932,33.593,1.906,24.381,15.13,18.3l6.205,2.855a1.446,1.446,0,0,0,1.194,0Zm0,0" transform="translate(0 0)"/>
    </g>
  </g>
</svg>
