<svg xmlns="http://www.w3.org/2000/svg" xmlns:xlink="http://www.w3.org/1999/xlink" width="345.133" height="355" viewBox="0 0 345.133 355">
  <defs>
    <filter id="Rectangle_41387" x="190.363" y="196.357" width="135.007" height="158.643" filterUnits="userSpaceOnUse">
      <feOffset dy="3" input="SourceAlpha"/>
      <feGaussianBlur stdDeviation="3" result="blur"/>
      <feFlood flood-opacity="0.161"/>
      <feComposite operator="in" in2="blur"/>
      <feComposite in="SourceGraphic"/>
    </filter>
    <clipPath id="clip-path">
      <rect id="Rectangle_41389" data-name="Rectangle 41389" width="337.059" height="339.003" fill="none"/>
    </clipPath>
    <filter id="Path_192745" x="0" y="0" width="114.042" height="143.434" filterUnits="userSpaceOnUse">
      <feOffset dy="3" input="SourceAlpha"/>
      <feGaussianBlur stdDeviation="3" result="blur-2"/>
      <feFlood flood-opacity="0.161"/>
      <feComposite operator="in" in2="blur-2"/>
      <feComposite in="SourceGraphic"/>
    </filter>
    <filter id="Path_192746" x="119.582" y="0" width="114.042" height="143.434" filterUnits="userSpaceOnUse">
      <feOffset dy="3" input="SourceAlpha"/>
      <feGaussianBlur stdDeviation="3" result="blur-3"/>
      <feFlood flood-opacity="0.161"/>
      <feComposite operator="in" in2="blur-3"/>
      <feComposite in="SourceGraphic"/>
    </filter>
    <filter id="Path_192747" x="239.165" y="0" width="114.042" height="143.434" filterUnits="userSpaceOnUse">
      <feOffset dy="3" input="SourceAlpha"/>
      <feGaussianBlur stdDeviation="3" result="blur-4"/>
      <feFlood flood-opacity="0.161"/>
      <feComposite operator="in" in2="blur-4"/>
      <feComposite in="SourceGraphic"/>
    </filter>
    <filter id="Rectangle_41426" x="165.973" y="170.691" width="135.007" height="158.643" filterUnits="userSpaceOnUse">
      <feOffset dy="3" input="SourceAlpha"/>
      <feGaussianBlur stdDeviation="3" result="blur-5"/>
      <feFlood flood-opacity="0.161"/>
      <feComposite operator="in" in2="blur-5"/>
      <feComposite in="SourceGraphic"/>
    </filter>
    <filter id="Rectangle_41433" x="141.411" y="145.853" width="135.007" height="158.643" filterUnits="userSpaceOnUse">
      <feOffset dy="3" input="SourceAlpha"/>
      <feGaussianBlur stdDeviation="3" result="blur-6"/>
      <feFlood flood-opacity="0.161"/>
      <feComposite operator="in" in2="blur-6"/>
      <feComposite in="SourceGraphic"/>
    </filter>
  </defs>
  <g id="Group_128317" data-name="Group 128317" transform="translate(8.074 5.074)">
    <g transform="matrix(1, 0, 0, 1, -8.07, -5.07)" filter="url(#Rectangle_41387)">
      <rect id="Rectangle_41387-2" data-name="Rectangle 41387" width="125.434" height="96.042" transform="translate(199.36 325.75) rotate(-79.65)" fill="#addcea"/>
    </g>
    <g id="Group_128180" data-name="Group 128180">
      <g id="Group_128179" data-name="Group 128179" clip-path="url(#clip-path)">
        <rect id="Rectangle_41388" data-name="Rectangle 41388" width="125.434" height="96.042" transform="translate(192.289 320.678) rotate(-79.654)" fill="none" stroke="#fff" stroke-miterlimit="10" stroke-width="1.851"/>
      </g>
    </g>
    <rect id="Rectangle_41390" data-name="Rectangle 41390" width="70.065" height="69.025" transform="matrix(0.18, -0.984, 0.984, 0.18, 209.719, 288.617)" fill="#fff"/>
    <rect id="Rectangle_41391" data-name="Rectangle 41391" width="3.519" height="68.513" transform="matrix(0.18, -0.984, 0.984, 0.18, 223.121, 215.212)" fill="#36b1c5"/>
    <rect id="Rectangle_41392" data-name="Rectangle 41392" width="2.222" height="57.749" transform="matrix(0.18, -0.984, 0.984, 0.18, 225.984, 229.488)" fill="#606b77"/>
    <rect id="Rectangle_41393" data-name="Rectangle 41393" width="2.222" height="57.749" transform="matrix(0.18, -0.984, 0.984, 0.18, 224.424, 238.04)" fill="#606b77"/>
    <rect id="Rectangle_41394" data-name="Rectangle 41394" width="2.222" height="57.749" transform="matrix(0.18, -0.984, 0.984, 0.18, 222.863, 246.593)" fill="#606b77"/>
    <g transform="matrix(1, 0, 0, 1, -8.07, -5.07)" filter="url(#Path_192745)">
      <path id="Path_192745-2" data-name="Path 192745" d="M0,0H96.042V125.434H0Z" transform="translate(9 6)" fill="#ffefb0"/>
    </g>
    <g id="Group_128182" data-name="Group 128182">
      <g id="Group_128181" data-name="Group 128181" clip-path="url(#clip-path)">
        <rect id="Rectangle_41396" data-name="Rectangle 41396" width="96.042" height="125.434" transform="translate(0.925 0.926)" fill="none" stroke="#fff" stroke-miterlimit="10" stroke-width="1.851"/>
      </g>
    </g>
    <rect id="Rectangle_41398" data-name="Rectangle 41398" width="69.025" height="70.065" transform="translate(12.314 21.625)" fill="#fff"/>
    <rect id="Rectangle_41399" data-name="Rectangle 41399" width="68.512" height="3.519" transform="translate(12.314 13.552)" fill="#ffce1c"/>
    <rect id="Rectangle_41400" data-name="Rectangle 41400" width="57.749" height="2.222" transform="translate(17.697 28.379)" fill="#606b77"/>
    <rect id="Rectangle_41401" data-name="Rectangle 41401" width="57.749" height="2.222" transform="translate(17.697 37.072)" fill="#606b77"/>
    <rect id="Rectangle_41402" data-name="Rectangle 41402" width="57.749" height="2.222" transform="translate(17.697 45.766)" fill="#606b77"/>
    <rect id="Rectangle_41403" data-name="Rectangle 41403" width="57.749" height="2.222" transform="translate(17.697 54.873)" fill="#606b77"/>
    <rect id="Rectangle_41404" data-name="Rectangle 41404" width="57.749" height="2.222" transform="translate(17.697 63.36)" fill="#606b77"/>
    <rect id="Rectangle_41405" data-name="Rectangle 41405" width="57.749" height="2.222" transform="translate(17.697 71.743)" fill="#606b77"/>
    <g id="Group_128184" data-name="Group 128184">
      <g id="Group_128183" data-name="Group 128183" clip-path="url(#clip-path)">
        <path id="Path_192738" data-name="Path 192738" d="M87.249,119.705H84.2V108.217a10.521,10.521,0,0,1-3.938,2.311v-2.767a8.808,8.808,0,0,0,2.593-1.48,5.627,5.627,0,0,0,1.92-2.544h2.473Z" fill="#161615"/>
        <g transform="matrix(1, 0, 0, 1, -8.07, -5.07)" filter="url(#Path_192746)">
          <path id="Path_192746-2" data-name="Path 192746" d="M0,0H96.042V125.434H0Z" transform="translate(128.58 6)" fill="#fec491"/>
        </g>
        <rect id="Rectangle_41407" data-name="Rectangle 41407" width="96.042" height="125.434" transform="translate(120.508 0.926)" fill="none" stroke="#fff" stroke-miterlimit="10" stroke-width="1.851"/>
        <rect id="Rectangle_41408" data-name="Rectangle 41408" width="69.025" height="70.065" transform="translate(131.898 21.625)" fill="#fff"/>
        <rect id="Rectangle_41409" data-name="Rectangle 41409" width="68.512" height="3.519" transform="translate(131.898 13.552)" fill="#f89119"/>
        <rect id="Rectangle_41410" data-name="Rectangle 41410" width="57.749" height="2.222" transform="translate(137.28 28.379)" fill="#606b77"/>
        <rect id="Rectangle_41411" data-name="Rectangle 41411" width="57.749" height="2.222" transform="translate(137.28 37.072)" fill="#606b77"/>
        <rect id="Rectangle_41412" data-name="Rectangle 41412" width="57.749" height="2.222" transform="translate(137.28 45.766)" fill="#606b77"/>
        <rect id="Rectangle_41413" data-name="Rectangle 41413" width="57.749" height="2.222" transform="translate(137.28 54.873)" fill="#606b77"/>
        <rect id="Rectangle_41414" data-name="Rectangle 41414" width="57.749" height="2.222" transform="translate(137.28 63.36)" fill="#606b77"/>
        <rect id="Rectangle_41415" data-name="Rectangle 41415" width="57.749" height="2.222" transform="translate(137.28 71.743)" fill="#606b77"/>
        <path id="Path_192739" data-name="Path 192739" d="M209.327,116.873V119.7H198.642a7.376,7.376,0,0,1,1.041-3.043,20.27,20.27,0,0,1,3.428-3.813,21.563,21.563,0,0,0,2.528-2.6,3.353,3.353,0,0,0,.629-1.865,2.117,2.117,0,0,0-.548-1.567,2.326,2.326,0,0,0-3.032.026,2.954,2.954,0,0,0-.651,1.909l-3.037-.3a4.979,4.979,0,0,1,1.7-3.613,5.723,5.723,0,0,1,3.58-1.1,5.179,5.179,0,0,1,3.7,1.269,4.164,4.164,0,0,1,1.345,3.157,5.5,5.5,0,0,1-.385,2.046,8.377,8.377,0,0,1-1.22,2.034,19.655,19.655,0,0,1-2,2.028q-1.441,1.323-1.827,1.757a5.222,5.222,0,0,0-.624.846Z" fill="#161615"/>
        <g transform="matrix(1, 0, 0, 1, -8.07, -5.07)" filter="url(#Path_192747)">
          <path id="Path_192747-2" data-name="Path 192747" d="M0,0H96.042V125.434H0Z" transform="translate(248.17 6)" fill="#addcea"/>
        </g>
        <path id="Path_192748" data-name="Path 192748" d="M0,0H96.042V125.434H0Z" transform="translate(240.091 0.926)" fill="none" stroke="#fff" stroke-width="1.851"/>
        <rect id="Rectangle_41418" data-name="Rectangle 41418" width="69.025" height="70.065" transform="translate(251.481 21.625)" fill="#fff"/>
        <rect id="Rectangle_41419" data-name="Rectangle 41419" width="68.512" height="3.519" transform="translate(251.481 13.552)" fill="#36b1c5"/>
        <rect id="Rectangle_41420" data-name="Rectangle 41420" width="57.749" height="2.222" transform="translate(256.863 28.379)" fill="#606b77"/>
        <rect id="Rectangle_41421" data-name="Rectangle 41421" width="57.749" height="2.222" transform="translate(256.863 37.072)" fill="#606b77"/>
        <rect id="Rectangle_41422" data-name="Rectangle 41422" width="57.749" height="2.222" transform="translate(256.863 45.766)" fill="#606b77"/>
        <rect id="Rectangle_41423" data-name="Rectangle 41423" width="57.749" height="2.222" transform="translate(256.863 54.873)" fill="#606b77"/>
        <rect id="Rectangle_41424" data-name="Rectangle 41424" width="57.749" height="2.222" transform="translate(256.863 63.36)" fill="#606b77"/>
        <rect id="Rectangle_41425" data-name="Rectangle 41425" width="57.749" height="2.222" transform="translate(256.863 71.743)" fill="#606b77"/>
        <path id="Path_192740" data-name="Path 192740" d="M318.507,115.485l2.951-.358a2.8,2.8,0,0,0,.759,1.725,2.149,2.149,0,0,0,3.086-.119,2.774,2.774,0,0,0,.646-1.931,2.587,2.587,0,0,0-.619-1.823,1.97,1.97,0,0,0-1.508-.672,5.348,5.348,0,0,0-1.4.227l.336-2.484a2.669,2.669,0,0,0,1.888-.537A1.91,1.91,0,0,0,325.3,108a1.642,1.642,0,0,0-1.747-1.757,1.836,1.836,0,0,0-1.334.542,2.549,2.549,0,0,0-.673,1.584l-2.809-.478a6.283,6.283,0,0,1,.884-2.305,3.99,3.99,0,0,1,1.649-1.356,5.537,5.537,0,0,1,2.37-.493,4.728,4.728,0,0,1,3.6,1.432,3.626,3.626,0,0,1-1.172,5.988,3.7,3.7,0,0,1,2.186,1.312,3.81,3.81,0,0,1,.819,2.463,4.776,4.776,0,0,1-1.53,3.569,5.712,5.712,0,0,1-7.387.233,4.883,4.883,0,0,1-1.649-3.249" fill="#161615"/>
        <g transform="matrix(1, 0, 0, 1, -8.07, -5.07)" filter="url(#Rectangle_41426)">
          <rect id="Rectangle_41426-2" data-name="Rectangle 41426" width="125.434" height="96.042" transform="translate(174.97 300.09) rotate(-79.65)" fill="#fec491"/>
        </g>
        <rect id="Rectangle_41427" data-name="Rectangle 41427" width="125.434" height="96.042" transform="translate(166.899 295.012) rotate(-79.654)" fill="none" stroke="#fff" stroke-miterlimit="10" stroke-width="1.851"/>
        <rect id="Rectangle_41428" data-name="Rectangle 41428" width="70.065" height="69.025" transform="matrix(0.18, -0.984, 0.984, 0.18, 184.329, 262.951)" fill="#fff"/>
        <rect id="Rectangle_41429" data-name="Rectangle 41429" width="3.519" height="68.513" transform="matrix(0.18, -0.984, 0.984, 0.18, 197.73, 189.545)" fill="#f89119"/>
        <rect id="Rectangle_41430" data-name="Rectangle 41430" width="2.222" height="57.749" transform="matrix(0.18, -0.984, 0.984, 0.18, 200.595, 203.822)" fill="#606b77"/>
        <rect id="Rectangle_41431" data-name="Rectangle 41431" width="2.222" height="57.749" transform="matrix(0.18, -0.984, 0.984, 0.18, 199.034, 212.374)" fill="#606b77"/>
        <rect id="Rectangle_41432" data-name="Rectangle 41432" width="2.222" height="57.749" transform="matrix(0.18, -0.984, 0.984, 0.18, 197.472, 220.926)" fill="#606b77"/>
        <g transform="matrix(1, 0, 0, 1, -8.07, -5.07)" filter="url(#Rectangle_41433)">
          <rect id="Rectangle_41433-2" data-name="Rectangle 41433" width="125.434" height="96.042" transform="translate(150.41 275.25) rotate(-79.65)" fill="#ffefb0"/>
        </g>
        <rect id="Rectangle_41434" data-name="Rectangle 41434" width="125.434" height="96.042" transform="translate(142.337 270.173) rotate(-79.654)" fill="none" stroke="#fff" stroke-miterlimit="10" stroke-width="1.851"/>
        <rect id="Rectangle_41435" data-name="Rectangle 41435" width="70.065" height="69.025" transform="matrix(0.18, -0.984, 0.984, 0.18, 159.767, 238.112)" fill="#fff"/>
        <rect id="Rectangle_41436" data-name="Rectangle 41436" width="3.519" height="68.513" transform="matrix(0.18, -0.984, 0.984, 0.18, 173.167, 164.707)" fill="#ffce1c"/>
        <rect id="Rectangle_41437" data-name="Rectangle 41437" width="2.222" height="57.749" transform="translate(176.032 178.983) rotate(-79.654)" fill="#606b77"/>
        <rect id="Rectangle_41438" data-name="Rectangle 41438" width="2.222" height="57.749" transform="translate(174.471 187.535) rotate(-79.654)" fill="#606b77"/>
        <rect id="Rectangle_41439" data-name="Rectangle 41439" width="2.222" height="57.749" transform="translate(172.91 196.088) rotate(-79.654)" fill="#606b77"/>
        <path id="Path_192741" data-name="Path 192741" d="M227.328,281.062l-3-.53,2-11.312a10.526,10.526,0,0,1-4.282,1.591l.481-2.723a8.862,8.862,0,0,0,2.81-1.009,5.624,5.624,0,0,0,2.332-2.171l2.437.428Z" fill="#161615"/>
        <path id="Path_192742" data-name="Path 192742" d="M257.858,302.523l-.492,2.788-10.522-1.857a7.371,7.371,0,0,1,1.553-2.815,20.28,20.28,0,0,1,4.037-3.16,21.444,21.444,0,0,0,2.943-2.125,3.348,3.348,0,0,0,.942-1.728,2.121,2.121,0,0,0-.267-1.638,2.328,2.328,0,0,0-2.991-.5,2.948,2.948,0,0,0-.97,1.768l-2.94-.828a4.986,4.986,0,0,1,2.3-3.261,5.7,5.7,0,0,1,3.715-.456,5.171,5.171,0,0,1,3.423,1.891,4.154,4.154,0,0,1,.775,3.343,5.438,5.438,0,0,1-.734,1.947,8.251,8.251,0,0,1-1.554,1.79,19.578,19.578,0,0,1-2.318,1.653q-1.651,1.051-2.1,1.412a5.3,5.3,0,0,0-.763.725Z" transform="translate(-2 -1)" fill="#161615"/>
        <path id="Path_192743" data-name="Path 192743" d="M272.638,327.369l2.967.159a2.813,2.813,0,0,0,.448,1.832,2.1,2.1,0,0,0,1.371.848,2.06,2.06,0,0,0,1.69-.431,2.766,2.766,0,0,0,.971-1.788,2.585,2.585,0,0,0-.293-1.9,1.967,1.967,0,0,0-1.367-.922,5.274,5.274,0,0,0-1.417-.02l.763-2.388a2.666,2.666,0,0,0,1.951-.2,1.907,1.907,0,0,0,.9-1.377,1.732,1.732,0,0,0-.246-1.344,1.712,1.712,0,0,0-1.168-.69,1.834,1.834,0,0,0-1.407.3,2.56,2.56,0,0,0-.94,1.444l-2.683-.958a6.29,6.29,0,0,1,1.273-2.117,3.988,3.988,0,0,1,1.859-1.049,5.528,5.528,0,0,1,2.419-.074,4.718,4.718,0,0,1,3.3,2.036,3.624,3.624,0,0,1-2.193,5.693,3.709,3.709,0,0,1,1.926,1.673,3.813,3.813,0,0,1,.38,2.565,4.776,4.776,0,0,1-2.127,3.249,5.705,5.705,0,0,1-7.315-1.052,4.876,4.876,0,0,1-1.061-3.486" transform="translate(-3 -3)" fill="#161615"/>
        <path id="Path_192744" data-name="Path 192744" d="M115.1,235,104.46,225.04v12.367H75.445V170.8H58.882v81.714H104.46v12.368l10.639-9.961,10.639-9.962Z" fill="#26ccda"/>
      </g>
    </g>
  </g>
</svg>
