<svg xmlns="http://www.w3.org/2000/svg" xmlns:xlink="http://www.w3.org/1999/xlink" width="103" height="103" viewBox="0 0 103 103">
  <defs>
    <filter id="Ellipse_4282" x="0" y="0" width="103" height="103" filterUnits="userSpaceOnUse">
      <feOffset dy="3" input="SourceAlpha"/>
      <feGaussianBlur stdDeviation="3" result="blur"/>
      <feFlood flood-opacity="0.161"/>
      <feComposite operator="in" in2="blur"/>
      <feComposite in="SourceGraphic"/>
    </filter>
  </defs>
  <g id="Group_128163" data-name="Group 128163" transform="translate(-590.285 -10934)">
    <g transform="matrix(1, 0, 0, 1, 590.29, 10934)" filter="url(#Ellipse_4282)">
      <g id="Ellipse_4282-2" data-name="Ellipse 4282" transform="translate(9 6)" fill="#fff" stroke="#fdd835" stroke-width="2">
        <circle cx="42.5" cy="42.5" r="42.5" stroke="none"/>
        <circle cx="42.5" cy="42.5" r="41.5" fill="none"/>
      </g>
    </g>
    <g id="_027-paper" data-name="027-paper" transform="translate(617.285 10962.996)">
      <path id="Path_192724" data-name="Path 192724" d="M157.214,67.211,148.4,51.544a2.081,2.081,0,0,0-2.834-.794L120.987,64.572a2.081,2.081,0,0,0-.794,2.834L129,83.074a2.081,2.081,0,0,0,2.834.794l24.584-13.822A2.081,2.081,0,0,0,157.214,67.211Zm0,0" transform="translate(-108.214 -45.549)" fill="#aad8ee"/>
      <path id="Path_192725" data-name="Path 192725" d="M145.067,56.121,120.987,69.66a2.081,2.081,0,0,0-.794,2.834L129,88.162a2.081,2.081,0,0,0,2.834.794l4.667-2.624,15.583-18.287a4.5,4.5,0,0,0,1.077-2.949l-2.24-3.983Zm0,0" transform="translate(-108.214 -50.637)" fill="#9dcde5"/>
      <path id="Path_192726" data-name="Path 192726" d="M100.692,19.647,87.011,7.989a2.081,2.081,0,0,0-2.934.234L65.785,29.69a2.081,2.081,0,0,0,.234,2.934L79.7,44.281a2.081,2.081,0,0,0,2.934-.234l18.292-21.467A2.081,2.081,0,0,0,100.692,19.647Zm0,0" transform="translate(-58.912 -6.757)" fill="#ee8688"/>
      <path id="Path_192727" data-name="Path 192727" d="M94.41,28.247a4.5,4.5,0,0,0-.009-3.14l-3.478-2.964L83.7,19.484,65.785,40.511a2.081,2.081,0,0,0,.234,2.934L79.7,55.1a2.081,2.081,0,0,0,2.934-.234l3.473-4.076Zm0,0" transform="translate(-58.913 -17.578)" fill="#cf5564"/>
      <path id="Path_192728" data-name="Path 192728" d="M55.615,14.628,38.748,8.416A2.081,2.081,0,0,0,36.076,9.65L26.329,36.115a2.081,2.081,0,0,0,1.234,2.672L44.43,45A2.082,2.082,0,0,0,47.1,43.765L56.849,17.3A2.081,2.081,0,0,0,55.615,14.628Zm0,0" transform="translate(-23.642 -7.475)" fill="#99d1c2"/>
      <path id="Path_192729" data-name="Path 192729" d="M48.955,32.315a4.5,4.5,0,0,0-1.093-2.943l-4.288-1.579H35.879L26.332,53.716a2.081,2.081,0,0,0,1.233,2.672L44.432,62.6A2.082,2.082,0,0,0,47.1,61.366l1.85-5.024Zm0,0" transform="translate(-23.645 -25.076)" fill="#75c6b9"/>
      <path id="Path_192730" data-name="Path 192730" d="M27.559,52.793H9.585A2.081,2.081,0,0,0,7.5,54.874v28.2a2.081,2.081,0,0,0,2.081,2.081H27.559a2.081,2.081,0,0,0,2.081-2.081v-28.2A2.081,2.081,0,0,0,27.559,52.793Zm0,0" transform="translate(-6.771 -47.634)" fill="#f1cf79"/>
      <path id="Path_192734" data-name="Path 192734" d="M49.894,23.441a2.794,2.794,0,0,0-.257-2.138L40.829,5.636A2.842,2.842,0,0,0,37,4.562L34.671,5.87l-6.1-5.2a2.817,2.817,0,0,0-3.966.317L22.876,3.023,15.359.254a2.843,2.843,0,0,0-3.613,1.668l-.922,2.5H2.813A2.816,2.816,0,0,0,0,7.24V26.47a.732.732,0,0,0,1.465,0V7.24A1.35,1.35,0,0,1,2.813,5.891H20.787A1.35,1.35,0,0,1,22.136,7.24v28.2a1.35,1.35,0,0,1-1.347,1.349H2.813a1.35,1.35,0,0,1-1.349-1.349V29.4A.732.732,0,0,0,0,29.4v6.043a2.816,2.816,0,0,0,2.813,2.813H20.4a2.792,2.792,0,0,0,1.442.957,2.825,2.825,0,0,0,2.138-.257L48.564,25.135a2.8,2.8,0,0,0,1.33-1.693ZM20.787,4.426h-8.4l.736-2a1.366,1.366,0,0,1,1.732-.8L31.719,7.84a1.372,1.372,0,0,1,.8,1.732L23.6,33.787V7.24a2.816,2.816,0,0,0-2.813-2.813ZM48.476,23.043a1.344,1.344,0,0,1-.629.814L25.353,36.5,37.406,22.359a.733.733,0,0,0-.082-1.033.743.743,0,0,0-1.032.082L24.719,34.99l9.175-24.912a2.842,2.842,0,0,0-1.668-3.612l-7.884-2.9,1.381-1.621a1.35,1.35,0,0,1,1.9-.152L41.3,13.447a1.366,1.366,0,0,1,.151,1.9l-3.291,3.862a.732.732,0,0,0,1.115.95L42.571,16.3a2.84,2.84,0,0,0-.317-3.967l-6.4-5.449,1.856-1.044a1.362,1.362,0,0,1,1.837.515l8.809,15.667a1.346,1.346,0,0,1,.115,1.023Zm0,0" transform="translate(0)"/>
    </g>
  </g>
</svg>
