<svg xmlns="http://www.w3.org/2000/svg" width="104.268" height="104.268" viewBox="0 0 104.268 104.268">
  <g id="printer" transform="translate(-0.268 -0.268)">
    <g id="Group_127994" data-name="Group 127994" transform="translate(0.268 0.268)">
      <g id="Group_127993" data-name="Group 127993">
        <g id="Group_127992" data-name="Group 127992">
          <g id="Group_127991" data-name="Group 127991">
            <g id="Group_127990" data-name="Group 127990">
              <g id="Group_127989" data-name="Group 127989">
                <g id="Group_127988" data-name="Group 127988">
                  <g id="Group_127987" data-name="Group 127987">
                    <circle id="Ellipse_5510" data-name="Ellipse 5510" cx="52" cy="52" r="52" fill="#ffce00"/>
                  </g>
                </g>
              </g>
            </g>
          </g>
        </g>
      </g>
    </g>
    <path id="Path_192252" data-name="Path 192252" d="M165.814,109.861a52.487,52.487,0,0,0-1.14-10.909L138.091,72.369,77,128.365,94.846,146.21,93.382,147.4,107.8,161.816a52.832,52.832,0,0,0,5.749.313,52.268,52.268,0,0,0,52.268-52.268Z" transform="translate(-61.279 -57.593)" fill="#ffa300"/>
    <g id="Group_127995" data-name="Group 127995" transform="translate(13.986 33.692)">
      <path id="Path_192253" data-name="Path 192253" d="M138.037,204.506H75.527a7.027,7.027,0,0,1-7.027-7.027V172.048a7.027,7.027,0,0,1,7.027-7.027h62.51a7.027,7.027,0,0,1,7.027,7.027v25.431A7.027,7.027,0,0,1,138.037,204.506Z" transform="translate(-68.5 -165.021)" fill="#636978"/>
    </g>
    <g id="Group_127996" data-name="Group 127996" transform="translate(52.292 33.692)">
      <path id="Path_192254" data-name="Path 192254" d="M287.35,165.021H256.12v39.485h31.23a7.027,7.027,0,0,0,7.027-7.027V172.048a7.027,7.027,0,0,0-7.027-7.027Z" transform="translate(-256.12 -165.021)" fill="#414952"/>
    </g>
    <g id="Group_127997" data-name="Group 127997" transform="translate(27.723 63.732)">
      <path id="Path_192255" data-name="Path 192255" d="M135.783,312.151h49.089V321.6H135.783Z" transform="translate(-135.783 -312.151)" fill="#414952"/>
    </g>
    <g id="Group_127998" data-name="Group 127998" transform="translate(52.292 63.732)">
      <path id="Path_192256" data-name="Path 192256" d="M256.12,312.151h24.52V321.6H256.12Z" transform="translate(-256.12 -312.151)" fill="#23272b"/>
    </g>
    <g id="Group_127999" data-name="Group 127999" transform="translate(27.723 14.776)">
      <path id="Path_192257" data-name="Path 192257" d="M135.783,72.369h49.089v27.8H135.783Z" transform="translate(-135.783 -72.369)" fill="#414952"/>
    </g>
    <g id="Group_128000" data-name="Group 128000" transform="translate(52.292 14.776)">
      <path id="Path_192258" data-name="Path 192258" d="M256.12,72.369h24.52v27.8H256.12Z" transform="translate(-256.12 -72.369)" fill="#23272b"/>
    </g>
    <g id="Group_128001" data-name="Group 128001" transform="translate(34.851 14.776)">
      <path id="Path_192259" data-name="Path 192259" d="M201.186,85.6H175.039a4.343,4.343,0,0,1-4.343-4.343V72.369h34.833v8.889A4.343,4.343,0,0,1,201.186,85.6Z" transform="translate(-170.696 -72.369)" fill="#555a66"/>
    </g>
    <g id="Group_128002" data-name="Group 128002" transform="translate(52.292 14.776)">
      <path id="Path_192260" data-name="Path 192260" d="M256.12,72.369V85.6h13.049a4.343,4.343,0,0,0,4.343-4.343V72.369Z" transform="translate(-256.12 -72.369)" fill="#333940"/>
    </g>
    <g id="Group_128003" data-name="Group 128003" transform="translate(20.672 56.057)">
      <path id="Path_192261" data-name="Path 192261" d="M101.249,274.56H164.44v5.24H101.249Z" transform="translate(-101.249 -274.56)" fill="#555a66"/>
    </g>
    <g id="Group_128004" data-name="Group 128004" transform="translate(52.292 56.057)">
      <path id="Path_192262" data-name="Path 192262" d="M256.12,274.56h31.571v5.24H256.12Z" transform="translate(-256.12 -274.56)" fill="#333940"/>
    </g>
    <g id="Group_128005" data-name="Group 128005" transform="translate(20.672 46.97)">
      <circle id="Ellipse_5511" data-name="Ellipse 5511" cx="3.053" cy="3.053" r="3.053" fill="#64e1dc"/>
    </g>
    <g id="Group_128006" data-name="Group 128006" transform="translate(28.746 46.97)">
      <circle id="Ellipse_5512" data-name="Ellipse 5512" cx="3.053" cy="3.053" r="3.053" fill="#64e1dc"/>
    </g>
    <g id="Group_128007" data-name="Group 128007" transform="translate(32.103 63.732)">
      <path id="Path_192263" data-name="Path 192263" d="M157.235,312.151h40.33v26.075h-40.33Z" transform="translate(-157.235 -312.151)" fill="#fff"/>
    </g>
    <g id="Group_128008" data-name="Group 128008" transform="translate(52.292 63.732)">
      <path id="Path_192264" data-name="Path 192264" d="M256.12,312.151h20.14v26.075H256.12Z" transform="translate(-256.12 -312.151)" fill="#e9edf5"/>
    </g>
  </g>
</svg>
