<svg xmlns="http://www.w3.org/2000/svg" xmlns:xlink="http://www.w3.org/1999/xlink" width="103" height="103" viewBox="0 0 103 103">
  <defs>
    <filter id="Ellipse_5554" x="0" y="0" width="103" height="103" filterUnits="userSpaceOnUse">
      <feOffset dy="3" input="SourceAlpha"/>
      <feGaussianBlur stdDeviation="3" result="blur"/>
      <feFlood flood-opacity="0.161"/>
      <feComposite operator="in" in2="blur"/>
      <feComposite in="SourceGraphic"/>
    </filter>
  </defs>
  <g id="Group_128167" data-name="Group 128167" transform="translate(-1010.285 -11090)">
    <g transform="matrix(1, 0, 0, 1, 1010.29, 11090)" filter="url(#Ellipse_5554)">
      <g id="Ellipse_5554-2" data-name="Ellipse 5554" transform="translate(9 6)" fill="#fff" stroke="#fdd835" stroke-width="2">
        <circle cx="42.5" cy="42.5" r="42.5" stroke="none"/>
        <circle cx="42.5" cy="42.5" r="41.5" fill="none"/>
      </g>
    </g>
    <g id="_005-swatches" data-name="005-swatches" transform="translate(1041.285 11117.539)">
      <path id="Path_192706" data-name="Path 192706" d="M116.77,28.956,82.131,7.922,74.883,19.858l34.638,21.034a1.9,1.9,0,0,0,2.6-.636l5.281-8.7a1.894,1.894,0,0,0-.636-2.6Zm0,0" transform="translate(-67.424 -6.718)" fill="#f8eed3"/>
      <path id="Path_192707" data-name="Path 192707" d="M136.27,59.532l-3.349,5.515a1.121,1.121,0,0,0,.377,1.54l5.515,3.349a1.122,1.122,0,0,0,1.54-.376l3.349-5.515a1.121,1.121,0,0,0-.377-1.54l-5.515-3.349A1.121,1.121,0,0,0,136.27,59.532Zm0,0" transform="translate(-119.534 -52.701)" fill="#f1cf79"/>
      <path id="Path_192708" data-name="Path 192708" d="M345.781,186.755l-3.349,5.515a1.121,1.121,0,0,0,.376,1.54l5.515,3.349a1.121,1.121,0,0,0,1.54-.376l3.349-5.515a1.121,1.121,0,0,0-.376-1.54l-5.515-3.349A1.121,1.121,0,0,0,345.781,186.755Zm0,0" transform="translate(-308.176 -167.252)" fill="#d4b25f"/>
      <path id="Path_192709" data-name="Path 192709" d="M243.57,133.546l-5.515-3.349a1.121,1.121,0,0,1-.376-1.54l3.349-5.515a1.121,1.121,0,0,1,1.54-.377l5.515,3.349a1.121,1.121,0,0,1,.377,1.54l-3.349,5.515A1.121,1.121,0,0,1,243.57,133.546Zm0,0" transform="translate(-213.857 -109.975)" fill="#e2c171"/>
      <path id="Path_192710" data-name="Path 192710" d="M54.771,43.793,35.916,7.922l-12.361,6.5L42.41,50.29a1.894,1.894,0,0,0,2.559.8l9.006-4.734a1.894,1.894,0,0,0,.8-2.559Zm0,0" transform="translate(-21.208 -6.718)" fill="#ecd8a4"/>
      <path id="Path_192711" data-name="Path 192711" d="M78.965,65.663l-5.711,3a1.121,1.121,0,0,0-.471,1.514l3,5.712a1.122,1.122,0,0,0,1.514.471l5.711-3a1.121,1.121,0,0,0,.471-1.514l-3-5.712A1.122,1.122,0,0,0,78.965,65.663Zm0,0" transform="translate(-65.416 -58.592)" fill="#ee8688"/>
      <path id="Path_192712" data-name="Path 192712" d="M193.009,282.63l-5.711,3a1.121,1.121,0,0,0-.471,1.514l3,5.711a1.121,1.121,0,0,0,1.514.471l5.711-3a1.121,1.121,0,0,0,.471-1.514l-3-5.711A1.121,1.121,0,0,0,193.009,282.63Zm0,0" transform="translate(-168.101 -253.947)" fill="#cf5564"/>
      <path id="Path_192713" data-name="Path 192713" d="M132.807,184.374l-3-5.711a1.121,1.121,0,0,1,.471-1.514l5.711-3a1.121,1.121,0,0,1,1.514.471l3,5.711a1.122,1.122,0,0,1-.471,1.514l-5.712,3a1.121,1.121,0,0,1-1.514-.471Zm0,0" transform="translate(-116.759 -156.269)" fill="#e07e80"/>
      <path id="Path_192714" data-name="Path 192714" d="M9.352,7.921A1.9,1.9,0,0,0,7.457,9.816v38.63a1.9,1.9,0,0,0,1.895,1.895H19.527a1.9,1.9,0,0,0,1.895-1.895V7.921Zm0,0" transform="translate(-6.714 -6.717)" fill="#f8eed3"/>
      <path id="Path_192715" data-name="Path 192715" d="M41.48,54.652H35.028a1.121,1.121,0,0,0-1.121,1.121v6.452a1.121,1.121,0,0,0,1.121,1.121H41.48A1.121,1.121,0,0,0,42.6,62.226V55.774A1.121,1.121,0,0,0,41.48,54.652Zm0,0" transform="translate(-30.529 -48.794)" fill="#9dcde5"/>
      <path id="Path_192716" data-name="Path 192716" d="M41.48,299.766H35.028a1.121,1.121,0,0,0-1.121,1.121v6.452a1.121,1.121,0,0,0,1.121,1.121H41.48a1.121,1.121,0,0,0,1.121-1.121v-6.452A1.121,1.121,0,0,0,41.48,299.766Zm0,0" transform="translate(-30.529 -269.492)" fill="#6686cc"/>
      <path id="Path_192717" data-name="Path 192717" d="M33.906,184.78v-6.452a1.121,1.121,0,0,1,1.121-1.121H41.48a1.121,1.121,0,0,1,1.121,1.121v6.452A1.121,1.121,0,0,1,41.48,185.9H35.028A1.121,1.121,0,0,1,33.906,184.78Zm0,0" transform="translate(-30.529 -159.141)" fill="#7f9cdc"/>
      <path id="Path_192718" data-name="Path 192718" d="M28.318,57.38H34.77a1.87,1.87,0,0,0,1.868-1.868V49.059a1.87,1.87,0,0,0-1.868-1.868H28.318a1.871,1.871,0,0,0-1.868,1.868v6.452A1.871,1.871,0,0,0,28.318,57.38Zm-.374-8.32a.374.374,0,0,1,.374-.374H34.77a.374.374,0,0,1,.374.374v6.452a.375.375,0,0,1-.374.374H28.318a.375.375,0,0,1-.374-.374Zm0,0" transform="translate(-23.814 -42.075)"/>
      <path id="Path_192719" data-name="Path 192719" d="M26.449,300.625a1.871,1.871,0,0,0,1.868,1.868H34.77a1.87,1.87,0,0,0,1.868-1.868v-6.452A1.87,1.87,0,0,0,34.77,292.3H28.318a1.871,1.871,0,0,0-1.868,1.868Zm1.495-6.452a.375.375,0,0,1,.374-.374H34.77a.375.375,0,0,1,.374.374v6.452a.374.374,0,0,1-.374.374H28.318a.374.374,0,0,1-.374-.374Zm0,0" transform="translate(-23.814 -262.774)"/>
      <path id="Path_192720" data-name="Path 192720" d="M26.449,178.067a1.871,1.871,0,0,0,1.868,1.868H34.77a1.871,1.871,0,0,0,1.868-1.868v-6.452a1.87,1.87,0,0,0-1.868-1.868H28.318a1.871,1.871,0,0,0-1.868,1.868Zm1.495-6.452a.374.374,0,0,1,.374-.374H34.77a.374.374,0,0,1,.374.374v6.452a.374.374,0,0,1-.374.374H28.318a.374.374,0,0,1-.374-.374Zm0,0" transform="translate(-23.814 -152.423)"/>
      <path id="Path_192721" data-name="Path 192721" d="M180.245,278.309a1.87,1.87,0,0,0-.784,2.523l3,5.712a1.89,1.89,0,0,0,2.523.784l5.712-3a1.888,1.888,0,0,0,.784-2.523l-3-5.711a1.889,1.889,0,0,0-2.523-.785Zm6.58-1.723a.374.374,0,0,1,.332.2l3,5.711A.382.382,0,0,1,190,283l-5.711,3a.376.376,0,0,1-.505-.157l-3-5.711a.375.375,0,0,1,.157-.505l5.711-3A.367.367,0,0,1,186.825,276.586Zm0,0" transform="translate(-161.392 -247.28)"/>
      <path id="Path_192722" data-name="Path 192722" d="M338.438,179.7l-3.349,5.515a1.871,1.871,0,0,0,.627,2.567l5.515,3.349a1.884,1.884,0,0,0,2.567-.627l3.349-5.515a1.871,1.871,0,0,0-.627-2.567L341,179.07A1.884,1.884,0,0,0,338.438,179.7Zm1.6.6a.367.367,0,0,1,.193.054l5.515,3.349a.374.374,0,0,1,.126.514l-3.349,5.515a.378.378,0,0,1-.514.126l-5.515-3.349a.374.374,0,0,1-.125-.514l3.349-5.515A.373.373,0,0,1,340.036,180.293Zm0,0" transform="translate(-301.467 -160.578)"/>
      <path id="Path_192723" data-name="Path 192723" d="M50.922,23.237A2.633,2.633,0,0,0,49.738,21.6l-9.685-5.881A.747.747,0,0,0,39.277,17l9.685,5.881a1.162,1.162,0,0,1,.385,1.576l-5.281,8.7a1.158,1.158,0,0,1-1.577.385l-14.6-8.866-1.03-1.959,2.47,1.5a1.884,1.884,0,0,0,2.567-.627l3.349-5.515a1.887,1.887,0,0,0-.627-2.567L29.1,12.156a1.884,1.884,0,0,0-2.567.627l-2.625,4.322-1.1-2.084,1.995-3.286a1.87,1.87,0,0,0-.627-2.567L18.669,5.819a1.866,1.866,0,0,0-.827-.262L16.627,3.245l20.1,12.208a.747.747,0,1,0,.776-1.277L15.1.569a.754.754,0,0,0-.388-.109H2.642A2.645,2.645,0,0,0,0,3.1V15.044a.747.747,0,1,0,1.495,0V3.1A1.149,1.149,0,0,1,2.642,1.955H13.965V41.733a1.149,1.149,0,0,1-1.148,1.147H2.642a1.149,1.149,0,0,1-1.147-1.147V18.026a.747.747,0,1,0-1.495,0V41.733a2.645,2.645,0,0,0,2.642,2.642H12.817a2.645,2.645,0,0,0,2.642-2.642V34.248l5.086,9.676a2.671,2.671,0,0,0,3.568,1.109L33.119,40.3a2.645,2.645,0,0,0,1.109-3.568l-4.988-9.49,12.474,7.575a2.67,2.67,0,0,0,3.629-.887l5.281-8.7a2.635,2.635,0,0,0,.3-2ZM27.814,13.559a.377.377,0,0,1,.514-.126l5.515,3.349a.377.377,0,0,1,.126.514L30.62,22.811a.377.377,0,0,1-.514.125l-4.6-2.79-.787-1.5,3.091-5.09ZM15.459,9.9l1.949,3.707a.38.38,0,0,1-.157.505l-1.792.942Zm0,10.811,4.122-2.166a.377.377,0,0,1,.505.157l3,5.711a.377.377,0,0,1-.157.505l-5.711,3a.377.377,0,0,1-.505-.157l-1.255-2.388Zm7.95-10.264a.374.374,0,0,1,.125.514l-1.529,2.518-3-5.7Zm9.015,28.53L23.417,43.71a1.158,1.158,0,0,1-1.55-.482L15.459,31.036V28.575a1.868,1.868,0,0,0,2.456.667l5.711-3a1.887,1.887,0,0,0,.785-2.523l-3-5.711a1.888,1.888,0,0,0-2.523-.784l-3.426,1.8v-2.28l2.487-1.307a1.888,1.888,0,0,0,.784-2.523l-3-5.712a1.857,1.857,0,0,0-.27-.384V4.236L32.906,37.427a1.148,1.148,0,0,1-.482,1.549Zm0,0"/>
    </g>
  </g>
</svg>
