<svg xmlns="http://www.w3.org/2000/svg" width="93.237" height="93.602" viewBox="0 0 93.237 93.602">
  <g id="paper-plane" transform="translate(-0.999)">
    <g id="Group_128191" data-name="Group 128191" transform="translate(13.628 1.371)">
      <g id="Group_128190" data-name="Group 128190">
        <path id="Path_192749" data-name="Path 192749" d="M149.32,7.5,105.536,35.2,87.274,40.022l-17.2-8.9Z" transform="translate(-70.078 -7.5)" fill="#fff9e9"/>
        <path id="Path_192750" data-name="Path 192750" d="M164.139,40.022l3.041,26.894L226.185,7.5Z" transform="translate(-146.943 -7.5)" fill="#ffeec2"/>
        <path id="Path_192751" data-name="Path 192751" d="M180.773,66.915l9.157-19.971L239.778,7.5Z" transform="translate(-160.536 -7.5)" fill="#fae19e"/>
        <path id="Path_192752" data-name="Path 192752" d="M230.859,46.944,280.708,7.5,254.535,59.663Z" transform="translate(-201.466 -7.5)" fill="#fff9e9"/>
        <path id="Path_192753" data-name="Path 192753" d="M348.666,17.1l-19.8,39.473,5.76,3.094L360.793,7.5Z" transform="translate(-281.551 -7.5)" fill="#fff4d6"/>
      </g>
    </g>
    <g id="Group_128192" data-name="Group 128192" transform="translate(0.999 0)">
      <path id="Path_192754" data-name="Path 192754" d="M63.393,26.213l16.546,8.561L82.9,60.94a1.381,1.381,0,0,0,2.321.826c2.847-2.776,13-13.15,15.4-15.523l15.821,8.5a1.385,1.385,0,0,0,1.874-.593L144.49,1.986A1.383,1.383,0,0,0,142.873.057l-57.039,17a1.372,1.372,0,0,0,.783,2.628L130.086,6.731,81.215,32.347,67.67,25.339l12.025-3.585a1.372,1.372,0,0,0-.783-2.628l-15.28,4.555A1.382,1.382,0,0,0,63.393,26.213ZM91.56,51.5q-1.471,1.5-2.977,3.038,1-2.161,2-4.277c1.16-2.472,2.35-5.013,3.489-7.533L98.1,44.885C95.877,47.085,93.687,49.32,91.56,51.5Zm24.94.163L95.9,40.595,118.29,22.881a1.372,1.372,0,0,0-1.7-2.15s-19.334,15.191-24,18.971a1.592,1.592,0,0,0-.468.682c-1.288,2.893-6.049,13.037-7.06,15.251l-2.37-20.963L130.924,9.387l-8.782,6.949a1.372,1.372,0,0,0,1.7,2.15l15.422-12.2Z" transform="translate(-51.394 0)" fill="#060606"/>
      <path id="Path_192755" data-name="Path 192755" d="M91.541,337.182c-3.784-4.779-10.248-6.042-15.988-4.9-8.591,1.706-13.737,7.814-19.3,13.947-5.379,5.935-12.372,9.263-20.417,7.127a23.769,23.769,0,0,1-9.376-5.24c-.866-.741-1.705-1.513-2.54-2.29a60.035,60.035,0,0,0,6.2-6.364c1.119-1.349-.81-3.3-1.939-1.939a58.82,58.82,0,0,1-6.286,6.426c-1.013-.929-2.043-1.839-3.127-2.686-2.4-1.875-5.171-3.48-8.312-3.458-10.6.076-13.707,15.694-1.947,16,3.556.092,6.928-1.67,9.8-3.595,1.219-.815,2.4-1.694,3.539-2.62,3.48,3.2,6.973,6.365,11.588,7.914a21.516,21.516,0,0,0,21.072-3.807c6.274-5.112,9.9-12.327,17.744-15.554,4.931-2.029,11.243-2.406,15.564,1.151a9.57,9.57,0,0,1,3.129,10.68c-1.965,5.316-7.808,7.289-13.021,7.409-3.917.09-7.746-.817-11.672-.365-4.719.544-10.032,2.878-9.648,8.484.12,1.751,2.863,1.764,2.742,0-.225-3.287,2.438-4.815,5.286-5.458,4.009-.9,7.927-.013,11.951.08,5.165.12,10.878-1.164,14.467-5.143a12.231,12.231,0,0,0,.478-15.794Zm-79,13.072c-2.368.938-5.466,1.313-7.515-.34-4.618-3.728.813-9.135,5.069-9.358,2.656-.139,5.042,1.29,7.068,2.9.91.723,1.79,1.487,2.658,2.266A28.267,28.267,0,0,1,12.539,350.253Z" transform="translate(-0.999 -271.213)" fill="#060606"/>
    </g>
  </g>
</svg>
