<svg xmlns="http://www.w3.org/2000/svg" xmlns:xlink="http://www.w3.org/1999/xlink" width="820" height="213.328" viewBox="0 0 820 213.328">
  <defs>
    <linearGradient id="linear-gradient" x1="0.5" x2="0.5" y2="1" gradientUnits="objectBoundingBox">
      <stop offset="0" stop-color="#fdd835"/>
      <stop offset="1" stop-color="#ffa726"/>
    </linearGradient>
    <clipPath id="clip-path">
      <rect id="Rectángulo_41347" data-name="Rectángulo 41347" width="77.324" height="77.324" fill="none"/>
    </clipPath>
    <clipPath id="clip-path-2">
      <rect id="Rectángulo_41348" data-name="Rectángulo 41348" width="77.385" height="77.566" fill="none"/>
    </clipPath>
    <clipPath id="clip-path-4">
      <rect id="Rectángulo_41355" data-name="Rectángulo 41355" width="77.324" height="77.321" fill="none"/>
    </clipPath>
    <clipPath id="clip-path-5">
      <rect id="Rectángulo_41364" data-name="Rectángulo 41364" width="77.588" height="77.588" fill="none"/>
    </clipPath>
    <clipPath id="clip-path-6">
      <rect id="Rectángulo_41365" data-name="Rectángulo 41365" width="77.324" height="77.122" fill="none"/>
    </clipPath>
  </defs>
  <g id="Grupo_128313" data-name="Grupo 128313" transform="translate(-390 -9312.756)">
    <path id="Trazado_193420" data-name="Trazado 193420" d="M-35.7,0h-2.727V-4.75h-4.039V0h-2.742V-11.375h2.742v4.516h4.039v-4.516H-35.7Zm4.391,0h-2.641V-8.453h2.641Zm-2.8-10.633a1.175,1.175,0,0,1,.406-.922,1.533,1.533,0,0,1,1.055-.359,1.533,1.533,0,0,1,1.055.359,1.175,1.175,0,0,1,.406.922,1.175,1.175,0,0,1-.406.922,1.533,1.533,0,0,1-1.055.359A1.533,1.533,0,0,1-33.7-9.711,1.175,1.175,0,0,1-34.105-10.633ZM-21.84-4.164a5.1,5.1,0,0,1-.887,3.145A2.843,2.843,0,0,1-25.121.156,2.437,2.437,0,0,1-27.035-.7V3.25h-2.633v-11.7h2.461l.078.781a2.437,2.437,0,0,1,1.992-.937,2.866,2.866,0,0,1,2.43,1.152,5.16,5.16,0,0,1,.867,3.168Zm-2.633-.164q0-2.25-1.312-2.25a1.239,1.239,0,0,0-1.25.672v3.328a1.279,1.279,0,0,0,1.266.7q1.258,0,1.3-2.172ZM-16.59.156A4.345,4.345,0,0,1-19.738-1a4.006,4.006,0,0,1-1.2-3.02v-.219a5.191,5.191,0,0,1,.48-2.289,3.516,3.516,0,0,1,1.4-1.535,4.233,4.233,0,0,1,2.188-.543A3.659,3.659,0,0,1-14.059-7.5a4.344,4.344,0,0,1,1.031,3.082V-3.4h-5.234a1.9,1.9,0,0,0,.617,1.117,1.836,1.836,0,0,0,1.234.406,2.366,2.366,0,0,0,1.953-.875l1.2,1.422A3.363,3.363,0,0,1-14.648-.246,4.713,4.713,0,0,1-16.59.156Zm-.3-6.734q-1.156,0-1.375,1.531h2.656v-.2a1.3,1.3,0,0,0-.32-.98A1.275,1.275,0,0,0-16.887-6.578Zm10.031.508-.867-.062a1.558,1.558,0,0,0-1.594.781V0h-2.633V-8.453H-9.48l.086,1.086A2.039,2.039,0,0,1-7.543-8.609a2.567,2.567,0,0,1,.734.094Zm4.461,2.938,1.336-5.32H1.715L-1.043,0H-3.73L-6.488-8.453h2.781ZM5.371,0H2.723V-8.453H5.371ZM4.387-11.844H7.168L5-9.391H2.848ZM9.48-8.453l.086.992A2.867,2.867,0,0,1,11.98-8.609a2.412,2.412,0,0,1,1.973.789,3.757,3.757,0,0,1,.676,2.375V0H11.988V-5.336a1.426,1.426,0,0,0-.258-.941,1.193,1.193,0,0,0-.937-.3,1.256,1.256,0,0,0-1.148.609V0H7.012V-8.453ZM19.66-1.875a1.171,1.171,0,0,0,.859-.3,1.1,1.1,0,0,0,.3-.84h2.469a2.922,2.922,0,0,1-1,2.281,3.705,3.705,0,0,1-2.566.891A3.751,3.751,0,0,1,16.816-1a4.556,4.556,0,0,1-1.062-3.2v-.109a5.149,5.149,0,0,1,.473-2.262A3.441,3.441,0,0,1,17.59-8.082,4.065,4.065,0,0,1,19.7-8.609a3.658,3.658,0,0,1,2.617.914,3.242,3.242,0,0,1,.969,2.477H20.816a1.445,1.445,0,0,0-.32-1.008,1.106,1.106,0,0,0-.859-.352q-1.023,0-1.2,1.3a9.206,9.206,0,0,0-.055,1.141,3.616,3.616,0,0,0,.3,1.766A1.055,1.055,0,0,0,19.66-1.875Zm9.773.961A2.714,2.714,0,0,1,27.176.156,2.662,2.662,0,0,1,25.07-.652a3.4,3.4,0,0,1-.715-2.324V-8.453h2.633v5.492a.946.946,0,0,0,1.055,1.086,1.376,1.376,0,0,0,1.289-.648v-5.93H31.98V0H29.512ZM36.2,0H33.559V-12H36.2Zm1.289-4.3a4.989,4.989,0,0,1,.492-2.254,3.52,3.52,0,0,1,1.414-1.52,4.259,4.259,0,0,1,2.164-.531,3.887,3.887,0,0,1,2.992,1.176,4.512,4.512,0,0,1,1.094,3.2v.094A4.378,4.378,0,0,1,44.547-1,3.9,3.9,0,0,1,41.574.156a3.942,3.942,0,0,1-2.9-1.082A4.232,4.232,0,0,1,37.5-3.859Zm2.633.164a3.145,3.145,0,0,0,.367,1.719,1.223,1.223,0,0,0,1.086.547q1.406,0,1.438-2.164V-4.3q0-2.273-1.453-2.273-1.32,0-1.43,1.961ZM-37.246,15.711a5.164,5.164,0,0,1,.867-3.164,2.854,2.854,0,0,1,2.422-1.156,2.428,2.428,0,0,1,1.906.891V8h2.641V20h-2.367l-.133-.906a2.493,2.493,0,0,1-2.062,1.063A2.849,2.849,0,0,1-36.363,19,5.327,5.327,0,0,1-37.246,15.711Zm2.633.164q0,2.25,1.313,2.25a1.3,1.3,0,0,0,1.25-.734V14.172a1.261,1.261,0,0,0-1.234-.75q-1.219,0-1.32,1.969Zm10.789,4.281A4.345,4.345,0,0,1-26.973,19a4.006,4.006,0,0,1-1.2-3.02v-.219a5.191,5.191,0,0,1,.48-2.289,3.516,3.516,0,0,1,1.4-1.535,4.233,4.233,0,0,1,2.188-.543A3.659,3.659,0,0,1-21.293,12.5a4.344,4.344,0,0,1,1.031,3.082V16.6H-25.5a1.9,1.9,0,0,0,.617,1.117,1.836,1.836,0,0,0,1.234.406,2.366,2.366,0,0,0,1.953-.875l1.2,1.422a3.363,3.363,0,0,1-1.395,1.082A4.713,4.713,0,0,1-23.824,20.156Zm-.3-6.734q-1.156,0-1.375,1.531h2.656v-.2a1.3,1.3,0,0,0-.32-.98A1.275,1.275,0,0,0-24.121,13.422ZM-12.441,20h-2.641V11.547h2.641Zm-2.8-10.633a1.175,1.175,0,0,1,.406-.922,1.533,1.533,0,0,1,1.055-.359,1.533,1.533,0,0,1,1.055.359,1.175,1.175,0,0,1,.406.922,1.175,1.175,0,0,1-.406.922,1.533,1.533,0,0,1-1.055.359,1.533,1.533,0,0,1-1.055-.359A1.175,1.175,0,0,1-15.238,9.367Zm6.906,2.18.086.992a2.906,2.906,0,0,1,2.414-1.148,2.14,2.14,0,0,1,2.164,1.273,2.813,2.813,0,0,1,2.484-1.273q2.57,0,2.641,3.109V20H-1.184V14.664a1.611,1.611,0,0,0-.219-.945.931.931,0,0,0-.8-.3,1.247,1.247,0,0,0-1.164.7l.008.109V20H-6V14.68a1.694,1.694,0,0,0-.211-.961.929.929,0,0,0-.8-.3,1.263,1.263,0,0,0-1.156.7V20H-10.8V11.547ZM7.723,20a2.973,2.973,0,0,1-.25-.758,2.448,2.448,0,0,1-2.031.914,3,3,0,0,1-2.031-.723,2.3,2.3,0,0,1-.836-1.816A2.364,2.364,0,0,1,3.59,15.539a5.174,5.174,0,0,1,2.953-.7h.813v-.445q0-1.164-1.008-1.164a.822.822,0,0,0-.937.922H2.777A2.364,2.364,0,0,1,3.82,12.156a4.379,4.379,0,0,1,2.66-.766,3.843,3.843,0,0,1,2.555.789A2.743,2.743,0,0,1,10,14.344v3.742a3.832,3.832,0,0,0,.359,1.781V20ZM6.074,18.281a1.469,1.469,0,0,0,.816-.211,1.322,1.322,0,0,0,.465-.477V16.242H6.59q-1.375,0-1.375,1.234a.754.754,0,0,0,.242.582A.876.876,0,0,0,6.074,18.281Zm5.07-2.57a5.708,5.708,0,0,1,.422-2.266,3.4,3.4,0,0,1,1.211-1.52,3.192,3.192,0,0,1,1.836-.535,2.538,2.538,0,0,1,2.063.891l.094-.734H19.16V19.68a3.564,3.564,0,0,1-.52,1.941,3.334,3.334,0,0,1-1.5,1.266,5.528,5.528,0,0,1-2.281.441,4.769,4.769,0,0,1-1.8-.352,3.251,3.251,0,0,1-1.332-.914l1.1-1.547a2.414,2.414,0,0,0,1.938.867,1.568,1.568,0,0,0,1.75-1.8V19.32a2.472,2.472,0,0,1-1.914.836,3.055,3.055,0,0,1-2.5-1.184,4.9,4.9,0,0,1-.953-3.168Zm2.641.164a3.007,3.007,0,0,0,.391,1.645,1.232,1.232,0,0,0,1.094.605,1.4,1.4,0,0,0,1.242-.57V14a1.363,1.363,0,0,0-1.227-.578,1.241,1.241,0,0,0-1.1.629A3.429,3.429,0,0,0,13.785,15.875Zm10.961,4.281A4.345,4.345,0,0,1,21.6,19a4.006,4.006,0,0,1-1.2-3.02v-.219a5.191,5.191,0,0,1,.48-2.289,3.516,3.516,0,0,1,1.4-1.535,4.233,4.233,0,0,1,2.188-.543A3.659,3.659,0,0,1,27.277,12.5a4.344,4.344,0,0,1,1.031,3.082V16.6H23.074a1.9,1.9,0,0,0,.617,1.117,1.836,1.836,0,0,0,1.234.406,2.366,2.366,0,0,0,1.953-.875l1.2,1.422a3.363,3.363,0,0,1-1.395,1.082A4.713,4.713,0,0,1,24.746,20.156Zm-.3-6.734q-1.156,0-1.375,1.531H25.73v-.2a1.3,1.3,0,0,0-.32-.98A1.275,1.275,0,0,0,24.449,13.422Zm7.336-1.875.086.992a2.867,2.867,0,0,1,2.414-1.148,2.412,2.412,0,0,1,1.973.789,3.757,3.757,0,0,1,.676,2.375V20H34.293V14.664a1.426,1.426,0,0,0-.258-.941,1.193,1.193,0,0,0-.937-.3,1.256,1.256,0,0,0-1.148.609V20H29.316V11.547Z" transform="translate(464 9502.756)" fill="#12263f"/>
    <path id="Trazado_193421" data-name="Trazado 193421" d="M-35.7,0h-2.727V-4.75h-4.039V0h-2.742V-11.375h2.742v4.516h4.039v-4.516H-35.7Zm4.391,0h-2.641V-8.453h2.641Zm-2.8-10.633a1.175,1.175,0,0,1,.406-.922,1.533,1.533,0,0,1,1.055-.359,1.533,1.533,0,0,1,1.055.359,1.175,1.175,0,0,1,.406.922,1.175,1.175,0,0,1-.406.922,1.533,1.533,0,0,1-1.055.359A1.533,1.533,0,0,1-33.7-9.711,1.175,1.175,0,0,1-34.105-10.633ZM-21.84-4.164a5.1,5.1,0,0,1-.887,3.145A2.843,2.843,0,0,1-25.121.156,2.437,2.437,0,0,1-27.035-.7V3.25h-2.633v-11.7h2.461l.078.781a2.437,2.437,0,0,1,1.992-.937,2.866,2.866,0,0,1,2.43,1.152,5.16,5.16,0,0,1,.867,3.168Zm-2.633-.164q0-2.25-1.312-2.25a1.239,1.239,0,0,0-1.25.672v3.328a1.279,1.279,0,0,0,1.266.7q1.258,0,1.3-2.172ZM-16.59.156A4.345,4.345,0,0,1-19.738-1a4.006,4.006,0,0,1-1.2-3.02v-.219a5.191,5.191,0,0,1,.48-2.289,3.516,3.516,0,0,1,1.4-1.535,4.233,4.233,0,0,1,2.188-.543A3.659,3.659,0,0,1-14.059-7.5a4.344,4.344,0,0,1,1.031,3.082V-3.4h-5.234a1.9,1.9,0,0,0,.617,1.117,1.836,1.836,0,0,0,1.234.406,2.366,2.366,0,0,0,1.953-.875l1.2,1.422A3.363,3.363,0,0,1-14.648-.246,4.713,4.713,0,0,1-16.59.156Zm-.3-6.734q-1.156,0-1.375,1.531h2.656v-.2a1.3,1.3,0,0,0-.32-.98A1.275,1.275,0,0,0-16.887-6.578Zm10.031.508-.867-.062a1.558,1.558,0,0,0-1.594.781V0h-2.633V-8.453H-9.48l.086,1.086A2.039,2.039,0,0,1-7.543-8.609a2.567,2.567,0,0,1,.734.094Zm4.461,2.938,1.336-5.32H1.715L-1.043,0H-3.73L-6.488-8.453h2.781ZM5.371,0H2.723V-8.453H5.371ZM4.387-11.844H7.168L5-9.391H2.848ZM9.48-8.453l.086.992A2.867,2.867,0,0,1,11.98-8.609a2.412,2.412,0,0,1,1.973.789,3.757,3.757,0,0,1,.676,2.375V0H11.988V-5.336a1.426,1.426,0,0,0-.258-.941,1.193,1.193,0,0,0-.937-.3,1.256,1.256,0,0,0-1.148.609V0H7.012V-8.453ZM19.66-1.875a1.171,1.171,0,0,0,.859-.3,1.1,1.1,0,0,0,.3-.84h2.469a2.922,2.922,0,0,1-1,2.281,3.705,3.705,0,0,1-2.566.891A3.751,3.751,0,0,1,16.816-1a4.556,4.556,0,0,1-1.062-3.2v-.109a5.149,5.149,0,0,1,.473-2.262A3.441,3.441,0,0,1,17.59-8.082,4.065,4.065,0,0,1,19.7-8.609a3.658,3.658,0,0,1,2.617.914,3.242,3.242,0,0,1,.969,2.477H20.816a1.445,1.445,0,0,0-.32-1.008,1.106,1.106,0,0,0-.859-.352q-1.023,0-1.2,1.3a9.206,9.206,0,0,0-.055,1.141,3.616,3.616,0,0,0,.3,1.766A1.055,1.055,0,0,0,19.66-1.875Zm9.773.961A2.714,2.714,0,0,1,27.176.156,2.662,2.662,0,0,1,25.07-.652a3.4,3.4,0,0,1-.715-2.324V-8.453h2.633v5.492a.946.946,0,0,0,1.055,1.086,1.376,1.376,0,0,0,1.289-.648v-5.93H31.98V0H29.512ZM36.2,0H33.559V-12H36.2Zm1.289-4.3a4.989,4.989,0,0,1,.492-2.254,3.52,3.52,0,0,1,1.414-1.52,4.259,4.259,0,0,1,2.164-.531,3.887,3.887,0,0,1,2.992,1.176,4.512,4.512,0,0,1,1.094,3.2v.094A4.378,4.378,0,0,1,44.547-1,3.9,3.9,0,0,1,41.574.156a3.942,3.942,0,0,1-2.9-1.082A4.232,4.232,0,0,1,37.5-3.859Zm2.633.164a3.145,3.145,0,0,0,.367,1.719,1.223,1.223,0,0,0,1.086.547q1.406,0,1.438-2.164V-4.3q0-2.273-1.453-2.273-1.32,0-1.43,1.961Zm-68.9,19.852a5.164,5.164,0,0,1,.867-3.164,2.854,2.854,0,0,1,2.422-1.156,2.428,2.428,0,0,1,1.906.891V8h2.641V20h-2.367l-.133-.906a2.493,2.493,0,0,1-2.062,1.063A2.849,2.849,0,0,1-27.9,19,5.327,5.327,0,0,1-28.781,15.711Zm2.633.164q0,2.25,1.313,2.25a1.3,1.3,0,0,0,1.25-.734V14.172a1.261,1.261,0,0,0-1.234-.75q-1.219,0-1.32,1.969Zm10.789,4.281A4.345,4.345,0,0,1-18.508,19a4.006,4.006,0,0,1-1.2-3.02v-.219a5.191,5.191,0,0,1,.48-2.289,3.516,3.516,0,0,1,1.4-1.535,4.233,4.233,0,0,1,2.188-.543A3.659,3.659,0,0,1-12.828,12.5,4.344,4.344,0,0,1-11.8,15.578V16.6h-5.234a1.9,1.9,0,0,0,.617,1.117,1.836,1.836,0,0,0,1.234.406,2.366,2.366,0,0,0,1.953-.875l1.2,1.422a3.363,3.363,0,0,1-1.395,1.082A4.713,4.713,0,0,1-15.359,20.156Zm-.3-6.734q-1.156,0-1.375,1.531h2.656v-.2a1.3,1.3,0,0,0-.32-.98A1.275,1.275,0,0,0-15.656,13.422ZM-3.687,9.445v2.1H-2.3v1.828H-3.687v3.867a.987.987,0,0,0,.172.664.922.922,0,0,0,.68.188,3.862,3.862,0,0,0,.656-.047V19.93a4.859,4.859,0,0,1-1.484.227,2.758,2.758,0,0,1-2.008-.641A2.626,2.626,0,0,1-6.32,17.57v-4.2H-7.4V11.547H-6.32v-2.1ZM2.828,20.156A4.345,4.345,0,0,1-.32,19a4.006,4.006,0,0,1-1.2-3.02v-.219a5.191,5.191,0,0,1,.48-2.289,3.516,3.516,0,0,1,1.4-1.535,4.233,4.233,0,0,1,2.188-.543A3.659,3.659,0,0,1,5.359,12.5a4.344,4.344,0,0,1,1.031,3.082V16.6H1.156a1.9,1.9,0,0,0,.617,1.117,1.836,1.836,0,0,0,1.234.406,2.366,2.366,0,0,0,1.953-.875l1.2,1.422A3.363,3.363,0,0,1,4.77,19.754,4.713,4.713,0,0,1,2.828,20.156Zm-.3-6.734q-1.156,0-1.375,1.531H3.813v-.2a1.3,1.3,0,0,0-.32-.98A1.275,1.275,0,0,0,2.531,13.422Zm8.344.453L12.1,11.547h2.734l-2.227,4.117L14.945,20H12.2l-1.328-2.5L9.563,20H6.8l2.344-4.336L6.922,11.547H9.688Zm7.875-4.43v2.1h1.391v1.828H18.75v3.867a.987.987,0,0,0,.172.664.922.922,0,0,0,.68.188,3.862,3.862,0,0,0,.656-.047V19.93a4.859,4.859,0,0,1-1.484.227,2.758,2.758,0,0,1-2.008-.641,2.626,2.626,0,0,1-.648-1.945v-4.2H15.039V11.547h1.078v-2.1Zm1.859,6.25a4.989,4.989,0,0,1,.492-2.254,3.52,3.52,0,0,1,1.414-1.52,4.259,4.259,0,0,1,2.164-.531,3.887,3.887,0,0,1,2.992,1.176,4.512,4.512,0,0,1,1.094,3.2v.094A4.378,4.378,0,0,1,27.668,19a3.9,3.9,0,0,1-2.973,1.16,3.942,3.942,0,0,1-2.9-1.082,4.232,4.232,0,0,1-1.18-2.934Zm2.633.164a3.145,3.145,0,0,0,.367,1.719,1.223,1.223,0,0,0,1.086.547q1.406,0,1.438-2.164V15.7q0-2.273-1.453-2.273-1.32,0-1.43,1.961Z" transform="translate(631 9502.756)" fill="#12263f"/>
    <path id="Trazado_193422" data-name="Trazado 193422" d="M-35.7,0h-2.727V-4.75h-4.039V0h-2.742V-11.375h2.742v4.516h4.039v-4.516H-35.7Zm4.391,0h-2.641V-8.453h2.641Zm-2.8-10.633a1.175,1.175,0,0,1,.406-.922,1.533,1.533,0,0,1,1.055-.359,1.533,1.533,0,0,1,1.055.359,1.175,1.175,0,0,1,.406.922,1.175,1.175,0,0,1-.406.922,1.533,1.533,0,0,1-1.055.359A1.533,1.533,0,0,1-33.7-9.711,1.175,1.175,0,0,1-34.105-10.633ZM-21.84-4.164a5.1,5.1,0,0,1-.887,3.145A2.843,2.843,0,0,1-25.121.156,2.437,2.437,0,0,1-27.035-.7V3.25h-2.633v-11.7h2.461l.078.781a2.437,2.437,0,0,1,1.992-.937,2.866,2.866,0,0,1,2.43,1.152,5.16,5.16,0,0,1,.867,3.168Zm-2.633-.164q0-2.25-1.312-2.25a1.239,1.239,0,0,0-1.25.672v3.328a1.279,1.279,0,0,0,1.266.7q1.258,0,1.3-2.172ZM-16.59.156A4.345,4.345,0,0,1-19.738-1a4.006,4.006,0,0,1-1.2-3.02v-.219a5.191,5.191,0,0,1,.48-2.289,3.516,3.516,0,0,1,1.4-1.535,4.233,4.233,0,0,1,2.188-.543A3.659,3.659,0,0,1-14.059-7.5a4.344,4.344,0,0,1,1.031,3.082V-3.4h-5.234a1.9,1.9,0,0,0,.617,1.117,1.836,1.836,0,0,0,1.234.406,2.366,2.366,0,0,0,1.953-.875l1.2,1.422A3.363,3.363,0,0,1-14.648-.246,4.713,4.713,0,0,1-16.59.156Zm-.3-6.734q-1.156,0-1.375,1.531h2.656v-.2a1.3,1.3,0,0,0-.32-.98A1.275,1.275,0,0,0-16.887-6.578Zm10.031.508-.867-.062a1.558,1.558,0,0,0-1.594.781V0h-2.633V-8.453H-9.48l.086,1.086A2.039,2.039,0,0,1-7.543-8.609a2.567,2.567,0,0,1,.734.094Zm4.461,2.938,1.336-5.32H1.715L-1.043,0H-3.73L-6.488-8.453h2.781ZM5.371,0H2.723V-8.453H5.371ZM4.387-11.844H7.168L5-9.391H2.848ZM9.48-8.453l.086.992A2.867,2.867,0,0,1,11.98-8.609a2.412,2.412,0,0,1,1.973.789,3.757,3.757,0,0,1,.676,2.375V0H11.988V-5.336a1.426,1.426,0,0,0-.258-.941,1.193,1.193,0,0,0-.937-.3,1.256,1.256,0,0,0-1.148.609V0H7.012V-8.453ZM19.66-1.875a1.171,1.171,0,0,0,.859-.3,1.1,1.1,0,0,0,.3-.84h2.469a2.922,2.922,0,0,1-1,2.281,3.705,3.705,0,0,1-2.566.891A3.751,3.751,0,0,1,16.816-1a4.556,4.556,0,0,1-1.062-3.2v-.109a5.149,5.149,0,0,1,.473-2.262A3.441,3.441,0,0,1,17.59-8.082,4.065,4.065,0,0,1,19.7-8.609a3.658,3.658,0,0,1,2.617.914,3.242,3.242,0,0,1,.969,2.477H20.816a1.445,1.445,0,0,0-.32-1.008,1.106,1.106,0,0,0-.859-.352q-1.023,0-1.2,1.3a9.206,9.206,0,0,0-.055,1.141,3.616,3.616,0,0,0,.3,1.766A1.055,1.055,0,0,0,19.66-1.875Zm9.773.961A2.714,2.714,0,0,1,27.176.156,2.662,2.662,0,0,1,25.07-.652a3.4,3.4,0,0,1-.715-2.324V-8.453h2.633v5.492a.946.946,0,0,0,1.055,1.086,1.376,1.376,0,0,0,1.289-.648v-5.93H31.98V0H29.512ZM36.2,0H33.559V-12H36.2Zm1.289-4.3a4.989,4.989,0,0,1,.492-2.254,3.52,3.52,0,0,1,1.414-1.52,4.259,4.259,0,0,1,2.164-.531,3.887,3.887,0,0,1,2.992,1.176,4.512,4.512,0,0,1,1.094,3.2v.094A4.378,4.378,0,0,1,44.547-1,3.9,3.9,0,0,1,41.574.156a3.942,3.942,0,0,1-2.9-1.082A4.232,4.232,0,0,1,37.5-3.859Zm2.633.164a3.145,3.145,0,0,0,.367,1.719,1.223,1.223,0,0,0,1.086.547q1.406,0,1.438-2.164V-4.3q0-2.273-1.453-2.273-1.32,0-1.43,1.961ZM-48.1,20h-2.641V8H-48.1Zm1.289-4.3a4.989,4.989,0,0,1,.492-2.254,3.52,3.52,0,0,1,1.414-1.52,4.259,4.259,0,0,1,2.164-.531,3.887,3.887,0,0,1,2.992,1.176,4.512,4.512,0,0,1,1.094,3.2v.094A4.378,4.378,0,0,1-39.754,19a3.9,3.9,0,0,1-2.973,1.16,3.942,3.942,0,0,1-2.9-1.082,4.232,4.232,0,0,1-1.18-2.934Zm2.633.164a3.145,3.145,0,0,0,.367,1.719,1.223,1.223,0,0,0,1.086.547q1.406,0,1.438-2.164V15.7q0-2.273-1.453-2.273-1.32,0-1.43,1.961Zm10.258,2.266a1.171,1.171,0,0,0,.859-.3,1.1,1.1,0,0,0,.3-.84H-30.3a2.922,2.922,0,0,1-1,2.281,3.705,3.705,0,0,1-2.566.891A3.751,3.751,0,0,1-36.766,19a4.556,4.556,0,0,1-1.062-3.2v-.109a5.149,5.149,0,0,1,.473-2.262,3.441,3.441,0,0,1,1.363-1.508,4.065,4.065,0,0,1,2.109-.527,3.658,3.658,0,0,1,2.617.914,3.242,3.242,0,0,1,.969,2.477h-2.469a1.445,1.445,0,0,0-.32-1.008,1.106,1.106,0,0,0-.859-.352q-1.023,0-1.2,1.3a9.206,9.206,0,0,0-.055,1.141,3.616,3.616,0,0,0,.3,1.766A1.055,1.055,0,0,0-33.922,18.125Zm9.5,1.875a2.973,2.973,0,0,1-.25-.758,2.448,2.448,0,0,1-2.031.914,3,3,0,0,1-2.031-.723,2.3,2.3,0,0,1-.836-1.816,2.364,2.364,0,0,1,1.016-2.078,5.174,5.174,0,0,1,2.953-.7h.813v-.445q0-1.164-1.008-1.164a.822.822,0,0,0-.937.922h-2.633a2.364,2.364,0,0,1,1.043-1.992,4.379,4.379,0,0,1,2.66-.766,3.843,3.843,0,0,1,2.555.789,2.743,2.743,0,0,1,.961,2.164v3.742a3.832,3.832,0,0,0,.359,1.781V20Zm-1.648-1.719a1.469,1.469,0,0,0,.816-.211,1.322,1.322,0,0,0,.465-.477V16.242h-.766q-1.375,0-1.375,1.234a.754.754,0,0,0,.242.582A.876.876,0,0,0-26.07,18.281ZM-17.914,20h-2.641V8h2.641Zm5.273-4.3a4.989,4.989,0,0,1,.492-2.254,3.52,3.52,0,0,1,1.414-1.52,4.259,4.259,0,0,1,2.164-.531,3.887,3.887,0,0,1,2.992,1.176,4.512,4.512,0,0,1,1.094,3.2v.094A4.378,4.378,0,0,1-5.582,19a3.9,3.9,0,0,1-2.973,1.16,3.942,3.942,0,0,1-2.9-1.082,4.232,4.232,0,0,1-1.18-2.934Zm2.633.164a3.145,3.145,0,0,0,.367,1.719,1.223,1.223,0,0,0,1.086.547q1.406,0,1.438-2.164V15.7q0-2.273-1.453-2.273-1.32,0-1.43,1.961ZM3.438,20H.8V11.547H3.438ZM.641,9.367a1.175,1.175,0,0,1,.406-.922A1.533,1.533,0,0,1,2.1,8.086a1.533,1.533,0,0,1,1.055.359,1.249,1.249,0,0,1,0,1.844,1.533,1.533,0,0,1-1.055.359,1.533,1.533,0,0,1-1.055-.359A1.175,1.175,0,0,1,.641,9.367Zm6.836,2.18.086.992a2.867,2.867,0,0,1,2.414-1.148,2.412,2.412,0,0,1,1.973.789,3.757,3.757,0,0,1,.676,2.375V20H9.984V14.664a1.426,1.426,0,0,0-.258-.941,1.193,1.193,0,0,0-.937-.3,1.256,1.256,0,0,0-1.148.609V20H5.008V11.547Zm9.672-2.1v2.1h1.391v1.828H17.148v3.867a.987.987,0,0,0,.172.664.922.922,0,0,0,.68.188,3.862,3.862,0,0,0,.656-.047V19.93a4.859,4.859,0,0,1-1.484.227,2.758,2.758,0,0,1-2.008-.641,2.626,2.626,0,0,1-.648-1.945v-4.2H13.438V11.547h1.078v-2.1Zm6.516,10.711A4.345,4.345,0,0,1,20.516,19a4.006,4.006,0,0,1-1.2-3.02v-.219a5.191,5.191,0,0,1,.48-2.289,3.516,3.516,0,0,1,1.4-1.535,4.233,4.233,0,0,1,2.188-.543A3.659,3.659,0,0,1,26.2,12.5a4.344,4.344,0,0,1,1.031,3.082V16.6H21.992a1.9,1.9,0,0,0,.617,1.117,1.836,1.836,0,0,0,1.234.406A2.366,2.366,0,0,0,25.8,17.25L27,18.672a3.363,3.363,0,0,1-1.395,1.082A4.713,4.713,0,0,1,23.664,20.156Zm-.3-6.734q-1.156,0-1.375,1.531h2.656v-.2a1.3,1.3,0,0,0-.32-.98A1.275,1.275,0,0,0,23.367,13.422ZM33.4,13.93l-.867-.062a1.558,1.558,0,0,0-1.594.781V20H28.3V11.547h2.469l.086,1.086a2.039,2.039,0,0,1,1.852-1.242,2.567,2.567,0,0,1,.734.094Zm3.367-2.383.086.992a2.867,2.867,0,0,1,2.414-1.148,2.412,2.412,0,0,1,1.973.789,3.757,3.757,0,0,1,.676,2.375V20H39.273V14.664a1.426,1.426,0,0,0-.258-.941,1.193,1.193,0,0,0-.937-.3,1.256,1.256,0,0,0-1.148.609V20H34.3V11.547ZM43.039,15.7a4.989,4.989,0,0,1,.492-2.254,3.52,3.52,0,0,1,1.414-1.52,4.259,4.259,0,0,1,2.164-.531A3.887,3.887,0,0,1,50.1,12.566a4.512,4.512,0,0,1,1.094,3.2v.094A4.378,4.378,0,0,1,50.1,19a3.9,3.9,0,0,1-2.973,1.16,3.942,3.942,0,0,1-2.9-1.082,4.232,4.232,0,0,1-1.18-2.934Zm2.633.164a3.145,3.145,0,0,0,.367,1.719,1.223,1.223,0,0,0,1.086.547q1.406,0,1.438-2.164V15.7q0-2.273-1.453-2.273-1.32,0-1.43,1.961Z" transform="translate(800 9502.756)" fill="#12263f"/>
    <path id="Trazado_193424" data-name="Trazado 193424" d="M-35.7,0h-2.727V-4.75h-4.039V0h-2.742V-11.375h2.742v4.516h4.039v-4.516H-35.7Zm4.391,0h-2.641V-8.453h2.641Zm-2.8-10.633a1.175,1.175,0,0,1,.406-.922,1.533,1.533,0,0,1,1.055-.359,1.533,1.533,0,0,1,1.055.359,1.175,1.175,0,0,1,.406.922,1.175,1.175,0,0,1-.406.922,1.533,1.533,0,0,1-1.055.359A1.533,1.533,0,0,1-33.7-9.711,1.175,1.175,0,0,1-34.105-10.633ZM-21.84-4.164a5.1,5.1,0,0,1-.887,3.145A2.843,2.843,0,0,1-25.121.156,2.437,2.437,0,0,1-27.035-.7V3.25h-2.633v-11.7h2.461l.078.781a2.437,2.437,0,0,1,1.992-.937,2.866,2.866,0,0,1,2.43,1.152,5.16,5.16,0,0,1,.867,3.168Zm-2.633-.164q0-2.25-1.312-2.25a1.239,1.239,0,0,0-1.25.672v3.328a1.279,1.279,0,0,0,1.266.7q1.258,0,1.3-2.172ZM-16.59.156A4.345,4.345,0,0,1-19.738-1a4.006,4.006,0,0,1-1.2-3.02v-.219a5.191,5.191,0,0,1,.48-2.289,3.516,3.516,0,0,1,1.4-1.535,4.233,4.233,0,0,1,2.188-.543A3.659,3.659,0,0,1-14.059-7.5a4.344,4.344,0,0,1,1.031,3.082V-3.4h-5.234a1.9,1.9,0,0,0,.617,1.117,1.836,1.836,0,0,0,1.234.406,2.366,2.366,0,0,0,1.953-.875l1.2,1.422A3.363,3.363,0,0,1-14.648-.246,4.713,4.713,0,0,1-16.59.156Zm-.3-6.734q-1.156,0-1.375,1.531h2.656v-.2a1.3,1.3,0,0,0-.32-.98A1.275,1.275,0,0,0-16.887-6.578Zm10.031.508-.867-.062a1.558,1.558,0,0,0-1.594.781V0h-2.633V-8.453H-9.48l.086,1.086A2.039,2.039,0,0,1-7.543-8.609a2.567,2.567,0,0,1,.734.094Zm4.461,2.938,1.336-5.32H1.715L-1.043,0H-3.73L-6.488-8.453h2.781ZM5.371,0H2.723V-8.453H5.371ZM4.387-11.844H7.168L5-9.391H2.848ZM9.48-8.453l.086.992A2.867,2.867,0,0,1,11.98-8.609a2.412,2.412,0,0,1,1.973.789,3.757,3.757,0,0,1,.676,2.375V0H11.988V-5.336a1.426,1.426,0,0,0-.258-.941,1.193,1.193,0,0,0-.937-.3,1.256,1.256,0,0,0-1.148.609V0H7.012V-8.453ZM19.66-1.875a1.171,1.171,0,0,0,.859-.3,1.1,1.1,0,0,0,.3-.84h2.469a2.922,2.922,0,0,1-1,2.281,3.705,3.705,0,0,1-2.566.891A3.751,3.751,0,0,1,16.816-1a4.556,4.556,0,0,1-1.062-3.2v-.109a5.149,5.149,0,0,1,.473-2.262A3.441,3.441,0,0,1,17.59-8.082,4.065,4.065,0,0,1,19.7-8.609a3.658,3.658,0,0,1,2.617.914,3.242,3.242,0,0,1,.969,2.477H20.816a1.445,1.445,0,0,0-.32-1.008,1.106,1.106,0,0,0-.859-.352q-1.023,0-1.2,1.3a9.206,9.206,0,0,0-.055,1.141,3.616,3.616,0,0,0,.3,1.766A1.055,1.055,0,0,0,19.66-1.875Zm9.773.961A2.714,2.714,0,0,1,27.176.156,2.662,2.662,0,0,1,25.07-.652a3.4,3.4,0,0,1-.715-2.324V-8.453h2.633v5.492a.946.946,0,0,0,1.055,1.086,1.376,1.376,0,0,0,1.289-.648v-5.93H31.98V0H29.512ZM36.2,0H33.559V-12H36.2Zm1.289-4.3a4.989,4.989,0,0,1,.492-2.254,3.52,3.52,0,0,1,1.414-1.52,4.259,4.259,0,0,1,2.164-.531,3.887,3.887,0,0,1,2.992,1.176,4.512,4.512,0,0,1,1.094,3.2v.094A4.378,4.378,0,0,1,44.547-1,3.9,3.9,0,0,1,41.574.156a3.942,3.942,0,0,1-2.9-1.082A4.232,4.232,0,0,1,37.5-3.859Zm2.633.164a3.145,3.145,0,0,0,.367,1.719,1.223,1.223,0,0,0,1.086.547q1.406,0,1.438-2.164V-4.3q0-2.273-1.453-2.273-1.32,0-1.43,1.961Zm-62.9,24.3A4.345,4.345,0,0,1-25.93,19a4.006,4.006,0,0,1-1.2-3.02v-.219a5.191,5.191,0,0,1,.48-2.289,3.516,3.516,0,0,1,1.4-1.535,4.233,4.233,0,0,1,2.188-.543A3.659,3.659,0,0,1-20.25,12.5a4.344,4.344,0,0,1,1.031,3.082V16.6h-5.234a1.9,1.9,0,0,0,.617,1.117,1.836,1.836,0,0,0,1.234.406,2.366,2.366,0,0,0,1.953-.875l1.2,1.422a3.363,3.363,0,0,1-1.395,1.082A4.713,4.713,0,0,1-22.781,20.156Zm-.3-6.734q-1.156,0-1.375,1.531H-21.8v-.2a1.3,1.3,0,0,0-.32-.98A1.275,1.275,0,0,0-23.078,13.422Zm8.344.453,1.227-2.328h2.734L-13,15.664-10.664,20h-2.75l-1.328-2.5-1.3,2.5h-2.766l2.344-4.336-2.219-4.117h2.766Zm7.875-4.43v2.1h1.391v1.828H-6.859v3.867a.987.987,0,0,0,.172.664.922.922,0,0,0,.68.188,3.862,3.862,0,0,0,.656-.047V19.93a4.859,4.859,0,0,1-1.484.227,2.758,2.758,0,0,1-2.008-.641,2.626,2.626,0,0,1-.648-1.945v-4.2H-10.57V11.547h1.078v-2.1ZM-.344,20.156A4.345,4.345,0,0,1-3.492,19a4.006,4.006,0,0,1-1.2-3.02v-.219a5.191,5.191,0,0,1,.48-2.289,3.516,3.516,0,0,1,1.4-1.535,4.233,4.233,0,0,1,2.188-.543A3.659,3.659,0,0,1,2.188,12.5a4.344,4.344,0,0,1,1.031,3.082V16.6H-2.016A1.9,1.9,0,0,0-1.4,17.719a1.836,1.836,0,0,0,1.234.406,2.366,2.366,0,0,0,1.953-.875l1.2,1.422A3.363,3.363,0,0,1,1.6,19.754,4.713,4.713,0,0,1-.344,20.156Zm-.3-6.734q-1.156,0-1.375,1.531H.641v-.2a1.3,1.3,0,0,0-.32-.98A1.275,1.275,0,0,0-.641,13.422Zm10.031.508-.867-.062a1.558,1.558,0,0,0-1.594.781V20H4.3V11.547H6.766l.086,1.086A2.039,2.039,0,0,1,8.7,11.391a2.567,2.567,0,0,1,.734.094Zm3.367-2.383.086.992a2.867,2.867,0,0,1,2.414-1.148,2.412,2.412,0,0,1,1.973.789,3.757,3.757,0,0,1,.676,2.375V20H15.266V14.664a1.426,1.426,0,0,0-.258-.941,1.193,1.193,0,0,0-.937-.3,1.256,1.256,0,0,0-1.148.609V20H10.289V11.547ZM19.031,15.7a4.989,4.989,0,0,1,.492-2.254,3.52,3.52,0,0,1,1.414-1.52,4.259,4.259,0,0,1,2.164-.531,3.887,3.887,0,0,1,2.992,1.176,4.512,4.512,0,0,1,1.094,3.2v.094A4.378,4.378,0,0,1,26.09,19a3.9,3.9,0,0,1-2.973,1.16,3.942,3.942,0,0,1-2.9-1.082,4.232,4.232,0,0,1-1.18-2.934Zm2.633.164a3.145,3.145,0,0,0,.367,1.719,1.223,1.223,0,0,0,1.086.547q1.406,0,1.438-2.164V15.7q0-2.273-1.453-2.273-1.32,0-1.43,1.961Z" transform="translate(1136 9502.756)" fill="#12263f"/>
    <g id="Grupo_128124" data-name="Grupo 128124" transform="translate(-0.285 -0.244)">
      <rect id="Rectángulo_37106" data-name="Rectángulo 37106" width="147" height="146" rx="30" transform="translate(390.285 9313)" fill="url(#linear-gradient)"/>
      <g id="Grupo_128112" data-name="Grupo 128112" transform="translate(425.285 9347)">
        <g id="Grupo_128111" data-name="Grupo 128111" transform="translate(0 0)" clip-path="url(#clip-path)">
          <path id="Trazado_192545" data-name="Trazado 192545" d="M21.535,24.736H19.718c-2.922,0-5.29,2.7-5.29,6.041V70.408a.225.225,0,0,0,.208.238H74.78a.225.225,0,0,0,.208-.238V30.777c0-3.337-2.368-6.041-5.29-6.041Z" transform="translate(-1.742 -2.987)" fill="#eaecf8"/>
          <path id="Trazado_192546" data-name="Trazado 192546" d="M77.813,79.063V76.948H16.551v2.116A6.041,6.041,0,0,0,22.592,85.1H71.772a6.041,6.041,0,0,0,6.041-6.041" transform="translate(-1.998 -9.291)" fill="#5fbfda"/>
          <rect id="Rectángulo_41338" data-name="Rectángulo 41338" width="51.756" height="19.635" transform="translate(12.988 48.024)" fill="#fff"/>
          <rect id="Rectángulo_41339" data-name="Rectángulo 41339" width="34.463" height="19.635" transform="translate(30.28 48.024)" fill="#a1c053"/>
          <rect id="Rectángulo_41340" data-name="Rectángulo 41340" width="51.348" height="26.278" transform="translate(12.988 1.51)" fill="#fff"/>
          <rect id="Rectángulo_41341" data-name="Rectángulo 41341" width="34.056" height="26.278" transform="translate(30.28 1.51)" fill="#c0e5f4"/>
          <rect id="Rectángulo_41342" data-name="Rectángulo 41342" width="51.348" height="20.237" transform="translate(12.988 27.788)" fill="#fff"/>
          <path id="Trazado_192547" data-name="Trazado 192547" d="M41.229,17.363,28.66,29.932h7.89l8.625-8.623Z" transform="translate(-3.46 -2.097)" fill="#fff"/>
          <path id="Trazado_192548" data-name="Trazado 192548" d="M37.635,30.474H54.882L46.259,21.85Z" transform="translate(-4.544 -2.639)" fill="#a1c053"/>
          <path id="Trazado_192549" data-name="Trazado 192549" d="M57.934,16.292l-3.2-3.2-7.51,7.51,8.346,8.346,6.344-.061L53.626,20.6Z" transform="translate(-5.702 -1.581)" fill="#fff"/>
          <path id="Trazado_192550" data-name="Trazado 192550" d="M58.814,16.732l-4.308,4.307,8.286,8.285,8.533-.081Z" transform="translate(-6.581 -2.02)" fill="#54a75d"/>
          <rect id="Rectángulo_41343" data-name="Rectángulo 41343" width="4.257" height="8.155" transform="translate(54.234 33.829)" fill="#e3434a"/>
          <rect id="Rectángulo_41344" data-name="Rectángulo 41344" width="4.078" height="8.155" transform="translate(38.668 33.829)" fill="#64c5f3"/>
          <rect id="Rectángulo_41345" data-name="Rectángulo 41345" width="4.078" height="8.155" transform="translate(23.123 33.829)" fill="#f8ba57"/>
          <path id="Trazado_192551" data-name="Trazado 192551" d="M30.147,11.608a3.02,3.02,0,1,1-3.02-3.02,3.02,3.02,0,0,1,3.02,3.02" transform="translate(-2.911 -1.037)" fill="#f8ba57"/>
          <rect id="Rectángulo_41346" data-name="Rectángulo 41346" width="15.556" height="8.156" transform="translate(19.046 54.066)" fill="#fff"/>
          <path id="Trazado_192552" data-name="Trazado 192552" d="M64.992,36.756H56.837a1.511,1.511,0,0,0-1.51,1.511v8.155a1.51,1.51,0,0,0,1.51,1.511h8.155A1.51,1.51,0,0,0,66.5,46.422V38.267a1.511,1.511,0,0,0-1.511-1.511m-1.51,8.155H58.347V39.776h5.135Z" transform="translate(-6.68 -4.438)" fill="#f89119"/>
          <path id="Trazado_192553" data-name="Trazado 192553" d="M47.3,36.756H39.145a1.511,1.511,0,0,0-1.51,1.511v8.155a1.51,1.51,0,0,0,1.51,1.511H47.3a1.511,1.511,0,0,0,1.511-1.511V38.267A1.511,1.511,0,0,0,47.3,36.756m-1.51,8.155H40.655V39.776h5.136Z" transform="translate(-4.544 -4.438)" fill="#161615"/>
          <path id="Trazado_192554" data-name="Trazado 192554" d="M29.609,36.756H21.454a1.511,1.511,0,0,0-1.51,1.511v8.155a1.51,1.51,0,0,0,1.51,1.511h8.155a1.51,1.51,0,0,0,1.511-1.511V38.267a1.511,1.511,0,0,0-1.511-1.511M28.1,44.911H22.964V39.776H28.1Z" transform="translate(-2.408 -4.438)" fill="#161615"/>
          <path id="Trazado_192555" data-name="Trazado 192555" d="M37.009,59.772H21.454a1.51,1.51,0,0,0-1.51,1.511v8.156a1.51,1.51,0,0,0,1.51,1.51H37.009a1.51,1.51,0,0,0,1.511-1.51V61.283a1.51,1.51,0,0,0-1.511-1.511M35.5,67.928H22.964V62.792H35.5Z" transform="translate(-2.408 -7.217)" fill="#161615"/>
          <path id="Trazado_192556" data-name="Trazado 192556" d="M46.81,62.793H63.5a1.51,1.51,0,0,0,0-3.02H46.81a1.51,1.51,0,1,0,0,3.02" transform="translate(-5.469 -7.217)" fill="#161615"/>
          <path id="Trazado_192557" data-name="Trazado 192557" d="M65.787,66.643a1.512,1.512,0,1,0,1.067.442,1.523,1.523,0,0,0-1.067-.442" transform="translate(-7.761 -8.047)" fill="#161615"/>
          <path id="Trazado_192558" data-name="Trazado 192558" d="M57.472,66.643H46.81a1.51,1.51,0,0,0,0,3.02H57.472a1.51,1.51,0,1,0,0-3.02" transform="translate(-5.47 -8.047)" fill="#161615"/>
          <path id="Trazado_192559" data-name="Trazado 192559" d="M27,15.711a4.53,4.53,0,1,0-4.531-4.53A4.536,4.536,0,0,0,27,15.711M27,9.67a1.51,1.51,0,1,1-1.511,1.511A1.513,1.513,0,0,1,27,9.67" transform="translate(-2.713 -0.803)" fill="#161615"/>
          <path id="Trazado_192560" data-name="Trazado 192560" d="M75.814,66.148H74.756V27.79a7.56,7.56,0,0,0-7.551-7.551H65.846V1.51A1.51,1.51,0,0,0,64.336,0H12.988a1.51,1.51,0,0,0-1.511,1.51V20.239H10.119A7.559,7.559,0,0,0,2.567,27.79V39.014a1.511,1.511,0,0,0,3.021,0V27.79a4.536,4.536,0,0,1,4.53-4.531h1.359V66.148H5.589V50.9a1.511,1.511,0,0,0-3.021,0V66.148H1.511A1.51,1.51,0,0,0,0,67.657v2.116a7.56,7.56,0,0,0,7.551,7.551H69.773a7.56,7.56,0,0,0,7.551-7.551V67.657a1.51,1.51,0,0,0-1.51-1.51M67.205,23.259a4.536,4.536,0,0,1,4.531,4.531V66.148h-5.89V23.259ZM14.5,29.3H62.826V46.515H14.5Zm36.75-3.02-7.486-7.485,5.208-5.208L61.662,26.278Zm-4.271,0H28.937l9.019-9.019ZM62.826,3.02V23.168L50.038,10.381a1.51,1.51,0,0,0-2.136,0l-6.275,6.276-2.6-2.6a1.51,1.51,0,0,0-2.136,0L24.667,26.278H14.5V3.02ZM14.5,49.535H62.826V66.148H14.5ZM74.3,69.773A4.536,4.536,0,0,1,69.773,74.3H7.551A4.536,4.536,0,0,1,3.02,69.773v-.6H74.3Z" transform="translate(0 0)" fill="#161615"/>
          <path id="Trazado_192561" data-name="Trazado 192561" d="M46.106,79.869h-5.45a1.51,1.51,0,0,0,0,3.02h5.45a1.51,1.51,0,1,0,0-3.02" transform="translate(-4.727 -9.644)" fill="#161615"/>
          <path id="Trazado_192562" data-name="Trazado 192562" d="M4.431,53a1.51,1.51,0,1,0-1.068-.442A1.523,1.523,0,0,0,4.431,53" transform="translate(-0.353 -6.035)" fill="#161615"/>
        </g>
      </g>
    </g>
    <g id="Grupo_128125" data-name="Grupo 128125" transform="translate(-0.285 -0.244)">
      <rect id="Rectángulo_37107" data-name="Rectángulo 37107" width="148" height="146" rx="30" transform="translate(557.285 9313)" fill="url(#linear-gradient)"/>
      <g id="Grupo_128117" data-name="Grupo 128117" transform="translate(592.285 9347)">
        <g id="Grupo_128114" data-name="Grupo 128114" transform="translate(0 0)">
          <g id="Grupo_128113" data-name="Grupo 128113" clip-path="url(#clip-path-2)">
            <path id="Trazado_192563" data-name="Trazado 192563" d="M11.71,58.269H6.553A4.833,4.833,0,0,1,1.72,53.436V6.619A4.833,4.833,0,0,1,6.553,1.786h58.6a4.833,4.833,0,0,1,4.833,4.833V53.436a4.833,4.833,0,0,1-4.833,4.832Z" transform="translate(-0.208 -0.215)" fill="#fff"/>
            <path id="Trazado_192564" data-name="Trazado 192564" d="M67.437,1.786H25.5a4.833,4.833,0,0,0-4.833,4.833V12.66H72.271V6.619a4.833,4.833,0,0,0-4.833-4.833" transform="translate(-2.495 -0.215)" fill="#f89119"/>
            <path id="Trazado_192565" data-name="Trazado 192565" d="M78.394,50.2,74.64,51.417a15.55,15.55,0,0,0-5.12-2.969,15.55,15.55,0,0,0-5.12,2.969L60.646,50.2l-4.229,7.311,2.931,2.647a15.635,15.635,0,0,0,0,5.969l-2.931,2.647,4.229,7.312L64.4,74.878a15.546,15.546,0,0,0,5.12,2.97,15.537,15.537,0,0,0,5.12-2.97l3.754,1.213,4.228-7.312-2.931-2.647a15.682,15.682,0,0,0,0-5.969l2.931-2.647Z" transform="translate(-6.812 -5.849)" fill="#ffce1c"/>
            <path id="Trazado_192566" data-name="Trazado 192566" d="M64.375,72.375a8.356,8.356,0,1,1,8.356-8.356,8.356,8.356,0,0,1-8.356,8.356" transform="translate(-6.764 -6.72)" fill="#fff"/>
            <path id="Trazado_192567" data-name="Trazado 192567" d="M34.976,9.273H65.207a1.51,1.51,0,0,0,0-3.02H34.976a1.51,1.51,0,1,0,0,3.02" transform="translate(-4.041 -0.755)" fill="#161615"/>
            <path id="Trazado_192568" data-name="Trazado 192568" d="M16.347,9.273a1.51,1.51,0,1,0-1.068-.442,1.523,1.523,0,0,0,1.068.442" transform="translate(-1.791 -0.755)" fill="#161615"/>
            <path id="Trazado_192569" data-name="Trazado 192569" d="M10.034,9.273a1.511,1.511,0,1,0-1.067-.442,1.521,1.521,0,0,0,1.067.442" transform="translate(-1.029 -0.755)" fill="#161615"/>
            <path id="Trazado_192570" data-name="Trazado 192570" d="M22.659,9.273a1.508,1.508,0,1,0-1.069-.442,1.521,1.521,0,0,0,1.069.442" transform="translate(-2.553 -0.755)" fill="#161615"/>
            <path id="Trazado_192571" data-name="Trazado 192571" d="M12.923,37.88h.023a1.509,1.509,0,0,0,1.338-.856L16.746,31.9l2.674,5.165a1.51,1.51,0,0,0,2.7-.04l3.771-7.854a1.51,1.51,0,1,0-2.723-1.307l-2.46,5.124-2.674-5.165a1.51,1.51,0,0,0-2.7.04l-2.461,5.124L10.2,27.822a1.51,1.51,0,0,0-2.683,1.389l4.065,7.853a1.51,1.51,0,0,0,1.342.816" transform="translate(-0.887 -3.26)" fill="#161615"/>
            <path id="Trazado_192572" data-name="Trazado 192572" d="M43.32,37.88h.023a1.509,1.509,0,0,0,1.338-.856l3.772-7.854a1.51,1.51,0,1,0-2.723-1.307l-2.461,5.124L40.6,27.822a1.511,1.511,0,0,0-2.7.04l-2.461,5.124-2.674-5.165a1.51,1.51,0,0,0-2.682,1.389l4.066,7.853a1.51,1.51,0,0,0,2.7-.04L39.305,31.9l2.673,5.165a1.51,1.51,0,0,0,1.342.816" transform="translate(-3.611 -3.26)" fill="#161615"/>
            <path id="Trazado_192573" data-name="Trazado 192573" d="M68.29,27.863l-2.462,5.123-2.673-5.164a1.51,1.51,0,0,0-2.7.04l-2.461,5.123-2.674-5.164a1.51,1.51,0,1,0-2.682,1.388L56.7,37.064a1.51,1.51,0,0,0,2.7-.04L61.865,31.9l2.673,5.164a1.51,1.51,0,0,0,1.341.817H65.9a1.511,1.511,0,0,0,1.339-.856l3.771-7.854a1.51,1.51,0,1,0-2.722-1.307" transform="translate(-6.335 -3.26)" fill="#161615"/>
            <path id="Trazado_192574" data-name="Trazado 192574" d="M79.15,38.715a1.51,1.51,0,1,0,1.068.442,1.521,1.521,0,0,0-1.068-.442" transform="translate(-9.374 -4.674)" fill="#161615"/>
            <path id="Trazado_192575" data-name="Trazado 192575" d="M36.03,56.551H6.346a3.326,3.326,0,0,1-3.323-3.322V13.962H68.265V29.191a1.51,1.51,0,1,0,3.02,0V6.412A6.35,6.35,0,0,0,64.942.069H6.346A6.35,6.35,0,0,0,0,6.412V53.229a6.35,6.35,0,0,0,6.343,6.343H36.03a1.511,1.511,0,1,0,0-3.021M6.346,3.089h58.6a3.326,3.326,0,0,1,3.323,3.323v4.531H3.023V6.412A3.326,3.326,0,0,1,6.346,3.089" transform="translate(0 -0.008)" fill="#161615"/>
            <path id="Trazado_192576" data-name="Trazado 192576" d="M8.858,57.024h17.7a1.51,1.51,0,0,0,0-3.02H8.858a1.51,1.51,0,1,0,0,3.02" transform="translate(-0.887 -6.52)" fill="#161615"/>
            <path id="Trazado_192577" data-name="Trazado 192577" d="M36.776,48.779a1.51,1.51,0,0,0,0-3.02l-20.892,0a1.511,1.511,0,0,0,0,3.021Z" transform="translate(-1.736 -5.524)" fill="#161615"/>
            <path id="Trazado_192578" data-name="Trazado 192578" d="M7.789,48.337a1.51,1.51,0,1,0-.442-1.067,1.519,1.519,0,0,0,.442,1.067" transform="translate(-0.887 -5.525)" fill="#161615"/>
          </g>
        </g>
        <g id="Grupo_128116" data-name="Grupo 128116" transform="translate(0 0)">
          <g id="Grupo_128115" data-name="Grupo 128115" clip-path="url(#clip-path-2)">
            <path id="Trazado_192579" data-name="Trazado 192579" d="M64.168,53.945a9.867,9.867,0,1,0,9.866,9.867,9.878,9.878,0,0,0-9.866-9.867m0,16.713a6.846,6.846,0,1,1,6.846-6.846,6.853,6.853,0,0,1-6.846,6.846" transform="translate(-6.556 -6.513)" fill="#161615"/>
            <path id="Trazado_192580" data-name="Trazado 192580" d="M82.028,66.919l-2.317-2.094a17.223,17.223,0,0,0,0-4.836L82.028,57.9a1.511,1.511,0,0,0,.3-1.876l-4.229-7.313a1.51,1.51,0,0,0-1.772-.681l-2.965.958a16.974,16.974,0,0,0-4.189-2.422l-.653-3.048a1.509,1.509,0,0,0-1.476-1.194H58.594a1.51,1.51,0,0,0-1.477,1.194l-.653,3.048a16.952,16.952,0,0,0-4.188,2.422l-2.966-.958a1.511,1.511,0,0,0-1.772.681l-4.229,7.313a1.51,1.51,0,0,0,.3,1.876l2.318,2.093a17.049,17.049,0,0,0,0,4.836L43.6,66.919a1.511,1.511,0,0,0-.3,1.877l4.229,7.311a1.51,1.51,0,0,0,1.772.681l2.966-.958a16.894,16.894,0,0,0,4.188,2.421l.653,3.048a1.51,1.51,0,0,0,1.477,1.194H67.04A1.509,1.509,0,0,0,68.516,81.3l.653-3.048a16.915,16.915,0,0,0,4.189-2.421l2.965.958a1.509,1.509,0,0,0,1.772-.681L82.324,68.8a1.512,1.512,0,0,0-.3-1.877M76.6,59.712a14.143,14.143,0,0,1,0,5.392,1.513,1.513,0,0,0,.47,1.409L79.1,68.342l-3.006,5.2L73.5,72.7a1.51,1.51,0,0,0-1.457.3,13.946,13.946,0,0,1-4.665,2.7,1.511,1.511,0,0,0-.987,1.113l-.571,2.664h-6l-.571-2.665a1.509,1.509,0,0,0-.987-1.112A13.959,13.959,0,0,1,53.592,73a1.507,1.507,0,0,0-1.456-.3l-2.594.838-3.006-5.2,2.024-1.828a1.509,1.509,0,0,0,.47-1.409,14.143,14.143,0,0,1,0-5.393,1.51,1.51,0,0,0-.47-1.409l-2.024-1.829,3.006-5.2,2.594.838a1.511,1.511,0,0,0,1.456-.3,13.974,13.974,0,0,1,4.664-2.7,1.51,1.51,0,0,0,.987-1.112l.571-2.663h6l.571,2.664a1.508,1.508,0,0,0,.987,1.111,13.971,13.971,0,0,1,4.665,2.7,1.512,1.512,0,0,0,1.457.3l2.593-.839,3.006,5.2L77.073,58.3a1.515,1.515,0,0,0-.47,1.409" transform="translate(-5.205 -5.11)" fill="#161615"/>
          </g>
        </g>
      </g>
    </g>
    <g id="Grupo_128126" data-name="Grupo 128126" transform="translate(-0.285 -0.244)">
      <rect id="Rectángulo_37108" data-name="Rectángulo 37108" width="148" height="146" rx="30" transform="translate(726.285 9313)" fill="url(#linear-gradient)"/>
      <g id="Grupo_128119" data-name="Grupo 128119" transform="translate(761.285 9347)">
        <g id="Grupo_128118" data-name="Grupo 128118" transform="translate(0 0)" clip-path="url(#clip-path-4)">
          <path id="Trazado_192581" data-name="Trazado 192581" d="M74.589,1.718H34.719A4.833,4.833,0,0,0,29.886,6.55V57.294a4.833,4.833,0,0,0,4.833,4.833h39.87a4.834,4.834,0,0,0,4.833-4.833V6.55a4.834,4.834,0,0,0-4.833-4.832" transform="translate(-3.608 -0.207)" fill="#fff"/>
          <path id="Trazado_192582" data-name="Trazado 192582" d="M76.645,1.718h-24.9A4.833,4.833,0,0,0,46.915,6.55v6.041H81.479V6.55a4.834,4.834,0,0,0-4.833-4.832" transform="translate(-5.665 -0.207)" fill="#5fbfda"/>
          <rect id="Rectángulo_41350" data-name="Rectángulo 41350" width="12.334" height="14.498" transform="translate(57.439 19.633)" fill="#ffce1c"/>
          <path id="Trazado_192583" data-name="Trazado 192583" d="M46.42,17.517H6.55a4.833,4.833,0,0,0-4.833,4.832V73.093A4.834,4.834,0,0,0,6.55,77.927H46.42a4.834,4.834,0,0,0,4.832-4.833V22.349a4.833,4.833,0,0,0-4.832-4.832" transform="translate(-0.207 -2.115)" fill="#fff"/>
          <path id="Trazado_192584" data-name="Trazado 192584" d="M48.494,17.517H23.726a4.832,4.832,0,0,0-4.832,4.832V28.39H53.327V22.349a4.833,4.833,0,0,0-4.832-4.832" transform="translate(-2.281 -2.115)" fill="#a1c053"/>
          <rect id="Rectángulo_41351" data-name="Rectángulo 41351" width="25.296" height="14.497" transform="translate(19.708 33.524)" fill="#ffce1c"/>
          <rect id="Rectángulo_41352" data-name="Rectángulo 41352" width="3.888" height="7.249" transform="translate(10.912 55.272)" fill="#a1c053"/>
          <rect id="Rectángulo_41353" data-name="Rectángulo 41353" width="3.813" height="7.249" transform="translate(26.089 55.272)" fill="#f89119"/>
          <rect id="Rectángulo_41354" data-name="Rectángulo 41354" width="3.85" height="7.249" transform="translate(41.154 55.272)" fill="#3aa9e3"/>
          <path id="Trazado_192585" data-name="Trazado 192585" d="M28.459,25H47.806a1.51,1.51,0,0,0,0-3.02H28.459a1.51,1.51,0,1,0,0,3.02" transform="translate(-3.254 -2.654)" fill="#161615"/>
          <path id="Trazado_192586" data-name="Trazado 192586" d="M13.456,25a1.51,1.51,0,1,0-1.069-.442A1.512,1.512,0,0,0,13.456,25" transform="translate(-1.442 -2.654)" fill="#161615"/>
          <path id="Trazado_192587" data-name="Trazado 192587" d="M8.373,25a1.511,1.511,0,1,0-1.067-.442A1.515,1.515,0,0,0,8.373,25" transform="translate(-0.829 -2.654)" fill="#161615"/>
          <path id="Trazado_192588" data-name="Trazado 192588" d="M18.539,25a1.512,1.512,0,1,0-1.067-.442A1.519,1.519,0,0,0,18.539,25" transform="translate(-2.056 -2.654)" fill="#161615"/>
          <path id="Trazado_192589" data-name="Trazado 192589" d="M30.625,39.43a1.509,1.509,0,1,0-1.068-.441,1.518,1.518,0,0,0,1.068.441" transform="translate(-3.515 -4.396)" fill="#161615"/>
          <path id="Trazado_192590" data-name="Trazado 192590" d="M45.835,36.41H33.149a1.51,1.51,0,0,0,0,3.02H44.323V50.907H9.891V39.43H22.276a1.51,1.51,0,1,0,0-3.02H8.382a1.51,1.51,0,0,0-1.511,1.511v14.5a1.51,1.51,0,0,0,1.511,1.511H45.835a1.511,1.511,0,0,0,1.511-1.511v-14.5a1.511,1.511,0,0,0-1.511-1.511" transform="translate(-0.83 -4.396)" fill="#161615"/>
          <path id="Trazado_192591" data-name="Trazado 192591" d="M77.484,7.694a1.51,1.51,0,0,0-1.511-1.511H56.628a1.511,1.511,0,0,0,0,3.021H75.974a1.51,1.51,0,0,0,1.511-1.511" transform="translate(-6.655 -0.746)" fill="#161615"/>
          <path id="Trazado_192592" data-name="Trazado 192592" d="M41.624,6.183a1.513,1.513,0,1,0,1.067.442,1.524,1.524,0,0,0-1.067-.442" transform="translate(-4.843 -0.746)" fill="#161615"/>
          <path id="Trazado_192593" data-name="Trazado 192593" d="M36.541,6.183a1.511,1.511,0,1,0,1.067.442,1.521,1.521,0,0,0-1.067-.442" transform="translate(-4.23 -0.746)" fill="#161615"/>
          <path id="Trazado_192594" data-name="Trazado 192594" d="M46.708,6.183a1.511,1.511,0,1,0,1.067.442,1.525,1.525,0,0,0-1.067-.442" transform="translate(-5.457 -0.746)" fill="#161615"/>
          <path id="Trazado_192595" data-name="Trazado 192595" d="M70.981,0H31.111a6.351,6.351,0,0,0-6.343,6.343v7.548H6.343A6.35,6.35,0,0,0,0,20.234V70.978a6.35,6.35,0,0,0,6.343,6.343h39.87a6.35,6.35,0,0,0,6.343-6.343V63.43H70.981a6.35,6.35,0,0,0,6.343-6.343V6.343A6.351,6.351,0,0,0,70.981,0M6.343,16.912h39.87a3.326,3.326,0,0,1,3.322,3.323v4.53H3.02v-4.53a3.326,3.326,0,0,1,3.323-3.323M49.535,70.978A3.327,3.327,0,0,1,46.213,74.3H6.343A3.327,3.327,0,0,1,3.02,70.978V27.785H49.535ZM70.981,60.41H52.556V35.642H69.773a1.51,1.51,0,0,0,1.511-1.511v-14.5a1.51,1.51,0,0,0-1.511-1.51H52.193a6.352,6.352,0,0,0-5.98-4.232H27.788V6.343A3.326,3.326,0,0,1,31.111,3.02h39.87A3.327,3.327,0,0,1,74.3,6.343v4.531H53.009a1.51,1.51,0,0,0,0,3.02H74.3V57.087a3.327,3.327,0,0,1-3.323,3.323M52.872,21.144H68.262V32.621H52.872Z" transform="translate(0 0)" fill="#161615"/>
          <path id="Trazado_192596" data-name="Trazado 192596" d="M15.629,61.144H8.381A1.511,1.511,0,0,0,6.87,62.655V69.9a1.511,1.511,0,0,0,1.511,1.51h7.249A1.51,1.51,0,0,0,17.14,69.9V62.655a1.51,1.51,0,0,0-1.511-1.511m-1.51,7.249H9.891V64.164h4.228Z" transform="translate(-0.829 -7.382)" fill="#161615"/>
          <path id="Trazado_192597" data-name="Trazado 192597" d="M32.805,61.144H25.557a1.51,1.51,0,0,0-1.51,1.511V69.9a1.51,1.51,0,0,0,1.51,1.51h7.249a1.51,1.51,0,0,0,1.511-1.51V62.655a1.51,1.51,0,0,0-1.511-1.511M31.3,68.393H27.067V64.164H31.3Z" transform="translate(-2.903 -7.382)" fill="#161615"/>
          <path id="Trazado_192598" data-name="Trazado 192598" d="M49.981,61.144H42.733a1.51,1.51,0,0,0-1.51,1.511V69.9a1.51,1.51,0,0,0,1.51,1.51h7.249a1.51,1.51,0,0,0,1.511-1.51V62.655a1.51,1.51,0,0,0-1.511-1.511m-1.51,7.249H44.243V64.164h4.228Z" transform="translate(-4.977 -7.382)" fill="#5fbfda"/>
          <path id="Trazado_192599" data-name="Trazado 192599" d="M15.629,76.258H8.381a1.51,1.51,0,1,0,0,3.02h7.249a1.51,1.51,0,1,0,0-3.02" transform="translate(-0.829 -9.207)" fill="#161615"/>
          <path id="Trazado_192600" data-name="Trazado 192600" d="M32.805,76.258H25.557a1.51,1.51,0,1,0,0,3.02h7.249a1.51,1.51,0,1,0,0-3.02" transform="translate(-2.903 -9.207)" fill="#161615"/>
          <path id="Trazado_192601" data-name="Trazado 192601" d="M49.982,76.258h-7.25a1.51,1.51,0,1,0,0,3.02h7.25a1.51,1.51,0,1,0,0-3.02" transform="translate(-4.977 -9.207)" fill="#161615"/>
          <path id="Trazado_192602" data-name="Trazado 192602" d="M77.529,53.59H65.749a1.51,1.51,0,1,0,0,3.02h11.78a1.51,1.51,0,1,0,0-3.02" transform="translate(-7.756 -6.47)" fill="#161615"/>
          <path id="Trazado_192603" data-name="Trazado 192603" d="M65.749,48.365h5.889a1.51,1.51,0,1,0,0-3.02H65.749a1.51,1.51,0,1,0,0,3.02" transform="translate(-7.756 -5.475)" fill="#161615"/>
          <path id="Trazado_192604" data-name="Trazado 192604" d="M79.147,45.345a1.513,1.513,0,1,0,1.067.442,1.525,1.525,0,0,0-1.067-.442" transform="translate(-9.374 -5.475)" fill="#161615"/>
        </g>
      </g>
    </g>
    <g id="Grupo_128127" data-name="Grupo 128127" transform="translate(-0.285 -0.244)">
      <rect id="Rectángulo_37109" data-name="Rectángulo 37109" width="148" height="146" rx="30" transform="translate(894.285 9313)" fill="url(#linear-gradient)"/>
      <g id="Grupo_128121" data-name="Grupo 128121" transform="translate(929.285 9347)">
        <g id="Grupo_128120" data-name="Grupo 128120" transform="translate(0 0)" clip-path="url(#clip-path-5)">
          <path id="Trazado_192605" data-name="Trazado 192605" d="M62.474,83.286a2.522,2.522,0,0,1-2.5,2.5H22.429a2.51,2.51,0,0,1-2.5-2.5,5,5,0,0,1,5.006-5.006H57.469a5,5,0,0,1,5.006,5.006" transform="translate(-2.406 -9.452)" fill="#848e9a"/>
          <path id="Trazado_192606" data-name="Trazado 192606" d="M54.917,77.249H29.889a8.443,8.443,0,0,0,3.754-7.021V69.74h17.52v.488a8.442,8.442,0,0,0,3.754,7.021" transform="translate(-3.609 -8.421)" fill="#99a4b0"/>
          <path id="Trazado_192607" data-name="Trazado 192607" d="M71.5,12.809H6.429a5,5,0,0,0-5.006,5.006V57.86a5,5,0,0,0,5.006,5.006H71.5a5,5,0,0,0,5.006-5.006V17.815A5,5,0,0,0,71.5,12.809" transform="translate(-0.172 -1.547)" fill="#fff"/>
          <path id="Trazado_192608" data-name="Trazado 192608" d="M70.939,53.542H8.368a1.252,1.252,0,0,1-1.252-1.251V19.754A1.252,1.252,0,0,1,8.368,18.5H70.939a1.251,1.251,0,0,1,1.251,1.251V52.291a1.252,1.252,0,0,1-1.251,1.251" transform="translate(-0.859 -2.234)" fill="#5fbfda"/>
          <rect id="Rectángulo_41356" data-name="Rectángulo 41356" width="15.017" height="10.011" transform="translate(51.308 21.274)" fill="#ffcd58"/>
          <path id="Trazado_192609" data-name="Trazado 192609" d="M42.451,46.624V56.635H19.925V46.624a2.51,2.51,0,0,1,2.5-2.5H39.948a2.51,2.51,0,0,1,2.5,2.5" transform="translate(-2.406 -5.328)" fill="#afc96a"/>
          <path id="Trazado_192610" data-name="Trazado 192610" d="M28.377,12.573l-5.556,4.054v-.186a3.762,3.762,0,0,0-3.754-3.754,1.255,1.255,0,0,0-1.251,1.251V23.949H12.81V1.424L28.39,12.548Z" transform="translate(-1.547 -0.172)" fill="#daa277"/>
          <path id="Trazado_192611" data-name="Trazado 192611" d="M50.521,16.44v7.509L34.954,12.573l-.013-.025L50.521,1.423V16.44Z" transform="translate(-4.219 -0.172)" fill="#daa277"/>
          <path id="Trazado_192612" data-name="Trazado 192612" d="M31.7,15.465l1.94-1.389.012.025L49.224,25.476H24.2V18.156L29.752,14.1l.012-.025Z" transform="translate(-2.921 -1.7)" fill="#cb8e57"/>
          <path id="Trazado_192613" data-name="Trazado 192613" d="M23.508,25.5H43.53v5.243A10.048,10.048,0,0,1,41.341,37l-2.816,3.516H23.508L20.692,37a10.044,10.044,0,0,1-2.19-6.258V15.484a1.254,1.254,0,0,1,1.251-1.251,3.758,3.758,0,0,1,3.754,3.754V25.5Z" transform="translate(-2.234 -1.719)" fill="#efc5a5"/>
          <path id="Trazado_192614" data-name="Trazado 192614" d="M47.849,1.423,32.269,12.548l-1.94,1.389-1.94-1.389L12.81,1.423Z" transform="translate(-1.547 -0.172)" fill="#c68b61"/>
          <rect id="Rectángulo_41357" data-name="Rectángulo 41357" width="2.503" height="2.503" transform="translate(7.509 55.062)" fill="#040506"/>
          <rect id="Rectángulo_41358" data-name="Rectángulo 41358" width="2.503" height="2.503" transform="translate(12.515 55.062)" fill="#040506"/>
          <rect id="Rectángulo_41359" data-name="Rectángulo 41359" width="2.503" height="2.503" transform="translate(17.52 55.062)" fill="#040506"/>
          <path id="Trazado_192615" data-name="Trazado 192615" d="M71.331,10.011H47.554V0H10.011V10.011H6.257A6.264,6.264,0,0,0,0,16.269V56.314a6.264,6.264,0,0,0,6.257,6.257h22.48a7.146,7.146,0,0,1-2.873,5.006H22.526a6.264,6.264,0,0,0-6.257,6.258,3.758,3.758,0,0,0,3.754,3.754H57.565a3.759,3.759,0,0,0,3.754-3.754,6.264,6.264,0,0,0-6.257-6.258H51.726a7.145,7.145,0,0,1-2.873-5.006H71.331a6.264,6.264,0,0,0,6.258-6.257V16.269a6.265,6.265,0,0,0-6.258-6.258M15.017,25.028v4a11.31,11.31,0,0,0,2.468,7.037l1.352,1.691A3.747,3.747,0,0,0,16.269,41.3v8.76H7.509V17.52h2.5v7.508Zm-2.5-21.345,12.194,8.71-2.594,1.9a5.01,5.01,0,0,0-4.594-3.027,2.506,2.506,0,0,0-2.5,2.5v8.76h-2.5ZM35.689,37.543H21.876L19.44,34.5a8.791,8.791,0,0,1-1.919-5.473V13.766a2.505,2.505,0,0,1,2.5,2.5v10.68l1.188.792a5.754,5.754,0,0,1,2.567,4.8h2.5A8.252,8.252,0,0,0,22.6,25.659l-.074-.049v-.582h17.52v4a8.792,8.792,0,0,1-1.92,5.473ZM22.526,22.526V17.091l4.329-3.166L28.783,15.3l1.928-1.378,11.76,8.6ZM32.857,12.393l12.194-8.71V21.311Zm-4.074-.165L15.167,2.5H42.4ZM18.771,41.3a1.252,1.252,0,0,1,1.251-1.251h17.52A1.252,1.252,0,0,1,38.794,41.3v8.76H18.771Zm19.957-3.544,1.352-1.691a11.305,11.305,0,0,0,2.468-7.038v-4h5.006V17.52H70.08V50.057H41.3V41.3a3.746,3.746,0,0,0-2.569-3.544M58.817,73.834a1.253,1.253,0,0,1-1.252,1.251H20.023a1.253,1.253,0,0,1-1.251-1.251,3.759,3.759,0,0,1,3.754-3.754H55.063a3.759,3.759,0,0,1,3.754,3.754m-10.6-6.258H29.373a9.627,9.627,0,0,0,1.867-5.006H46.35A9.634,9.634,0,0,0,48.216,67.576ZM75.085,56.314a3.759,3.759,0,0,1-3.754,3.754H6.257A3.758,3.758,0,0,1,2.5,56.314V16.269a3.758,3.758,0,0,1,3.754-3.754h3.754v2.5h-2.5a2.506,2.506,0,0,0-2.5,2.5V50.057a2.505,2.505,0,0,0,2.5,2.5H70.08a2.5,2.5,0,0,0,2.5-2.5V17.52a2.505,2.505,0,0,0-2.5-2.5H47.554v-2.5H71.331a3.759,3.759,0,0,1,3.754,3.754Z" transform="translate(0 0)" fill="#040506"/>
          <path id="Trazado_192616" data-name="Trazado 192616" d="M74.45,22.772H56.93V35.286H74.45Zm-2.5,10.011H59.433V25.274H71.948Z" transform="translate(-6.874 -2.75)" fill="#ffce1c"/>
          <rect id="Rectángulo_41360" data-name="Rectángulo 41360" width="2.503" height="2.503" transform="translate(43.799 45.051)" fill="#040506"/>
          <rect id="Rectángulo_41361" data-name="Rectángulo 41361" width="18.771" height="2.503" transform="translate(48.805 45.051)" fill="#040506"/>
          <rect id="Rectángulo_41362" data-name="Rectángulo 41362" width="23.777" height="2.503" transform="translate(43.799 40.045)" fill="#040506"/>
          <rect id="Rectángulo_41363" data-name="Rectángulo 41363" width="23.777" height="2.503" transform="translate(43.799 35.039)" fill="#040506"/>
        </g>
      </g>
    </g>
    <g id="Grupo_128128" data-name="Grupo 128128" transform="translate(-0.285 -0.244)">
      <rect id="Rectángulo_37110" data-name="Rectángulo 37110" width="148" height="146" rx="30" transform="translate(1062.285 9313)" fill="url(#linear-gradient)"/>
      <g id="Grupo_128123" data-name="Grupo 128123" transform="translate(1097.285 9347)">
        <g id="Grupo_128122" data-name="Grupo 128122" transform="translate(0 0)" clip-path="url(#clip-path-6)">
          <path id="Trazado_192617" data-name="Trazado 192617" d="M18.759,58.048H13.615A4.82,4.82,0,0,1,8.8,53.227V6.533a4.819,4.819,0,0,1,4.819-4.82H72.06a4.819,4.819,0,0,1,4.819,4.82V53.227a4.819,4.819,0,0,1-4.819,4.82h-53.3Z" transform="translate(-1.062 -0.207)" fill="#fff"/>
          <path id="Trazado_192618" data-name="Trazado 192618" d="M35.265,54.56l1.775-2.952-4.016-4.016-2.953,1.774-2.523-1.045-2.523,1.045-2.952-1.774-4.016,4.016,1.775,2.952-1.875,4.523-3.344.834v5.677l3.344.833,1.875,4.524L18.058,73.9l4.016,4.015,2.952-1.775,2.523,1.046,2.523-1.046,2.953,1.775L37.04,73.9l-1.775-2.953,1.875-4.524,3.344-.833V59.917l-3.344-.834Z" transform="translate(-1.765 -5.747)" fill="#f89119"/>
          <path id="Trazado_192619" data-name="Trazado 192619" d="M30.043,63.7a8.31,8.31,0,1,1-8.311-8.311A8.311,8.311,0,0,1,30.043,63.7" transform="translate(-1.621 -6.688)" fill="#fff"/>
          <path id="Trazado_192620" data-name="Trazado 192620" d="M66.5,43.926l-2.59.837a7.954,7.954,0,0,0-1.3-.861,7.992,7.992,0,0,0-1.3.861l-2.589-.837L56.4,47.919l2.022,1.827a8.058,8.058,0,0,0,0,2.5L56.4,54.072l2.311,3.994,2.589-.837a7.992,7.992,0,0,0,1.3.861,7.954,7.954,0,0,0,1.3-.861l2.59.837,2.31-3.994-2.021-1.825a8.058,8.058,0,0,0,0-2.5L68.8,47.919Z" transform="translate(-6.809 -5.301)" fill="#ffce1c"/>
          <path id="Trazado_192621" data-name="Trazado 192621" d="M74.2,1.714H31.359a4.82,4.82,0,0,0-4.821,4.82v6.025H79.022V6.534a4.82,4.82,0,0,0-4.82-4.82" transform="translate(-3.204 -0.207)" fill="#5fbfda"/>
          <path id="Trazado_192622" data-name="Trazado 192622" d="M39.082,57.776l-2.607-.65-1.293-3.12,1.383-2.3a1.506,1.506,0,0,0-.225-1.841l-4.016-4.015a1.506,1.506,0,0,0-1.841-.226l-2.3,1.383-3.12-1.293-.649-2.606a1.507,1.507,0,0,0-1.462-1.143H17.273a1.506,1.506,0,0,0-1.461,1.143l-.65,2.606-3.12,1.293-2.3-1.383a1.506,1.506,0,0,0-1.841.226L3.885,49.863A1.507,1.507,0,0,0,3.658,51.7l1.384,2.3-1.293,3.12-2.608.65A1.507,1.507,0,0,0,0,59.238v5.676a1.508,1.508,0,0,0,1.142,1.462l2.607.65,1.293,3.12-1.384,2.3a1.506,1.506,0,0,0,.226,1.841L7.9,78.3a1.507,1.507,0,0,0,1.841.226l2.3-1.383,3.12,1.293.65,2.608a1.505,1.505,0,0,0,1.461,1.142h5.677a1.507,1.507,0,0,0,1.461-1.142l.65-2.608,3.12-1.293,2.3,1.383a1.507,1.507,0,0,0,1.841-.226l4.016-4.015a1.506,1.506,0,0,0,.225-1.841l-1.383-2.3,1.293-3.12,2.607-.65a1.508,1.508,0,0,0,1.142-1.462V59.238a1.509,1.509,0,0,0-1.143-1.462m-1.87,5.962-2.2.548a1.506,1.506,0,0,0-1.027.885l-1.875,4.523a1.5,1.5,0,0,0,.1,1.353l1.168,1.943-2.35,2.351-1.943-1.169a1.51,1.51,0,0,0-1.353-.1l-4.523,1.875a1.509,1.509,0,0,0-.885,1.027l-.549,2.2H18.45l-.549-2.2a1.506,1.506,0,0,0-.885-1.027l-4.523-1.875a1.51,1.51,0,0,0-1.353.1L9.2,75.341,6.848,72.99l1.168-1.943a1.507,1.507,0,0,0,.1-1.353L6.241,65.171a1.506,1.506,0,0,0-1.027-.885l-2.2-.549V60.414l2.2-.549a1.5,1.5,0,0,0,1.027-.885l1.875-4.523a1.507,1.507,0,0,0-.1-1.353L6.847,51.162,9.2,48.812l1.943,1.169a1.507,1.507,0,0,0,1.353.1l4.523-1.875a1.508,1.508,0,0,0,.885-1.027l.548-2.2h3.324l.549,2.2a1.507,1.507,0,0,0,.885,1.027L27.73,50.08a1.51,1.51,0,0,0,1.353-.1l1.942-1.169,2.351,2.35L32.209,53.1a1.5,1.5,0,0,0-.1,1.353l1.874,4.523a1.5,1.5,0,0,0,1.028.885l2.2.549Z" transform="translate(0 -5.067)" fill="#161615"/>
          <path id="Trazado_192623" data-name="Trazado 192623" d="M22.9,56.689l.086,0,.064,0a1.506,1.506,0,0,0,.062-3.011l-.124,0a1.506,1.506,0,1,0-.089,3.011" transform="translate(-2.589 -6.481)" fill="#161615"/>
          <path id="Trazado_192624" data-name="Trazado 192624" d="M28.251,56.625a1.506,1.506,0,0,0-2.064,2.195,6.744,6.744,0,0,1,2.144,4.957,6.8,6.8,0,1,1-11.318-5.092,1.506,1.506,0,1,0-2-2.254,9.816,9.816,0,1,0,13.236.193" transform="translate(-1.414 -6.768)" fill="#161615"/>
          <path id="Trazado_192625" data-name="Trazado 192625" d="M66.566,58.2l2.31-3.994a1.506,1.506,0,0,0-.295-1.872l-1.45-1.31c.015-.215.022-.433.022-.649s-.007-.433-.022-.649l1.45-1.309a1.507,1.507,0,0,0,.295-1.873l-2.31-3.994a1.506,1.506,0,0,0-1.767-.679l-1.855.6a9.429,9.429,0,0,0-1.125-.651l-.409-1.908a1.506,1.506,0,0,0-1.473-1.191H55.324a1.506,1.506,0,0,0-1.473,1.191l-.408,1.908a9.3,9.3,0,0,0-1.125.651l-1.855-.6a1.507,1.507,0,0,0-1.767.679l-2.309,3.994a1.506,1.506,0,0,0,.294,1.873l1.45,1.309q-.022.324-.022.649c0,.216.007.433.022.649l-1.45,1.31a1.5,1.5,0,0,0-.294,1.872L48.7,58.2a1.508,1.508,0,0,0,1.767.679l1.855-.6a9.739,9.739,0,0,0,1.125.651l.408,1.908a1.507,1.507,0,0,0,1.473,1.191h4.613a1.507,1.507,0,0,0,1.473-1.191l.409-1.908a9.8,9.8,0,0,0,1.125-.651l1.855.6a1.507,1.507,0,0,0,1.767-.679m-2-2.562-1.433-.463a1.506,1.506,0,0,0-1.41.263,6.473,6.473,0,0,1-1.758,1.016,1.5,1.5,0,0,0-.931,1.09l-.316,1.471H56.542l-.315-1.471a1.508,1.508,0,0,0-.932-1.09,6.459,6.459,0,0,1-1.758-1.016,1.508,1.508,0,0,0-1.411-.263l-1.432.463L49.6,53.747l1.117-1.009a1.507,1.507,0,0,0,.479-1.351,6.573,6.573,0,0,1,0-2.034A1.507,1.507,0,0,0,50.72,48L49.6,46.993l1.09-1.884,1.432.462a1.505,1.505,0,0,0,1.411-.262,6.482,6.482,0,0,1,1.758-1.016,1.508,1.508,0,0,0,.932-1.09l.315-1.472h2.178l.316,1.472a1.5,1.5,0,0,0,.931,1.09,6.518,6.518,0,0,1,1.758,1.016,1.506,1.506,0,0,0,1.41.262l1.433-.462,1.09,1.885L64.54,48a1.511,1.511,0,0,0-.478,1.351,6.572,6.572,0,0,1,0,2.034,1.509,1.509,0,0,0,.478,1.351l1.118,1.009Z" transform="translate(-5.576 -4.675)" fill="#161615"/>
          <path id="Trazado_192626" data-name="Trazado 192626" d="M59,50.258a1.509,1.509,0,1,0,1.065.441A1.511,1.511,0,0,0,59,50.258" transform="translate(-6.941 -6.068)" fill="#161615"/>
          <path id="Trazado_192627" data-name="Trazado 192627" d="M19,32.265a1.5,1.5,0,1,0-1.066.443A1.518,1.518,0,0,0,19,32.265" transform="translate(-1.984 -3.586)" fill="#161615"/>
          <path id="Trazado_192628" data-name="Trazado 192628" d="M62.2,31.568A1.507,1.507,0,0,0,63.7,30.061v-8.3A1.507,1.507,0,0,0,61.131,20.7l-3.084,3.084L54.964,20.7a1.506,1.506,0,0,0-2.571,1.066v8.3a1.506,1.506,0,1,0,3.012,0V25.4l1.577,1.578a1.506,1.506,0,0,0,2.13,0L60.691,25.4v4.661A1.505,1.505,0,0,0,62.2,31.568" transform="translate(-6.326 -2.446)" fill="#161615"/>
          <path id="Trazado_192629" data-name="Trazado 192629" d="M48.865,25.981A5.724,5.724,0,1,0,43.141,31.7a5.731,5.731,0,0,0,5.724-5.724m-8.436,0a2.712,2.712,0,1,1,2.712,2.712,2.715,2.715,0,0,1-2.712-2.712" transform="translate(-4.518 -2.446)" fill="#161615"/>
          <path id="Trazado_192630" data-name="Trazado 192630" d="M31.8,24.066a1.506,1.506,0,1,0,2.13-2.13,5.72,5.72,0,1,0,0,8.094A1.506,1.506,0,1,0,31.8,27.9a2.711,2.711,0,1,1,0-3.834" transform="translate(-2.918 -2.447)" fill="#161615"/>
          <path id="Trazado_192631" data-name="Trazado 192631" d="M73.228,6.168H41.963a1.506,1.506,0,1,0,0,3.012H73.228a1.506,1.506,0,1,0,0-3.012" transform="translate(-4.885 -0.745)" fill="#161615"/>
          <path id="Trazado_192632" data-name="Trazado 192632" d="M23.382,6.168a1.5,1.5,0,1,0,1.065.441,1.518,1.518,0,0,0-1.065-.441" transform="translate(-2.641 -0.745)" fill="#161615"/>
          <path id="Trazado_192633" data-name="Trazado 192633" d="M17.086,6.168a1.507,1.507,0,1,0,1.065.441,1.514,1.514,0,0,0-1.065-.441" transform="translate(-1.881 -0.745)" fill="#161615"/>
          <path id="Trazado_192634" data-name="Trazado 192634" d="M29.675,6.168a1.505,1.505,0,1,0,1.066.441,1.516,1.516,0,0,0-1.066-.441" transform="translate(-3.401 -0.745)" fill="#161615"/>
          <path id="Trazado_192635" data-name="Trazado 192635" d="M71.853,0H13.408A6.334,6.334,0,0,0,7.082,6.326V37.054a1.506,1.506,0,1,0,3.012,0v-23.2H75.166V53.02a3.318,3.318,0,0,1-3.012,3.3V48.7a1.506,1.506,0,1,0-3.012,0v7.635H62.85a1.506,1.506,0,1,0,0,3.012h9a6.334,6.334,0,0,0,6.326-6.326V6.326A6.334,6.334,0,0,0,71.853,0M10.109,10.845h-.015V6.326a3.317,3.317,0,0,1,3.314-3.314H71.853a3.317,3.317,0,0,1,3.313,3.314v4.519Z" transform="translate(-0.855 0)" fill="#161615"/>
          <path id="Trazado_192636" data-name="Trazado 192636" d="M79.169,50.207a1.505,1.505,0,1,0-1.065-.441,1.518,1.518,0,0,0,1.065.441" transform="translate(-9.377 -5.699)" fill="#161615"/>
        </g>
      </g>
    </g>
    <path id="Trazado_193448" data-name="Trazado 193448" d="M-37.691,0h-2.727V-4.75h-4.039V0H-47.2V-11.375h2.742v4.516h4.039v-4.516h2.727ZM-33.3,0h-2.641V-8.453H-33.3Zm-2.8-10.633a1.175,1.175,0,0,1,.406-.922,1.533,1.533,0,0,1,1.055-.359,1.533,1.533,0,0,1,1.055.359,1.175,1.175,0,0,1,.406.922,1.175,1.175,0,0,1-.406.922,1.533,1.533,0,0,1-1.055.359,1.533,1.533,0,0,1-1.055-.359A1.175,1.175,0,0,1-36.1-10.633Zm12.266,6.469a5.1,5.1,0,0,1-.887,3.145A2.843,2.843,0,0,1-27.113.156,2.437,2.437,0,0,1-29.027-.7V3.25H-31.66v-11.7H-29.2l.078.781a2.437,2.437,0,0,1,1.992-.937A2.866,2.866,0,0,1-24.7-7.457a5.16,5.16,0,0,1,.867,3.168Zm-2.633-.164q0-2.25-1.312-2.25a1.239,1.239,0,0,0-1.25.672v3.328a1.279,1.279,0,0,0,1.266.7q1.258,0,1.3-2.172ZM-18.582.156A4.345,4.345,0,0,1-21.73-1a4.006,4.006,0,0,1-1.2-3.02v-.219a5.191,5.191,0,0,1,.48-2.289,3.516,3.516,0,0,1,1.4-1.535,4.233,4.233,0,0,1,2.188-.543A3.659,3.659,0,0,1-16.051-7.5,4.344,4.344,0,0,1-15.02-4.422V-3.4h-5.234a1.9,1.9,0,0,0,.617,1.117,1.836,1.836,0,0,0,1.234.406,2.366,2.366,0,0,0,1.953-.875l1.2,1.422A3.363,3.363,0,0,1-16.641-.246,4.713,4.713,0,0,1-18.582.156Zm-.3-6.734q-1.156,0-1.375,1.531H-17.6v-.2a1.3,1.3,0,0,0-.32-.98A1.275,1.275,0,0,0-18.879-6.578Zm10.031.508-.867-.062a1.558,1.558,0,0,0-1.594.781V0h-2.633V-8.453h2.469l.086,1.086A2.039,2.039,0,0,1-9.535-8.609a2.567,2.567,0,0,1,.734.094Zm4.461,2.938,1.336-5.32H-.277L-3.035,0H-5.723L-8.48-8.453H-5.7ZM3.379,0H.73V-8.453H3.379ZM2.395-11.844H5.176L3-9.391l-2.148,0ZM7.488-8.453l.086.992A2.867,2.867,0,0,1,9.988-8.609a2.412,2.412,0,0,1,1.973.789,3.757,3.757,0,0,1,.676,2.375V0H10V-5.336a1.426,1.426,0,0,0-.258-.941,1.193,1.193,0,0,0-.937-.3,1.256,1.256,0,0,0-1.148.609V0H5.02V-8.453Zm10.18,6.578a1.171,1.171,0,0,0,.859-.3,1.1,1.1,0,0,0,.3-.84h2.469a2.922,2.922,0,0,1-1,2.281A3.705,3.705,0,0,1,17.73.156,3.751,3.751,0,0,1,14.824-1a4.556,4.556,0,0,1-1.062-3.2v-.109a5.149,5.149,0,0,1,.473-2.262A3.441,3.441,0,0,1,15.6-8.082a4.065,4.065,0,0,1,2.109-.527,3.658,3.658,0,0,1,2.617.914,3.242,3.242,0,0,1,.969,2.477H18.824a1.445,1.445,0,0,0-.32-1.008,1.106,1.106,0,0,0-.859-.352q-1.023,0-1.2,1.3a9.206,9.206,0,0,0-.055,1.141,3.616,3.616,0,0,0,.3,1.766A1.055,1.055,0,0,0,17.668-1.875Zm9.773.961A2.714,2.714,0,0,1,25.184.156a2.662,2.662,0,0,1-2.105-.809,3.4,3.4,0,0,1-.715-2.324V-8.453H25v5.492a.946.946,0,0,0,1.055,1.086,1.376,1.376,0,0,0,1.289-.648v-5.93h2.648V0H27.52ZM34.207,0H31.566V-12h2.641ZM35.5-4.3a4.989,4.989,0,0,1,.492-2.254A3.52,3.52,0,0,1,37.4-8.078a4.259,4.259,0,0,1,2.164-.531,3.887,3.887,0,0,1,2.992,1.176,4.512,4.512,0,0,1,1.094,3.2v.094A4.378,4.378,0,0,1,42.555-1,3.9,3.9,0,0,1,39.582.156a3.942,3.942,0,0,1-2.9-1.082A4.232,4.232,0,0,1,35.5-3.859Zm2.633.164A3.145,3.145,0,0,0,38.5-2.422a1.223,1.223,0,0,0,1.086.547q1.406,0,1.438-2.164V-4.3q0-2.273-1.453-2.273-1.32,0-1.43,1.961ZM-33.215,24a2.973,2.973,0,0,1-.25-.758,2.448,2.448,0,0,1-2.031.914,3,3,0,0,1-2.031-.723,2.3,2.3,0,0,1-.836-1.816,2.364,2.364,0,0,1,1.016-2.078,5.174,5.174,0,0,1,2.953-.7h.813v-.448q0-1.17-1.008-1.17a.824.824,0,0,0-.937.926H-38.16a2.36,2.36,0,0,1,1.043-1.99,4.383,4.383,0,0,1,2.66-.765,3.843,3.843,0,0,1,2.555.789,2.743,2.743,0,0,1,.961,2.164v3.742a3.832,3.832,0,0,0,.359,1.781V24Zm-1.648-1.719a1.469,1.469,0,0,0,.816-.211,1.322,1.322,0,0,0,.465-.477V20.242h-.766q-1.375,0-1.375,1.234a.754.754,0,0,0,.242.582A.876.876,0,0,0-34.863,22.281Zm14.4.8a2.714,2.714,0,0,1-2.258,1.07,2.662,2.662,0,0,1-2.105-.809,3.4,3.4,0,0,1-.715-2.324V15.547h2.633v5.492a.946.946,0,0,0,1.055,1.086,1.376,1.376,0,0,0,1.289-.648v-5.93h2.648V24h-2.469Zm6.406-7.539.086.992a2.867,2.867,0,0,1,2.414-1.148,2.412,2.412,0,0,1,1.973.789,3.757,3.757,0,0,1,.676,2.375V24h-2.641V18.664a1.426,1.426,0,0,0-.258-.941,1.193,1.193,0,0,0-.937-.3,1.256,1.256,0,0,0-1.148.609V24h-2.633V15.547ZM-.105,24.156a3.929,3.929,0,0,1-2.02-.535,3.372,3.372,0,0,1-1.34-1.469,3.946,3.946,0,0,1-.359-2.074l.023-.219a5.182,5.182,0,0,1,1.449-3.3A4.009,4.009,0,0,1,.684,15.391a3.269,3.269,0,0,1,1.859.552,3.082,3.082,0,0,1,1.133,1.479,4.529,4.529,0,0,1,.234,2.117l-.148,1.072H-1.27a1.648,1.648,0,0,0,.375,1.078,1.377,1.377,0,0,0,1.047.438,2.66,2.66,0,0,0,2.008-.859l1.078,1.426a3.181,3.181,0,0,1-1.332,1.064,4.678,4.678,0,0,1-1.871.4ZM.52,17.422a1.322,1.322,0,0,0-.949.342,2.87,2.87,0,0,0-.7,1.2h2.57l.047-.225a1.715,1.715,0,0,0,.016-.513A.9.9,0,0,0,.52,17.422ZM8.1,15.539l-.172,1.016a3.035,3.035,0,0,1,2.469-1.164,2.23,2.23,0,0,1,1.258.359,1.638,1.638,0,0,1,.656.914,3.217,3.217,0,0,1,2.57-1.273,1.992,1.992,0,0,1,1.738.879,3.66,3.66,0,0,1,.41,2.41L16.145,24H13.566l.9-5.322.031-.46q0-.772-.727-.8a1.664,1.664,0,0,0-1.266.694L11.48,24H8.9l.891-5.306.031-.468q0-.8-.727-.8a1.653,1.653,0,0,0-1.25.694L6.809,24H4.238l1.469-8.453ZM22.434,24a2.292,2.292,0,0,1-.109-.766,2.608,2.608,0,0,1-2.07.922,2.548,2.548,0,0,1-1.828-.734,2.207,2.207,0,0,1-.68-1.742,2.48,2.48,0,0,1,1.148-2.113,5.415,5.415,0,0,1,3.031-.738l.859.016.094-.477.031-.414a.671.671,0,0,0-.711-.734.988.988,0,0,0-1.039.93l-2.578.008a2.448,2.448,0,0,1,.555-1.48,3.288,3.288,0,0,1,1.4-.969,4.9,4.9,0,0,1,1.887-.316,3.778,3.778,0,0,1,1.684.4,2.506,2.506,0,0,1,1.082,1.055,2.694,2.694,0,0,1,.273,1.559l-.633,3.977-.039.484a2.135,2.135,0,0,0,.148.984L24.934,24Zm-1.469-1.7a1.658,1.658,0,0,0,1.383-.7l.258-1.359-.664-.008a1.75,1.75,0,0,0-1.062.363,1.378,1.378,0,0,0-.523.949.692.692,0,0,0,.121.527A.619.619,0,0,0,20.965,22.3ZM28.691,24H26.113l1.469-8.453H30.16Zm-.883-10.586a1.192,1.192,0,0,1,.4-.953,1.444,1.444,0,0,1,1.012-.383,1.491,1.491,0,0,1,1,.344,1.172,1.172,0,0,1,.418.9,1.194,1.194,0,0,1-.4.957,1.449,1.449,0,0,1-1.016.379,1.51,1.51,0,0,1-1-.34A1.158,1.158,0,0,1,27.809,13.414ZM33.035,24H30.457l2.078-12h2.578Z" transform="translate(972.785 9500)" fill="#12263f"/>
  </g>
</svg>
