<svg xmlns="http://www.w3.org/2000/svg" width="927.466" height="351.769" viewBox="0 0 927.466 351.769">
  <g id="Group_128321" data-name="Group 128321" transform="translate(-335.785 -2595.525)">
    <g id="layer3" transform="translate(252.541 2084.275)">
      <g id="g4663" transform="translate(83.744 505.724)">
        <path id="text2936" d="M2.461,0V-21.475H16.948v2.534H5.3v6.65H15.381v2.534H5.3V0ZM20.273,0V-15.557h2.373V-13.2a6.436,6.436,0,0,1,1.677-2.183,2.928,2.928,0,0,1,1.692-.527,5.143,5.143,0,0,1,2.71.85l-.908,2.446a3.773,3.773,0,0,0-1.934-.571,2.511,2.511,0,0,0-1.553.52,2.817,2.817,0,0,0-.981,1.443,10.27,10.27,0,0,0-.439,3.076V0ZM40.942-5.01l2.725.337A6.648,6.648,0,0,1,41.279-.967,7.178,7.178,0,0,1,36.826.352a7.116,7.116,0,0,1-5.413-2.1,8.214,8.214,0,0,1-2-5.9,8.6,8.6,0,0,1,2.021-6.094,6.843,6.843,0,0,1,5.244-2.168,6.651,6.651,0,0,1,5.1,2.124,8.439,8.439,0,0,1,1.978,5.977q0,.234-.015.7h-11.6a5.978,5.978,0,0,0,1.45,3.926,4.316,4.316,0,0,0,3.252,1.362,4.035,4.035,0,0,0,2.476-.762A5.056,5.056,0,0,0,40.942-5.01ZM32.285-9.272h8.687a5.27,5.27,0,0,0-1-2.944,4.041,4.041,0,0,0-3.267-1.523,4.189,4.189,0,0,0-3.054,1.216A4.812,4.812,0,0,0,32.285-9.272ZM46.978,0V-15.557h2.373v2.212A5.592,5.592,0,0,1,54.3-15.908a6.5,6.5,0,0,1,2.585.505,4.067,4.067,0,0,1,1.765,1.326,5.089,5.089,0,0,1,.82,1.948,15.1,15.1,0,0,1,.146,2.563V0H56.982V-9.463a7.1,7.1,0,0,0-.308-2.41,2.535,2.535,0,0,0-1.091-1.274,3.471,3.471,0,0,0-1.838-.476,4.272,4.272,0,0,0-2.908,1.069Q49.614-11.484,49.614-8.5V0ZM69.419-2.358,69.8-.029a9.78,9.78,0,0,1-1.992.234,4.51,4.51,0,0,1-2.227-.454,2.543,2.543,0,0,1-1.113-1.194,9.441,9.441,0,0,1-.322-3.113v-8.95H62.212v-2.051h1.934v-3.853l2.622-1.582v5.435h2.651v2.051H66.768v9.1a4.6,4.6,0,0,0,.139,1.45,1.1,1.1,0,0,0,.454.513,1.754,1.754,0,0,0,.9.19A8.577,8.577,0,0,0,69.419-2.358ZM82.646-5.01l2.725.337A6.648,6.648,0,0,1,82.983-.967,7.178,7.178,0,0,1,78.53.352a7.116,7.116,0,0,1-5.413-2.1,8.214,8.214,0,0,1-2-5.9A8.6,8.6,0,0,1,73.14-13.74a6.843,6.843,0,0,1,5.244-2.168,6.651,6.651,0,0,1,5.1,2.124,8.439,8.439,0,0,1,1.978,5.977q0,.234-.015.7h-11.6a5.978,5.978,0,0,0,1.45,3.926,4.316,4.316,0,0,0,3.252,1.362,4.035,4.035,0,0,0,2.476-.762A5.056,5.056,0,0,0,82.646-5.01ZM73.989-9.272h8.687a5.27,5.27,0,0,0-1-2.944,4.041,4.041,0,0,0-3.267-1.523,4.189,4.189,0,0,0-3.054,1.216A4.812,4.812,0,0,0,73.989-9.272Z" transform="translate(190.654 27)"/>
        <g id="g4021" transform="translate(0 36.803)">
          <rect id="rect2902" width="454.019" height="319.991" fill="silver" stroke="#000" stroke-width="1"/>
          <g id="g3964" transform="translate(229.611 8.162)">
            <path id="path2963" d="M214.8,322.767H425.626V471.718H214.8Zm105.471-.2.013,149.536" transform="translate(-214.797 -322.564)" fill="#fff" stroke="#000" stroke-width="0.75"/>
            <path id="path2965" d="M230.319,412.081h53.539m-26.77-22.632v22.473" transform="translate(-204.314 -277.393)" fill="#509f50" stroke="#509f50" stroke-width="1" fill-rule="evenodd"/>
            <path id="path2967" d="M294.319,412.081h53.539m-26.77-22.632v22.473" transform="translate(-161.092 -277.393)" fill="#509f50" stroke="#509f50" stroke-width="1" fill-rule="evenodd"/>
            <text id="text3041" transform="translate(60.659 78.407) rotate(180)" font-size="27" font-family="ArialMT, Arial"><tspan x="0" y="0">9</tspan></text>
            <text id="text3045" transform="translate(167.867 78.407) rotate(180)" font-size="27" font-family="ArialMT, Arial"><tspan x="0" y="0">8</tspan></text>
          </g>
          <g id="g3994" transform="translate(229.611 162.294)">
            <path id="path2932" d="M214.8,414.767H425.626V563.718H214.8Zm105.471-.2.013,149.536" transform="translate(-214.797 -414.564)" fill="#fff" stroke="#000" stroke-width="0.75"/>
            <path id="path2945" d="M230.318,423.449h53.541m-26.77,22.632V423.608" transform="translate(-204.315 -408.564)" fill="#509f50" stroke="#509f50" stroke-width="1" fill-rule="evenodd"/>
            <path id="path2949" d="M294.318,423.449h53.541m-26.77,22.632V423.608" transform="translate(-161.093 -408.564)" fill="#509f50" stroke="#509f50" stroke-width="1" fill-rule="evenodd"/>
            <text id="text3049" transform="translate(153.14 71.585)" font-size="27" font-family="ArialMT, Arial"><tspan x="0" y="0">1</tspan></text>
            <text id="text3053" transform="translate(36.03 72.585)" font-size="28" font-family="ArialMT, Arial"><tspan x="0" y="0">16</tspan></text>
          </g>
          <g id="g4003" transform="translate(13.578 8.162)">
            <path id="rect2922" d="M85.849,322.767H296.678V471.718H85.849Zm105.472-.2.013,149.536" transform="translate(-85.849 -322.564)" fill="#fff" stroke="#000" stroke-width="0.75"/>
            <path id="path2940" d="M101.37,412.081h53.541m-26.77-22.632v22.473" transform="translate(-75.366 -277.393)" fill="#509f50" stroke="#509f50" stroke-width="1" fill-rule="evenodd"/>
            <path id="path2947" d="M165.37,412.081h53.541m-26.77-22.632v22.473" transform="translate(-32.144 -277.393)" fill="#509f50" stroke="#509f50" stroke-width="1" fill-rule="evenodd"/>
            <text id="text3033" transform="translate(61.688 78.115) rotate(180)" font-size="27" font-family="ArialMT, Arial"><tspan x="0" y="0">5</tspan></text>
            <text id="text3037" transform="translate(176.642 77.407) rotate(180)" font-size="28" font-family="ArialMT, Arial"><tspan x="0" y="0">12</tspan></text>
          </g>
          <g id="g4012" transform="translate(13.578 162.294)">
            <path id="path2979" d="M85.849,414.767H296.678V563.718H85.849Zm105.472-.2.013,149.536" transform="translate(-85.849 -414.564)" fill="#fff" stroke="#000" stroke-width="0.75"/>
            <path id="path2981" d="M101.37,423.449h53.541m-26.77,22.632V423.608" transform="translate(-75.367 -408.564)" fill="#509f50" stroke="#509f50" stroke-width="1" fill-rule="evenodd"/>
            <path id="path2983" d="M165.37,423.449h53.541m-26.77,22.632V423.608" transform="translate(-32.145 -408.564)" fill="#509f50" stroke="#509f50" stroke-width="1" fill-rule="evenodd"/>
            <text id="text3057" transform="translate(143.246 72.585)" font-size="28" font-family="ArialMT, Arial"><tspan x="0" y="0">13</tspan></text>
            <text id="text3061" transform="translate(45.362 71.585)" font-size="27" font-family="ArialMT, Arial"><tspan x="0" y="0">4</tspan></text>
          </g>
          <g id="g3685" transform="translate(7.576 2.547)">
            <path id="path3351" d="M147.749,303.478v-4.22h3.419v4.22" transform="translate(-38.042 -299.181)" fill="none" stroke="#000" stroke-width="1" fill-rule="evenodd"/>
            <path id="path3353" d="M276.7,303.479v-4.22h3.419v4.22" transform="translate(49.043 -299.18)" fill="none" stroke="#000" stroke-width="1" fill-rule="evenodd"/>
            <path id="path3343" d="M211.564,302.529v-3.317" transform="translate(5.055 -299.212)" fill="none" stroke="#000" stroke-width="1" fill-rule="evenodd"/>
            <path id="path3345" d="M213.9,304.052v-4.334h1.66v2.674" transform="translate(6.631 -298.87)" fill="none" stroke="#000" stroke-width="1" fill-rule="evenodd"/>
            <path id="path3325" d="M82.266,304.766h2.622v-1.726l1.664,0V299.7h1.674v2.493" transform="translate(-82.266 -298.886)" fill="none" stroke="#000" stroke-width="1" fill-rule="evenodd"/>
            <path id="path3337" d="M82.266,483.538h2.622v1.726l1.664,0v3.342h1.674v-2.493" transform="translate(-82.266 -174.728)" fill="none" stroke="#000" stroke-width="1" fill-rule="evenodd"/>
            <path id="path3339" d="M346.616,483.538h-2.622v1.726l-1.664,0v3.342h-1.674v-2.493" transform="translate(92.237 -174.728)" fill="none" stroke="#000" stroke-width="1" fill-rule="evenodd"/>
            <path id="path3331" d="M341.017,393.816h2.511V395.5h2.454" transform="translate(92.48 -235.322)" fill="none" stroke="#000" stroke-width="1" fill-rule="evenodd"/>
            <path id="path3329" d="M342.016,391.45h3.317" transform="translate(93.155 -236.919)" fill="none" stroke="#000" stroke-width="1" fill-rule="evenodd"/>
            <path id="path3341" d="M346.616,304.766h-2.622v-1.726l-1.664,0V299.7h-1.674v2.493" transform="translate(92.237 -298.886)" fill="none" stroke="#000" stroke-width="1" fill-rule="evenodd"/>
            <path id="path3355" d="M276.7,484.388v4.22h3.418v-4.22" transform="translate(49.043 -174.154)" fill="none" stroke="#000" stroke-width="1" fill-rule="evenodd"/>
            <path id="path3357" d="M147.749,484.388v4.22h3.419v-4.22" transform="translate(-38.042 -174.154)" fill="none" stroke="#000" stroke-width="1" fill-rule="evenodd"/>
            <path id="path3427" d="M211.564,488.411V485.1" transform="translate(5.055 -173.677)" fill="none" stroke="#000" stroke-width="1" fill-rule="evenodd"/>
            <path id="path3429" d="M213.9,483.983v4.334h1.66v-2.674" transform="translate(6.631 -174.428)" fill="none" stroke="#000" stroke-width="1" fill-rule="evenodd"/>
            <path id="path3459" d="M87.467,393.816H84.955V395.5H82.5" transform="translate(-82.107 -235.322)" fill="none" stroke="#000" stroke-width="1" fill-rule="evenodd"/>
            <path id="path3461" d="M85.8,391.45H82.486" transform="translate(-82.117 -236.919)" fill="none" stroke="#000" stroke-width="1" fill-rule="evenodd"/>
          </g>
        </g>
        <path id="text4189" d="M-.041,0l7.7-20.043h2.857L18.717,0H15.7L13.357-6.07H4.977L2.775,0ZM5.742-8.23h6.795l-2.092-5.551q-.957-2.529-1.422-4.156a25.55,25.55,0,0,1-1.08,3.828ZM25.895-2.2,26.25-.027a9.128,9.128,0,0,1-1.859.219,4.209,4.209,0,0,1-2.078-.424,2.373,2.373,0,0,1-1.039-1.114,8.811,8.811,0,0,1-.3-2.905v-8.354h-1.8V-14.52h1.8v-3.6l2.447-1.477v5.072h2.475v1.914H23.42v8.49a4.289,4.289,0,0,0,.13,1.354,1.025,1.025,0,0,0,.424.479,1.637,1.637,0,0,0,.841.178A8.006,8.006,0,0,0,25.895-2.2ZM28.273,0V-14.52h2.215v2.2a6.007,6.007,0,0,1,1.565-2.037,2.733,2.733,0,0,1,1.579-.492,4.8,4.8,0,0,1,2.529.793l-.848,2.283a3.521,3.521,0,0,0-1.8-.533,2.344,2.344,0,0,0-1.449.485,2.629,2.629,0,0,0-.916,1.347,9.586,9.586,0,0,0-.41,2.871V0ZM47.1-1.791A9.164,9.164,0,0,1,44.468-.15a7.6,7.6,0,0,1-2.714.479A5.279,5.279,0,0,1,38.076-.841a3.858,3.858,0,0,1-1.285-2.987,3.973,3.973,0,0,1,.485-1.948,4.018,4.018,0,0,1,1.271-1.415A5.979,5.979,0,0,1,40.318-8a17.585,17.585,0,0,1,2.188-.369,22.493,22.493,0,0,0,4.389-.848q.014-.506.014-.643a2.717,2.717,0,0,0-.7-2.119,4.119,4.119,0,0,0-2.8-.834,4.346,4.346,0,0,0-2.563.608,3.717,3.717,0,0,0-1.224,2.153l-2.406-.328a5.962,5.962,0,0,1,1.08-2.5,4.734,4.734,0,0,1,2.174-1.463,9.7,9.7,0,0,1,3.295-.513,8.721,8.721,0,0,1,3.021.438,3.981,3.981,0,0,1,1.709,1.1,3.871,3.871,0,0,1,.766,1.675,13.856,13.856,0,0,1,.123,2.27v3.281a34.828,34.828,0,0,0,.157,4.341A5.476,5.476,0,0,0,50.162,0h-2.57A5.218,5.218,0,0,1,47.1-1.791Zm-.205-5.5a18.055,18.055,0,0,1-4.02.93,9.3,9.3,0,0,0-2.146.492,2.14,2.14,0,0,0-.971.8A2.1,2.1,0,0,0,39.416-3.9a2.1,2.1,0,0,0,.745,1.641,3.206,3.206,0,0,0,2.181.656,5.075,5.075,0,0,0,2.529-.622,3.831,3.831,0,0,0,1.627-1.7,5.945,5.945,0,0,0,.4-2.461Zm-4.785-9.037,1.818-3.828h3.227l-3.008,3.828Zm10.1,11.99,2.434-.383a3.4,3.4,0,0,0,1.142,2.242,3.979,3.979,0,0,0,2.618.779,3.846,3.846,0,0,0,2.516-.69,2.065,2.065,0,0,0,.82-1.62,1.5,1.5,0,0,0-.725-1.312A10.673,10.673,0,0,0,58.5-6.152a22.956,22.956,0,0,1-3.753-1.183,3.635,3.635,0,0,1-1.586-1.381,3.658,3.658,0,0,1-.54-1.948,3.739,3.739,0,0,1,.444-1.8,3.984,3.984,0,0,1,1.21-1.374,5.073,5.073,0,0,1,1.565-.718,7.444,7.444,0,0,1,2.126-.294,8.4,8.4,0,0,1,3,.492,4.082,4.082,0,0,1,1.907,1.333,5.209,5.209,0,0,1,.848,2.249l-2.406.328a2.632,2.632,0,0,0-.95-1.75,3.475,3.475,0,0,0-2.222-.629,4.023,4.023,0,0,0-2.42.561A1.632,1.632,0,0,0,55-10.951a1.358,1.358,0,0,0,.3.861,2.17,2.17,0,0,0,.943.656q.369.137,2.174.629a30.262,30.262,0,0,1,3.644,1.142,3.7,3.7,0,0,1,1.62,1.292,3.606,3.606,0,0,1,.588,2.105,4.132,4.132,0,0,1-.718,2.317A4.639,4.639,0,0,1,61.482-.267,7.539,7.539,0,0,1,58.42.328,6.822,6.822,0,0,1,54.106-.848,5.468,5.468,0,0,1,52.213-4.334Z" transform="translate(666.79 26.695)"/>
        <g id="g4611" transform="translate(472.447 36.803)">
          <rect id="rect3757" width="454.019" height="319.991" fill="#90b0d0" stroke="#000" stroke-width="1"/>
          <g id="g4420" transform="translate(229.611 8.162)">
            <path id="path3761" d="M496.8,382.767H707.626V531.718H496.8Zm105.471-.2.013,149.536" transform="translate(-496.797 -382.564)" fill="#fff" stroke="#000" stroke-width="0.75"/>
            <path id="path3763" d="M512.319,472.081h53.539m-26.77-22.632v22.473" transform="translate(-486.314 -337.394)" fill="#509f50" stroke="#509f50" stroke-width="1" fill-rule="evenodd"/>
            <path id="path3765" d="M576.319,472.081h53.539m-26.77-22.632v22.473" transform="translate(-443.092 -337.394)" fill="#509f50" stroke="#509f50" stroke-width="1" fill-rule="evenodd"/>
            <text id="text3767" transform="translate(67.557 77.407) rotate(180)" font-size="28" font-family="ArialMT, Arial"><tspan x="0" y="0">11</tspan></text>
            <text id="text3771" transform="translate(167.867 78.407) rotate(180)" font-size="27" font-family="ArialMT, Arial"><tspan x="0" y="0">6</tspan></text>
          </g>
          <g id="g4128" transform="translate(229.611 162.294)">
            <path id="path3777" d="M496.8,414.767H707.626V563.718H496.8Zm105.471-.2.013,149.536" transform="translate(-496.797 -414.564)" fill="#fff" stroke="#000" stroke-width="0.75"/>
            <path id="path3779" d="M512.318,423.449h53.541m-26.77,22.632V423.608" transform="translate(-486.315 -408.564)" fill="#509f50" stroke="#509f50" stroke-width="1" fill-rule="evenodd"/>
            <path id="path3781" d="M576.318,423.449h53.541m-26.77,22.632V423.608" transform="translate(-443.093 -408.564)" fill="#509f50" stroke="#509f50" stroke-width="1" fill-rule="evenodd"/>
            <text id="text3783" transform="translate(153.14 71.585)" font-size="27" font-family="ArialMT, Arial"><tspan x="0" y="0">3</tspan></text>
            <text id="text3787" transform="translate(36.03 72.585)" font-size="28" font-family="ArialMT, Arial"><tspan x="0" y="0">14</tspan></text>
          </g>
          <g id="g4101" transform="translate(13.579 162.294)">
            <path id="path3809" d="M367.849,414.767H578.678V563.718H367.849Zm105.471-.2.013,149.536" transform="translate(-367.849 -414.564)" fill="#fff" stroke="#000" stroke-width="0.75"/>
            <path id="path3811" d="M383.37,423.449h53.541m-26.77,22.632V423.608" transform="translate(-357.367 -408.564)" fill="#509f50" stroke="#509f50" stroke-width="1" fill-rule="evenodd"/>
            <path id="path3813" d="M447.37,423.449h53.541m-26.77,22.632V423.608" transform="translate(-314.145 -408.564)" fill="#509f50" stroke="#509f50" stroke-width="1" fill-rule="evenodd"/>
            <text id="text3815" transform="translate(143.245 72.585)" font-size="28" font-family="ArialMT, Arial"><tspan x="0" y="0">15</tspan></text>
            <text id="text3819" transform="translate(45.361 71.585)" font-size="27" font-family="ArialMT, Arial"><tspan x="0" y="0">2</tspan></text>
          </g>
          <g id="g3823" transform="translate(7.576 2.547)">
            <path id="path3825" d="M147.749,303.478v-4.22h3.419v4.22" transform="translate(-38.042 -299.181)" fill="none" stroke="#000" stroke-width="1" fill-rule="evenodd"/>
            <path id="path3827" d="M276.7,303.479v-4.22h3.419v4.22" transform="translate(49.043 -299.18)" fill="none" stroke="#000" stroke-width="1" fill-rule="evenodd"/>
            <path id="path3829" d="M211.564,302.529v-3.317" transform="translate(5.055 -299.212)" fill="none" stroke="#000" stroke-width="1" fill-rule="evenodd"/>
            <path id="path3831" d="M213.9,304.052v-4.334h1.66v2.674" transform="translate(6.631 -298.87)" fill="none" stroke="#000" stroke-width="1" fill-rule="evenodd"/>
            <path id="path3833" d="M82.266,304.766h2.622v-1.726l1.664,0V299.7h1.674v2.493" transform="translate(-82.266 -298.886)" fill="none" stroke="#000" stroke-width="1" fill-rule="evenodd"/>
            <path id="path3835" d="M82.266,483.538h2.622v1.726l1.664,0v3.342h1.674v-2.493" transform="translate(-82.266 -174.728)" fill="none" stroke="#000" stroke-width="1" fill-rule="evenodd"/>
            <path id="path3837" d="M346.616,483.538h-2.622v1.726l-1.664,0v3.342h-1.674v-2.493" transform="translate(92.237 -174.728)" fill="none" stroke="#000" stroke-width="1" fill-rule="evenodd"/>
            <path id="path3839" d="M341.017,393.816h2.511V395.5h2.454" transform="translate(92.48 -235.322)" fill="none" stroke="#000" stroke-width="1" fill-rule="evenodd"/>
            <path id="path3841" d="M342.016,391.45h3.317" transform="translate(93.155 -236.919)" fill="none" stroke="#000" stroke-width="1" fill-rule="evenodd"/>
            <path id="path3843" d="M346.616,304.766h-2.622v-1.726l-1.664,0V299.7h-1.674v2.493" transform="translate(92.237 -298.886)" fill="none" stroke="#000" stroke-width="1" fill-rule="evenodd"/>
            <path id="path3845" d="M276.7,484.388v4.22h3.418v-4.22" transform="translate(49.043 -174.154)" fill="none" stroke="#000" stroke-width="1" fill-rule="evenodd"/>
            <path id="path3847" d="M147.749,484.388v4.22h3.419v-4.22" transform="translate(-38.042 -174.154)" fill="none" stroke="#000" stroke-width="1" fill-rule="evenodd"/>
            <path id="path3849" d="M211.564,488.411V485.1" transform="translate(5.055 -173.677)" fill="none" stroke="#000" stroke-width="1" fill-rule="evenodd"/>
            <path id="path3851" d="M213.9,483.983v4.334h1.66v-2.674" transform="translate(6.631 -174.428)" fill="none" stroke="#000" stroke-width="1" fill-rule="evenodd"/>
            <path id="path3853" d="M87.467,393.816H84.955V395.5H82.5" transform="translate(-82.107 -235.322)" fill="none" stroke="#000" stroke-width="1" fill-rule="evenodd"/>
            <path id="path3855" d="M85.8,391.45H82.486" transform="translate(-82.117 -236.919)" fill="none" stroke="#000" stroke-width="1" fill-rule="evenodd"/>
          </g>
          <g id="g4429" transform="translate(13.579 8.162)">
            <path id="path3793" d="M367.849,382.767H578.678V531.718H367.849Zm105.471-.2.013,149.536" transform="translate(-367.849 -382.564)" fill="#fff" stroke="#000" stroke-width="0.75"/>
            <path id="path3795" d="M383.37,472.081h53.541m-26.77-22.632v22.473" transform="translate(-357.367 -337.394)" fill="#509f50" stroke="#509f50" stroke-width="1" fill-rule="evenodd"/>
            <path id="path3797" d="M447.37,472.081h53.541m-26.77-22.632v22.473" transform="translate(-314.145 -337.394)" fill="#509f50" stroke="#509f50" stroke-width="1" fill-rule="evenodd"/>
            <text id="text3799" transform="translate(61.687 78.115) rotate(180)" font-size="27" font-family="ArialMT, Arial"><tspan x="0" y="0">7</tspan></text>
            <text id="text3803" transform="translate(176.642 77.407) rotate(180)" font-size="28" font-family="ArialMT, Arial"><tspan x="0" y="0">10</tspan></text>
          </g>
        </g>
      </g>
    </g>
  </g>
</svg>
