<svg xmlns="http://www.w3.org/2000/svg" xmlns:xlink="http://www.w3.org/1999/xlink" width="575.55" height="341.688" viewBox="0 0 575.55 341.688">
  <defs>
    <clipPath id="clip-path">
      <rect id="Rectangle_41478" data-name="Rectangle 41478" width="575.55" height="341.688" fill="none"/>
    </clipPath>
    <clipPath id="clip-path-3">
      <rect id="Rectangle_41473" data-name="Rectangle 41473" width="338.248" height="91.642" fill="none"/>
    </clipPath>
    <clipPath id="clip-path-4">
      <rect id="Rectangle_41474" data-name="Rectangle 41474" width="275.992" height="53.331" fill="none"/>
    </clipPath>
  </defs>
  <g id="Group_128262" data-name="Group 128262" transform="translate(14762.55 12526)">
    <g id="Group_128259" data-name="Group 128259" transform="translate(-14762.55 -12526)">
      <g id="Group_128258" data-name="Group 128258" clip-path="url(#clip-path)">
        <g id="Group_128253" data-name="Group 128253">
          <g id="Group_128252" data-name="Group 128252" clip-path="url(#clip-path)">
            <g id="Group_128248" data-name="Group 128248" transform="translate(0 250.046)" opacity="0.2">
              <g id="Group_128247" data-name="Group 128247">
                <g id="Group_128246" data-name="Group 128246" clip-path="url(#clip-path-3)">
                  <path id="Path_192774" data-name="Path 192774" d="M85.839,303.466C85.839,305.008,0,342.057,0,342.057l163.175,53.051,175.073-47.793Z" transform="translate(0 -303.467)" fill="#161615"/>
                </g>
              </g>
            </g>
            <g id="Group_128251" data-name="Group 128251" transform="translate(299.558 287.999)" opacity="0.2">
              <g id="Group_128250" data-name="Group 128250">
                <g id="Group_128249" data-name="Group 128249" clip-path="url(#clip-path-4)">
                  <path id="Path_192775" data-name="Path 192775" d="M363.557,379.744c0,1.542,26.916,23.115,26.916,23.115l249.076-31.591-35.743-21.74Z" transform="translate(-363.557 -349.529)" fill="#161615"/>
                </g>
              </g>
            </g>
          </g>
        </g>
        <path id="Path_192776" data-name="Path 192776" d="M335.512,292.637h-9.826L307.507,26.349Z" transform="translate(-54.132 -4.638)" fill="#fff"/>
        <path id="Path_192777" data-name="Path 192777" d="M335.512,292.637h-9.826L307.507,26.349Z" transform="translate(-54.132 -4.638)" fill="none" stroke="#1e1e1e" stroke-miterlimit="10" stroke-width="2"/>
        <path id="Path_192778" data-name="Path 192778" d="M329.125,296.322l-12.037,2.211-9.58-272.184Z" transform="translate(-54.132 -4.638)" fill="#fff"/>
        <path id="Path_192779" data-name="Path 192779" d="M329.125,296.322l-12.037,2.211-9.58-272.184Z" transform="translate(-54.132 -4.638)" fill="none" stroke="#1e1e1e" stroke-miterlimit="10" stroke-width="2"/>
        <path id="Path_192780" data-name="Path 192780" d="M321.655,300.99l-23.092.983,7.37-275.624Z" transform="translate(-52.558 -4.638)" fill="#fff"/>
        <path id="Path_192781" data-name="Path 192781" d="M321.655,300.99l-23.092.983,7.37-275.624Z" transform="translate(-52.558 -4.638)" fill="none" stroke="#1e1e1e" stroke-miterlimit="10" stroke-width="2"/>
        <path id="Path_192782" data-name="Path 192782" d="M260.43,21.94l8.353,280.537-39.059-6.935L40.078,1.305Z" transform="translate(-7.055 -0.23)" fill="#fff"/>
        <g id="Group_128255" data-name="Group 128255">
          <g id="Group_128254" data-name="Group 128254" clip-path="url(#clip-path)">
            <path id="Path_192783" data-name="Path 192783" d="M260.43,21.94l8.353,280.537-39.059-6.935L40.078,1.305Z" transform="translate(-7.055 -0.23)" fill="none" stroke="#1e1e1e" stroke-miterlimit="10" stroke-width="2"/>
          </g>
        </g>
        <path id="Path_192784" data-name="Path 192784" d="M209.422,339.435l1.086-17.2,16.6-263.087L198.263,336.01Z" transform="translate(-34.901 -10.411)" fill="#fff"/>
        <path id="Path_192785" data-name="Path 192785" d="M209.422,339.435l1.086-17.2,16.6-263.087L198.263,336.01Z" transform="translate(-34.901 -10.411)" fill="none" stroke="#1e1e1e" stroke-miterlimit="10" stroke-width="2"/>
        <path id="Path_192786" data-name="Path 192786" d="M253.307,334.03,229.725,59.143l-16.6,263.087Z" transform="translate(-37.517 -10.411)" fill="#fff"/>
        <path id="Path_192787" data-name="Path 192787" d="M253.307,334.03,229.725,59.143l-16.6,263.087Z" transform="translate(-37.517 -10.411)" fill="none" stroke="#1e1e1e" stroke-miterlimit="10" stroke-width="2"/>
        <path id="Path_192788" data-name="Path 192788" d="M266.926,331.574,233.271,59.143l23.246,270.965Z" transform="translate(-41.064 -10.411)" fill="#fff"/>
        <path id="Path_192789" data-name="Path 192789" d="M266.926,331.574,233.271,59.143l23.246,270.965Z" transform="translate(-41.064 -10.411)" fill="none" stroke="#1e1e1e" stroke-miterlimit="10" stroke-width="2"/>
        <g id="Group_128257" data-name="Group 128257">
          <g id="Group_128256" data-name="Group 128256" clip-path="url(#clip-path)">
            <path id="Path_192790" data-name="Path 192790" d="M594.2,25.458l.461-1.658-5.067,1.1,1.658-3.685-5.8,1.013-.461-3.869L579,19.47s.553-3.224,0-3.592-3.962,1.842-3.962,1.842l.737-3.869-5.988,1.842.737-3.592-4.791,1.2-.368-3.961s-5.527,2.3-5.527,1.935.461-3.962.461-3.962l-5.159,1.106-.666-4.744C537.011,15.573,368.5,57.336,368.5,57.336l-2.488,263.735,5.067.737-.368,1.842h4.238V326.6l3.777,1.2.553,2.211s2.211-.368,2.211-.645a20.632,20.632,0,0,1,.737,2.212l2.027-.83.645,2.119,2.671-.368-1.013,1.934s3.224,1.29,3.592.921,0,2.119,0,2.119l3.224.184a1.385,1.385,0,0,0,1.308,1.842h1s168.857-28.465,203.033-29.018l1.566-284.559Z" transform="translate(-64.432 -0.646)" fill="#fff"/>
            <path id="Path_192791" data-name="Path 192791" d="M594.2,25.458l.461-1.658-5.067,1.1,1.658-3.685-5.8,1.013-.461-3.869L579,19.47s.553-3.224,0-3.592-3.962,1.842-3.962,1.842l.737-3.869-5.988,1.842.737-3.592-4.791,1.2-.368-3.961s-5.527,2.3-5.527,1.935.461-3.962.461-3.962l-5.159,1.106-.666-4.744C537.011,15.573,368.5,57.336,368.5,57.336l-2.488,263.735,5.067.737-.368,1.842h4.238V326.6l3.777,1.2.553,2.211s2.211-.368,2.211-.645a20.632,20.632,0,0,1,.737,2.212l2.027-.83.645,2.119,2.671-.368-1.013,1.934s3.224,1.29,3.592.921,0,2.119,0,2.119l3.224.184a1.385,1.385,0,0,0,1.308,1.842h1s168.857-28.465,203.033-29.018l1.566-284.559Z" transform="translate(-64.432 -0.646)" fill="none" stroke="#1e1e1e" stroke-miterlimit="10" stroke-width="2"/>
            <line id="Line_490" data-name="Line 490" x1="3.221" y2="265.35" transform="translate(332.448 73.298)" fill="none" stroke="#1e1e1e" stroke-miterlimit="10" stroke-width="1"/>
            <line id="Line_491" data-name="Line 491" x1="3.221" y2="265.35" transform="translate(329.089 71.092)" fill="none" stroke="#1e1e1e" stroke-miterlimit="10" stroke-width="1"/>
            <line id="Line_492" data-name="Line 492" x1="3.221" y2="265.35" transform="translate(323.434 67.037)" fill="none" stroke="#1e1e1e" stroke-miterlimit="10" stroke-width="1"/>
            <line id="Line_493" data-name="Line 493" x1="3.221" y2="266.89" transform="translate(326.294 69.617)" fill="none" stroke="#1e1e1e" stroke-miterlimit="10" stroke-width="1"/>
            <line id="Line_494" data-name="Line 494" x1="3.221" y2="265.35" transform="translate(320.293 66.297)" fill="none" stroke="#1e1e1e" stroke-miterlimit="10" stroke-width="1"/>
            <line id="Line_495" data-name="Line 495" x1="3.221" y2="265.35" transform="translate(318.697 65.314)" fill="none" stroke="#1e1e1e" stroke-miterlimit="10" stroke-width="1"/>
            <line id="Line_496" data-name="Line 496" x1="3.221" y2="265.35" transform="translate(317.232 63.963)" fill="none" stroke="#1e1e1e" stroke-miterlimit="10" stroke-width="1"/>
            <line id="Line_497" data-name="Line 497" x1="3.221" y2="265.35" transform="translate(314.532 63.103)" fill="none" stroke="#1e1e1e" stroke-miterlimit="10" stroke-width="1"/>
            <line id="Line_498" data-name="Line 498" x1="3.221" y2="262.648" transform="translate(310.957 61.632)" fill="none" stroke="#1e1e1e" stroke-miterlimit="10" stroke-width="1"/>
            <line id="Line_499" data-name="Line 499" y1="262.953" x2="3.221" transform="translate(309.267 59.727)" fill="none" stroke="#1e1e1e" stroke-miterlimit="10" stroke-width="1"/>
            <line id="Line_500" data-name="Line 500" x1="3.181" y2="262.092" transform="translate(307.736 59.727)" fill="none" stroke="#1e1e1e" stroke-miterlimit="10" stroke-width="1"/>
            <line id="Line_501" data-name="Line 501" x1="3.221" y2="261.658" transform="translate(305.298 58.93)" fill="none" stroke="#1e1e1e" stroke-miterlimit="10" stroke-width="1"/>
            <line id="Line_502" data-name="Line 502" x1="3.221" y2="265.35" transform="translate(312.567 61.632)" fill="none" stroke="#1e1e1e" stroke-miterlimit="10" stroke-width="1"/>
            <path id="Path_192792" data-name="Path 192792" d="M606.676,30.59S505.357,43.379,407.36,80.222" transform="translate(-71.71 -5.385)" fill="none" stroke="#1e1e1e" stroke-miterlimit="10" stroke-width="1"/>
            <path id="Path_192793" data-name="Path 192793" d="M600.941,30.1s-98.9,12.306-194.558,47.761" transform="translate(-71.538 -5.299)" fill="none" stroke="#1e1e1e" stroke-miterlimit="10" stroke-width="1"/>
            <path id="Path_192794" data-name="Path 192794" d="M595.788,28.994S498.964,40.74,403.306,76.2" transform="translate(-70.996 -5.104)" fill="none" stroke="#1e1e1e" stroke-miterlimit="10" stroke-width="1"/>
            <path id="Path_192795" data-name="Path 192795" d="M591.414,26.2s-95.843,12.429-191.5,47.885" transform="translate(-70.399 -4.612)" fill="none" stroke="#1e1e1e" stroke-miterlimit="10" stroke-width="1"/>
            <path id="Path_192796" data-name="Path 192796" d="M590.726,23.361S492.3,36.519,396.005,71.974" transform="translate(-69.711 -4.112)" fill="none" stroke="#1e1e1e" stroke-miterlimit="10" stroke-width="1"/>
            <path id="Path_192797" data-name="Path 192797" d="M582.3,19.843S487.161,34.334,392.631,69.789" transform="translate(-69.117 -3.493)" fill="none" stroke="#1e1e1e" stroke-miterlimit="10" stroke-width="1"/>
            <path id="Path_192798" data-name="Path 192798" d="M561.183,8.22s-92.347,27.9-187.244,52.954" transform="translate(-65.827 -1.447)" fill="none" stroke="#1e1e1e" stroke-miterlimit="10" stroke-width="1"/>
            <path id="Path_192799" data-name="Path 192799" d="M563.594,12.637S476.2,38.8,381.3,63.856" transform="translate(-67.123 -2.225)" fill="none" stroke="#1e1e1e" stroke-miterlimit="10" stroke-width="1"/>
            <path id="Path_192800" data-name="Path 192800" d="M569.635,15.481S472.912,39.63,387.341,66.7" transform="translate(-68.186 -2.725)" fill="none" stroke="#1e1e1e" stroke-miterlimit="10" stroke-width="1"/>
            <path id="Path_192801" data-name="Path 192801" d="M33.728,1.3,4,291.176l158.939,45.447,1-9.554L192.912,48.962Z" transform="translate(-0.705 -0.23)" fill="#fff"/>
            <path id="Path_192802" data-name="Path 192802" d="M33.728,1.3,4,291.176l158.939,45.447,1-9.554L192.912,48.962Z" transform="translate(-0.705 -0.23)" fill="none" stroke="#1e1e1e" stroke-miterlimit="10" stroke-width="2"/>
            <path id="Path_192803" data-name="Path 192803" d="M369.379,68.716a51.58,51.58,0,0,0,4.164,3.566,6.515,6.515,0,0,0,2.359,0l1.61-.46s.98.644.98,1.1,2.319.8,2.319.8l1.965,1.472,2.071.859,2.487,1.934h.737l3.606,1.14,1.921,2.084,3.734,1.971,3.34,1.806" transform="translate(-65.024 -12.096)" fill="none" stroke="#1e1e1e" stroke-miterlimit="10" stroke-width="1"/>
          </g>
        </g>
      </g>
    </g>
    <path id="Path_192824" data-name="Path 192824" d="M26.61,21H22.979V9.441l-3.566,1.042V7.733l6.864-2.374h.333Z" transform="matrix(0.985, 0.174, -0.174, 0.985, -14641.459, -12233.616)" fill="#12263f"/>
    <path id="Path_192823" data-name="Path 192823" d="M18.8,13.36l.956-8H28.9V8.174H22.7l-.354,3.107a4.27,4.27,0,0,1,1.015-.4,4.632,4.632,0,0,1,1.23-.173,4.589,4.589,0,0,1,3.583,1.38,5.56,5.56,0,0,1,1.251,3.873,5.55,5.55,0,0,1-.671,2.723,4.615,4.615,0,0,1-1.885,1.875A5.952,5.952,0,0,1,24,21.215a6.4,6.4,0,0,1-2.761-.606,4.953,4.953,0,0,1-2.02-1.664,4.043,4.043,0,0,1-.72-2.388h3.631a2.054,2.054,0,0,0,.548,1.361,1.739,1.739,0,0,0,1.3.5q1.826,0,1.826-2.7,0-2.5-2.234-2.5a2.23,2.23,0,0,0-1.891.815Z" transform="matrix(0.996, 0.087, -0.087, 0.996, -14585.9, -12240.694)" fill="#12263f"/>
    <path id="Path_192822" data-name="Path 192822" d="M25.719,14.952A3.824,3.824,0,0,1,23.1,16a4.232,4.232,0,0,1-3.373-1.439,5.671,5.671,0,0,1-1.246-3.846,5.772,5.772,0,0,1,.7-2.793,5.239,5.239,0,0,1,1.96-2.041,5.345,5.345,0,0,1,2.788-.752,5.189,5.189,0,0,1,2.8.779,5.244,5.244,0,0,1,1.95,2.2,7.564,7.564,0,0,1,.72,3.282v1.386a9.4,9.4,0,0,1-1.015,4.49,7.008,7.008,0,0,1-2.9,2.922A9.046,9.046,0,0,1,21.1,21.215h-.226v-2.9l.688-.011Q25.3,18.121,25.719,14.952Zm-1.644-1.558a1.762,1.762,0,0,0,1.7-1.021v-1.5a3.91,3.91,0,0,0-.5-2.224,1.584,1.584,0,0,0-1.364-.72,1.5,1.5,0,0,0-1.278.816,3.627,3.627,0,0,0-.516,1.977,3.252,3.252,0,0,0,.526,1.95A1.684,1.684,0,0,0,24.075,13.395Z" transform="matrix(0.996, 0.087, -0.087, 0.996, -14542.9, -12259.234)" fill="#12263f"/>
  </g>
</svg>
