<svg xmlns="http://www.w3.org/2000/svg" xmlns:xlink="http://www.w3.org/1999/xlink" width="610" height="303" viewBox="0 0 610 303">
  <defs>
    <clipPath id="clip-path">
      <rect id="Rectangle_41327" data-name="Rectangle 41327" width="262.576" height="283.901" fill="none"/>
    </clipPath>
    <clipPath id="clip-path-3">
      <rect id="Rectangle_41323" data-name="Rectangle 41323" width="173.888" height="173.887" fill="none"/>
    </clipPath>
    <clipPath id="clip-path-4">
      <rect id="Rectangle_41324" data-name="Rectangle 41324" width="173.917" height="173.916" fill="none"/>
    </clipPath>
    <clipPath id="clip-path-5">
      <rect id="Rectangle_41325" data-name="Rectangle 41325" width="173.916" height="173.916" fill="none"/>
    </clipPath>
    <clipPath id="clip-path-8">
      <rect id="Rectangle_41328" data-name="Rectangle 41328" width="85.237" height="84.968" fill="none"/>
    </clipPath>
  </defs>
  <g id="Group_128107" data-name="Group 128107" transform="translate(-810.285 -7868)">
    <rect id="Rectangle_41331" data-name="Rectangle 41331" width="610" height="303" transform="translate(810.285 7868)" fill="none"/>
    <g id="Group_128106" data-name="Group 128106" transform="translate(13.775 8.807)">
      <g id="Group_128098" data-name="Group 128098" transform="translate(820 7868.494)">
        <g id="Group_128097" data-name="Group 128097" transform="translate(0 0)" clip-path="url(#clip-path)">
          <g id="Group_128096" data-name="Group 128096">
            <g id="Group_128095" data-name="Group 128095" clip-path="url(#clip-path)">
              <g id="Group_128088" data-name="Group 128088" transform="translate(44.344 33.219)" style="mix-blend-mode: multiply;isolation: isolate">
                <g id="Group_128087" data-name="Group 128087">
                  <g id="Group_128086" data-name="Group 128086" clip-path="url(#clip-path-3)">
                    <path id="Path_192459" data-name="Path 192459" d="M246.176,141.1a86.944,86.944,0,1,1-86.944-86.943A86.943,86.943,0,0,1,246.176,141.1" transform="translate(-72.288 -54.152)" fill="#0092e5"/>
                  </g>
                </g>
              </g>
              <g id="Group_128091" data-name="Group 128091" transform="translate(0 109.985)" style="mix-blend-mode: multiply;isolation: isolate">
                <g id="Group_128090" data-name="Group 128090">
                  <g id="Group_128089" data-name="Group 128089" clip-path="url(#clip-path-4)">
                    <path id="Path_192460" data-name="Path 192460" d="M43.486,190.957A86.943,86.943,0,1,1,11.663,309.724,86.944,86.944,0,0,1,43.486,190.957" transform="translate(0 -179.294)" fill="#d6006c"/>
                  </g>
                </g>
              </g>
              <g id="Group_128094" data-name="Group 128094" transform="translate(88.659 109.985)" style="mix-blend-mode: multiply;isolation: isolate">
                <g id="Group_128093" data-name="Group 128093">
                  <g id="Group_128092" data-name="Group 128092" clip-path="url(#clip-path-5)">
                    <path id="Path_192461" data-name="Path 192461" d="M188.016,341.548a86.943,86.943,0,1,1,118.767-31.824,86.944,86.944,0,0,1-118.767,31.824" transform="translate(-144.529 -179.294)" fill="#ffec00"/>
                  </g>
                </g>
              </g>
              <path id="Path_192462" data-name="Path 192462" d="M168.631,8.071C168.631,2.983,171.9,0,175.805,0a6.294,6.294,0,0,1,4.525,1.981L178.7,3.942a3.977,3.977,0,0,0-2.836-1.293c-2.336,0-4.088,2-4.088,5.318,0,3.357,1.585,5.38,4.025,5.38A4.291,4.291,0,0,0,179,11.825l1.627,1.919a6.245,6.245,0,0,1-4.922,2.273c-3.9,0-7.07-2.795-7.07-7.946" transform="translate(-65.187)" fill="#535453"/>
              <path id="Path_192463" data-name="Path 192463" d="M192.227.476h3.419l2.628,7.216c.334.959.626,1.981.939,2.983h.1c.334-1,.6-2.023.939-2.983L202.82.476h3.421V15.909h-2.816V9.465c0-1.46.229-3.608.375-5.068h-.083l-1.251,3.628-2.378,6.486h-1.772l-2.4-6.486L194.688,4.4H194.6c.145,1.459.4,3.608.4,5.068v6.444h-2.773Z" transform="translate(-74.308 -0.184)" fill="#535453"/>
              <path id="Path_192464" data-name="Path 192464" d="M222.595,10.257,217.965.476h3.274l1.543,3.754c.438,1.147.855,2.232,1.335,3.421h.083c.48-1.189.939-2.274,1.376-3.421L227.121.476h3.211l-4.651,9.781v5.652h-3.086Z" transform="translate(-84.257 -0.184)" fill="#535453"/>
              <path id="Path_192465" data-name="Path 192465" d="M241.016.476H244.1V7.17h.063L249.274.476h3.4l-4.713,6.069,5.547,9.364h-3.4l-3.983-6.924L244.1,11.57v4.338h-3.086Z" transform="translate(-93.168 -0.184)" fill="#535453"/>
              <path id="Path_192466" data-name="Path 192466" d="M205.236,113.766c0-4.79,3.081-7.6,6.752-7.6a5.928,5.928,0,0,1,4.26,1.865l-1.532,1.845a3.745,3.745,0,0,0-2.669-1.216c-2.2,0-3.847,1.884-3.847,5.005,0,3.16,1.492,5.064,3.789,5.064a4.042,4.042,0,0,0,3-1.432l1.531,1.805a5.876,5.876,0,0,1-4.632,2.139c-3.671,0-6.654-2.63-6.654-7.478" transform="translate(-79.337 -41.041)" fill="#fff"/>
              <path id="Path_192467" data-name="Path 192467" d="M187.2,147.977a11.456,11.456,0,0,1,1.8-6.221l.7.319a11.874,11.874,0,0,0,0,11.8l-.7.331a11.5,11.5,0,0,1-1.8-6.234" transform="translate(-72.365 -54.798)" fill="#fff"/>
              <path id="Path_192468" data-name="Path 192468" d="M193.14,150.485a3.244,3.244,0,0,1,3.215-3.509,2.849,2.849,0,0,1,1.951.785l-.577.748a1.934,1.934,0,0,0-1.338-.6c-1.2,0-2.086,1.043-2.086,2.577s.835,2.553,2.062,2.553a2.349,2.349,0,0,0,1.571-.663l.478.748a3.179,3.179,0,0,1-2.148.847c-1.767,0-3.129-1.277-3.129-3.486" transform="translate(-74.661 -56.816)" fill="#fff"/>
              <path id="Path_192469" data-name="Path 192469" d="M202.994,156.657l.221-.9a1.576,1.576,0,0,0,.5.111c.761,0,1.24-.613,1.51-1.436l.147-.5-2.675-6.675h1.166l1.362,3.706c.2.577.429,1.264.638,1.865h.061c.184-.6.38-1.277.564-1.865l1.191-3.706h1.092l-2.516,7.215c-.466,1.313-1.154,2.319-2.479,2.319a2.051,2.051,0,0,1-.785-.135" transform="translate(-78.356 -56.924)" fill="#fff"/>
              <path id="Path_192470" data-name="Path 192470" d="M213.58,152.081c0-1.448,1.264-2.172,4.1-2.491,0-.859-.282-1.681-1.375-1.681a3.67,3.67,0,0,0-2,.712l-.442-.774a5.016,5.016,0,0,1,2.627-.871c1.619,0,2.307,1.093,2.307,2.737v4.1h-.92l-.1-.8h-.037a3.568,3.568,0,0,1-2.209.958,1.807,1.807,0,0,1-1.951-1.89m4.1.11v-1.865c-2.246.269-3.006.822-3.006,1.681,0,.761.515,1.067,1.178,1.067a2.724,2.724,0,0,0,1.829-.883" transform="translate(-82.562 -56.816)" fill="#fff"/>
              <path id="Path_192471" data-name="Path 192471" d="M225.54,147.149h.92l.1.958h.036a3.2,3.2,0,0,1,2.234-1.129c1.4,0,2.037.908,2.037,2.614v4.221h-1.117v-4.074c0-1.251-.38-1.78-1.264-1.78a2.536,2.536,0,0,0-1.829,1.018v4.835H225.54Z" transform="translate(-87.186 -56.816)" fill="#fff"/>
              <path id="Path_192472" data-name="Path 192472" d="M236.78,153.88a11.874,11.874,0,0,0,0-11.8l.687-.319a11.584,11.584,0,0,1,0,12.455Z" transform="translate(-91.531 -54.798)" fill="#fff"/>
              <path id="Path_192473" data-name="Path 192473" d="M40.3,377.8a11.46,11.46,0,0,1,1.8-6.222l.7.32a11.878,11.878,0,0,0,0,11.8l-.7.331a11.5,11.5,0,0,1-1.8-6.234" transform="translate(-15.579 -143.639)" fill="#fff"/>
              <path id="Path_192474" data-name="Path 192474" d="M47.06,376.971h.92l.1.97h.036a2.928,2.928,0,0,1,2.074-1.142,1.757,1.757,0,0,1,1.841,1.277,3.148,3.148,0,0,1,2.2-1.277c1.374,0,2.024.908,2.024,2.614v4.221H55.135V379.56c0-1.251-.393-1.78-1.239-1.78a2.46,2.46,0,0,0-1.681,1.018v4.835H51.1V379.56c0-1.251-.393-1.78-1.239-1.78a2.463,2.463,0,0,0-1.681,1.018v4.835H47.06Z" transform="translate(-18.192 -145.657)" fill="#fff"/>
              <path id="Path_192475" data-name="Path 192475" d="M64.9,381.9c0-1.448,1.264-2.172,4.1-2.491,0-.859-.283-1.681-1.375-1.681a3.674,3.674,0,0,0-2,.712l-.442-.773a5.01,5.01,0,0,1,2.626-.872c1.62,0,2.307,1.092,2.307,2.737v4.1h-.92l-.1-.8h-.037a3.572,3.572,0,0,1-2.209.957A1.807,1.807,0,0,1,64.9,381.9m4.1.11V380.15c-2.246.269-3.006.822-3.006,1.681,0,.761.515,1.067,1.178,1.067A2.724,2.724,0,0,0,69,382.014" transform="translate(-25.088 -145.657)" fill="#fff"/>
              <path id="Path_192476" data-name="Path 192476" d="M76.019,384.911a1.885,1.885,0,0,1,.994-1.51v-.049a1.205,1.205,0,0,1-.614-1.093,1.626,1.626,0,0,1,.749-1.239v-.049a2.339,2.339,0,0,1-.871-1.792,2.373,2.373,0,0,1,2.5-2.381,2.767,2.767,0,0,1,.933.172h2.319v.859H80.67a1.9,1.9,0,0,1,.54,1.374,2.285,2.285,0,0,1-2.43,2.319,2.309,2.309,0,0,1-.994-.233.993.993,0,0,0-.429.8c0,.429.27.724,1.166.724h1.3c1.546,0,2.319.491,2.319,1.583,0,1.239-1.3,2.307-3.363,2.307-1.632,0-2.761-.638-2.761-1.791m5.044-.344c0-.613-.478-.822-1.362-.822H78.547a3.747,3.747,0,0,1-.859-.11A1.405,1.405,0,0,0,77,384.763c0,.712.724,1.178,1.939,1.178,1.276,0,2.122-.674,2.122-1.374m-.871-5.387a1.424,1.424,0,1,0-2.835,0,1.426,1.426,0,1,0,2.835,0" transform="translate(-29.386 -145.657)" fill="#fff"/>
              <path id="Path_192477" data-name="Path 192477" d="M87,380.309a3.224,3.224,0,0,1,3.006-3.51c1.694,0,2.651,1.227,2.651,3.13a4.359,4.359,0,0,1-.049.638H88.116a2.208,2.208,0,0,0,2.208,2.332,2.874,2.874,0,0,0,1.669-.528l.4.736a3.961,3.961,0,0,1-2.209.688A3.185,3.185,0,0,1,87,380.309m4.676-.54c0-1.35-.614-2.074-1.657-2.074a2.049,2.049,0,0,0-1.914,2.074Z" transform="translate(-33.631 -145.657)" fill="#fff"/>
              <path id="Path_192478" data-name="Path 192478" d="M98.9,376.971h.921l.1.958h.036a3.2,3.2,0,0,1,2.234-1.129c1.4,0,2.037.908,2.037,2.614v4.221h-1.117V379.56c0-1.251-.38-1.78-1.264-1.78a2.538,2.538,0,0,0-1.829,1.018v4.835H98.9Z" transform="translate(-38.231 -145.657)" fill="#fff"/>
              <path id="Path_192479" data-name="Path 192479" d="M110.812,380.506v-3.694h-.994v-.847l1.043-.062.135-1.865h.932V375.9h1.8v.909h-1.8v3.718c0,.822.258,1.289,1.031,1.289a2.361,2.361,0,0,0,.761-.172l.221.835a4.193,4.193,0,0,1-1.227.245c-1.424,0-1.9-.883-1.9-2.221" transform="translate(-42.452 -144.59)" fill="#fff"/>
              <path id="Path_192480" data-name="Path 192480" d="M117.5,381.9c0-1.448,1.264-2.172,4.1-2.491,0-.859-.282-1.681-1.375-1.681a3.67,3.67,0,0,0-2,.712l-.442-.773a5.01,5.01,0,0,1,2.627-.872c1.619,0,2.307,1.092,2.307,2.737v4.1h-.92l-.1-.8h-.037a3.57,3.57,0,0,1-2.209.957,1.807,1.807,0,0,1-1.951-1.89m4.1.11V380.15c-2.246.269-3.006.822-3.006,1.681,0,.761.515,1.067,1.178,1.067a2.724,2.724,0,0,0,1.829-.883" transform="translate(-45.421 -145.657)" fill="#fff"/>
              <path id="Path_192481" data-name="Path 192481" d="M128.479,383.7a11.874,11.874,0,0,0,0-11.8l.687-.32a11.585,11.585,0,0,1,0,12.456Z" transform="translate(-49.665 -143.639)" fill="#fff"/>
              <path id="Path_192482" data-name="Path 192482" d="M311.383,377.8a11.46,11.46,0,0,1,1.8-6.222l.7.32a11.877,11.877,0,0,0,0,11.8l-.7.331a11.5,11.5,0,0,1-1.8-6.234" transform="translate(-120.369 -143.639)" fill="#535453"/>
              <path id="Path_192483" data-name="Path 192483" d="M316.857,386.479l.221-.9a1.591,1.591,0,0,0,.5.11c.761,0,1.24-.613,1.51-1.435l.147-.5-2.675-6.677h1.166l1.362,3.706c.2.577.429,1.263.638,1.865h.061c.184-.6.38-1.276.564-1.865l1.191-3.706h1.092l-2.516,7.215c-.466,1.313-1.154,2.32-2.479,2.32a2.027,2.027,0,0,1-.785-.136" transform="translate(-122.372 -145.766)" fill="#535453"/>
              <path id="Path_192484" data-name="Path 192484" d="M327.663,380.309a3.224,3.224,0,0,1,3.006-3.51c1.694,0,2.651,1.227,2.651,3.13a4.36,4.36,0,0,1-.049.638H328.78a2.208,2.208,0,0,0,2.208,2.332,2.874,2.874,0,0,0,1.669-.528l.4.736a3.961,3.961,0,0,1-2.209.688,3.185,3.185,0,0,1-3.19-3.486m4.676-.54c0-1.35-.613-2.074-1.657-2.074a2.049,2.049,0,0,0-1.914,2.074Z" transform="translate(-126.663 -145.657)" fill="#535453"/>
              <path id="Path_192485" data-name="Path 192485" d="M339.562,380.461v-8.443h1.116v8.516c0,.344.148.479.319.479a.983.983,0,0,0,.234-.025l.159.859a1.774,1.774,0,0,1-.65.1c-.834,0-1.178-.54-1.178-1.485" transform="translate(-131.262 -143.809)" fill="#535453"/>
              <path id="Path_192486" data-name="Path 192486" d="M345.262,380.461v-8.443h1.116v8.516c0,.344.148.479.32.479a.981.981,0,0,0,.233-.025l.159.859a1.773,1.773,0,0,1-.65.1c-.834,0-1.178-.54-1.178-1.485" transform="translate(-133.466 -143.809)" fill="#535453"/>
              <path id="Path_192487" data-name="Path 192487" d="M350.142,380.309a3.115,3.115,0,1,1,3.092,3.486,3.2,3.2,0,0,1-3.092-3.486m5.031,0c0-1.534-.785-2.577-1.939-2.577s-1.927,1.043-1.927,2.577.773,2.553,1.927,2.553,1.939-1.018,1.939-2.553" transform="translate(-135.352 -145.657)" fill="#535453"/>
              <path id="Path_192488" data-name="Path 192488" d="M361.7,377.079h1.141l.994,3.853c.135.639.27,1.24.393,1.865h.062c.147-.626.282-1.239.453-1.865l1.031-3.853h1.092l1.043,3.853c.16.639.307,1.24.467,1.865h.049c.147-.626.269-1.227.417-1.865l.981-3.853h1.056l-1.792,6.663h-1.35l-.97-3.6c-.172-.626-.294-1.24-.454-1.914h-.061c-.147.674-.282,1.3-.454,1.938l-.933,3.571h-1.313Z" transform="translate(-139.821 -145.766)" fill="#535453"/>
              <path id="Path_192489" data-name="Path 192489" d="M378.061,383.7a11.878,11.878,0,0,0,0-11.8l.687-.32a11.585,11.585,0,0,1,0,12.456Z" transform="translate(-146.145 -143.639)" fill="#535453"/>
              <path id="Path_192490" data-name="Path 192490" d="M183.821,292.908a11.46,11.46,0,0,1,1.8-6.222l.7.32a11.878,11.878,0,0,0,0,11.8l-.7.331a11.5,11.5,0,0,1-1.8-6.234" transform="translate(-71.059 -110.823)" fill="#fff"/>
              <path id="Path_192491" data-name="Path 192491" d="M191.612,296.208h-.037l-.1.687h-.9v-9.768H191.7V289.8l-.037,1.2a3.357,3.357,0,0,1,2.086-.945c1.73,0,2.662,1.351,2.662,3.387,0,2.295-1.362,3.608-2.9,3.608a2.952,2.952,0,0,1-1.9-.847m3.632-2.737c0-1.472-.491-2.467-1.754-2.467a2.751,2.751,0,0,0-1.792.92v3.5a2.56,2.56,0,0,0,1.632.7c1.1,0,1.915-.994,1.915-2.651" transform="translate(-73.672 -110.993)" fill="#fff"/>
              <path id="Path_192492" data-name="Path 192492" d="M202.941,295.57v-8.443h1.116v8.516c0,.344.148.478.319.478a.98.98,0,0,0,.234-.025l.159.859a1.774,1.774,0,0,1-.65.1c-.835,0-1.178-.54-1.178-1.485" transform="translate(-78.45 -110.993)" fill="#fff"/>
              <path id="Path_192493" data-name="Path 192493" d="M207.96,297.012c0-1.448,1.264-2.172,4.1-2.491,0-.859-.282-1.681-1.375-1.681a3.671,3.671,0,0,0-2,.712l-.442-.773a5.01,5.01,0,0,1,2.627-.872c1.619,0,2.307,1.093,2.307,2.737v4.1h-.92l-.1-.8h-.037a3.571,3.571,0,0,1-2.209.957,1.807,1.807,0,0,1-1.951-1.89m4.1.11v-1.865c-2.246.269-3.006.822-3.006,1.681,0,.761.515,1.067,1.178,1.067a2.724,2.724,0,0,0,1.829-.883" transform="translate(-80.39 -112.841)" fill="#fff"/>
              <path id="Path_192494" data-name="Path 192494" d="M219.1,295.417a3.245,3.245,0,0,1,3.215-3.51,2.849,2.849,0,0,1,1.951.786l-.577.748a1.934,1.934,0,0,0-1.338-.6c-1.2,0-2.086,1.043-2.086,2.577s.835,2.553,2.062,2.553a2.349,2.349,0,0,0,1.571-.663l.479.748a3.179,3.179,0,0,1-2.148.847c-1.767,0-3.129-1.277-3.129-3.486" transform="translate(-84.696 -112.841)" fill="#fff"/>
              <path id="Path_192495" data-name="Path 192495" d="M230.1,287.127h1.1v6.626h.025l2.859-3.522h1.24l-2.233,2.675,2.528,3.988h-1.215l-1.951-3.215L231.2,295.14v1.754h-1.1Z" transform="translate(-88.948 -110.993)" fill="#fff"/>
              <path id="Path_192496" data-name="Path 192496" d="M240.16,298.811a11.878,11.878,0,0,0,0-11.8l.687-.32a11.585,11.585,0,0,1,0,12.456Z" transform="translate(-92.837 -110.823)" fill="#fff"/>
              <path id="Path_192497" data-name="Path 192497" d="M74.307,337.087h3.219L80,343.878c.315.9.589,1.865.883,2.807h.1c.314-.942.569-1.9.883-2.807l2.414-6.791H87.5v14.526H84.848v-6.066c0-1.374.216-3.4.353-4.77h-.079l-1.178,3.415-2.238,6.1H80.038l-2.257-6.1-1.158-3.415h-.079c.137,1.374.373,3.4.373,4.77v6.066H74.307Z" transform="translate(-28.724 -130.306)" fill="#fff"/>
              <path id="Path_192498" data-name="Path 192498" d="M341.623,346.293l-4.358-9.206h3.081l1.453,3.533c.412,1.08.8,2.1,1.256,3.219h.079c.451-1.119.883-2.14,1.295-3.219l1.453-3.533H348.9l-4.377,9.206v5.32h-2.9Z" transform="translate(-130.374 -130.306)" fill="#535453"/>
              <path id="Path_192499" data-name="Path 192499" d="M205.956,248.5h2.905v6.3h.059l4.809-6.3h3.2l-4.436,5.712,5.222,8.813h-3.2l-3.749-6.517-1.9,2.433v4.083h-2.905Z" transform="translate(-79.615 -96.061)" fill="#fff"/>
            </g>
          </g>
        </g>
      </g>
      <g id="Group_128105" data-name="Group 128105" transform="translate(1120.114 7868.495)">
        <g id="Group_128104" data-name="Group 128104" transform="translate(0 0)" clip-path="url(#clip-path)">
          <g id="Group_128103" data-name="Group 128103">
            <g id="Group_128102" data-name="Group 128102" clip-path="url(#clip-path)">
              <path id="Path_192500" data-name="Path 192500" d="M43.486,190.957A86.943,86.943,0,1,1,11.663,309.724,86.944,86.944,0,0,1,43.486,190.957" transform="translate(0 -69.309)" fill="#69ab1b"/>
              <path id="Path_192501" data-name="Path 192501" d="M188.015,341.548a86.943,86.943,0,1,1,118.767-31.824,86.943,86.943,0,0,1-118.767,31.824" transform="translate(-55.87 -69.309)" fill="#003a8d"/>
              <path id="Path_192502" data-name="Path 192502" d="M246.176,141.1a86.944,86.944,0,1,1-86.944-86.943A86.943,86.943,0,0,1,246.176,141.1" transform="translate(-27.944 -20.933)" fill="#d01"/>
              <path id="Path_192503" data-name="Path 192503" d="M156.192,230.439A86.94,86.94,0,0,0,187.158,348.7a86.953,86.953,0,0,0,0-149.59,86.547,86.547,0,0,0-30.966,31.333" transform="translate(-55.871 -76.967)" fill="#44bbef"/>
              <path id="Path_192504" data-name="Path 192504" d="M190.159,15.909l-3.17-5.839H184.84v5.839h-3.086V.476h5.38c3.233,0,5.8,1.126,5.8,4.671a4.418,4.418,0,0,1-2.941,4.442l3.608,6.319Zm-5.318-8.28h2c1.981,0,3.066-.834,3.066-2.482,0-1.669-1.085-2.231-3.066-2.231h-2Z" transform="translate(-70.26 -0.184)" fill="#535453"/>
              <path id="Path_192505" data-name="Path 192505" d="M203.684,8.071c0-5.088,3.295-8.071,7.4-8.071a6.494,6.494,0,0,1,4.776,1.981l-1.648,1.961a4.051,4.051,0,0,0-3.024-1.293c-2.565,0-4.359,2-4.359,5.318,0,3.357,1.543,5.38,4.567,5.38a3.11,3.11,0,0,0,1.939-.584V9.719h-2.732V7.195h5.485v6.966a7.269,7.269,0,0,1-5.005,1.856c-4.214,0-7.4-2.795-7.4-7.946" transform="translate(-78.737)" fill="#535453"/>
              <path id="Path_192506" data-name="Path 192506" d="M229.319.476h5.109c3.17,0,5.589.918,5.589,3.8a3.5,3.5,0,0,1-2.106,3.337v.1a3.509,3.509,0,0,1,2.9,3.649c0,3.108-2.586,4.547-5.985,4.547h-5.506Zm4.88,6.277c1.961,0,2.816-.793,2.816-2.023,0-1.356-.918-1.9-2.774-1.9h-1.835v3.92Zm.355,6.778c2.107,0,3.254-.751,3.254-2.357,0-1.5-1.126-2.127-3.254-2.127h-2.148v4.484Z" transform="translate(-88.646 -0.184)" fill="#535453"/>
              <path id="Path_192507" data-name="Path 192507" d="M193.592,147.977a11.456,11.456,0,0,1,1.8-6.221l.7.319a11.878,11.878,0,0,0,0,11.8l-.7.331a11.5,11.5,0,0,1-1.8-6.234" transform="translate(-74.836 -54.798)" fill="#fff"/>
              <path id="Path_192508" data-name="Path 192508" d="M200.352,147.149h.92l.1,1.215h.037a2.3,2.3,0,0,1,1.89-1.386,1.424,1.424,0,0,1,.712.147l-.209.982a1.566,1.566,0,0,0-.65-.111c-.553,0-1.24.393-1.681,1.534v4.282h-1.116Z" transform="translate(-77.449 -56.816)" fill="#fff"/>
              <path id="Path_192509" data-name="Path 192509" d="M207.071,150.486a3.223,3.223,0,0,1,3.006-3.509c1.693,0,2.651,1.227,2.651,3.129a4.362,4.362,0,0,1-.049.638h-4.492a2.208,2.208,0,0,0,2.209,2.332,2.874,2.874,0,0,0,1.669-.528l.4.736a3.966,3.966,0,0,1-2.209.687,3.184,3.184,0,0,1-3.19-3.485m4.675-.54c0-1.35-.613-2.074-1.656-2.074a2.049,2.049,0,0,0-1.914,2.074Z" transform="translate(-80.046 -56.816)" fill="#fff"/>
              <path id="Path_192510" data-name="Path 192510" d="M218.19,148.637c0-2.159,1.362-3.509,2.884-3.509a2.714,2.714,0,0,1,1.878.785l-.061-1.153V142.2h1.116v9.768H223.1l-.11-.786h-.025a2.971,2.971,0,0,1-2.025.945c-1.669,0-2.749-1.264-2.749-3.486m4.7,1.632v-3.5a2.339,2.339,0,0,0-1.62-.7c-1.08,0-1.926,1.031-1.926,2.553,0,1.607.663,2.565,1.841,2.565a2.289,2.289,0,0,0,1.705-.921" transform="translate(-84.344 -54.968)" fill="#fff"/>
              <path id="Path_192511" data-name="Path 192511" d="M230.391,153.88a11.874,11.874,0,0,0,0-11.8l.687-.319a11.584,11.584,0,0,1,0,12.455Z" transform="translate(-89.061 -54.798)" fill="#fff"/>
              <path id="Path_192512" data-name="Path 192512" d="M50.9,377.8a11.464,11.464,0,0,1,1.8-6.222l.7.32a11.874,11.874,0,0,0,0,11.8l-.7.331a11.506,11.506,0,0,1-1.8-6.234" transform="translate(-19.674 -143.639)" fill="#fff"/>
              <path id="Path_192513" data-name="Path 192513" d="M56.814,384.911a1.886,1.886,0,0,1,.994-1.51v-.049a1.205,1.205,0,0,1-.614-1.093,1.626,1.626,0,0,1,.749-1.239v-.049a2.339,2.339,0,0,1-.871-1.792,2.373,2.373,0,0,1,2.5-2.381,2.764,2.764,0,0,1,.933.172h2.319v.859H61.465A1.9,1.9,0,0,1,62,379.2a2.285,2.285,0,0,1-2.43,2.319,2.311,2.311,0,0,1-.994-.233.994.994,0,0,0-.429.8c0,.429.27.724,1.166.724h1.3c1.546,0,2.319.491,2.319,1.583,0,1.239-1.3,2.307-3.363,2.307-1.632,0-2.761-.638-2.761-1.791m5.044-.344c0-.613-.478-.822-1.362-.822H59.342a3.751,3.751,0,0,1-.859-.11,1.405,1.405,0,0,0-.687,1.129c0,.712.724,1.178,1.939,1.178,1.276,0,2.123-.674,2.123-1.374m-.872-5.387a1.424,1.424,0,1,0-2.835,0,1.426,1.426,0,1,0,2.835,0" transform="translate(-21.962 -145.657)" fill="#fff"/>
              <path id="Path_192514" data-name="Path 192514" d="M68.915,376.971h.92l.1,1.215h.037a2.3,2.3,0,0,1,1.89-1.386,1.42,1.42,0,0,1,.712.147l-.209.982a1.576,1.576,0,0,0-.65-.11c-.553,0-1.24.392-1.681,1.534v4.282H68.915Z" transform="translate(-26.64 -145.657)" fill="#fff"/>
              <path id="Path_192515" data-name="Path 192515" d="M75.635,380.309a3.224,3.224,0,0,1,3.006-3.51c1.693,0,2.651,1.227,2.651,3.13a4.347,4.347,0,0,1-.05.638H76.751A2.208,2.208,0,0,0,78.96,382.9a2.871,2.871,0,0,0,1.669-.528l.405.736a3.963,3.963,0,0,1-2.209.688,3.185,3.185,0,0,1-3.19-3.486m4.675-.54c0-1.35-.613-2.074-1.656-2.074a2.049,2.049,0,0,0-1.914,2.074Z" transform="translate(-29.238 -145.657)" fill="#fff"/>
              <path id="Path_192516" data-name="Path 192516" d="M86.714,380.309a3.224,3.224,0,0,1,3.006-3.51c1.694,0,2.651,1.227,2.651,3.13a4.348,4.348,0,0,1-.05.638H87.831A2.208,2.208,0,0,0,90.04,382.9a2.874,2.874,0,0,0,1.669-.528l.405.736a3.966,3.966,0,0,1-2.21.688,3.185,3.185,0,0,1-3.19-3.486m4.676-.54c0-1.35-.613-2.074-1.656-2.074a2.049,2.049,0,0,0-1.915,2.074Z" transform="translate(-33.52 -145.657)" fill="#fff"/>
              <path id="Path_192517" data-name="Path 192517" d="M98.614,376.971h.92l.1.958h.037A3.2,3.2,0,0,1,101.9,376.8c1.4,0,2.037.908,2.037,2.614v4.221h-1.117V379.56c0-1.251-.38-1.78-1.264-1.78A2.538,2.538,0,0,0,99.73,378.8v4.835H98.614Z" transform="translate(-38.121 -145.657)" fill="#fff"/>
              <path id="Path_192518" data-name="Path 192518" d="M109.853,383.7a11.874,11.874,0,0,0,0-11.8l.687-.32a11.585,11.585,0,0,1,0,12.456Z" transform="translate(-42.465 -143.639)" fill="#fff"/>
              <path id="Path_192519" data-name="Path 192519" d="M322.882,377.8a11.465,11.465,0,0,1,1.8-6.222l.7.32a11.874,11.874,0,0,0,0,11.8l-.7.331a11.507,11.507,0,0,1-1.8-6.234" transform="translate(-124.814 -143.639)" fill="#fff"/>
              <path id="Path_192520" data-name="Path 192520" d="M330.672,381.1h-.036l-.1.686h-.9v-9.767h1.117v2.675l-.037,1.2a3.356,3.356,0,0,1,2.086-.945c1.731,0,2.662,1.351,2.662,3.387,0,2.295-1.361,3.608-2.9,3.608a2.956,2.956,0,0,1-1.9-.847m3.632-2.737c0-1.472-.491-2.466-1.754-2.466a2.751,2.751,0,0,0-1.792.92v3.5a2.562,2.562,0,0,0,1.632.7c1.1,0,1.914-.994,1.914-2.651" transform="translate(-127.427 -143.81)" fill="#fff"/>
              <path id="Path_192521" data-name="Path 192521" d="M342,380.461v-8.443h1.116v8.516c0,.344.147.479.319.479a.983.983,0,0,0,.234-.025l.159.859a1.774,1.774,0,0,1-.65.1c-.834,0-1.178-.54-1.178-1.485" transform="translate(-132.206 -143.809)" fill="#fff"/>
              <path id="Path_192522" data-name="Path 192522" d="M347.561,381.3v-4.222h1.116v4.087c0,1.239.369,1.767,1.251,1.767.688,0,1.166-.331,1.8-1.129v-4.725h1.116v6.664h-.932l-.087-1.043h-.037a2.857,2.857,0,0,1-2.208,1.2c-1.4,0-2.025-.908-2.025-2.6" transform="translate(-134.354 -145.766)" fill="#fff"/>
              <path id="Path_192523" data-name="Path 192523" d="M359.02,380.309a3.224,3.224,0,0,1,3.006-3.51c1.694,0,2.651,1.227,2.651,3.13a4.364,4.364,0,0,1-.049.638h-4.492a2.208,2.208,0,0,0,2.209,2.332,2.877,2.877,0,0,0,1.669-.528l.4.736a3.964,3.964,0,0,1-2.21.688,3.185,3.185,0,0,1-3.19-3.486m4.676-.54c0-1.35-.613-2.074-1.656-2.074a2.049,2.049,0,0,0-1.914,2.074Z" transform="translate(-138.784 -145.657)" fill="#fff"/>
              <path id="Path_192524" data-name="Path 192524" d="M369.94,383.7a11.878,11.878,0,0,0,0-11.8l.687-.32a11.585,11.585,0,0,1,0,12.456Z" transform="translate(-143.005 -143.639)" fill="#fff"/>
              <path id="Path_192525" data-name="Path 192525" d="M213.93,121.143l-2.983-5.5h-2.022v5.5H206.02V106.618h5.064c3.043,0,5.457,1.06,5.457,4.4a4.159,4.159,0,0,1-2.768,4.181l3.4,5.947Zm-5.005-7.792h1.884c1.865,0,2.886-.785,2.886-2.336,0-1.57-1.021-2.1-2.886-2.1h-1.884Z" transform="translate(-79.64 -41.215)" fill="#fff"/>
              <path id="Path_192526" data-name="Path 192526" d="M71.129,344.236c0-4.79,3.1-7.6,6.968-7.6a6.116,6.116,0,0,1,4.5,1.865l-1.551,1.845a3.814,3.814,0,0,0-2.846-1.216c-2.414,0-4.1,1.884-4.1,5.005,0,3.16,1.452,5.064,4.3,5.064a2.927,2.927,0,0,0,1.826-.55v-2.866H77.646v-2.375h5.163v6.556a6.842,6.842,0,0,1-4.711,1.747c-3.965,0-6.968-2.63-6.968-7.478" transform="translate(-27.496 -130.133)" fill="#fff"/>
              <path id="Path_192527" data-name="Path 192527" d="M340.457,337.087h4.809c2.983,0,5.26.864,5.26,3.573a3.294,3.294,0,0,1-1.983,3.14v.1a3.3,3.3,0,0,1,2.729,3.435c0,2.924-2.434,4.279-5.634,4.279h-5.182ZM345.05,343c1.845,0,2.649-.746,2.649-1.9,0-1.275-.863-1.786-2.61-1.786h-1.728V343Zm.334,6.378c1.983,0,3.062-.706,3.062-2.218,0-1.413-1.06-2-3.062-2h-2.022v4.22Z" transform="translate(-131.608 -130.306)" fill="#fff"/>
              <path id="Path_192528" data-name="Path 192528" d="M187.164,276.418A86.94,86.94,0,0,0,274.1,190.472a86.954,86.954,0,0,0-129.549,74.795,86.534,86.534,0,0,0,42.618,11.151" transform="translate(-55.876 -69.312)" fill="#de5092"/>
              <path id="Path_192529" data-name="Path 192529" d="M72.309,190.472a86.953,86.953,0,0,0,129.549,74.795A86.954,86.954,0,0,0,72.309,190.472" transform="translate(-27.952 -69.312)" fill="#ffeb00"/>
              <g id="Group_128101" data-name="Group 128101" transform="translate(88.669 122.139)" style="mix-blend-mode: screen;isolation: isolate">
                <g id="Group_128100" data-name="Group 128100">
                  <g id="Group_128099" data-name="Group 128099" clip-path="url(#clip-path-8)">
                    <path id="Path_192530" data-name="Path 192530" d="M216.365,227.528q-.505-.8-1.025-1.59c-.149-.226-.3-.452-.449-.676q-.61-.9-1.239-1.789c-.08-.112-.156-.226-.237-.338q-.763-1.063-1.553-2.1c-.111-.145-.225-.287-.337-.432q-.637-.823-1.29-1.627-.216-.265-.434-.529-.685-.828-1.386-1.637c-.1-.109-.188-.22-.283-.328q-.882-1-1.789-1.978l-.025-.026q-.871-.932-1.769-1.832c-.112-.114-.225-.226-.338-.338q-.8-.8-1.622-1.577c-.085-.08-.169-.161-.254-.241q-1.944-1.825-3.984-3.516l-.152-.125q-.952-.785-1.923-1.54l-.2-.156q-3.163-2.447-6.518-4.579l-.166-.106q-1.1-.7-2.227-1.365a87.018,87.018,0,0,0-42.618,73.817,87.019,87.019,0,0,0,85.236,0q-.014-1.3-.067-2.606c0-.069-.006-.138-.009-.207q-.17-3.964-.706-7.926c-.012-.086-.024-.172-.036-.259q-.168-1.216-.372-2.429c-.012-.066-.021-.132-.033-.2q-.444-2.61-1.053-5.206c-.027-.115-.055-.229-.083-.344q-.261-1.1-.553-2.189-.062-.232-.124-.464c-.223-.817-.455-1.632-.7-2.446,0-.012-.007-.025-.01-.036q-.387-1.272-.818-2.536c-.047-.139-.1-.277-.145-.416q-.348-1.009-.723-2.014-.12-.322-.242-.643-.369-.967-.763-1.929c-.069-.169-.136-.339-.206-.508q-.5-1.2-1.039-2.394c-.056-.125-.116-.248-.173-.372q-.452-.988-.931-1.969c-.118-.242-.24-.485-.361-.726q-.422-.845-.865-1.683c-.121-.231-.242-.462-.366-.693-.413-.767-.835-1.532-1.273-2.291s-.889-1.507-1.348-2.249c-.137-.222-.277-.442-.417-.663" transform="translate(-144.545 -199.106)" fill="#fff"/>
                  </g>
                </g>
              </g>
            </g>
          </g>
        </g>
      </g>
    </g>
  </g>
</svg>
