<svg id="Group_128082" data-name="Group 128082" xmlns="http://www.w3.org/2000/svg" width="183.774" height="358.49" viewBox="0 0 183.774 358.49">
  <rect id="Rectangle_41312" data-name="Rectangle 41312" width="181.111" height="181.111" transform="translate(2.663)" fill="#3a84a8"/>
  <rect id="Rectangle_41313" data-name="Rectangle 41313" width="111.862" height="111.862" transform="translate(37.288 34.625)" fill="#a83775"/>
  <rect id="Rectangle_41314" data-name="Rectangle 41314" width="111.862" height="111.862" transform="translate(37.288 34.625)" fill="none" stroke="#252754" stroke-miterlimit="10" stroke-width="4.467"/>
  <path id="Path_192446" data-name="Path 192446" d="M35.054,285.579l72.328-30.212,43.682,45.943L80.651,332.522ZM0,278.588l75.407,79.9,108.367-51.936-68.416-71.662Z" fill="#3a84a8"/>
  <path id="Path_192447" data-name="Path 192447" d="M30.623,283.783l-2.061.861,1.556,1.6" fill="none" stroke="#1e1a1a" stroke-miterlimit="10" stroke-width="1"/>
  <line id="Line_459" data-name="Line 459" x2="42.829" y2="44.093" transform="translate(33.291 289.512)" fill="none" stroke="#1e1a1a" stroke-miterlimit="10" stroke-width="1" stroke-dasharray="4.553 4.553"/>
  <path id="Path_192448" data-name="Path 192448" d="M77.706,335.238l1.556,1.6,2.042-.9" fill="none" stroke="#1e1a1a" stroke-miterlimit="10" stroke-width="1"/>
  <line id="Line_460" data-name="Line 460" y1="30.298" x2="68.352" transform="translate(85.21 303.905)" fill="none" stroke="#1e1a1a" stroke-miterlimit="10" stroke-width="1" stroke-dasharray="4.272 4.272"/>
  <path id="Path_192449" data-name="Path 192449" d="M155.515,303.04l2.042-.9-1.539-1.619" fill="none" stroke="#1e1a1a" stroke-miterlimit="10" stroke-width="1"/>
  <line id="Line_461" data-name="Line 461" x1="40.944" y1="43.064" transform="translate(112.04 254.262)" fill="none" stroke="#1e1a1a" stroke-miterlimit="10" stroke-width="1" stroke-dasharray="4.402 4.402"/>
  <path id="Path_192450" data-name="Path 192450" d="M110.524,252.668l-1.539-1.619-2.061.861" fill="none" stroke="#1e1a1a" stroke-miterlimit="10" stroke-width="1"/>
  <line id="Line_462" data-name="Line 462" x1="70.277" y2="29.356" transform="translate(32.631 253.587)" fill="none" stroke="#1e1a1a" stroke-miterlimit="10" stroke-width="1" stroke-dasharray="4.352 4.352"/>
  <path id="Path_192451" data-name="Path 192451" d="M28.562,248.03l50.7,54.43,78.294-34.7-50.878-53.513Z" fill="#a83775"/>
  <line id="Line_463" data-name="Line 463" y2="36.613" transform="translate(28.562 248.03)" fill="none" stroke="#1e1a1a" stroke-miterlimit="10" stroke-width="1" stroke-dasharray="4.467 4.467"/>
  <line id="Line_464" data-name="Line 464" y2="34.38" transform="translate(79.262 302.46)" fill="none" stroke="#1e1a1a" stroke-miterlimit="10" stroke-width="1" stroke-dasharray="4.467 4.467"/>
  <line id="Line_465" data-name="Line 465" y2="34.38" transform="translate(157.556 267.755)" fill="none" stroke="#1e1a1a" stroke-miterlimit="10" stroke-width="1" stroke-dasharray="4.467 4.467"/>
</svg>
