<svg xmlns="http://www.w3.org/2000/svg" width="610.92" height="284.29" viewBox="0 0 610.92 284.29">
  <g id="Group_128315" data-name="Group 128315" transform="translate(-304.08 -11886.206)">
    <g id="Group_128175" data-name="Group 128175" transform="translate(-151.205 11.287)">
      <rect id="Rectangle_41377" data-name="Rectangle 41377" width="242.996" height="242.996" transform="translate(475.933 11895.168)" fill="#ffd1a2"/>
      <g id="Rectangle_41379" data-name="Rectangle 41379" transform="translate(802.31 11895.168)" fill="#fff" stroke="#000" stroke-width="3">
        <rect width="242.996" height="242.996" stroke="none"/>
        <rect x="1.5" y="1.5" width="239.996" height="239.996" fill="none"/>
      </g>
      <g id="Rectangle_41378" data-name="Rectangle 41378" transform="translate(491.021 11910.256)" fill="none" stroke="#000" stroke-width="3">
        <rect width="212.82" height="212.82" stroke="none"/>
        <rect x="1.5" y="1.5" width="209.82" height="209.82" fill="none"/>
      </g>
      <g id="Rectangle_41380" data-name="Rectangle 41380" transform="translate(817.398 11910.256)" fill="#ffd1a2" stroke="#000" stroke-width="3">
        <rect width="212.82" height="212.82" stroke="none"/>
        <rect x="1.5" y="1.5" width="209.82" height="209.82" fill="none"/>
      </g>
      <g id="Group_128171" data-name="Group 128171" transform="translate(455.285 11910.406)">
        <line id="Line_474" data-name="Line 474" x2="26.562" transform="translate(0 0)" fill="none" stroke="#000" stroke-width="3"/>
        <line id="Line_476" data-name="Line 476" x2="26.562" transform="translate(257.649 0)" fill="none" stroke="#000" stroke-width="3"/>
        <line id="Line_475" data-name="Line 475" x2="26.562" transform="translate(0 213.379)" fill="none" stroke="#000" stroke-width="3"/>
        <line id="Line_477" data-name="Line 477" x2="26.562" transform="translate(257.649 213.379)" fill="none" stroke="#000" stroke-width="3"/>
      </g>
      <g id="Group_128173" data-name="Group 128173" transform="translate(781.994 11910.406)">
        <line id="Line_474-2" data-name="Line 474" x2="26.562" transform="translate(0 0)" fill="none" stroke="#000" stroke-width="3"/>
        <line id="Line_476-2" data-name="Line 476" x2="27.447" transform="translate(256.763 0)" fill="none" stroke="#000" stroke-width="3"/>
        <line id="Line_475-2" data-name="Line 475" x2="26.562" transform="translate(0 213.379)" fill="none" stroke="#000" stroke-width="3"/>
        <line id="Line_477-2" data-name="Line 477" x2="27.447" transform="translate(256.763 213.379)" fill="none" stroke="#000" stroke-width="3"/>
      </g>
      <g id="Group_128172" data-name="Group 128172" transform="translate(703.84 11874.918) rotate(90)">
        <line id="Line_474-3" data-name="Line 474" x2="27" transform="translate(0 0)" fill="none" stroke="#000" stroke-width="3"/>
        <line id="Line_476-3" data-name="Line 476" x2="27" transform="translate(257.29 0)" fill="none" stroke="#000" stroke-width="3"/>
        <line id="Line_475-3" data-name="Line 475" x2="27" transform="translate(0 212.82)" fill="none" stroke="#000" stroke-width="3"/>
        <line id="Line_477-3" data-name="Line 477" x2="27" transform="translate(257.29 212.82)" fill="none" stroke="#000" stroke-width="3"/>
      </g>
      <g id="Group_128174" data-name="Group 128174" transform="translate(1030.217 11874.918) rotate(90)">
        <line id="Line_474-4" data-name="Line 474" x2="27" transform="translate(0 0)" fill="none" stroke="#000" stroke-width="3"/>
        <line id="Line_476-4" data-name="Line 476" x2="27" transform="translate(257.29 0)" fill="none" stroke="#000" stroke-width="3"/>
        <line id="Line_475-4" data-name="Line 475" x2="27" transform="translate(0 212.82)" fill="none" stroke="#000" stroke-width="3"/>
        <line id="Line_477-4" data-name="Line 477" x2="27" transform="translate(257.29 212.82)" fill="none" stroke="#000" stroke-width="3"/>
      </g>
      <path id="Path_193425" data-name="Path 193425" d="M61.927,17.221a1.408,1.408,0,0,0-.532-1.172,6.615,6.615,0,0,0-1.87-.869,17.942,17.942,0,0,1-2.187-.869q-2.764-1.357-2.764-3.73A3.345,3.345,0,0,1,55.262,8.5,4.453,4.453,0,0,1,57.21,7.089a7.582,7.582,0,0,1,2.832-.5,6.632,6.632,0,0,1,2.749.547,4.352,4.352,0,0,1,1.89,1.558A4.068,4.068,0,0,1,65.355,11H61.937A1.719,1.719,0,0,0,61.4,9.652a2.075,2.075,0,0,0-1.44-.479,2.339,2.339,0,0,0-1.45.405,1.193,1.193,0,0,0,.054,2.021,7.389,7.389,0,0,0,2.061.918,12.623,12.623,0,0,1,2.422,1.021,4.07,4.07,0,0,1,2.3,3.662,3.472,3.472,0,0,1-1.406,2.93A6.255,6.255,0,0,1,60.091,21.2a7.653,7.653,0,0,1-3.13-.62,4.719,4.719,0,0,1-2.109-1.7,4.428,4.428,0,0,1-.708-2.485h3.438a2.181,2.181,0,0,0,.591,1.685,2.793,2.793,0,0,0,1.919.542,2.206,2.206,0,0,0,1.343-.366A1.209,1.209,0,0,0,61.927,17.221Zm13.262,1.123h-4.7L69.671,21H66.009L71.224,6.781h3.223L79.7,21H76.019ZM71.312,15.7h3.057l-1.533-4.932Zm21.3,5.3H89.2l-5.039-8.848V21H80.736V6.781h3.428l5.029,8.848V6.781h3.418Zm13.809-1.758a5.511,5.511,0,0,1-2.314,1.416,9.982,9.982,0,0,1-3.34.537A5.955,5.955,0,0,1,96.3,19.486a6.918,6.918,0,0,1-1.787-4.756l-.01-1.23a8.485,8.485,0,0,1,.742-3.667,5.511,5.511,0,0,1,2.124-2.412,6.008,6.008,0,0,1,3.2-.845A6.3,6.3,0,0,1,104.7,7.792a5.152,5.152,0,0,1,1.714,3.628h-3.3a2.7,2.7,0,0,0-.762-1.7,2.458,2.458,0,0,0-1.66-.508,2.237,2.237,0,0,0-1.992,1.094,5.84,5.84,0,0,0-.713,3.125v.859a5.717,5.717,0,0,0,.728,3.2A2.573,2.573,0,0,0,101,18.559a2.88,2.88,0,0,0,1.992-.6V15.756h-2.383V13.4h5.811Zm7.275-3.262h-1.855V21h-3.428V6.781h5.6A6.241,6.241,0,0,1,117.962,7.9a3.807,3.807,0,0,1,1.426,3.174,4.625,4.625,0,0,1-.6,2.461,4.264,4.264,0,0,1-1.88,1.582l2.969,5.732V21H116.2Zm-1.855-2.646h2.168a1.949,1.949,0,0,0,1.47-.513,1.979,1.979,0,0,0,.493-1.431,2,2,0,0,0-.5-1.44,1.931,1.931,0,0,0-1.465-.522h-2.168Zm17.7,5.01h-4.7L124.017,21h-3.662L125.57,6.781h3.223L134.046,21h-3.682ZM125.658,15.7h3.057l-1.533-4.932Zm9.424,5.3V6.781h4.58a6.737,6.737,0,0,1,3.389.854,6.006,6.006,0,0,1,2.349,2.412,7.283,7.283,0,0,1,.854,3.491v.654a7.325,7.325,0,0,1-.825,3.5,6.032,6.032,0,0,1-2.324,2.422,6.589,6.589,0,0,1-3.345.884Zm3.428-11.572v8.936H139.7a2.666,2.666,0,0,0,2.266-1.05,5.145,5.145,0,0,0,.791-3.12v-.615a5.1,5.1,0,0,0-.791-3.105,2.713,2.713,0,0,0-2.3-1.045Zm21.543,4.756a8.385,8.385,0,0,1-.771,3.682,5.7,5.7,0,0,1-2.192,2.466,6.1,6.1,0,0,1-3.237.864,6.191,6.191,0,0,1-3.223-.835,5.692,5.692,0,0,1-2.192-2.388,8.144,8.144,0,0,1-.825-3.564v-.8a8.422,8.422,0,0,1,.767-3.687,5.688,5.688,0,0,1,2.2-2.466,6.5,6.5,0,0,1,6.479-.01,5.79,5.79,0,0,1,2.2,2.446,8.18,8.18,0,0,1,.8,3.638Zm-3.486-.6a5.979,5.979,0,0,0-.708-3.218,2.271,2.271,0,0,0-2.026-1.1q-2.578,0-2.725,3.867l-.01,1.045a6.15,6.15,0,0,0,.693,3.213,2.268,2.268,0,0,0,2.061,1.123,2.24,2.24,0,0,0,2-1.1,5.982,5.982,0,0,0,.713-3.174Z" transform="translate(490.701 11999.831)" fill="#9b5003"/>
      <path id="Path_193426" data-name="Path 193426" d="M50.052,21H46.644L41.6,12.152V21H38.177V6.781H41.6l5.029,8.848V6.781h3.418Zm14.209-6.816a8.385,8.385,0,0,1-.771,3.682A5.7,5.7,0,0,1,61.3,20.331a6.1,6.1,0,0,1-3.237.864,6.191,6.191,0,0,1-3.223-.835,5.692,5.692,0,0,1-2.192-2.388,8.144,8.144,0,0,1-.825-3.564v-.8a8.422,8.422,0,0,1,.767-3.687,5.688,5.688,0,0,1,2.2-2.466,6.5,6.5,0,0,1,6.479-.01,5.79,5.79,0,0,1,2.2,2.446,8.18,8.18,0,0,1,.8,3.638Zm-3.486-.6a5.979,5.979,0,0,0-.708-3.218,2.271,2.271,0,0,0-2.026-1.1q-2.578,0-2.725,3.867l-.01,1.045A6.149,6.149,0,0,0,56,17.4,2.268,2.268,0,0,0,58.06,18.52a2.24,2.24,0,0,0,2-1.1,5.982,5.982,0,0,0,.713-3.174Zm17.568,3.633a1.408,1.408,0,0,0-.532-1.172,6.615,6.615,0,0,0-1.87-.869,17.941,17.941,0,0,1-2.187-.869q-2.764-1.357-2.764-3.73A3.345,3.345,0,0,1,71.678,8.5a4.453,4.453,0,0,1,1.948-1.406,7.582,7.582,0,0,1,2.832-.5,6.632,6.632,0,0,1,2.749.547A4.352,4.352,0,0,1,81.1,8.69,4.068,4.068,0,0,1,81.771,11H78.353a1.719,1.719,0,0,0-.532-1.348,2.075,2.075,0,0,0-1.44-.479,2.339,2.339,0,0,0-1.45.405,1.193,1.193,0,0,0,.054,2.021,7.389,7.389,0,0,0,2.061.918,12.623,12.623,0,0,1,2.422,1.021,4.07,4.07,0,0,1,2.3,3.662,3.472,3.472,0,0,1-1.406,2.93A6.255,6.255,0,0,1,76.507,21.2a7.653,7.653,0,0,1-3.13-.62,4.719,4.719,0,0,1-2.109-1.7,4.427,4.427,0,0,1-.708-2.485H74a2.181,2.181,0,0,0,.591,1.685,2.793,2.793,0,0,0,1.919.542,2.206,2.206,0,0,0,1.343-.366A1.209,1.209,0,0,0,78.343,17.221ZM91.6,18.344h-4.7L86.087,21H82.425L87.64,6.781h3.223L96.117,21H92.435ZM87.728,15.7h3.057l-1.533-4.932Zm21.3,5.3h-3.408l-5.039-8.848V21H97.152V6.781h3.428l5.029,8.848V6.781h3.418Zm13.809-1.758a5.511,5.511,0,0,1-2.314,1.416,9.982,9.982,0,0,1-3.34.537,5.955,5.955,0,0,1-4.463-1.709,6.918,6.918,0,0,1-1.787-4.756l-.01-1.23a8.485,8.485,0,0,1,.742-3.667,5.511,5.511,0,0,1,2.124-2.412,6.008,6.008,0,0,1,3.2-.845,6.3,6.3,0,0,1,4.126,1.216,5.152,5.152,0,0,1,1.714,3.628h-3.3a2.7,2.7,0,0,0-.762-1.7,2.458,2.458,0,0,0-1.66-.508,2.237,2.237,0,0,0-1.992,1.094,5.84,5.84,0,0,0-.713,3.125v.859a5.717,5.717,0,0,0,.728,3.2,2.573,2.573,0,0,0,2.29,1.069,2.88,2.88,0,0,0,1.992-.6V15.756h-2.383V13.4h5.811Zm7.275-3.262h-1.855V21h-3.428V6.781h5.6A6.241,6.241,0,0,1,134.378,7.9a3.807,3.807,0,0,1,1.426,3.174,4.625,4.625,0,0,1-.6,2.461,4.264,4.264,0,0,1-1.88,1.582l2.969,5.732V21h-3.672Zm-1.855-2.646h2.168a1.949,1.949,0,0,0,1.47-.513,1.979,1.979,0,0,0,.493-1.431,2,2,0,0,0-.5-1.44,1.931,1.931,0,0,0-1.465-.522h-2.168Zm17.7,5.01h-4.7L140.433,21h-3.662l5.215-14.219h3.223L150.462,21h-3.682ZM142.074,15.7h3.057L143.6,10.766ZM151.5,21V6.781h4.58a6.737,6.737,0,0,1,3.389.854,6.006,6.006,0,0,1,2.349,2.412,7.283,7.283,0,0,1,.854,3.491v.654a7.325,7.325,0,0,1-.825,3.5,6.032,6.032,0,0,1-2.324,2.422,6.589,6.589,0,0,1-3.345.884Zm3.428-11.572v8.936h1.191a2.666,2.666,0,0,0,2.266-1.05,5.145,5.145,0,0,0,.791-3.12v-.615a5.1,5.1,0,0,0-.791-3.105,2.713,2.713,0,0,0-2.3-1.045Zm21.543,4.756a8.385,8.385,0,0,1-.771,3.682,5.7,5.7,0,0,1-2.192,2.466,6.1,6.1,0,0,1-3.237.864,6.191,6.191,0,0,1-3.223-.835,5.692,5.692,0,0,1-2.192-2.388,8.144,8.144,0,0,1-.825-3.564v-.8a8.422,8.422,0,0,1,.767-3.687,5.688,5.688,0,0,1,2.2-2.466,6.5,6.5,0,0,1,6.479-.01,5.79,5.79,0,0,1,2.2,2.446,8.18,8.18,0,0,1,.8,3.638Zm-3.486-.6a5.979,5.979,0,0,0-.708-3.218,2.271,2.271,0,0,0-2.026-1.1q-2.578,0-2.725,3.867l-.01,1.045a6.15,6.15,0,0,0,.693,3.213,2.268,2.268,0,0,0,2.061,1.123,2.24,2.24,0,0,0,2-1.1,5.982,5.982,0,0,0,.713-3.174Z" transform="translate(817.41 11999.831)" fill="#9b5003"/>
    </g>
  </g>
</svg>
