<svg id="Group_128070" data-name="Group 128070" xmlns="http://www.w3.org/2000/svg" xmlns:xlink="http://www.w3.org/1999/xlink" width="414.483" height="256.97" viewBox="0 0 414.483 256.97">
  <defs>
    <clipPath id="clip-path">
      <rect id="Rectangle_41279" data-name="Rectangle 41279" width="414.483" height="256.97" fill="none"/>
    </clipPath>
    <clipPath id="clip-path-3">
      <rect id="Rectangle_41263" data-name="Rectangle 41263" width="38.15" height="17.983" fill="none"/>
    </clipPath>
    <clipPath id="clip-path-4">
      <rect id="Rectangle_41264" data-name="Rectangle 41264" width="6.008" height="6.008" fill="none"/>
    </clipPath>
    <clipPath id="clip-path-5">
      <rect id="Rectangle_41267" data-name="Rectangle 41267" width="38.149" height="17.983" fill="none"/>
    </clipPath>
    <clipPath id="clip-path-8">
      <rect id="Rectangle_41272" data-name="Rectangle 41272" width="6.007" height="6.008" fill="none"/>
    </clipPath>
  </defs>
  <g id="Group_128069" data-name="Group 128069" clip-path="url(#clip-path)">
    <rect id="Rectangle_41242" data-name="Rectangle 41242" width="70.759" height="127.114" transform="translate(13.279 22.024)" fill="#ececec"/>
    <rect id="Rectangle_41243" data-name="Rectangle 41243" width="64.375" height="119.641" transform="translate(16.106 25.71)" fill="#fafafa"/>
    <path id="Path_192325" data-name="Path 192325" d="M91.595,44.858,27.219,126.746v-83.3H91.595Z" transform="translate(-11.113 -17.739)" fill="#f5f5f5"/>
    <rect id="Rectangle_41244" data-name="Rectangle 41244" width="65.773" height="1.274" transform="translate(16.107 60.127)" fill="#ececec"/>
    <rect id="Rectangle_41245" data-name="Rectangle 41245" width="65.773" height="1.274" transform="translate(16.107 88.618)" fill="#ececec"/>
    <rect id="Rectangle_41246" data-name="Rectangle 41246" width="65.773" height="1.274" transform="translate(16.107 117.109)" fill="#ececec"/>
    <rect id="Rectangle_41247" data-name="Rectangle 41247" width="3.253" height="87.979" transform="translate(46.668 60.764)" fill="#ececec"/>
    <rect id="Rectangle_41248" data-name="Rectangle 41248" width="1.473" height="35.054" transform="translate(28.502 25.71)" fill="#ececec"/>
    <rect id="Rectangle_41249" data-name="Rectangle 41249" width="1.473" height="35.054" transform="translate(41.21 25.71)" fill="#ececec"/>
    <rect id="Rectangle_41250" data-name="Rectangle 41250" width="1.473" height="35.054" transform="translate(53.919 25.71)" fill="#ececec"/>
    <rect id="Rectangle_41251" data-name="Rectangle 41251" width="1.473" height="35.054" transform="translate(66.627 25.71)" fill="#ececec"/>
    <rect id="Rectangle_41252" data-name="Rectangle 41252" width="2.993" height="130.057" transform="translate(10.286 19.867)" fill="#f5f5f5"/>
    <path id="Path_192326" data-name="Path 192326" d="M145.014,163.992l-2.993-1.146V33.576h2.993Z" transform="translate(-57.983 -13.708)" fill="#e1e1e1"/>
    <rect id="Rectangle_41253" data-name="Rectangle 41253" width="76.745" height="3.468" transform="translate(10.286 18.555)" fill="#e1e1e1"/>
    <rect id="Rectangle_41254" data-name="Rectangle 41254" width="80.894" height="3.231" transform="translate(8.163 150.711)" fill="#e1e1e1"/>
    <path id="Path_192327" data-name="Path 192327" d="M89.67,252.037l5.018,1.573H13.8l5.116-1.573Z" transform="translate(-5.632 -102.899)" fill="#ececec"/>
    <g id="Group_128068" data-name="Group 128068">
      <g id="Group_128067" data-name="Group 128067" clip-path="url(#clip-path)">
        <path id="Path_192328" data-name="Path 192328" d="M643.068,171.12s-5-.36-4.541,10.859a129.984,129.984,0,0,0,1.6,17.2s-.147,2.488-2.073,2-5.551-2.909-7.341-1.1c-1.856,1.877-1.2,4.756,1.266,8.147s7.585,11.018,8.045,11.709.634,1.952-.732,1.829-10.584-3.247-11.8,1.216,7.191,12.783,8.094,13.71.951,1.512.585,2.073-3.366-.781-6.024-1.562-5.878-1.221-6.366,1.412,3.217,10.342,17.093,18.444l6.675,3.333,6.318-4.03c13-9.449,15.912-17.489,15.162-20.061s-3.909-1.812-6.475-.769-5.417,2.679-5.837,2.157-.431-1.108.375-2.121,8.343-10.132,6.682-14.45-10.521-.288-11.868-.03-1.294-1.025-.911-1.746,4.723-8.835,6.834-12.455,2.48-6.55.444-8.233c-1.962-1.621-5.326,1.15-7.194,1.828s-2.263-1.782-2.263-1.782a130.047,130.047,0,0,0-.123-17.27c-.664-11.21-5.724-10.3-5.724-10.3" transform="translate(-254.654 -69.856)" fill="#ececec"/>
        <path id="Path_192329" data-name="Path 192329" d="M657.072,188.113s.014.079.027.234.031.395.053.688l.18,2.65c.153,2.3.35,5.632.577,9.749.458,8.234.993,19.613,1.541,32.183s1.056,23.955,1.467,32.191c.209,4.109.379,7.438.5,9.752.057,1.143.1,2.034.131,2.652q.018.441.028.69c.005.156,0,.236,0,.236s-.014-.079-.027-.234-.03-.395-.053-.689c-.042-.618-.1-1.508-.179-2.649-.153-2.3-.35-5.632-.578-9.749-.457-8.234-.992-19.615-1.542-32.189s-1.055-23.949-1.467-32.185c-.209-4.11-.378-7.439-.5-9.753-.057-1.143-.1-2.034-.132-2.652-.012-.295-.021-.524-.028-.691s0-.236,0-.236" transform="translate(-268.263 -76.801)" fill="#e1e1e1"/>
        <path id="Path_192330" data-name="Path 192330" d="M643.87,226.131a2.2,2.2,0,0,1,.415.346c.257.233.617.582,1.059,1.017.88.873,2.065,2.11,3.347,3.5l3.265,3.572.994,1.078a2.244,2.244,0,0,1,.348.413,2.163,2.163,0,0,1-.418-.343c-.256-.234-.617-.583-1.054-1.023-.873-.881-2.041-2.134-3.322-3.524l-3.289-3.547-1-1.073a2.211,2.211,0,0,1-.345-.416" transform="translate(-262.873 -92.323)" fill="#e1e1e1"/>
        <path id="Path_192331" data-name="Path 192331" d="M660.922,234.778c-.05-.05,2.391-2.606,5.452-5.71s5.584-5.58,5.634-5.53-2.391,2.605-5.453,5.71-5.584,5.579-5.634,5.53" transform="translate(-269.835 -91.264)" fill="#e1e1e1"/>
        <path id="Path_192332" data-name="Path 192332" d="M660.876,270.188a2.332,2.332,0,0,1,.465-.3l1.306-.733c1.1-.619,2.62-1.479,4.262-2.488s3.1-1.966,4.152-2.669l1.246-.831a2.3,2.3,0,0,1,.475-.281,2.3,2.3,0,0,1-.417.362c-.278.219-.686.528-1.2.9-1.026.743-2.472,1.73-4.121,2.74s-3.184,1.85-4.31,2.43c-.564.288-1.023.514-1.346.662a2.29,2.29,0,0,1-.511.208" transform="translate(-269.816 -107.329)" fill="#e1e1e1"/>
        <path id="Path_192333" data-name="Path 192333" d="M642.188,263.783a1.958,1.958,0,0,1,.462.217c.289.154.7.384,1.21.673,1.017.578,2.411,1.39,3.944,2.3s2.913,1.749,3.906,2.366c.5.309.9.562,1.169.743a1.986,1.986,0,0,1,.411.3,1.926,1.926,0,0,1-.462-.217c-.289-.154-.7-.383-1.21-.672-1.017-.578-2.411-1.391-3.944-2.3s-2.913-1.749-3.905-2.366c-.5-.308-.9-.562-1.169-.742a2,2,0,0,1-.411-.3" transform="translate(-262.186 -107.694)" fill="#e1e1e1"/>
        <path id="Path_192334" data-name="Path 192334" d="M638.48,292.638a3.144,3.144,0,0,1,.587.284l1.554.857c1.306.734,3.1,1.762,5.077,2.911s3.758,2.2,5.04,2.976l1.513.927a3.2,3.2,0,0,1,.537.37,3.2,3.2,0,0,1-.587-.284l-1.554-.857c-1.306-.733-3.1-1.762-5.078-2.911s-3.756-2.2-5.04-2.976l-1.512-.927a3.185,3.185,0,0,1-.537-.37" transform="translate(-260.673 -119.475)" fill="#e1e1e1"/>
        <path id="Path_192335" data-name="Path 192335" d="M662.177,299.536a3.648,3.648,0,0,1,.581-.389l1.623-.988c1.369-.834,3.257-1.993,5.305-3.329s3.876-2.589,5.192-3.506l1.56-1.083a3.624,3.624,0,0,1,.59-.374,3.7,3.7,0,0,1-.531.454c-.352.279-.868.674-1.514,1.15-1.29.956-3.1,2.237-5.158,3.573s-3.959,2.475-5.353,3.271c-.7.4-1.267.71-1.665.918a3.634,3.634,0,0,1-.63.3" transform="translate(-270.347 -118.344)" fill="#e1e1e1"/>
        <path id="Path_192336" data-name="Path 192336" d="M666.39,325.677H647.922L653.95,371.3h6.413Z" transform="translate(-264.528 -132.964)" fill="#e1e1e1"/>
        <path id="Path_192337" data-name="Path 192337" d="M649.541,333.857c-.008,0,.02.064.1.163a1.169,1.169,0,0,0,.446.318,2.235,2.235,0,0,0,1.95-.24,14.809,14.809,0,0,1,2.395-1.576,5.239,5.239,0,0,1,3.4.067,14.5,14.5,0,0,1,3.162,1.532,22.047,22.047,0,0,0,2.571,1.38,7.123,7.123,0,0,0,1.9.548,3.408,3.408,0,0,0,.536.036c.123,0,.187,0,.188-.015a9.637,9.637,0,0,1-2.533-.763,25.408,25.408,0,0,1-2.515-1.423,14.016,14.016,0,0,0-3.216-1.582,5.425,5.425,0,0,0-3.584-.039,4.727,4.727,0,0,0-1.35.834,10.485,10.485,0,0,1-1.057.819,2.169,2.169,0,0,1-1.8.312,1.835,1.835,0,0,1-.585-.372" transform="translate(-265.188 -135.536)" fill="#f5f5f5"/>
        <path id="Path_192338" data-name="Path 192338" d="M650.679,347.046c.025.015.146-.188.435-.489a4.109,4.109,0,0,1,1.475-.936,6.573,6.573,0,0,1,2.568-.387,27.066,27.066,0,0,1,3.214.438,11.049,11.049,0,0,0,3.29.136,9.04,9.04,0,0,0,2.589-.739,8.209,8.209,0,0,0,1.557-.925,2.2,2.2,0,0,0,.494-.444,16.448,16.448,0,0,1-2.135,1.174,9.461,9.461,0,0,1-2.537.659,11.345,11.345,0,0,1-3.21-.159,24.161,24.161,0,0,0-3.253-.418,6.5,6.5,0,0,0-2.656.467,3.881,3.881,0,0,0-1.482,1.054,2.657,2.657,0,0,0-.279.409c-.054.1-.078.154-.069.159" transform="translate(-265.652 -140.322)" fill="#f5f5f5"/>
        <path id="Path_192339" data-name="Path 192339" d="M666.145,356.081a1.57,1.57,0,0,0-.509-.264,5.444,5.444,0,0,0-1.53-.328,9.772,9.772,0,0,0-2.314.132c-.861.14-1.784.378-2.754.583a11.643,11.643,0,0,1-2.75.311,6,6,0,0,1-2.183-.472,5.04,5.04,0,0,1-1.656-1.233,1.409,1.409,0,0,0,.312.482,3.9,3.9,0,0,0,1.254.944,5.9,5.9,0,0,0,2.261.557,11.121,11.121,0,0,0,2.824-.293c.98-.208,1.9-.453,2.739-.6a10.614,10.614,0,0,1,2.255-.193,8.472,8.472,0,0,1,2.052.38" transform="translate(-266.375 -144.858)" fill="#f5f5f5"/>
        <path id="Path_192340" data-name="Path 192340" d="M653.438,366.913a3,3,0,0,1,1.793-.181,8.713,8.713,0,0,1,1.876.7,7.119,7.119,0,0,0,2.435.671,7.3,7.3,0,0,0,4.418-1.024,6.274,6.274,0,0,0,1.1-.846c.225-.239.34-.377.325-.391a16.111,16.111,0,0,1-1.531,1.053,7.57,7.57,0,0,1-4.284.908c-1.749-.1-3.091-1.143-4.3-1.28a2.752,2.752,0,0,0-1.393.121.916.916,0,0,0-.435.27" transform="translate(-266.779 -149.362)" fill="#f5f5f5"/>
        <path id="Path_192341" data-name="Path 192341" d="M655.176,380.693a3.55,3.55,0,0,0,1.54-.306c.928-.31,2.077-1.022,3.419-1.555a5.572,5.572,0,0,1,1.962-.411,3.618,3.618,0,0,1,1.578.36,3.5,3.5,0,0,1,1.141.984.836.836,0,0,0-.175-.389,2.534,2.534,0,0,0-.865-.783,3.623,3.623,0,0,0-1.674-.45,5.508,5.508,0,0,0-2.074.407c-1.391.554-2.5,1.287-3.389,1.639-.876.378-1.469.456-1.462.5" transform="translate(-267.489 -154.384)" fill="#f5f5f5"/>
        <path id="Path_192342" data-name="Path 192342" d="M656.707,389.331a4.3,4.3,0,0,0,1.169.38,21.507,21.507,0,0,0,5.886.578,4.324,4.324,0,0,0,1.221-.144c0-.091-1.871-.011-4.155-.241s-4.1-.66-4.121-.572" transform="translate(-268.114 -158.948)" fill="#f5f5f5"/>
        <rect id="Rectangle_41255" data-name="Rectangle 41255" width="57.021" height="37.49" transform="translate(334.359 27.252)" fill="#e1e1e1"/>
        <rect id="Rectangle_41256" data-name="Rectangle 41256" width="53.024" height="34.28" transform="translate(336.343 28.785)" fill="#fafafa"/>
        <rect id="Rectangle_41257" data-name="Rectangle 41257" width="17.298" height="9.433" transform="translate(354.206 41.281)" fill="#e1e1e1"/>
        <path id="Path_192343" data-name="Path 192343" d="M407.4,403.7c0,.085-91.208.154-203.692.154C91.188,403.854,0,403.785,0,403.7s91.188-.154,203.711-.154c112.484,0,203.692.069,203.692.154" transform="translate(0 -164.756)" fill="#1a2e35"/>
        <path id="Path_192344" data-name="Path 192344" d="M371.854,125.894H259.344V0H381.452V116.3a9.6,9.6,0,0,1-9.6,9.6" transform="translate(-105.883)" fill="#ececec"/>
        <path id="Path_192345" data-name="Path 192345" d="M380.643,63c0,.255-22.07.462-49.289.462s-49.293-.207-49.293-.462,22.066-.462,49.293-.462,49.289.207,49.289.462" transform="translate(-115.157 -25.533)" fill="#375a64"/>
        <path id="Path_192346" data-name="Path 192346" d="M332.746,77.414c0,.256-10.9.462-24.351.462s-24.354-.207-24.354-.462,10.9-.462,24.354-.462,24.351.207,24.351.462" transform="translate(-115.966 -31.417)" fill="#375a64"/>
        <path id="Path_192347" data-name="Path 192347" d="M390.374,76.079c0,.256-2.888.462-6.45.462s-6.45-.207-6.45-.462,2.888-.462,6.45-.462,6.45.207,6.45.462" transform="translate(-154.112 -30.872)" fill="#375a64"/>
        <path id="Path_192348" data-name="Path 192348" d="M435.49,75.19c0,.256-5.717.462-12.768.462s-12.769-.207-12.769-.462,5.716-.462,12.769-.462,12.768.207,12.768.462" transform="translate(-167.372 -30.509)" fill="#375a64"/>
        <path id="Path_192349" data-name="Path 192349" d="M327.87,91.207c0,.255-10.255.462-22.9.462s-22.906-.207-22.906-.462,10.254-.462,22.906-.462,22.9.207,22.9.462" transform="translate(-115.157 -37.049)" fill="#375a64"/>
        <path id="Path_192350" data-name="Path 192350" d="M418.6,90.809c0,.256-11.2.462-25.009.462s-25.012-.207-25.012-.462,11.2-.462,25.012-.462,25.009.207,25.009.462" transform="translate(-150.478 -36.886)" fill="#375a64"/>
        <path id="Path_192351" data-name="Path 192351" d="M437.743,104.688c0,.256-4.986.462-11.135.462s-11.136-.207-11.136-.462,4.985-.462,11.136-.462,11.135.207,11.135.462" transform="translate(-169.625 -42.552)" fill="#375a64"/>
        <path id="Path_192352" data-name="Path 192352" d="M338.01,47.553c0,.256-12.083.462-26.983.462s-26.986-.207-26.986-.462,12.08-.462,26.986-.462,26.983.207,26.983.462" transform="translate(-115.966 -19.226)" fill="#f57c00"/>
        <path id="Path_192353" data-name="Path 192353" d="M333.048,286.908H96.634a8.62,8.62,0,0,1-8.62-8.62v-150.5a8.62,8.62,0,0,1,8.62-8.62H333.048a8.62,8.62,0,0,1,8.62,8.62v150.5a8.62,8.62,0,0,1-8.62,8.62" transform="translate(-35.934 -48.653)" fill="#1a2e35"/>
        <path id="Path_192354" data-name="Path 192354" d="M334.971,396.353H81.219a10.531,10.531,0,0,1-10.531-10.532v-4.145H345.5v4.145a10.532,10.532,0,0,1-10.532,10.532" transform="translate(-28.86 -155.827)" fill="#1a2e35"/>
        <rect id="Rectangle_41258" data-name="Rectangle 41258" width="239.327" height="141.653" transform="translate(59.243 77.18)" fill="#375a64"/>
        <path id="Path_192355" data-name="Path 192355" d="M260.688,381.562s.085-.005.264-.008l.8-.008,3.126-.018,11.6-.047,38.772-.083h.286l-.145.247c-.488.836-1.012,1.733-1.538,2.637l-1.628,2.788-.047.082h-.094l-47.986-.09h-.041l-.021-.034-2.513-4.087-.632-1.035c-.14-.23-.2-.342-.2-.342s.086.124.238.359l.672,1.037,2.563,3.988-.063-.034,47.986-.09-.142.081,1.627-2.788,1.54-2.637.141.247-38.614-.083-11.651-.047-3.173-.018-.832-.008c-.189,0-.292-.008-.292-.008" transform="translate(-106.431 -155.713)" fill="#375a64"/>
        <line id="Line_454" data-name="Line 454" x2="253.654" transform="translate(52.08 225.848)" fill="#1a2e35"/>
        <path id="Path_192356" data-name="Path 192356" d="M341.668,381.569c0,.085-56.787.154-126.821.154-70.058,0-126.833-.069-126.833-.154s56.775-.154,126.833-.154c70.034,0,126.821.069,126.821.154" transform="translate(-35.934 -155.721)" fill="#375a64"/>
        <path id="Path_192357" data-name="Path 192357" d="M397.549,82.623h0a7.085,7.085,0,0,1,7.085,7.085v14.54H383.447V90.835a8.212,8.212,0,0,1,8.212-8.212Z" transform="translate(-156.55 -33.733)" fill="#1a2e35"/>
        <path id="Path_192358" data-name="Path 192358" d="M345.669,82.486c0,.085-19.991.137-44.645.115s-44.649-.108-44.649-.193,19.987-.137,44.65-.115,44.645.108,44.645.193" transform="translate(-104.67 -33.596)" fill="#1a2e35"/>
        <path id="Path_192359" data-name="Path 192359" d="M316.957,82.551l-8.836-.061-12.835.079H201a14.5,14.5,0,0,0-14.5,14.5V252.851H308.61V90.517c.358-7.948,8.346-7.966,8.346-7.966" transform="translate(-76.144 -33.678)" fill="#fafafa"/>
        <path id="Path_192360" data-name="Path 192360" d="M316.753,82.483l-73.626.161-36.814.028-4.6,0c-.771-.015-1.526.03-2.282.07a15.024,15.024,0,0,0-2.233.407,14.228,14.228,0,0,0-9.762,8.756,11.2,11.2,0,0,0-.366,1.074l-.282,1.1a15.69,15.69,0,0,0-.263,2.253c-.066,3.049-.015,6.13-.028,9.194l.1,147.254-.294-.294,122.107.079-.215.215.059-87.578.07-43.788.043-21.893.011-5.474.005-2.737a8.943,8.943,0,0,1,.057-1.367,7.384,7.384,0,0,1,.214-1.352,7.246,7.246,0,0,1,2.957-4.458,8.576,8.576,0,0,1,2.455-1.186,10.385,10.385,0,0,1,2.689-.467m0,0a10.33,10.33,0,0,0-2.685.478,8.549,8.549,0,0,0-2.447,1.194,7.211,7.211,0,0,0-2.927,4.45,7.3,7.3,0,0,0-.208,1.346,8.965,8.965,0,0,0-.052,1.364l.005,2.737.011,5.473.043,21.9.07,43.788.059,87.575V253h-.215l-122.107.079h-.295v-.295l.1-147.254c.017-3.072-.03-6.127.04-9.211a16,16,0,0,1,.274-2.312l.291-1.128a11.563,11.563,0,0,1,.377-1.1,14.588,14.588,0,0,1,10.022-8.966A15.371,15.371,0,0,1,199.4,82.4c.776-.041,1.552-.085,2.315-.069l4.6,0,36.813.028Z" transform="translate(-75.94 -33.61)" fill="#1a2e35"/>
        <path id="Path_192361" data-name="Path 192361" d="M217.563,129.991h21.308l.034,7.137h-1.019q-.5-3.831-2.869-5.182a8.836,8.836,0,0,0-3.975-.815v18.645a3.6,3.6,0,0,0,.683,2.594,4.379,4.379,0,0,0,2.842.64v.9H221.952v-.9a4.165,4.165,0,0,0,2.756-.648,3.608,3.608,0,0,0,.682-2.586V131.131a9.061,9.061,0,0,0-3.974.815q-2.541,1.386-2.869,5.182h-1.02Z" transform="translate(-88.81 -53.072)" fill="#f57c00"/>
        <path id="Path_192362" data-name="Path 192362" d="M328.318,132.392c0,.255-11.754.462-26.25.462s-26.253-.207-26.253-.462,11.752-.462,26.253-.462,26.25.207,26.25.462" transform="translate(-112.607 -53.863)" fill="#f57c00"/>
        <path id="Path_192363" data-name="Path 192363" d="M297.894,146.568c0,.255-4.544.462-10.149.462s-10.151-.207-10.151-.462,4.544-.462,10.151-.462,10.149.207,10.149.462" transform="translate(-113.334 -59.651)" fill="#375a64"/>
        <path id="Path_192364" data-name="Path 192364" d="M242.061,189.812c0,.256-8.631.462-19.275.462s-19.277-.206-19.277-.462,8.629-.462,19.277-.462,19.275.207,19.275.462" transform="translate(-83.087 -77.306)" fill="#375a64"/>
        <path id="Path_192365" data-name="Path 192365" d="M315.839,189.812c0,.256-8.631.462-19.275.462s-19.277-.206-19.277-.462,8.629-.462,19.277-.462,19.275.207,19.275.462" transform="translate(-113.208 -77.306)" fill="#f57c00"/>
        <path id="Path_192366" data-name="Path 192366" d="M242.061,201.36c0,.256-8.631.462-19.275.462s-19.277-.207-19.277-.462,8.629-.462,19.277-.462,19.275.207,19.275.462" transform="translate(-83.087 -82.021)" fill="#375a64"/>
        <path id="Path_192367" data-name="Path 192367" d="M242.061,212.909c0,.256-8.631.462-19.275.462s-19.277-.207-19.277-.462,8.629-.462,19.277-.462,19.275.207,19.275.462" transform="translate(-83.087 -86.736)" fill="#f57c00"/>
        <path id="Path_192368" data-name="Path 192368" d="M297.894,170.091c0,.256-4.544.462-10.149.462s-10.151-.207-10.151-.462,4.544-.462,10.151-.462,10.149.207,10.149.462" transform="translate(-113.334 -69.255)" fill="#375a64"/>
        <path id="Path_192369" data-name="Path 192369" d="M362.061,189.812c0,.256-3.03.462-6.766.462s-6.767-.206-6.767-.462,3.029-.462,6.767-.462,6.766.207,6.766.462" transform="translate(-142.294 -77.306)" fill="#375a64"/>
        <path id="Path_192370" data-name="Path 192370" d="M353.486,146.568c0,.255-7.8.462-17.415.462s-17.416-.207-17.416-.462,7.8-.462,17.416-.462,17.415.207,17.415.462" transform="translate(-130.097 -59.651)" fill="#375a64"/>
        <path id="Path_192371" data-name="Path 192371" d="M335.15,157.829c0,.256-12.885.462-28.776.462s-28.779-.207-28.779-.462,12.883-.462,28.779-.462,28.776.207,28.776.462" transform="translate(-113.334 -64.248)" fill="#375a64"/>
        <path id="Path_192372" data-name="Path 192372" d="M332.976,201.36c0,.256-12.467.462-27.843.462s-27.846-.207-27.846-.462,12.465-.462,27.846-.462,27.843.207,27.843.462" transform="translate(-113.208 -82.021)" fill="#375a64"/>
        <path id="Path_192373" data-name="Path 192373" d="M335.344,234.793c0,.256-11.7.462-26.127.462s-26.13-.207-26.13-.462,11.7-.462,26.13-.462,26.127.207,26.127.462" transform="translate(-115.577 -95.671)" fill="#f57c00"/>
        <path id="Path_192374" data-name="Path 192374" d="M335.344,246.033c0,.256-11.7.462-26.127.462s-26.13-.207-26.13-.462,11.7-.462,26.13-.462,26.127.207,26.127.462" transform="translate(-115.577 -100.26)" fill="#375a64"/>
        <path id="Path_192375" data-name="Path 192375" d="M335.344,257.273c0,.256-11.7.462-26.127.462s-26.13-.207-26.13-.462,11.7-.462,26.13-.462,26.127.207,26.127.462" transform="translate(-115.577 -104.848)" fill="#375a64"/>
        <path id="Path_192376" data-name="Path 192376" d="M335.344,268.512c0,.255-11.7.462-26.127.462s-26.13-.207-26.13-.462,11.7-.462,26.13-.462,26.127.207,26.127.462" transform="translate(-115.577 -109.437)" fill="#375a64"/>
        <path id="Path_192377" data-name="Path 192377" d="M313.171,279.752a20.97,20.97,0,0,1-4.405.327c-2.723.083-6.482.135-10.635.135s-7.916-.051-10.638-.135a20.96,20.96,0,0,1-4.4-.327,20.941,20.941,0,0,1,4.4-.327c2.722-.084,6.483-.136,10.638-.136s7.913.051,10.635.136a20.951,20.951,0,0,1,4.405.327" transform="translate(-115.577 -114.026)" fill="#375a64"/>
        <path id="Path_192378" data-name="Path 192378" d="M324.343,213.513c0,.256-10.077.462-22.5.462s-22.506-.207-22.506-.462,10.074-.462,22.506-.462,22.5.207,22.5.462" transform="translate(-114.044 -86.983)" fill="#375a64"/>
        <path id="Path_192379" data-name="Path 192379" d="M234.372,236.081l2.773,51.337-50.2,6.287-.038-58.06Z" transform="translate(-76.31 -96.207)" fill="#e1e1e1"/>
        <rect id="Rectangle_41259" data-name="Rectangle 41259" width="54.461" height="68.121" transform="translate(92.715 190.774) rotate(-89.632)" fill="#f5f5f5"/>
        <rect id="Rectangle_41260" data-name="Rectangle 41260" width="47.604" height="63.335" transform="translate(95.086 187.36) rotate(-89.632)" fill="#fdd835"/>
        <path id="Path_192380" data-name="Path 192380" d="M160.692,296.314,183,266.867l13.584,18.6,9.358-9.837,18.081,21.091Z" transform="translate(-65.606 -108.954)" fill="#ffa726"/>
        <path id="Path_192381" data-name="Path 192381" d="M224.542,257.49a4.987,4.987,0,1,1-4.955-5.018,4.987,4.987,0,0,1,4.955,5.018" transform="translate(-87.602 -103.077)" fill="#ffa726"/>
        <path id="Path_192382" data-name="Path 192382" d="M281.44,344.129a1.053,1.053,0,1,1-1.053-1.053,1.053,1.053,0,0,1,1.053,1.053" transform="translate(-114.044 -140.068)" fill="#1a2e35"/>
        <path id="Path_192383" data-name="Path 192383" d="M292,344.129a1.053,1.053,0,1,1-1.053-1.053A1.053,1.053,0,0,1,292,344.129" transform="translate(-118.356 -140.068)" fill="#1a2e35"/>
        <path id="Path_192384" data-name="Path 192384" d="M302.566,344.129a1.054,1.054,0,1,1-1.054-1.053,1.054,1.054,0,0,1,1.054,1.053" transform="translate(-122.669 -140.068)" fill="#1a2e35"/>
        <path id="Path_192385" data-name="Path 192385" d="M316.334,303.173c0,.255-8.631.462-19.275.462s-19.277-.207-19.277-.462,8.629-.462,19.277-.462,19.275.207,19.275.462" transform="translate(-113.41 -123.588)" fill="#f57c00"/>
        <path id="Path_192386" data-name="Path 192386" d="M333.472,314.721c0,.256-12.467.462-27.843.462s-27.846-.207-27.846-.462,12.465-.462,27.846-.462,27.843.207,27.843.462" transform="translate(-113.411 -128.303)" fill="#375a64"/>
        <rect id="Rectangle_41261" data-name="Rectangle 41261" width="32.805" height="41.033" transform="translate(342.368 230.609) rotate(-89.632)" fill="#f5f5f5"/>
        <rect id="Rectangle_41262" data-name="Rectangle 41262" width="28.675" height="38.15" transform="translate(343.795 228.552) rotate(-89.632)" fill="#f57c00"/>
        <g id="Group_128045" data-name="Group 128045" transform="translate(343.795 210.814)" opacity="0.2">
          <g id="Group_128044" data-name="Group 128044">
            <g id="Group_128043" data-name="Group 128043" clip-path="url(#clip-path-3)">
              <path id="Path_192387" data-name="Path 192387" d="M581,374.006l13.439-17.738,8.182,11.2,5.636-5.925,10.891,12.7Z" transform="translate(-581.001 -356.269)"/>
            </g>
          </g>
        </g>
        <g id="Group_128048" data-name="Group 128048" transform="translate(362.999 205.683)" opacity="0.2">
          <g id="Group_128047" data-name="Group 128047">
            <g id="Group_128046" data-name="Group 128046" clip-path="url(#clip-path-4)">
              <path id="Path_192388" data-name="Path 192388" d="M619.462,350.62a3,3,0,1,1-2.985-3.023,3,3,0,0,1,2.985,3.023" transform="translate(-613.454 -347.597)"/>
            </g>
          </g>
        </g>
        <rect id="Rectangle_41265" data-name="Rectangle 41265" width="32.805" height="41.033" transform="translate(336.35 227.183) rotate(-89.632)" fill="#f5f5f5"/>
        <rect id="Rectangle_41266" data-name="Rectangle 41266" width="28.675" height="38.15" transform="translate(337.778 225.127) rotate(-89.632)" fill="#26ccda"/>
        <g id="Group_128051" data-name="Group 128051" transform="translate(337.778 207.389)" opacity="0.2">
          <g id="Group_128050" data-name="Group 128050">
            <g id="Group_128049" data-name="Group 128049" clip-path="url(#clip-path-5)">
              <path id="Path_192389" data-name="Path 192389" d="M570.832,368.217l13.439-17.738,8.182,11.2,5.636-5.925,10.891,12.7Z" transform="translate(-570.832 -350.48)"/>
            </g>
          </g>
        </g>
        <g id="Group_128054" data-name="Group 128054" transform="translate(356.981 202.258)" opacity="0.2">
          <g id="Group_128053" data-name="Group 128053">
            <g id="Group_128052" data-name="Group 128052" clip-path="url(#clip-path-4)">
              <path id="Path_192390" data-name="Path 192390" d="M609.293,344.831a3,3,0,1,1-2.985-3.023,3,3,0,0,1,2.985,3.023" transform="translate(-603.285 -341.808)"/>
            </g>
          </g>
        </g>
        <rect id="Rectangle_41269" data-name="Rectangle 41269" width="32.805" height="41.033" transform="translate(330.991 224.352) rotate(-89.632)" fill="#f5f5f5"/>
        <rect id="Rectangle_41270" data-name="Rectangle 41270" width="28.675" height="38.151" transform="translate(332.419 222.296) rotate(-89.632)" fill="#fdd835"/>
        <g id="Group_128057" data-name="Group 128057" transform="translate(332.419 204.558)" opacity="0.2">
          <g id="Group_128056" data-name="Group 128056">
            <g id="Group_128055" data-name="Group 128055" clip-path="url(#clip-path-5)">
              <path id="Path_192391" data-name="Path 192391" d="M561.776,363.433,575.215,345.7l8.182,11.2,5.636-5.925,10.892,12.7Z" transform="translate(-561.776 -345.696)"/>
            </g>
          </g>
        </g>
        <g id="Group_128060" data-name="Group 128060" transform="translate(351.623 199.427)" opacity="0.2">
          <g id="Group_128059" data-name="Group 128059">
            <g id="Group_128058" data-name="Group 128058" clip-path="url(#clip-path-8)">
              <path id="Path_192392" data-name="Path 192392" d="M600.236,340.047a3,3,0,1,1-2.985-3.023,3,3,0,0,1,2.985,3.023" transform="translate(-594.229 -337.024)"/>
            </g>
          </g>
        </g>
        <rect id="Rectangle_41273" data-name="Rectangle 41273" width="32.805" height="41.033" transform="translate(324.974 227.876) rotate(-89.632)" fill="#f5f5f5"/>
        <rect id="Rectangle_41274" data-name="Rectangle 41274" width="28.675" height="38.15" transform="translate(326.402 225.819) rotate(-89.632)" fill="#375a64"/>
        <g id="Group_128063" data-name="Group 128063" transform="translate(326.402 208.082)" opacity="0.2">
          <g id="Group_128062" data-name="Group 128062">
            <g id="Group_128061" data-name="Group 128061" clip-path="url(#clip-path-5)">
              <path id="Path_192393" data-name="Path 192393" d="M551.607,369.388l13.439-17.738,8.182,11.2,5.636-5.925,10.891,12.7Z" transform="translate(-551.607 -351.65)"/>
            </g>
          </g>
        </g>
        <g id="Group_128066" data-name="Group 128066" transform="translate(345.605 202.951)" opacity="0.2">
          <g id="Group_128065" data-name="Group 128065">
            <g id="Group_128064" data-name="Group 128064" clip-path="url(#clip-path-8)">
              <path id="Path_192394" data-name="Path 192394" d="M590.067,346a3,3,0,1,1-2.985-3.023A3,3,0,0,1,590.067,346" transform="translate(-584.06 -342.979)"/>
            </g>
          </g>
        </g>
        <rect id="Rectangle_41277" data-name="Rectangle 41277" width="23.69" height="31.674" transform="translate(366.217 207.27)" fill="#1a2e35"/>
        <path id="Path_192395" data-name="Path 192395" d="M542.219,381.952H589.6V350.278h-47.38Zm28.727-24.178H560.873a2.18,2.18,0,1,1,0-4.36h10.073a2.18,2.18,0,0,1,0,4.36" transform="translate(-221.372 -143.008)" fill="#f57c00"/>
        <path id="Path_192396" data-name="Path 192396" d="M409.589,395.661l-44.058-2.7c-.278-.63-.463-1-.463-1l-11.941.238-3.886-.238s-.059.118-.153.318l-40.084.8c-7.991,0-16.393,4.875-16.393,11.106-.1,5.93,2.77,12.365,9.931,12.219l54.614-.183,54.614.183c7.161.146,9.054-4.172,9.065-9.294.837-9.54-5.139-11.373-11.244-11.452" transform="translate(-119.463 -160.028)" fill="#375a64"/>
        <path id="Path_192397" data-name="Path 192397" d="M317.866,421.761s.089-.01.263-.015l.772-.015,2.975-.028,10.989-.048,36.671-.049-.153.163c-.075-1.2-.155-2.479-.235-3.77-.164-2.642-.326-5.241-.48-7.713l.135.142-33.782-3.759-10.01-1.145-2.7-.323-.7-.091a1.489,1.489,0,0,1-.237-.041,1.544,1.544,0,0,1,.24.012l.7.063,2.7.27,10.02,1.053,33.793,3.657.128.014.008.128c.155,2.472.318,5.07.483,7.713.081,1.291.16,2.572.235,3.77l.011.163h-.164l-36.671-.049-10.989-.048-2.975-.028-.772-.015c-.174,0-.263-.015-.263-.015" transform="translate(-129.775 -165.378)" fill="#1a2e35"/>
        <path id="Path_192398" data-name="Path 192398" d="M328.808,404.308c-.034.041-.582-.4-1.544-.987a16.394,16.394,0,0,0-8.346-2.4c-1.127-.014-1.826.069-1.832.016a1.542,1.542,0,0,1,.484-.112,10.131,10.131,0,0,1,1.346-.121,14.507,14.507,0,0,1,8.465,2.434,10.135,10.135,0,0,1,1.076.818c.239.212.364.336.35.352" transform="translate(-129.457 -163.592)" fill="#1a2e35"/>
        <path id="Path_192399" data-name="Path 192399" d="M457.692,402.838c.019.083-8.671,2.184-19.407,4.693s-19.46,4.476-19.479,4.394,8.669-2.184,19.409-4.694,19.458-4.476,19.477-4.393" transform="translate(-170.986 -164.466)" fill="#1a2e35"/>
        <path id="Path_192400" data-name="Path 192400" d="M467.845,401.4a12.56,12.56,0,0,0-6.172,4.2,3.028,3.028,0,0,1,.592-.963,9.05,9.05,0,0,1,4.466-3.039,3.029,3.029,0,0,1,1.114-.2" transform="translate(-188.486 -163.874)" fill="#1a2e35"/>
        <path id="Path_192401" data-name="Path 192401" d="M432.468,316.873l13.955,24.293a10.322,10.322,0,0,1-9.241,15.46l-21.429-.6-.565-7.793,18.873-3.614-12.725-22.023Z" transform="translate(-169.509 -129.37)" fill="#ffc09d"/>
        <path id="Path_192402" data-name="Path 192402" d="M348.754,358.444l19.7,5.22.428-5.909-18.159-10.547,13.262-24.617-11.131-5.718L338.9,341.166a11.376,11.376,0,0,0,6.569,16.235Z" transform="translate(-137.808 -129.37)" fill="#ffc09d"/>
        <path id="Path_192403" data-name="Path 192403" d="M400.547,323.877l13.468-7.092a68.2,68.2,0,0,0-5.77-9.622,29.553,29.553,0,0,0-17.986-11.338h0l-15.491.183a20.5,20.5,0,0,0-5.524,1.272l.011-.06c-8.407,1.854-17.736,20.191-17.736,20.191l12.256,6.452.27,1.928a13.1,13.1,0,0,0,3.194,6.869l-3.569,23.473,39.777.822-5.065-16.81Z" transform="translate(-143.514 -120.777)" fill="#26ccda"/>
        <path id="Path_192404" data-name="Path 192404" d="M376.181,346.384a2.82,2.82,0,0,1-.592-.449,8.555,8.555,0,0,1-1.353-1.512,9.845,9.845,0,0,1-1.66-6.4,20.838,20.838,0,0,1,.91-3.569c.357-1.07.718-2.018,1.034-2.81s.588-1.424.785-1.857a3.253,3.253,0,0,1,.339-.659,3.613,3.613,0,0,1-.228.7l-.692,1.889c-.288.8-.627,1.751-.967,2.82a22.363,22.363,0,0,0-.873,3.518,10.147,10.147,0,0,0,.335,3.562,9.464,9.464,0,0,0,1.2,2.678,16.493,16.493,0,0,0,1.765,2.083" transform="translate(-152.097 -134.374)" fill="#1a2e35"/>
        <path id="Path_192405" data-name="Path 192405" d="M367.069,389.257l-2.246-26.182h48.452l-3.211,26.508Z" transform="translate(-148.947 -148.233)" fill="#1a2e35"/>
        <path id="Path_192406" data-name="Path 192406" d="M406.721,384.543a3.085,3.085,0,1,1-3.085-3.085,3.085,3.085,0,0,1,3.085,3.085" transform="translate(-163.533 -155.738)" fill="#fafafa"/>
        <path id="Path_192407" data-name="Path 192407" d="M404.331,415.966l8.226,1.149v8.942l-7.565-.2Z" transform="translate(-165.077 -169.827)" fill="#ffc09d"/>
        <path id="Path_192408" data-name="Path 192408" d="M418.233,417.906h3.7a4.1,4.1,0,0,1,2.05.55l1.95,1.126a30.356,30.356,0,0,0,3.408,1.625c2.249.722,6.032,1.7,6.829,2.31,2.275,1.754,1.583,3.829.334,4.046-1.1.191-18.27-.715-18.27-.715Z" transform="translate(-170.752 -170.619)" fill="#26ccda"/>
        <path id="Path_192409" data-name="Path 192409" d="M428.222,428.548a8.455,8.455,0,0,1-.14-4.668,133.244,133.244,0,0,0,.14,4.668" transform="translate(-174.666 -173.058)" fill="#1a2e35"/>
        <path id="Path_192410" data-name="Path 192410" d="M431.371,428.742a14.848,14.848,0,0,1,.034-4.268,14.845,14.845,0,0,1-.034,4.268" transform="translate(-176.06 -173.3)" fill="#1a2e35"/>
        <path id="Path_192411" data-name="Path 192411" d="M434.693,429.249a15.856,15.856,0,0,1-.343-4.4,15.861,15.861,0,0,1,.343,4.4" transform="translate(-177.308 -173.453)" fill="#1a2e35"/>
        <path id="Path_192412" data-name="Path 192412" d="M423.256,425.178a2.558,2.558,0,0,1-.759-.238,7.1,7.1,0,0,1-1.847-1.142c-.175-.15-.353-.314-.528-.5a2.1,2.1,0,0,1-.472-.667.93.93,0,0,1,.1-.918.694.694,0,0,1,.459-.253,1.175,1.175,0,0,1,.5.056,3.683,3.683,0,0,1,.774,6.552,2.342,2.342,0,0,1-.847.38.988.988,0,0,1-.483-.023.648.648,0,0,1-.373-.328.932.932,0,0,1,.109-.852,2.622,2.622,0,0,1,.475-.571,5.671,5.671,0,0,1,1.818-1.191,2.347,2.347,0,0,1,.766-.217c.007.024-.263.107-.717.326a6.135,6.135,0,0,0-1.713,1.236,2.46,2.46,0,0,0-.422.533.706.706,0,0,0-.086.623.488.488,0,0,0,.577.2,2.093,2.093,0,0,0,.739-.35,3.42,3.42,0,0,0-.7-6.046.583.583,0,0,0-.662.1.676.676,0,0,0-.075.656,3.612,3.612,0,0,0,.9,1.091,9.954,9.954,0,0,0,2.462,1.544" transform="translate(-171.301 -172.068)" fill="#1a2e35"/>
        <path id="Path_192413" data-name="Path 192413" d="M439.474,427.634a2.165,2.165,0,0,0,.451-.562,2.119,2.119,0,0,0-.243-1.866,4.156,4.156,0,0,0-2.285-1.723c-1.046-.376-2.294-.558-3.552-.95a24.75,24.75,0,0,1-6.11-2.784c-.726-.463-1.286-.878-1.665-1.173a3.306,3.306,0,0,1-.56-.495,3.628,3.628,0,0,1,.631.4c.4.264.974.649,1.709,1.084a27.569,27.569,0,0,0,6.085,2.675c1.239.388,2.475.573,3.562.979a4.3,4.3,0,0,1,2.378,1.885,2.191,2.191,0,0,1,.158,2.024,1.26,1.26,0,0,1-.381.421c-.109.069-.172.095-.176.086" transform="translate(-173.723 -170.69)" fill="#1a2e35"/>
        <path id="Path_192414" data-name="Path 192414" d="M409.366,306.6a.479.479,0,0,1,0,.126c-.007.1-.016.219-.027.369q-.047.517-.13,1.43c-.128,1.27-.31,3.088-.54,5.372l-.014.138-.124-.065-7.143-3.76.169-.047-3.879,6.546-.083.14-.13-.1-6.534-5.011h.188l-2.846,2.231-3.88,3.038-.143.111-.086-.159-3.7-6.837.185.062-7.838,3.492-.144.064-.026-.154c-.456-2.687-.853-5.024-1.183-6.971l.12.068L367.1,308.4l-1.193.442-.31.108a.423.423,0,0,1-.108.029.37.37,0,0,1,.1-.052l.3-.131,1.176-.485,4.458-1.789.1-.04.02.108c.349,1.944.767,4.278,1.247,6.96l-.17-.09,7.82-3.532.121-.055.064.118,3.712,6.829-.228-.047,3.878-3.04,2.847-2.23.094-.073.094.073,6.524,5.024-.212.04,3.91-6.529.063-.1.107.057,7.112,3.82-.138.073c.266-2.279.478-4.094.626-5.362q.115-.909.179-1.425c.021-.149.038-.269.053-.366a.5.5,0,0,1,.027-.123" transform="translate(-149.217 -125.126)" fill="#f5f5f5"/>
        <path id="Path_192415" data-name="Path 192415" d="M413.133,317.567a.809.809,0,0,1-.033.173l-.124.5c-.12.459-.29,1.106-.507,1.936-.459,1.7-1.117,4.148-1.939,7.2l-.031.117-.11-.053-8.347-4.007.164-.042-7.031,10.027-.1.147-.127-.128-6.757-6.849-1.418-1.438.192.022-9.106,5.71-.13.082-.075-.133-4.91-8.67.154.058-9.364,3.223-.089.03-.03-.088-2.078-6.026-.538-1.6c-.055-.171-.1-.307-.133-.414a.634.634,0,0,1-.037-.143.625.625,0,0,1,.062.134l.156.405.585,1.586,2.16,6-.12-.057,9.34-3.289.1-.036.053.094,4.94,8.652-.2-.051,9.1-5.723.1-.066.087.088,1.418,1.439,6.751,6.854-.229.019,7.062-10,.065-.091.1.049,8.321,4.06-.141.064c.86-3.041,1.548-5.479,2.027-7.175l.558-1.922.151-.495a.822.822,0,0,1,.06-.166" transform="translate(-147.234 -129.504)" fill="#f5f5f5"/>
        <path id="Path_192416" data-name="Path 192416" d="M418.566,238.062a8.682,8.682,0,0,1-6.614-2.088c2.156,1.088,5.027-.4,5.785-2.7s.137-6.558-1.746-8.071a7.466,7.466,0,0,0-6.493-1.4c-2.219.594-4.571,3.968-5.3,6.147l.041.066q-.512-.2-1.032-.379a17.782,17.782,0,0,0-7.659-.927,12.421,12.421,0,0,0-7,3.082L403.6,255.983a8.965,8.965,0,0,0,6.586-4.424,16.561,16.561,0,0,0,2.117-7.865c.034-.688.032-1.382,0-2.077l4.839.778a10.788,10.788,0,0,0-3.217-2.876,4.04,4.04,0,0,0,4.638-1.459" transform="translate(-158.635 -91.279)" fill="#1a2e35"/>
        <path id="Path_192417" data-name="Path 192417" d="M397.2,281.661a7.567,7.567,0,0,0,7.4-7.478l.35-30.088a2.4,2.4,0,0,0-2.143-2.429L390.1,238.453c-4.07-.431-6.776,4.581-7.033,8.666-.286,4.538-.456,10.09.082,13.475,1.081,6.808,6.3,7.675,6.3,7.675,0-.018,0,2.634.02,5.861A7.568,7.568,0,0,0,397.2,281.661Z" transform="translate(-156.285 -97.343)" fill="#ffc09d"/>
        <path id="Path_192418" data-name="Path 192418" d="M387.713,260.019a.874.874,0,0,0,.842.881.835.835,0,0,0,.9-.788.873.873,0,0,0-.841-.881.836.836,0,0,0-.9.788" transform="translate(-158.292 -105.836)" fill="#1a2e35"/>
        <path id="Path_192419" data-name="Path 192419" d="M385.276,257.363c.108.114.77-.376,1.71-.373s1.628.473,1.73.357c.05-.051-.06-.256-.36-.475a2.4,2.4,0,0,0-1.385-.427,2.3,2.3,0,0,0-1.36.439c-.289.222-.387.428-.334.479" transform="translate(-157.291 -104.699)" fill="#1a2e35"/>
        <path id="Path_192420" data-name="Path 192420" d="M402.819,260.019a.873.873,0,0,0,.842.881.836.836,0,0,0,.9-.788.873.873,0,0,0-.841-.881.835.835,0,0,0-.9.788" transform="translate(-164.459 -105.836)" fill="#1a2e35"/>
        <path id="Path_192421" data-name="Path 192421" d="M400.886,257.659c.108.114.771-.376,1.71-.373s1.628.473,1.73.357c.05-.051-.059-.256-.36-.475a2.4,2.4,0,0,0-1.385-.427,2.3,2.3,0,0,0-1.361.439c-.288.222-.386.428-.334.479" transform="translate(-163.664 -104.82)" fill="#1a2e35"/>
        <path id="Path_192422" data-name="Path 192422" d="M393.48,264.666a6.226,6.226,0,0,0-1.526-.275c-.24-.025-.467-.073-.508-.237a1.22,1.22,0,0,1,.16-.711l.709-1.827a31.387,31.387,0,0,0,1.594-4.779,31.538,31.538,0,0,0-1.975,4.639q-.355.962-.679,1.838a1.388,1.388,0,0,0-.125.942.6.6,0,0,0,.395.351,1.634,1.634,0,0,0,.408.056,6.115,6.115,0,0,0,1.547,0" transform="translate(-159.669 -104.859)" fill="#1a2e35"/>
        <path id="Path_192423" data-name="Path 192423" d="M394.035,287.181a17.321,17.321,0,0,0,9.119-2.433s-2.212,4.678-9.027,4.04Z" transform="translate(-160.873 -116.254)" fill="#ff9b6c"/>
        <path id="Path_192424" data-name="Path 192424" d="M395.738,273.454a1.693,1.693,0,0,1,1.518-.629,1.547,1.547,0,0,1,1.067.573.98.98,0,0,1,.075,1.12,1.138,1.138,0,0,1-1.232.311,3.549,3.549,0,0,1-1.2-.717,1.034,1.034,0,0,1-.269-.278.314.314,0,0,1,0-.35" transform="translate(-161.53 -111.383)" fill="#ff9b6c"/>
        <path id="Path_192425" data-name="Path 192425" d="M397.739,271.167c-.153-.009-.155,1.011-1.028,1.735s-1.959.612-1.966.754c-.014.064.242.2.7.211a2.543,2.543,0,0,0,1.642-.572,2.209,2.209,0,0,0,.8-1.454c.039-.427-.075-.679-.144-.673" transform="translate(-161.163 -110.71)" fill="#1a2e35"/>
        <path id="Path_192426" data-name="Path 192426" d="M400.178,255.026c.092.256,1.03.134,2.133.267,1.106.111,1.994.433,2.14.2.065-.109-.09-.35-.449-.6a3.736,3.736,0,0,0-3.255-.36c-.405.163-.609.364-.569.485" transform="translate(-163.379 -103.832)" fill="#1a2e35"/>
        <path id="Path_192427" data-name="Path 192427" d="M385.49,254.394c.165.214.812-.008,1.591-.018.778-.038,1.437.143,1.589-.08.066-.108-.038-.322-.326-.524a2.3,2.3,0,0,0-2.562.079c-.275.22-.365.439-.292.543" transform="translate(-157.375 -103.465)" fill="#1a2e35"/>
        <path id="Path_192428" data-name="Path 192428" d="M418.818,262.155a1.707,1.707,0,0,1,1.78.089,3.156,3.156,0,0,1-1.989,5.862" transform="translate(-170.906 -106.943)" fill="#ffc09d"/>
        <path id="Path_192429" data-name="Path 192429" d="M419.658,267.123c.019-.049.264.058.592-.093a1.184,1.184,0,0,0,.585-1.163,1.2,1.2,0,0,0-.727-1.092c-.341-.14-.592-.071-.606-.124-.023-.033.232-.214.681-.114a1.251,1.251,0,0,1,.666.415,1.516,1.516,0,0,1,.338.9,1.353,1.353,0,0,1-.852,1.417c-.463.121-.714-.114-.677-.142" transform="translate(-171.27 -107.991)" fill="#ff9b6c"/>
        <path id="Path_192430" data-name="Path 192430" d="M422.152,270.891a1.373,1.373,0,0,1,.312.22l.834.681,2.938,2.5.1.085-.083.1c-1.094,1.314-2.313,2.959-3.683,4.677-.31.388-.62.767-.921,1.122l-.251.3-.017-.388c-.124-2.772-.22-5.226-.274-6.988-.02-.838-.037-1.534-.05-2.076a3.85,3.85,0,0,1,.021-.756,3.9,3.9,0,0,1,.091.751c.037.541.085,1.236.143,2.072.109,1.759.241,4.211.375,6.983l-.269-.092.914-1.117c1.365-1.712,2.6-3.35,3.724-4.654l.015.185-2.867-2.579-.788-.736c-.179-.173-.27-.27-.261-.281" transform="translate(-171.904 -110.38)" fill="#375a64"/>
        <path id="Path_192431" data-name="Path 192431" d="M392.319,233.441a24.782,24.782,0,0,0-4.965.543,8.314,8.314,0,0,0-4.292,2.417,5.049,5.049,0,0,0-1.186,4.643,3.655,3.655,0,0,0,3.769,2.628c1.256-.168,2.459-1.1,3.67-.728,1.144.349,1.775,1.745,2.951,1.963s2.2-.828,3.372-.93a3.355,3.355,0,0,1,3,2.121c.578,1.168.8,2.488,1.378,3.655a2.962,2.962,0,0,0,1.753,1.669,2.411,2.411,0,0,0,2.123-.6,4.927,4.927,0,0,0,1.243-1.9,10.574,10.574,0,0,0-8.591-14.495" transform="translate(-155.84 -95.307)" fill="#1a2e35"/>
        <path id="Path_192432" data-name="Path 192432" d="M422.617,241.081c-.053.015-.211-.549-.63-1.383a9.867,9.867,0,0,0-5.267-4.759c-.871-.332-1.449-.432-1.439-.486,0-.021.15-.012.414.022a6.225,6.225,0,0,1,1.1.259,8.982,8.982,0,0,1,5.391,4.872,6.13,6.13,0,0,1,.368,1.066c.062.259.085.4.064.409" transform="translate(-169.547 -95.716)" fill="#ff4f5b"/>
        <path id="Path_192433" data-name="Path 192433" d="M429.789,228.21a11.285,11.285,0,0,0-1.64-.508,6.54,6.54,0,0,0-3.994.6,8.865,8.865,0,0,0-3.086,2.685c-.631.857-.926,1.457-.973,1.433a1.318,1.318,0,0,1,.162-.443,8.435,8.435,0,0,1,.633-1.115,8.291,8.291,0,0,1,3.127-2.836,6.342,6.342,0,0,1,4.174-.538,4.677,4.677,0,0,1,1.209.451c.266.149.4.256.388.271" transform="translate(-171.512 -92.818)" fill="#375a64"/>
        <path id="Path_192434" data-name="Path 192434" d="M422.888,242.325a4.309,4.309,0,0,1,.011,1.4,11.111,11.111,0,0,1-2.648,6.142,4.3,4.3,0,0,1-1.025.954,14.262,14.262,0,0,0,3.663-8.5" transform="translate(-171.156 -98.934)" fill="#375a64"/>
        <path id="Path_192435" data-name="Path 192435" d="M424.028,242.57c.02-.006.078.132.166.39a6.556,6.556,0,0,1,.267,1.122,9.609,9.609,0,0,1-1.825,7.222,6.64,6.64,0,0,1-.767.861c-.2.185-.317.279-.332.264-.038-.038.383-.464.923-1.252a10.614,10.614,0,0,0,1.785-7.066c-.1-.95-.27-1.525-.217-1.541" transform="translate(-172.1 -99.034)" fill="#375a64"/>
        <path id="Path_192436" data-name="Path 192436" d="M454.715,245.126a2.788,2.788,0,1,0,1.275-.1" transform="translate(-184.882 -100.039)" fill="#ececec"/>
        <path id="Path_192437" data-name="Path 192437" d="M468.043,225.472a3.2,3.2,0,1,0,1.462-.109" transform="translate(-190.211 -92.009)" fill="#ececec"/>
        <path id="Path_192438" data-name="Path 192438" d="M480.216,134.707c-5.353-.452-10.768.743-14.438,4.665a18.131,18.131,0,0,0-4.614,14.875,11.98,11.98,0,0,0,8.592,22.358,20.587,20.587,0,0,0,35.007,5.573c5.584,1.262,11.851,1.18,16.542-2.1s6.815-10.5,3.24-14.973c6.433-1.566,9.7-9.6,7.794-15.939s-7.618-10.89-13.716-13.466c-4.031-1.7-9.057-2.592-12.5.114a15.921,15.921,0,0,0-25.911-1.107" transform="translate(-185.298 -52.491)" fill="#f5f5f5"/>
        <path id="Path_192439" data-name="Path 192439" d="M480.136,134.66s.105-.143.324-.413A13.417,13.417,0,0,1,481.5,133.1a16.075,16.075,0,0,1,4.944-3.317,16.392,16.392,0,0,1,4.178-1.182,15.321,15.321,0,0,1,5.178.159A16.359,16.359,0,0,1,501.337,131a16.188,16.188,0,0,1,4.8,4.709l-.151-.025a8.653,8.653,0,0,1,5.065-1.738,16.42,16.42,0,0,1,5.7.91,29.8,29.8,0,0,1,5.588,2.563,26.239,26.239,0,0,1,5.181,3.909,19.37,19.37,0,0,1,4,5.5,16.286,16.286,0,0,1,1.14,3.346,14.3,14.3,0,0,1-2.073,10.575,11.2,11.2,0,0,1-2.6,2.778,10.317,10.317,0,0,1-3.49,1.67l.081-.237a8.427,8.427,0,0,1,1.589,3.379,10.184,10.184,0,0,1,.093,3.8,12.5,12.5,0,0,1-3.536,6.821,14.382,14.382,0,0,1-7.043,3.6,23.8,23.8,0,0,1-8.109.239c-.991-.121-1.966-.314-2.926-.518l.153-.052a20.6,20.6,0,0,1-29.377,2.5,20.827,20.827,0,0,1-5.88-8.119l.178.081a12.379,12.379,0,0,1-9.933-1.038,11.645,11.645,0,0,1-5.812-7.366,12.507,12.507,0,0,1,1.2-8.682,12.094,12.094,0,0,1,5.862-5.5l-.065.114a18.244,18.244,0,0,1,.369-7.027,18.544,18.544,0,0,1,2.553-5.724,17.953,17.953,0,0,1,1.768-2.22,14.2,14.2,0,0,1,1.98-1.723,14.7,14.7,0,0,1,4.081-2.05,19.806,19.806,0,0,1,6.22-.93,19.316,19.316,0,0,1,2.188.117s-.189,0-.556-.021-.915-.038-1.633-.036a20.12,20.12,0,0,0-6.183.98,14.626,14.626,0,0,0-4.033,2.056,14.129,14.129,0,0,0-1.951,1.714,17.892,17.892,0,0,0-1.741,2.206,18.411,18.411,0,0,0-2.507,5.677,18.069,18.069,0,0,0-.344,6.949l.012.082-.077.033a11.883,11.883,0,0,0-5.737,5.415,12.272,12.272,0,0,0-1.164,8.514,11.387,11.387,0,0,0,5.7,7.191,12.112,12.112,0,0,0,9.708,1.007l.128-.044.05.126a20.917,20.917,0,0,0,15.059,12.532,20.838,20.838,0,0,0,19.7-7.005l.06-.072.093.02c.95.2,1.917.394,2.9.514a23.516,23.516,0,0,0,8-.234,14.09,14.09,0,0,0,6.9-3.516,12.2,12.2,0,0,0,3.452-6.652,8.865,8.865,0,0,0-1.616-6.943l-.142-.178.223-.059a10.02,10.02,0,0,0,3.384-1.617,10.914,10.914,0,0,0,2.536-2.7,14.021,14.021,0,0,0,2.042-10.358,16.024,16.024,0,0,0-1.115-3.286,19.108,19.108,0,0,0-3.939-5.433,25.966,25.966,0,0,0-5.124-3.88,29.621,29.621,0,0,0-5.536-2.553,16.2,16.2,0,0,0-5.622-.912,8.438,8.438,0,0,0-4.945,1.679l-.09.069-.062-.094a16.011,16.011,0,0,0-4.723-4.665,16.219,16.219,0,0,0-5.471-2.238,15.211,15.211,0,0,0-5.126-.18,16.459,16.459,0,0,0-9.1,4.4,15.245,15.245,0,0,0-1.057,1.123c-.225.264-.347.394-.347.394" transform="translate(-185.218 -52.444)" fill="#1a2e35"/>
        <path id="Path_192440" data-name="Path 192440" d="M527.9,169.8c0,.256-10.493.462-23.434.462s-23.437-.207-23.437-.462,10.491-.462,23.437-.462,23.434.207,23.434.462" transform="translate(-196.389 -69.134)" fill="#375a64"/>
        <path id="Path_192441" data-name="Path 192441" d="M527.9,178.389c0,.256-10.493.462-23.434.462s-23.437-.207-23.437-.462,10.491-.462,23.437-.462,23.434.207,23.434.462" transform="translate(-196.389 -72.642)" fill="#375a64"/>
        <path id="Path_192442" data-name="Path 192442" d="M527.9,186.982c0,.256-10.493.462-23.434.462s-23.437-.207-23.437-.462,10.491-.462,23.437-.462,23.434.207,23.434.462" transform="translate(-196.389 -76.151)" fill="#375a64"/>
        <path id="Path_192443" data-name="Path 192443" d="M527.9,195.576c0,.256-10.493.462-23.434.462s-23.437-.207-23.437-.462,10.491-.462,23.437-.462,23.434.207,23.434.462" transform="translate(-196.389 -79.659)" fill="#375a64"/>
      </g>
    </g>
  </g>
</svg>
