<svg xmlns="http://www.w3.org/2000/svg" xmlns:xlink="http://www.w3.org/1999/xlink" width="496.377" height="400" viewBox="0 0 496.377 400">
  <defs>
    <clipPath id="clip-path">
      <rect id="Rectangle_41479" data-name="Rectangle 41479" width="397.527" height="400" fill="none"/>
    </clipPath>
  </defs>
  <g id="Group_128263" data-name="Group 128263" transform="translate(14700.764 13249)">
    <g id="Group_128323" data-name="Group 128323">
      <path id="Path_192825" data-name="Path 192825" d="M17.906,18V4.492h4.351a6.4,6.4,0,0,1,3.219.812A5.706,5.706,0,0,1,27.708,7.6a6.919,6.919,0,0,1,.812,3.317v.622a6.959,6.959,0,0,1-.784,3.326,5.731,5.731,0,0,1-2.208,2.3A6.26,6.26,0,0,1,22.35,18ZM21.162,7.006V15.5h1.132a2.533,2.533,0,0,0,2.152-1,4.887,4.887,0,0,0,.751-2.964v-.584A4.847,4.847,0,0,0,24.447,8a2.577,2.577,0,0,0-2.189-.993ZM34.9,18.186a5.16,5.16,0,0,1-3.739-1.378,4.757,4.757,0,0,1-1.429-3.586v-.26a6.165,6.165,0,0,1,.571-2.718A4.175,4.175,0,0,1,31.97,8.421a5.027,5.027,0,0,1,2.6-.645,4.345,4.345,0,0,1,3.34,1.313,5.159,5.159,0,0,1,1.225,3.66v1.215H32.917a2.253,2.253,0,0,0,.733,1.327,2.181,2.181,0,0,0,1.466.482,2.81,2.81,0,0,0,2.319-1.039l1.429,1.688a3.994,3.994,0,0,1-1.656,1.285A5.6,5.6,0,0,1,34.9,18.186Zm-.353-8q-1.373,0-1.633,1.818h3.154v-.241a1.549,1.549,0,0,0-.38-1.164A1.514,1.514,0,0,0,34.55,10.188Zm11.1,4.991a.722.722,0,0,0-.417-.64,6.35,6.35,0,0,0-1.586-.5,7.234,7.234,0,0,1-1.93-.682,3.232,3.232,0,0,1-1.16-1.025,2.448,2.448,0,0,1-.4-1.382,2.774,2.774,0,0,1,1.141-2.278,4.7,4.7,0,0,1,2.987-.9,5.208,5.208,0,0,1,3.191.9,2.814,2.814,0,0,1,1.206,2.366H45.543q0-1.206-1.271-1.206a1.26,1.26,0,0,0-.826.274.847.847,0,0,0-.334.682.778.778,0,0,0,.408.677,3.857,3.857,0,0,0,1.3.427,11.264,11.264,0,0,1,1.573.4,2.857,2.857,0,0,1,2.264,2.792,2.629,2.629,0,0,1-1.22,2.236,5.35,5.35,0,0,1-3.159.863,5.46,5.46,0,0,1-2.3-.464A3.847,3.847,0,0,1,40.4,16.46a2.857,2.857,0,0,1-.566-1.679H42.76a1.208,1.208,0,0,0,.464,1.016,1.908,1.908,0,0,0,1.141.32,1.5,1.5,0,0,0,.96-.26A.831.831,0,0,0,45.645,15.18ZM53.42,18H50.284V3.75H53.42Zm5.223,0H55.507V7.962h3.136ZM55.322,5.374A1.4,1.4,0,0,1,55.8,4.279a2.051,2.051,0,0,1,2.5,0,1.4,1.4,0,0,1,.482,1.095,1.4,1.4,0,0,1-.482,1.095,2.051,2.051,0,0,1-2.5,0A1.4,1.4,0,0,1,55.322,5.374Zm8.934,10.214h4.574V18H60.3V16.256l4.453-5.882H60.5V7.962h8.229V9.65ZM76,18a3.53,3.53,0,0,1-.3-.9,2.907,2.907,0,0,1-2.412,1.085,3.562,3.562,0,0,1-2.412-.858,2.732,2.732,0,0,1-.993-2.157A2.807,2.807,0,0,1,71.093,12.7a6.144,6.144,0,0,1,3.507-.835h.965v-.531q0-1.389-1.2-1.389a.978.978,0,0,0-1.113,1.1H70.128a2.8,2.8,0,0,1,1.239-2.363,5.2,5.2,0,0,1,3.159-.908,4.563,4.563,0,0,1,3.034.937,3.258,3.258,0,0,1,1.141,2.57v4.444a4.551,4.551,0,0,0,.427,2.115V18Zm-1.958-2.041a1.744,1.744,0,0,0,.969-.25,1.57,1.57,0,0,0,.552-.566v-1.6h-.909q-1.633,0-1.633,1.466a.9.9,0,0,0,.288.691A1.041,1.041,0,0,0,74.043,15.959Zm9.342-8,.1,1.178a3.451,3.451,0,0,1,2.867-1.364,2.541,2.541,0,0,1,2.57,1.512,3.341,3.341,0,0,1,2.95-1.512q3.052,0,3.136,3.692V18H91.874V11.664a1.914,1.914,0,0,0-.26-1.123,1.106,1.106,0,0,0-.946-.353,1.481,1.481,0,0,0-1.382.826l.009.13V18H86.159V11.682a2.011,2.011,0,0,0-.25-1.141,1.1,1.1,0,0,0-.956-.353,1.5,1.5,0,0,0-1.373.826V18H80.454V7.962ZM100.094,18H96.958V7.962h3.136ZM96.773,5.374a1.4,1.4,0,0,1,.482-1.095,2.051,2.051,0,0,1,2.5,0,1.4,1.4,0,0,1,.482,1.095,1.4,1.4,0,0,1-.482,1.095,2.051,2.051,0,0,1-2.5,0A1.4,1.4,0,0,1,96.773,5.374Zm10.1,12.812a5.16,5.16,0,0,1-3.739-1.378,4.757,4.757,0,0,1-1.429-3.586v-.26a6.165,6.165,0,0,1,.571-2.718,4.175,4.175,0,0,1,1.665-1.823,5.027,5.027,0,0,1,2.6-.645,4.345,4.345,0,0,1,3.34,1.313,5.159,5.159,0,0,1,1.225,3.66v1.215H104.89a2.253,2.253,0,0,0,.733,1.327,2.181,2.181,0,0,0,1.466.482,2.81,2.81,0,0,0,2.319-1.039l1.429,1.688a3.994,3.994,0,0,1-1.656,1.285A5.6,5.6,0,0,1,106.876,18.186Zm-.353-8q-1.373,0-1.633,1.818h3.154v-.241a1.549,1.549,0,0,0-.38-1.164A1.514,1.514,0,0,0,106.523,10.188Zm8.711-2.227.1,1.178A3.4,3.4,0,0,1,118.2,7.776a2.864,2.864,0,0,1,2.343.937,4.461,4.461,0,0,1,.8,2.82V18h-3.136V11.664a1.694,1.694,0,0,0-.306-1.118,1.416,1.416,0,0,0-1.113-.357,1.491,1.491,0,0,0-1.364.724V18H112.3V7.962Zm11.485-2.5v2.5h1.651v2.171H126.72v4.592a1.172,1.172,0,0,0,.2.789,1.1,1.1,0,0,0,.807.223,4.586,4.586,0,0,0,.779-.056v2.236a5.77,5.77,0,0,1-1.763.269,3.275,3.275,0,0,1-2.384-.761,3.118,3.118,0,0,1-.77-2.31V10.133h-1.28V7.962h1.28v-2.5Zm2.208,7.422a5.925,5.925,0,0,1,.584-2.677,4.18,4.18,0,0,1,1.679-1.8,5.057,5.057,0,0,1,2.57-.631,4.616,4.616,0,0,1,3.553,1.4,5.358,5.358,0,0,1,1.3,3.8v.111a5.2,5.2,0,0,1-1.3,3.725,4.628,4.628,0,0,1-3.53,1.378,4.681,4.681,0,0,1-3.442-1.285,5.026,5.026,0,0,1-1.4-3.484Zm3.126.195a3.735,3.735,0,0,0,.436,2.041,1.453,1.453,0,0,0,1.29.649q1.67,0,1.707-2.57v-.315q0-2.7-1.726-2.7-1.568,0-1.7,2.329Z" transform="translate(-14343 -13185)" fill="#12263f"/>
      <g id="Group_128261" data-name="Group 128261" transform="translate(-14700.764 -13249)">
        <g id="Group_128260" data-name="Group 128260" clip-path="url(#clip-path)">
          <path id="Path_192804" data-name="Path 192804" d="M38.784,314.526C38.784,316.4,1,321.59,1,321.59L242.175,400l155.351-16.42Z" opacity="0.2"/>
          <path id="Path_192805" data-name="Path 192805" d="M268.087,371.05,1,321.589V22.189l267.087,8.217Z" fill="#fff"/>
          <path id="Path_192806" data-name="Path 192806" d="M268.087,371.05,1,321.589V22.189l267.087,8.217Z" fill="none" stroke="#0a0b0b" stroke-miterlimit="10" stroke-width="2"/>
          <path id="Path_192807" data-name="Path 192807" d="M304.028,371.05,1,321.589V22.189L304.028,51.865Z" fill="#fff"/>
          <path id="Path_192808" data-name="Path 192808" d="M304.028,371.05,1,321.589V22.189L304.028,51.865Z" fill="none" stroke="#0a0b0b" stroke-miterlimit="10" stroke-width="2"/>
          <path id="Path_192809" data-name="Path 192809" d="M288.2,371.05,1,321.589V22.189L288.2,42.962Z" fill="#fff"/>
          <path id="Path_192810" data-name="Path 192810" d="M288.2,371.05,1,321.589V22.189L288.2,42.962Z" fill="none" stroke="#0a0b0b" stroke-miterlimit="10" stroke-width="2"/>
          <path id="Path_192811" data-name="Path 192811" d="M316.888,383.58,1,321.59V22.189L316.888,70Z" fill="#fff"/>
          <path id="Path_192812" data-name="Path 192812" d="M316.888,383.58,1,321.59V22.189L316.888,70Z" fill="none" stroke="#0a0b0b" stroke-miterlimit="10" stroke-width="2"/>
          <line id="Line_503" data-name="Line 503" y2="361.391" transform="translate(272.373)" fill="#fff"/>
          <line id="Line_504" data-name="Line 504" y2="3.488" transform="translate(272.373)" fill="none" stroke="#cf001b" stroke-miterlimit="10" stroke-width="2"/>
          <line id="Line_505" data-name="Line 505" y2="348.062" transform="translate(272.373 7.724)" fill="none" stroke="#cf001b" stroke-miterlimit="10" stroke-width="2" stroke-dasharray="7.06 4.236"/>
          <line id="Line_506" data-name="Line 506" y2="3.488" transform="translate(272.373 357.904)" fill="none" stroke="#cf001b" stroke-miterlimit="10" stroke-width="2"/>
          <path id="Path_192813" data-name="Path 192813" d="M296.114,383.58,1,321.59V22.189L296.114,70Z" fill="#fff"/>
          <path id="Path_192814" data-name="Path 192814" d="M296.114,383.58,1,321.59V22.189L296.114,70Z" fill="none" stroke="#0a0b0b" stroke-miterlimit="10" stroke-width="2"/>
          <path id="Path_192815" data-name="Path 192815" d="M274.352,383.58,1,321.59V22.189L274.352,70Z" fill="#fff"/>
          <path id="Path_192816" data-name="Path 192816" d="M274.352,383.58,1,321.59V22.189L274.352,70Z" fill="none" stroke="#0a0b0b" stroke-miterlimit="10" stroke-width="2"/>
          <path id="Path_192817" data-name="Path 192817" d="M254.9,383.58,1,321.59V22.189L254.9,70Z" fill="#fff"/>
          <path id="Path_192818" data-name="Path 192818" d="M254.9,383.58,1,321.59V22.189L254.9,70Z" fill="none" stroke="#0a0b0b" stroke-miterlimit="10" stroke-width="2"/>
          <path id="Path_192819" data-name="Path 192819" d="M233.794,383.58,1,321.59V22.189L233.794,70Z" fill="#fff"/>
          <path id="Path_192820" data-name="Path 192820" d="M233.794,383.58,1,321.59V22.189L233.794,70Z" fill="none" stroke="#0a0b0b" stroke-miterlimit="10" stroke-width="2"/>
          <line id="Line_507" data-name="Line 507" y2="361.391" transform="translate(239.07 20.794)" fill="#fff"/>
          <line id="Line_508" data-name="Line 508" y2="3.488" transform="translate(239.07 20.794)" fill="none" stroke="#cf001b" stroke-miterlimit="10" stroke-width="2"/>
          <line id="Line_509" data-name="Line 509" y2="348.062" transform="translate(239.07 28.517)" fill="none" stroke="#cf001b" stroke-miterlimit="10" stroke-width="2" stroke-dasharray="7.06 4.236"/>
          <line id="Line_510" data-name="Line 510" y2="3.488" transform="translate(239.07 378.697)" fill="none" stroke="#cf001b" stroke-miterlimit="10" stroke-width="2"/>
          <line id="Line_511" data-name="Line 511" y1="36.271" x2="33.303" transform="translate(239.07 33.73)" fill="#fff"/>
          <line id="Line_512" data-name="Line 512" y1="2.569" x2="2.359" transform="translate(239.07 67.432)" fill="none" stroke="#cf001b" stroke-miterlimit="10" stroke-width="2"/>
          <line id="Line_513" data-name="Line 513" y1="25.944" x2="23.821" transform="translate(244.605 38.028)" fill="none" stroke="#cf001b" stroke-miterlimit="10" stroke-width="2" stroke-dasharray="7.827 4.696"/>
          <line id="Line_514" data-name="Line 514" y1="2.569" x2="2.359" transform="translate(270.014 33.73)" fill="none" stroke="#cf001b" stroke-miterlimit="10" stroke-width="2"/>
          <line id="Line_515" data-name="Line 515" y1="27.452" x2="84.226" transform="translate(280.858 74.948)" fill="#fff"/>
          <line id="Line_516" data-name="Line 516" y1="23.334" x2="71.592" transform="translate(280.858 79.066)" fill="none" stroke="#5a5a5a" stroke-miterlimit="10" stroke-width="2"/>
          <path id="Path_192821" data-name="Path 192821" d="M350.974,84.131l14.11-9.182-16.811.895Z" fill="#5a5a5a"/>
        </g>
      </g>
    </g>
  </g>
</svg>
