<svg xmlns="http://www.w3.org/2000/svg" xmlns:xlink="http://www.w3.org/1999/xlink" width="842.357" height="443.65" viewBox="0 0 842.357 443.65">
  <defs>
    <clipPath id="clip-path">
      <rect id="Rectangle_41491" data-name="Rectangle 41491" width="842.357" height="443.65" fill="none"/>
    </clipPath>
    <clipPath id="clip-path-2">
      <rect id="Rectangle_41492" data-name="Rectangle 41492" width="57.008" height="60.899" transform="translate(29.431 310.738)" fill="none"/>
    </clipPath>
    <clipPath id="clip-path-4">
      <rect id="Rectangle_41494" data-name="Rectangle 41494" width="56.839" height="60.899" transform="translate(195.992 310.738)" fill="none"/>
    </clipPath>
    <clipPath id="clip-path-6">
      <rect id="Rectangle_41496" data-name="Rectangle 41496" width="58.869" height="60.899" transform="translate(361.466 310.738)" fill="none"/>
    </clipPath>
    <clipPath id="clip-path-8">
      <rect id="Rectangle_41498" data-name="Rectangle 41498" width="58.869" height="60.899" transform="translate(585.256 310.738)" fill="none"/>
    </clipPath>
  </defs>
  <g id="Group_128324" data-name="Group 128324" transform="translate(-417.106 -4431.867)">
    <g id="Group_128285" data-name="Group 128285" transform="translate(417.106 4431.867)">
      <g id="Group_128268" data-name="Group 128268">
        <g id="Group_128267" data-name="Group 128267" clip-path="url(#clip-path)">
          <path id="Path_192826" data-name="Path 192826" d="M527.507,71.654H309.3a16.8,16.8,0,0,1-16.782-16.78V16.781A16.8,16.8,0,0,1,309.3,0H527.507a16.8,16.8,0,0,1,16.781,16.781V54.874a16.8,16.8,0,0,1-16.781,16.78" fill="#f57c00"/>
          <path id="Rectangle_41488" data-name="Rectangle 41488" d="M13.339,0h218.21a13.337,13.337,0,0,1,13.337,13.337V51.428a13.34,13.34,0,0,1-13.34,13.34H13.339A13.339,13.339,0,0,1,0,51.429V13.339A13.339,13.339,0,0,1,13.339,0Z" transform="translate(295.961 3.443)" fill="#fff"/>
          <path id="Path_192827" data-name="Path 192827" d="M57.682,396.706a57.682,57.682,0,1,1,57.682-57.682,57.747,57.747,0,0,1-57.682,57.682" fill="#26ccda"/>
          <path id="Path_192828" data-name="Path 192828" d="M57.682,285.252a53.771,53.771,0,1,0,53.772,53.772,53.833,53.833,0,0,0-53.772-53.772" fill="#fff"/>
          <path id="Path_192829" data-name="Path 192829" d="M222.69,396.706a57.682,57.682,0,1,1,57.682-57.682,57.747,57.747,0,0,1-57.682,57.682" fill="#26ccda"/>
          <path id="Path_192830" data-name="Path 192830" d="M222.69,285.252a53.771,53.771,0,1,0,53.772,53.772,53.833,53.833,0,0,0-53.772-53.772" fill="#fff"/>
          <path id="Path_192831" data-name="Path 192831" d="M387.7,396.706a57.682,57.682,0,1,1,57.682-57.682A57.747,57.747,0,0,1,387.7,396.706" fill="#26ccda"/>
          <path id="Path_192832" data-name="Path 192832" d="M387.7,285.252a53.771,53.771,0,1,0,53.772,53.772A53.833,53.833,0,0,0,387.7,285.252" fill="#fff"/>
          <path id="Path_192833" data-name="Path 192833" d="M614.69,396.706a57.682,57.682,0,1,1,57.682-57.682,57.747,57.747,0,0,1-57.682,57.682" fill="#26ccda"/>
          <path id="Path_192834" data-name="Path 192834" d="M614.69,285.252a53.771,53.771,0,1,0,53.772,53.772,53.833,53.833,0,0,0-53.772-53.772" fill="#fff"/>
          <path id="Path_192835" data-name="Path 192835" d="M779.7,396.706a57.682,57.682,0,1,1,57.682-57.682A57.747,57.747,0,0,1,779.7,396.706" fill="#26ccda"/>
          <path id="Path_192836" data-name="Path 192836" d="M779.7,285.252a53.771,53.771,0,1,0,53.772,53.772A53.833,53.833,0,0,0,779.7,285.252" fill="#fff"/>
          <path id="Path_192837" data-name="Path 192837" d="M698.916,252.486V122.649H420.125V69.933h-3.443v52.716H220.969V253.216H55.961V283.3H59.4V256.659H220.969V283.3h3.443V256.659H385.977V283.3h3.443v-30.08H224.412V126.092H695.472V252.486h-82.5V283.3h3.443V255.929H777.977V283.3h3.443v-30.81Z" fill="#898989"/>
          <path id="Path_192838" data-name="Path 192838" d="M698.916,252.486V122.649H420.125V69.933h-3.443v52.716H220.969V253.216H55.961V283.3H59.4V256.659H220.969V283.3h3.443V256.659H385.977V283.3h3.443v-30.08H224.412V126.092H695.472V252.486h-82.5V283.3h3.443V255.929H777.977V283.3h3.443v-30.81Z" fill="none" stroke="#fff" stroke-miterlimit="10" stroke-width="0.489"/>
          <path id="Path_192839" data-name="Path 192839" d="M778.716,219.475H615.673a10.479,10.479,0,0,1-10.467-10.466V169.858a10.479,10.479,0,0,1,10.467-10.466H778.716a10.478,10.478,0,0,1,10.465,10.466v39.151a10.478,10.478,0,0,1-10.465,10.466" fill="#fdd835"/>
          <path id="Rectangle_41489" data-name="Rectangle 41489" d="M7.024,0H170.066a7.023,7.023,0,0,1,7.023,7.023V46.174a7.023,7.023,0,0,1-7.023,7.023H7.023A7.023,7.023,0,0,1,0,46.174V7.024A7.024,7.024,0,0,1,7.024,0Z" transform="translate(608.649 162.835)" fill="#fff"/>
          <path id="Path_192840" data-name="Path 192840" d="M304.211,219.475H141.169A10.479,10.479,0,0,1,130.7,209.009V169.858a10.479,10.479,0,0,1,10.467-10.466H304.211a10.478,10.478,0,0,1,10.466,10.466v39.151a10.478,10.478,0,0,1-10.466,10.466" fill="#fdd835"/>
          <path id="Rectangle_41490" data-name="Rectangle 41490" d="M7.024,0H170.066a7.023,7.023,0,0,1,7.023,7.023V46.174a7.023,7.023,0,0,1-7.023,7.023H7.023A7.023,7.023,0,0,1,0,46.174V7.024A7.024,7.024,0,0,1,7.024,0Z" transform="translate(134.145 162.835)" fill="#fff"/>
          <path id="Path_192841" data-name="Path 192841" d="M63.3,284.158a5.622,5.622,0,1,1-5.622-5.622,5.622,5.622,0,0,1,5.622,5.622" fill="#26ccda"/>
          <path id="Path_192842" data-name="Path 192842" d="M228.312,284.158a5.621,5.621,0,1,1-5.622-5.622,5.622,5.622,0,0,1,5.622,5.622" fill="#26ccda"/>
          <path id="Path_192843" data-name="Path 192843" d="M393.319,284.158a5.622,5.622,0,1,1-5.622-5.622,5.622,5.622,0,0,1,5.622,5.622" fill="#26ccda"/>
          <path id="Path_192844" data-name="Path 192844" d="M620.312,284.158a5.622,5.622,0,1,1-5.622-5.622,5.622,5.622,0,0,1,5.622,5.622" fill="#26ccda"/>
          <path id="Path_192845" data-name="Path 192845" d="M785.32,284.158a5.622,5.622,0,1,1-5.622-5.622,5.623,5.623,0,0,1,5.622,5.622" fill="#26ccda"/>
          <path id="Path_192846" data-name="Path 192846" d="M228.312,161.348a5.621,5.621,0,1,1-5.622-5.622,5.622,5.622,0,0,1,5.622,5.622" fill="#fdd835"/>
          <path id="Path_192847" data-name="Path 192847" d="M702.815,161.348a5.621,5.621,0,1,1-5.622-5.622,5.622,5.622,0,0,1,5.622,5.622" fill="#fdd835"/>
          <path id="Path_192848" data-name="Path 192848" d="M424.025,69.658a5.621,5.621,0,1,1-5.622-5.622,5.622,5.622,0,0,1,5.622,5.622" fill="#f57c00"/>
          <path id="Path_192849" data-name="Path 192849" d="M73.075,370.622H34.506a4.06,4.06,0,0,1-4.061-4.059v-50.75a4.061,4.061,0,0,1,4.061-4.059H64.954l12.18,12.18v42.629a4.059,4.059,0,0,1-4.059,4.059" fill="#e9eef2"/>
          <path id="Path_192850" data-name="Path 192850" d="M77.134,323.934h-8.12a4.06,4.06,0,0,1-4.06-4.06v-8.12Z" fill="#c3c6c7"/>
        </g>
      </g>
      <g id="Group_128270" data-name="Group 128270">
        <g id="Group_128269" data-name="Group 128269" clip-path="url(#clip-path-2)">
          <path id="Path_192851" data-name="Path 192851" d="M85.254,357.428a13.194,13.194,0,1,1-13.195-13.2,13.2,13.2,0,0,1,13.195,13.2" fill="#2ebc3f"/>
          <path id="Path_192852" data-name="Path 192852" d="M34.506,371.638H72.059a14.209,14.209,0,0,0,6.09-27.047V323.934a1.018,1.018,0,0,0-.3-.718L65.673,311.037a1.017,1.017,0,0,0-.719-.3H34.506a5.079,5.079,0,0,0-5.075,5.075v50.749a5.08,5.08,0,0,0,5.075,5.075m49.733-14.21a12.18,12.18,0,1,1-12.18-12.18,12.182,12.182,0,0,1,12.18,12.18M65.969,314.2l8.715,8.715h-5.67a3.048,3.048,0,0,1-3.045-3.045Zm-34.508,1.61a3.047,3.047,0,0,1,3.045-3.045H63.939v7.1a5.082,5.082,0,0,0,5.075,5.075h7.105V343.81a14.208,14.208,0,0,0-11.372,25.8H34.506a3.047,3.047,0,0,1-3.045-3.045Z"/>
        </g>
      </g>
      <g id="Group_128272" data-name="Group 128272">
        <g id="Group_128271" data-name="Group 128271" clip-path="url(#clip-path)">
          <path id="Path_192853" data-name="Path 192853" d="M45.67,330.023a1.016,1.016,0,0,0,1.015,1.015H71.044a1.015,1.015,0,1,0,0-2.03H46.685a1.016,1.016,0,0,0-1.015,1.015"/>
          <path id="Path_192854" data-name="Path 192854" d="M36.535,337.128h20.3a1.015,1.015,0,1,0,0-2.03h-20.3a1.015,1.015,0,1,0,0,2.03"/>
          <path id="Path_192855" data-name="Path 192855" d="M60.9,341.188h-8.12a1.015,1.015,0,1,0,0,2.03H60.9a1.015,1.015,0,1,0,0-2.03"/>
          <path id="Path_192856" data-name="Path 192856" d="M36.535,349.308h18.27a1.015,1.015,0,1,0,0-2.03H36.535a1.015,1.015,0,1,0,0,2.03"/>
          <path id="Path_192857" data-name="Path 192857" d="M36.535,331.038h6.09a1.015,1.015,0,1,0,0-2.03h-6.09a1.015,1.015,0,1,0,0,2.03"/>
          <path id="Path_192858" data-name="Path 192858" d="M71.045,335.1H60.9a1.015,1.015,0,1,0,0,2.03h10.15a1.015,1.015,0,1,0,0-2.03"/>
          <path id="Path_192859" data-name="Path 192859" d="M36.535,343.218h12.18a1.015,1.015,0,1,0,0-2.03H36.535a1.015,1.015,0,1,0,0,2.03"/>
          <path id="Path_192860" data-name="Path 192860" d="M52.775,359.458h-4.06a1.015,1.015,0,1,0,0,2.03h4.06a1.015,1.015,0,1,0,0-2.03"/>
          <path id="Path_192861" data-name="Path 192861" d="M36.535,361.488h8.12a1.015,1.015,0,1,0,0-2.03h-8.12a1.015,1.015,0,1,0,0,2.03"/>
          <path id="Path_192862" data-name="Path 192862" d="M36.535,355.4h6.09a1.015,1.015,0,1,0,0-2.03h-6.09a1.015,1.015,0,1,0,0,2.03"/>
          <path id="Path_192863" data-name="Path 192863" d="M36.535,324.948h12.18a1.015,1.015,0,1,0,0-2.03H36.535a1.015,1.015,0,1,0,0,2.03"/>
          <path id="Path_192864" data-name="Path 192864" d="M52.775,353.368h-6.09a1.015,1.015,0,1,0,0,2.03h6.09a1.015,1.015,0,1,0,0-2.03"/>
          <path id="Path_192865" data-name="Path 192865" d="M66.687,359.755a1.015,1.015,0,0,0-1.435,1.435l4.06,4.06a1.014,1.014,0,0,0,.717.3c.033,0,.067,0,.1,0a1.017,1.017,0,0,0,.745-.448l8.12-12.179a1.015,1.015,0,0,0-1.689-1.126l-7.433,11.149Z"/>
          <path id="Path_192866" data-name="Path 192866" d="M239.636,370.622H201.067a4.06,4.06,0,0,1-4.06-4.059v-50.75a4.06,4.06,0,0,1,4.06-4.059h30.449l12.18,12.18v42.629a4.06,4.06,0,0,1-4.06,4.059" fill="#e9eef2"/>
          <path id="Path_192867" data-name="Path 192867" d="M243.7,323.934h-8.12a4.06,4.06,0,0,1-4.06-4.06v-8.12Z" fill="#c3c6c7"/>
          <path id="Path_192868" data-name="Path 192868" d="M251.816,357.428a13.2,13.2,0,1,1-4.06-9.521,13.195,13.195,0,0,1,4.06,9.521" fill="#eb423f"/>
          <path id="Path_192869" data-name="Path 192869" d="M212.232,330.023a1.016,1.016,0,0,0,1.015,1.015h24.359a1.015,1.015,0,1,0,0-2.03H213.247a1.016,1.016,0,0,0-1.015,1.015"/>
          <path id="Path_192870" data-name="Path 192870" d="M203.1,337.128h20.3a1.015,1.015,0,1,0,0-2.03H203.1a1.015,1.015,0,1,0,0,2.03"/>
          <path id="Path_192871" data-name="Path 192871" d="M227.456,341.188h-8.12a1.015,1.015,0,1,0,0,2.03h8.12a1.015,1.015,0,1,0,0-2.03"/>
          <path id="Path_192872" data-name="Path 192872" d="M221.367,347.278H203.1a1.015,1.015,0,1,0,0,2.03h18.27a1.015,1.015,0,1,0,0-2.03"/>
          <path id="Path_192873" data-name="Path 192873" d="M203.1,331.038h6.09a1.015,1.015,0,1,0,0-2.03H203.1a1.015,1.015,0,1,0,0,2.03"/>
          <path id="Path_192874" data-name="Path 192874" d="M237.606,335.1h-10.15a1.015,1.015,0,1,0,0,2.03h10.15a1.015,1.015,0,1,0,0-2.03"/>
          <path id="Path_192875" data-name="Path 192875" d="M203.1,343.218h12.18a1.015,1.015,0,1,0,0-2.03H203.1a1.015,1.015,0,1,0,0,2.03"/>
          <path id="Path_192876" data-name="Path 192876" d="M219.337,359.458h-4.06a1.015,1.015,0,1,0,0,2.03h4.06a1.015,1.015,0,1,0,0-2.03"/>
          <path id="Path_192877" data-name="Path 192877" d="M211.217,359.458H203.1a1.015,1.015,0,1,0,0,2.03h8.12a1.015,1.015,0,1,0,0-2.03"/>
          <path id="Path_192878" data-name="Path 192878" d="M203.1,355.4h6.09a1.015,1.015,0,1,0,0-2.03H203.1a1.015,1.015,0,1,0,0,2.03"/>
          <path id="Path_192879" data-name="Path 192879" d="M203.1,324.948h12.18a1.015,1.015,0,1,0,0-2.03H203.1a1.015,1.015,0,1,0,0,2.03"/>
          <path id="Path_192880" data-name="Path 192880" d="M219.337,353.368h-6.09a1.015,1.015,0,1,0,0,2.03h6.09a1.015,1.015,0,1,0,0-2.03"/>
          <path id="Path_192881" data-name="Path 192881" d="M237.606,350.323v10.15a1.015,1.015,0,1,0,2.03,0v-10.15a1.015,1.015,0,0,0-2.03,0"/>
        </g>
      </g>
      <g id="Group_128274" data-name="Group 128274">
        <g id="Group_128273" data-name="Group 128273" clip-path="url(#clip-path-4)">
          <path id="Path_192882" data-name="Path 192882" d="M239.636,364.533a1.015,1.015,0,1,1-1.015-1.015,1.016,1.016,0,0,1,1.015,1.015"/>
          <path id="Path_192883" data-name="Path 192883" d="M244.414,323.216l-12.18-12.179a1.011,1.011,0,0,0-.717-.3h-30.45a5.08,5.08,0,0,0-5.074,5.075v50.749a5.08,5.08,0,0,0,5.074,5.075h37.555a14.215,14.215,0,0,0,6.089-27.053V323.934a1.018,1.018,0,0,0-.3-.718M232.532,314.2l8.714,8.715h-5.669a3.048,3.048,0,0,1-3.045-3.045Zm-31.465,55.4a3.049,3.049,0,0,1-3.045-3.045V315.814a3.049,3.049,0,0,1,3.045-3.045H230.5v7.1a5.08,5.08,0,0,0,5.075,5.075h7.1v18.858a14.209,14.209,0,0,0-11.371,25.8Zm45.987-20.969a12.179,12.179,0,1,1-8.432-3.391,12.181,12.181,0,0,1,8.432,3.391"/>
        </g>
      </g>
      <g id="Group_128276" data-name="Group 128276">
        <g id="Group_128275" data-name="Group 128275" clip-path="url(#clip-path)">
          <path id="Path_192884" data-name="Path 192884" d="M403.081,321.9v36.539a4.061,4.061,0,0,1-4.061,4.06H366.542a4.06,4.06,0,0,1-4.06-4.06V315.814a4.06,4.06,0,0,1,4.06-4.06H392.93Z" fill="#e9eef2"/>
          <path id="Path_192885" data-name="Path 192885" d="M403.081,321.9H396.99a4.061,4.061,0,0,1-4.06-4.06v-6.09Z" fill="#c3c6c7"/>
        </g>
      </g>
      <g id="Group_128278" data-name="Group 128278">
        <g id="Group_128277" data-name="Group 128277" clip-path="url(#clip-path-6)">
          <path id="Path_192886" data-name="Path 192886" d="M403.081,342.2l-16.24,14.21h8.12v14.209H411.2V356.413h8.12Z" fill="#f79539"/>
          <path id="Path_192887" data-name="Path 192887" d="M403.8,321.186l-10.149-10.15a1.018,1.018,0,0,0-.718-.3H366.542a5.08,5.08,0,0,0-5.075,5.075v42.629a5.081,5.081,0,0,0,5.075,5.075h27.4v7.1a1.016,1.016,0,0,0,1.015,1.015H411.2a1.016,1.016,0,0,0,1.015-1.015V357.428h7.1a1.014,1.014,0,0,0,.668-1.779L404.1,341.743V321.9a1.013,1.013,0,0,0-.3-.718m-9.852-6.982,6.685,6.685h-3.64a3.048,3.048,0,0,1-3.045-3.045Zm0,47.284h-27.4a3.048,3.048,0,0,1-3.045-3.045V315.814a3.048,3.048,0,0,1,3.045-3.045h25.374v5.075a5.081,5.081,0,0,0,5.075,5.075h5.075v18.824l-15.893,13.906a1.015,1.015,0,0,0,.668,1.779h7.105Zm22.673-6.09H411.2a1.015,1.015,0,0,0-1.015,1.015v13.2h-14.21v-13.2a1.016,1.016,0,0,0-1.015-1.015h-5.419l13.539-11.846Z"/>
        </g>
      </g>
      <g id="Group_128280" data-name="Group 128280">
        <g id="Group_128279" data-name="Group 128279" clip-path="url(#clip-path)">
          <path id="Path_192888" data-name="Path 192888" d="M377.706,327.993a1.016,1.016,0,0,0,1.015,1.015h18.27a1.015,1.015,0,1,0,0-2.03h-18.27a1.016,1.016,0,0,0-1.015,1.015"/>
          <path id="Path_192889" data-name="Path 192889" d="M368.571,335.1h16.24a1.015,1.015,0,0,0,0-2.03h-16.24a1.015,1.015,0,1,0,0,2.03"/>
          <path id="Path_192890" data-name="Path 192890" d="M368.571,347.278h20.3a1.015,1.015,0,0,0,0-2.03h-20.3a1.015,1.015,0,0,0,0,2.03"/>
          <path id="Path_192891" data-name="Path 192891" d="M368.571,329.008h6.09a1.015,1.015,0,0,0,0-2.03h-6.09a1.015,1.015,0,1,0,0,2.03"/>
          <path id="Path_192892" data-name="Path 192892" d="M396.991,333.068h-8.12a1.015,1.015,0,1,0,0,2.03h8.12a1.015,1.015,0,1,0,0-2.03"/>
          <path id="Path_192893" data-name="Path 192893" d="M368.571,341.188h12.18a1.015,1.015,0,0,0,0-2.03h-12.18a1.015,1.015,0,1,0,0,2.03"/>
          <path id="Path_192894" data-name="Path 192894" d="M368.571,322.919h12.18a1.015,1.015,0,0,0,0-2.03h-12.18a1.015,1.015,0,1,0,0,2.03"/>
          <path id="Path_192895" data-name="Path 192895" d="M396.991,339.158h-12.18a1.015,1.015,0,1,0,0,2.03h12.18a1.015,1.015,0,1,0,0-2.03"/>
          <path id="Path_192896" data-name="Path 192896" d="M374.661,351.338h-6.09a1.015,1.015,0,1,0,0,2.03h6.09a1.015,1.015,0,0,0,0-2.03"/>
          <path id="Path_192897" data-name="Path 192897" d="M382.781,351.338h-4.06a1.015,1.015,0,1,0,0,2.03h4.06a1.015,1.015,0,0,0,0-2.03"/>
          <path id="Path_192898" data-name="Path 192898" d="M624.84,332.053a6.09,6.09,0,1,0-3.335-11.185,7.105,7.105,0,1,0-13.629,0,6.09,6.09,0,1,0-3.336,11.185Z" fill="#3cb4d7"/>
          <path id="Path_192899" data-name="Path 192899" d="M627.885,346.263v20.3a4.06,4.06,0,0,1-4.06,4.059H605.556a4.059,4.059,0,0,1-4.06-4.059V342.2a4.06,4.06,0,0,1,4.06-4.06h14.209Z" fill="#e9eef2"/>
          <path id="Path_192900" data-name="Path 192900" d="M627.885,346.263h-4.06a4.06,4.06,0,0,1-4.06-4.06v-4.06Z" fill="#c3c6c7"/>
          <path id="Path_192901" data-name="Path 192901" d="M631.945,325.963a7.108,7.108,0,0,0-9.14-6.808c0-.1.005-.2.005-.3a8.12,8.12,0,0,0-16.24,0c0,.1,0,.2.006.3a7.1,7.1,0,1,0-2.036,13.913h20.3a7.114,7.114,0,0,0,7.1-7.1m-7.1,5.075h-20.3a5.075,5.075,0,1,1,2.779-9.321,1.015,1.015,0,0,0,1.531-1.135,6.09,6.09,0,1,1,11.681,0,1.015,1.015,0,0,0,1.53,1.135,5.075,5.075,0,1,1,2.779,9.321"/>
          <path id="Path_192902" data-name="Path 192902" d="M619.765,337.128h-14.21a5.08,5.08,0,0,0-5.074,5.075v24.359a5.08,5.08,0,0,0,5.074,5.075h18.27a5.081,5.081,0,0,0,5.075-5.075v-20.3a1.013,1.013,0,0,0-.3-.718l-8.119-8.12a1.018,1.018,0,0,0-.718-.3m7.1,29.434a3.048,3.048,0,0,1-3.045,3.045h-18.27a3.048,3.048,0,0,1-3.045-3.045V342.2a3.049,3.049,0,0,1,3.045-3.045h13.2V342.2a5.081,5.081,0,0,0,5.075,5.075h3.045Zm-6.09-25.969,4.655,4.655h-1.61a3.048,3.048,0,0,1-3.045-3.045Z"/>
          <path id="Path_192903" data-name="Path 192903" d="M621.795,351.338h-8.12a1.015,1.015,0,1,0,0,2.03h8.12a1.015,1.015,0,1,0,0-2.03"/>
          <path id="Path_192904" data-name="Path 192904" d="M607.585,359.458h8.12a1.015,1.015,0,0,0,0-2.03h-8.12a1.015,1.015,0,1,0,0,2.03"/>
          <path id="Path_192905" data-name="Path 192905" d="M621.795,363.518h-6.09a1.015,1.015,0,1,0,0,2.03h6.09a1.015,1.015,0,1,0,0-2.03"/>
          <path id="Path_192906" data-name="Path 192906" d="M607.585,353.368h2.03a1.015,1.015,0,1,0,0-2.03h-2.03a1.015,1.015,0,1,0,0,2.03"/>
          <path id="Path_192907" data-name="Path 192907" d="M621.795,357.428h-2.03a1.015,1.015,0,1,0,0,2.03h2.03a1.015,1.015,0,1,0,0-2.03"/>
          <path id="Path_192908" data-name="Path 192908" d="M611.645,363.518h-4.06a1.015,1.015,0,1,0,0,2.03h4.06a1.015,1.015,0,0,0,0-2.03"/>
        </g>
      </g>
      <g id="Group_128282" data-name="Group 128282">
        <g id="Group_128281" data-name="Group 128281" clip-path="url(#clip-path-8)">
          <path id="Path_192909" data-name="Path 192909" d="M607.585,347.278h4.06a1.015,1.015,0,0,0,0-2.03h-4.06a1.015,1.015,0,0,0,0,2.03"/>
          <path id="Path_192910" data-name="Path 192910" d="M641.08,330.023a1.015,1.015,0,0,0,0-2.03h-4.061a1.015,1.015,0,0,0-1.014,1.015v4.06a1.014,1.014,0,1,0,2.029,0v-1.3a24.013,24.013,0,0,1-.808,27.855c-.31.409-.637.815-.974,1.205a1.015,1.015,0,1,0,1.537,1.327c.364-.423.719-.863,1.055-1.306a25.844,25.844,0,0,0,5.281-15.723,26.113,26.113,0,0,0-4.826-15.1Z"/>
          <path id="Path_192911" data-name="Path 192911" d="M590.082,360.473H588.3a1.015,1.015,0,1,0,0,2.03h4.06a1.015,1.015,0,0,0,1.014-1.015v-4.06a1.015,1.015,0,1,0-2.03,0v1.3a24.065,24.065,0,0,1-4.059-13.358,23.825,23.825,0,0,1,4.869-14.5c.309-.409.637-.815.974-1.206a1.015,1.015,0,0,0-1.537-1.326c-.365.423-.72.863-1.056,1.306a26.042,26.042,0,0,0-.454,30.822"/>
        </g>
      </g>
      <g id="Group_128284" data-name="Group 128284">
        <g id="Group_128283" data-name="Group 128283" clip-path="url(#clip-path)">
          <path id="Path_192912" data-name="Path 192912" d="M770.563,317.844h34.509a4.051,4.051,0,0,1,4.06,4.06v26.389a4.05,4.05,0,0,1-4.06,4.06H770.563a4.051,4.051,0,0,1-4.06-4.06V321.9a4.051,4.051,0,0,1,4.06-4.06" fill="#f7cc38"/>
          <path id="Path_192913" data-name="Path 192913" d="M766.5,354.383a4.06,4.06,0,0,0,4.06,4.06h34.509a4.06,4.06,0,0,0,4.06-4.06V327.994a4.06,4.06,0,0,0-4.06-4.06h-20.3v-8.12a4.06,4.06,0,0,0-4.06-4.06h-10.15a4.06,4.06,0,0,0-4.06,4.06Z" fill="#fbe36a"/>
          <path id="Path_192914" data-name="Path 192914" d="M784.773,336.113v30.449a4.06,4.06,0,0,1-4.06,4.06H754.324a4.06,4.06,0,0,1-4.06-4.06V330.023a4.06,4.06,0,0,1,4.06-4.06h20.3Z" fill="#e9eef2"/>
          <path id="Path_192915" data-name="Path 192915" d="M784.773,336.113h-6.09a4.06,4.06,0,0,1-4.06-4.06v-6.09Z" fill="#c3c6c7"/>
          <path id="Path_192916" data-name="Path 192916" d="M801.012,344.233l-7.105-6.09v3.045c-6.09,0-13.2,4.651-13.2,9.135,0,0,7.105-3.045,13.2-3.045v3.045Z" fill="#f79539"/>
          <path id="Path_192917" data-name="Path 192917" d="M805.072,316.828H785.787v-1.015a5.079,5.079,0,0,0-5.074-5.074h-10.15a5.08,5.08,0,0,0-5.075,5.074v9.135H754.323a5.082,5.082,0,0,0-5.075,5.075v36.539a5.081,5.081,0,0,0,5.075,5.075h26.39a5.08,5.08,0,0,0,5.074-5.075v-7.105h19.285a5.08,5.08,0,0,0,5.075-5.074V321.9a5.081,5.081,0,0,0-5.075-5.075m-21.314,49.734a3.049,3.049,0,0,1-3.045,3.045h-26.39a3.048,3.048,0,0,1-3.045-3.045V330.023a3.049,3.049,0,0,1,3.045-3.045h19.285v5.075a5.08,5.08,0,0,0,5.075,5.075h5.075v6.608c-2.591,1.964-4.06,4.331-4.06,6.587a1.014,1.014,0,0,0,1.414.933c.027-.012,1.058-.448,2.646-.984Zm-8.12-34.509v-3.64l6.684,6.685h-3.639a3.048,3.048,0,0,1-3.045-3.045m6.469,16.64a9.714,9.714,0,0,1,3.489-3.78,15.5,15.5,0,0,1,8.311-2.71,1.015,1.015,0,0,0,1.015-1.015v-.838l4.531,3.883-4.531,3.883v-.838a1.014,1.014,0,0,0-1.015-1.015,37.65,37.65,0,0,0-11.8,2.43m26.01,5.69a3.049,3.049,0,0,1-3.045,3.045H785.787v-7.791a33,33,0,0,1,7.105-1.316v2a1.016,1.016,0,0,0,1.676.77l7.1-6.09a1.015,1.015,0,0,0,0-1.541l-7.1-6.09a1.016,1.016,0,0,0-1.676.771v2.07a17.778,17.778,0,0,0-7.105,2.2v-6.3a1.018,1.018,0,0,0-.3-.718l-10.15-10.149a1.011,1.011,0,0,0-.717-.3h-7.1v-9.135a3.048,3.048,0,0,1,3.045-3.044h10.15a3.048,3.048,0,0,1,3.045,3.044v8.12a1.014,1.014,0,0,0,1.015,1.015h20.3a3.049,3.049,0,0,1,3.045,3.045Zm0-30.447a5.045,5.045,0,0,0-3.045-1.018H785.787v-4.06h19.285a3.048,3.048,0,0,1,3.045,3.045Z"/>
          <path id="Path_192918" data-name="Path 192918" d="M764.473,343.218h14.21a1.015,1.015,0,1,0,0-2.03h-14.21a1.015,1.015,0,1,0,0,2.03"/>
          <path id="Path_192919" data-name="Path 192919" d="M756.353,349.308h14.21a1.015,1.015,0,1,0,0-2.03h-14.21a1.015,1.015,0,1,0,0,2.03"/>
          <path id="Path_192920" data-name="Path 192920" d="M778.683,359.458h-4.06a1.015,1.015,0,1,0,0,2.03h4.06a1.015,1.015,0,1,0,0-2.03"/>
          <path id="Path_192921" data-name="Path 192921" d="M756.353,343.218h4.06a1.015,1.015,0,0,0,0-2.03h-4.06a1.015,1.015,0,1,0,0,2.03"/>
          <path id="Path_192922" data-name="Path 192922" d="M756.353,355.4H766.5a1.015,1.015,0,1,0,0-2.03h-10.15a1.015,1.015,0,1,0,0,2.03"/>
          <path id="Path_192923" data-name="Path 192923" d="M756.353,337.128h6.09a1.015,1.015,0,1,0,0-2.03h-6.09a1.015,1.015,0,1,0,0,2.03"/>
          <path id="Path_192924" data-name="Path 192924" d="M775.638,348.293a1.015,1.015,0,1,1-1.015-1.015,1.016,1.016,0,0,1,1.015,1.015"/>
          <path id="Path_192925" data-name="Path 192925" d="M769.548,354.383a1.016,1.016,0,0,0,1.015,1.015h6.09a1.015,1.015,0,1,0,0-2.03h-6.09a1.016,1.016,0,0,0-1.015,1.015"/>
          <path id="Path_192926" data-name="Path 192926" d="M770.563,359.458h-14.21a1.015,1.015,0,1,0,0,2.03h14.21a1.015,1.015,0,1,0,0-2.03"/>
          <path id="Path_192927" data-name="Path 192927" d="M373.578,24.666a4.924,4.924,0,0,1-1.656,3.533,5.82,5.82,0,0,1-3.939,1.289,5.232,5.232,0,0,1-4.206-1.8,7.383,7.383,0,0,1-1.532-4.941V21.9a8.331,8.331,0,0,1,.707-3.532,5.279,5.279,0,0,1,2.019-2.344,6.309,6.309,0,0,1,6.927.472,5.289,5.289,0,0,1,1.7,3.619h-2.864a2.9,2.9,0,0,0-.75-1.953,2.779,2.779,0,0,0-1.962-.606,2.434,2.434,0,0,0-2.143,1.026,5.743,5.743,0,0,0-.73,3.185v1.05a6.159,6.159,0,0,0,.682,3.294,2.389,2.389,0,0,0,2.153,1.04,2.828,2.828,0,0,0,1.981-.606,2.734,2.734,0,0,0,.75-1.876Z"/>
          <rect id="Rectangle_41499" data-name="Rectangle 41499" width="2.769" height="14.665" transform="translate(375.421 14.632)"/>
          <path id="Path_192928" data-name="Path 192928" d="M386.449,29.3a3.063,3.063,0,0,1-.277-.926,3.337,3.337,0,0,1-2.607,1.117,3.668,3.668,0,0,1-2.515-.878,2.825,2.825,0,0,1-1-2.215,2.92,2.92,0,0,1,1.217-2.521,6.017,6.017,0,0,1,3.519-.888h1.269v-.592a1.7,1.7,0,0,0-.367-1.146,1.449,1.449,0,0,0-1.16-.429,1.647,1.647,0,0,0-1.093.334,1.132,1.132,0,0,0-.4.917h-2.759a2.767,2.767,0,0,1,.554-1.662,3.655,3.655,0,0,1,1.566-1.2,5.717,5.717,0,0,1,2.272-.434,4.509,4.509,0,0,1,3.031.959,3.357,3.357,0,0,1,1.122,2.7V26.91a4.938,4.938,0,0,0,.411,2.225V29.3Zm-2.282-1.919a2.382,2.382,0,0,0,1.127-.272,1.786,1.786,0,0,0,.763-.73V24.6h-1.031q-2.072,0-2.2,1.432l-.01.162a1.108,1.108,0,0,0,.363.85,1.413,1.413,0,0,0,.993.334"/>
          <path id="Path_192929" data-name="Path 192929" d="M396.54,26.442a.889.889,0,0,0-.5-.8,5.707,5.707,0,0,0-1.609-.521q-3.686-.773-3.685-3.131a2.836,2.836,0,0,1,1.141-2.3,4.6,4.6,0,0,1,2.983-.922,4.957,4.957,0,0,1,3.146.926,2.92,2.92,0,0,1,1.179,2.406h-2.759a1.333,1.333,0,0,0-.382-.978,1.615,1.615,0,0,0-1.193-.387,1.652,1.652,0,0,0-1.079.315.994.994,0,0,0-.382.8.851.851,0,0,0,.434.74,4.445,4.445,0,0,0,1.466.487,11.941,11.941,0,0,1,1.737.463,2.855,2.855,0,0,1,2.187,2.778,2.693,2.693,0,0,1-1.213,2.287,5.232,5.232,0,0,1-3.131.874,5.472,5.472,0,0,1-2.306-.463,3.882,3.882,0,0,1-1.58-1.27,2.951,2.951,0,0,1-.573-1.743h2.616a1.444,1.444,0,0,0,.544,1.127,2.159,2.159,0,0,0,1.356.391,2,2,0,0,0,1.2-.3.938.938,0,0,0,.406-.788"/>
          <path id="Path_192930" data-name="Path 192930" d="M400.98,16.293a1.357,1.357,0,0,1,.415-1.021,1.79,1.79,0,0,1,2.258,0,1.457,1.457,0,0,1-.005,2.052,1.769,1.769,0,0,1-2.243,0,1.351,1.351,0,0,1-.425-1.031m2.931,13h-2.769V18.967h2.769Z"/>
          <path id="Path_192931" data-name="Path 192931" d="M406.938,29.3V20.991H405.4V18.967h1.537v-.879a3.564,3.564,0,0,1,1-2.7,3.862,3.862,0,0,1,2.792-.96,6.528,6.528,0,0,1,1.4.19l-.029,2.121a3.53,3.53,0,0,0-.84-.086q-1.557,0-1.556,1.473v.838h2.053v2.024h-2.053V29.3Z"/>
          <path id="Path_192932" data-name="Path 192932" d="M413.172,16.293a1.361,1.361,0,0,1,.415-1.021,1.79,1.79,0,0,1,2.258,0,1.456,1.456,0,0,1,0,2.052,1.77,1.77,0,0,1-2.244,0,1.351,1.351,0,0,1-.425-1.031m2.931,13h-2.769V18.967H416.1Z"/>
          <path id="Path_192933" data-name="Path 192933" d="M422.671,27.263a1.809,1.809,0,0,0,1.241-.42,1.473,1.473,0,0,0,.5-1.117H427a3.535,3.535,0,0,1-.573,1.924A3.78,3.78,0,0,1,424.88,29a4.812,4.812,0,0,1-2.161.483,4.484,4.484,0,0,1-3.494-1.409,5.575,5.575,0,0,1-1.279-3.89v-.182a5.505,5.505,0,0,1,1.27-3.809,4.43,4.43,0,0,1,3.484-1.423,4.349,4.349,0,0,1,3.108,1.1A3.908,3.908,0,0,1,427,22.814h-2.587a1.9,1.9,0,0,0-.5-1.31,1.846,1.846,0,0,0-2.717.2,4.077,4.077,0,0,0-.491,2.28v.287a4.122,4.122,0,0,0,.487,2.3,1.683,1.683,0,0,0,1.48.7"/>
          <path id="Path_192934" data-name="Path 192934" d="M434.558,29.3a3.035,3.035,0,0,1-.277-.926,3.337,3.337,0,0,1-2.607,1.117,3.673,3.673,0,0,1-2.516-.878,2.827,2.827,0,0,1-1-2.215,2.916,2.916,0,0,1,1.218-2.521,6.011,6.011,0,0,1,3.518-.888h1.269v-.592a1.7,1.7,0,0,0-.368-1.146,1.444,1.444,0,0,0-1.159-.429,1.653,1.653,0,0,0-1.094.334,1.134,1.134,0,0,0-.4.917H428.39a2.773,2.773,0,0,1,.554-1.662,3.655,3.655,0,0,1,1.566-1.2,5.714,5.714,0,0,1,2.272-.434,4.512,4.512,0,0,1,3.032.959,3.36,3.36,0,0,1,1.121,2.7V26.91a4.924,4.924,0,0,0,.411,2.225V29.3Zm-2.282-1.919a2.385,2.385,0,0,0,1.127-.272,1.792,1.792,0,0,0,.763-.73V24.6h-1.031q-2.07,0-2.205,1.432l-.01.162a1.1,1.1,0,0,0,.363.85,1.415,1.415,0,0,0,.993.334"/>
          <path id="Path_192935" data-name="Path 192935" d="M443.351,27.263a1.809,1.809,0,0,0,1.241-.42,1.473,1.473,0,0,0,.5-1.117h2.587a3.535,3.535,0,0,1-.573,1.924A3.78,3.78,0,0,1,445.56,29a4.812,4.812,0,0,1-2.161.483,4.489,4.489,0,0,1-3.495-1.409,5.571,5.571,0,0,1-1.279-3.89v-.182a5.51,5.51,0,0,1,1.27-3.809,4.435,4.435,0,0,1,3.485-1.423,4.349,4.349,0,0,1,3.108,1.1,3.908,3.908,0,0,1,1.188,2.936h-2.587a1.9,1.9,0,0,0-.5-1.31,1.846,1.846,0,0,0-2.717.2,4.077,4.077,0,0,0-.491,2.28v.287a4.131,4.131,0,0,0,.487,2.3,1.683,1.683,0,0,0,1.48.7"/>
          <path id="Path_192936" data-name="Path 192936" d="M449.232,16.293a1.365,1.365,0,0,1,.415-1.021,1.79,1.79,0,0,1,2.258,0,1.455,1.455,0,0,1-.005,2.052,1.767,1.767,0,0,1-2.242,0,1.349,1.349,0,0,1-.426-1.031m2.931,13h-2.769V18.967h2.769Z"/>
          <path id="Path_192937" data-name="Path 192937" d="M454.006,24.036a6.123,6.123,0,0,1,.592-2.74,4.341,4.341,0,0,1,1.7-1.862,4.983,4.983,0,0,1,2.584-.658,4.7,4.7,0,0,1,3.412,1.279,5.131,5.131,0,0,1,1.476,3.475l.019.707a5.4,5.4,0,0,1-1.327,3.814,5.142,5.142,0,0,1-7.126,0,5.486,5.486,0,0,1-1.333-3.9Zm2.759.2a3.861,3.861,0,0,0,.554,2.252,1.991,1.991,0,0,0,3.151.01,4.224,4.224,0,0,0,.563-2.462,3.82,3.82,0,0,0-.563-2.238A1.832,1.832,0,0,0,458.885,21a1.8,1.8,0,0,0-1.566.789,4.3,4.3,0,0,0-.554,2.443m2.664-9.6h3.007l-2.644,2.96h-2.244Z"/>
          <path id="Path_192938" data-name="Path 192938" d="M468.031,18.966l.086,1.194a3.607,3.607,0,0,1,2.969-1.384,3,3,0,0,1,2.444.964,4.5,4.5,0,0,1,.821,2.884V29.3h-2.759V22.674a1.793,1.793,0,0,0-.382-1.276,1.705,1.705,0,0,0-1.27-.4,1.9,1.9,0,0,0-1.747,1v7.3h-2.759V18.966Z"/>
          <path id="Path_192939" data-name="Path 192939" d="M352.922,47.519a6.225,6.225,0,0,1,1.083-3.847,3.517,3.517,0,0,1,2.965-1.432,3.165,3.165,0,0,1,2.492,1.126V38.1h2.769V52.761h-2.492l-.134-1.1a3.247,3.247,0,0,1-2.654,1.289,3.505,3.505,0,0,1-2.926-1.437,6.422,6.422,0,0,1-1.1-4m2.759.2a4.1,4.1,0,0,0,.506,2.234,1.645,1.645,0,0,0,1.47.777,1.847,1.847,0,0,0,1.8-1.083v-4.1a1.819,1.819,0,0,0-1.786-1.084q-1.995,0-1.995,3.252"/>
          <path id="Path_192940" data-name="Path 192940" d="M369.124,52.952a5.074,5.074,0,0,1-3.7-1.394A4.956,4.956,0,0,1,364,47.844v-.268a6.245,6.245,0,0,1,.6-2.783,4.411,4.411,0,0,1,1.7-1.89,4.785,4.785,0,0,1,2.516-.664,4.285,4.285,0,0,1,3.336,1.337,5.43,5.43,0,0,1,1.218,3.79v1.127h-6.579a2.567,2.567,0,0,0,.807,1.623,2.436,2.436,0,0,0,1.7.611,2.978,2.978,0,0,0,2.492-1.155l1.356,1.518a4.138,4.138,0,0,1-1.68,1.37,5.514,5.514,0,0,1-2.349.492m-.315-8.488a1.722,1.722,0,0,0-1.332.557,2.876,2.876,0,0,0-.654,1.591h3.838v-.22a2.054,2.054,0,0,0-.5-1.425,1.782,1.782,0,0,0-1.356-.5"/>
          <rect id="Rectangle_41500" data-name="Rectangle 41500" width="2.769" height="14.665" transform="translate(379.95 38.096)"/>
          <path id="Path_192941" data-name="Path 192941" d="M384.562,47.5a6.123,6.123,0,0,1,.592-2.74,4.331,4.331,0,0,1,1.7-1.862,4.974,4.974,0,0,1,2.583-.658,4.7,4.7,0,0,1,3.413,1.279,5.139,5.139,0,0,1,1.475,3.475l.019.707a5.4,5.4,0,0,1-1.327,3.814,5.143,5.143,0,0,1-7.127.005,5.5,5.5,0,0,1-1.332-3.9Zm2.759.2a3.854,3.854,0,0,0,.554,2.252,1.989,1.989,0,0,0,3.15.01,4.224,4.224,0,0,0,.564-2.463,3.818,3.818,0,0,0-.564-2.237,1.831,1.831,0,0,0-1.584-.794,1.8,1.8,0,0,0-1.566.789,4.289,4.289,0,0,0-.554,2.443"/>
          <path id="Path_192942" data-name="Path 192942" d="M401.642,49.906a.889.889,0,0,0-.5-.8,5.707,5.707,0,0,0-1.609-.521q-3.686-.772-3.685-3.131a2.836,2.836,0,0,1,1.141-2.3,4.6,4.6,0,0,1,2.983-.922,4.956,4.956,0,0,1,3.146.926,2.92,2.92,0,0,1,1.179,2.406h-2.759a1.333,1.333,0,0,0-.382-.978,1.615,1.615,0,0,0-1.193-.387,1.652,1.652,0,0,0-1.079.315.994.994,0,0,0-.382.8.851.851,0,0,0,.434.74,4.445,4.445,0,0,0,1.466.487,11.94,11.94,0,0,1,1.737.463,2.855,2.855,0,0,1,2.187,2.778,2.693,2.693,0,0,1-1.213,2.287,5.232,5.232,0,0,1-3.131.874,5.472,5.472,0,0,1-2.306-.463,3.882,3.882,0,0,1-1.58-1.27,2.952,2.952,0,0,1-.573-1.743h2.616a1.444,1.444,0,0,0,.544,1.127,2.159,2.159,0,0,0,1.356.391,2,2,0,0,0,1.2-.3.938.938,0,0,0,.406-.788"/>
          <path id="Path_192943" data-name="Path 192943" d="M416.957,52.761a3.063,3.063,0,0,1-.277-.926,3.337,3.337,0,0,1-2.607,1.117,3.668,3.668,0,0,1-2.515-.878,2.825,2.825,0,0,1-1-2.215,2.919,2.919,0,0,1,1.217-2.521,6.017,6.017,0,0,1,3.519-.888h1.269v-.592a1.7,1.7,0,0,0-.367-1.146,1.449,1.449,0,0,0-1.16-.429,1.647,1.647,0,0,0-1.093.334,1.132,1.132,0,0,0-.4.917h-2.759a2.767,2.767,0,0,1,.554-1.662,3.655,3.655,0,0,1,1.566-1.2,5.717,5.717,0,0,1,2.272-.434,4.5,4.5,0,0,1,3.031.959,3.357,3.357,0,0,1,1.122,2.7v4.478a4.937,4.937,0,0,0,.411,2.225v.162Zm-2.282-1.919a2.382,2.382,0,0,0,1.127-.272,1.788,1.788,0,0,0,.763-.731V48.064h-1.031q-2.071,0-2.2,1.432l-.01.162a1.108,1.108,0,0,0,.363.85,1.413,1.413,0,0,0,.993.334"/>
          <path id="Path_192944" data-name="Path 192944" d="M427.258,45.018a7.487,7.487,0,0,0-.993-.076A2.022,2.022,0,0,0,424.212,46v6.76h-2.759V42.431h2.607l.076,1.231a2.557,2.557,0,0,1,2.3-1.422,2.882,2.882,0,0,1,.859.124Z"/>
          <path id="Path_192945" data-name="Path 192945" d="M432.7,50.727a1.809,1.809,0,0,0,1.241-.42,1.473,1.473,0,0,0,.5-1.117h2.587a3.535,3.535,0,0,1-.573,1.924,3.78,3.78,0,0,1-1.543,1.355,4.812,4.812,0,0,1-2.161.483,4.489,4.489,0,0,1-3.495-1.409,5.571,5.571,0,0,1-1.279-3.89v-.182a5.51,5.51,0,0,1,1.27-3.809,4.435,4.435,0,0,1,3.485-1.423,4.349,4.349,0,0,1,3.108,1.1,3.908,3.908,0,0,1,1.188,2.936h-2.587a1.9,1.9,0,0,0-.5-1.31,1.846,1.846,0,0,0-2.717.2,4.077,4.077,0,0,0-.491,2.28v.287a4.131,4.131,0,0,0,.487,2.295,1.683,1.683,0,0,0,1.48.7"/>
          <path id="Path_192946" data-name="Path 192946" d="M441.292,43.557a3.444,3.444,0,0,1,2.759-1.318q3.36,0,3.409,3.905v6.617H444.7V46.205a1.928,1.928,0,0,0-.381-1.315,1.634,1.634,0,0,0-1.27-.426,1.878,1.878,0,0,0-1.757.938v7.359h-2.759V38.1h2.759Z"/>
          <path id="Path_192947" data-name="Path 192947" d="M449.522,39.757a1.365,1.365,0,0,1,.415-1.021,1.791,1.791,0,0,1,2.259,0,1.456,1.456,0,0,1-.006,2.052,1.767,1.767,0,0,1-2.242,0,1.352,1.352,0,0,1-.426-1.031m2.931,13h-2.769V42.431h2.769Z"/>
          <path id="Path_192948" data-name="Path 192948" d="M458.593,49.391l1.919-6.96h2.883l-3.484,10.33h-2.636l-3.484-10.33h2.883Z"/>
          <path id="Path_192949" data-name="Path 192949" d="M464.035,47.5a6.11,6.11,0,0,1,.592-2.74,4.341,4.341,0,0,1,1.7-1.862,4.983,4.983,0,0,1,2.584-.658,4.7,4.7,0,0,1,3.412,1.279,5.131,5.131,0,0,1,1.476,3.475l.019.707a5.4,5.4,0,0,1-1.327,3.814,5.142,5.142,0,0,1-7.126.005,5.486,5.486,0,0,1-1.333-3.9Zm2.759.2a3.861,3.861,0,0,0,.554,2.252,1.989,1.989,0,0,0,3.15.01,4.216,4.216,0,0,0,.564-2.463,3.811,3.811,0,0,0-.564-2.237,1.831,1.831,0,0,0-1.584-.794,1.8,1.8,0,0,0-1.566.789,4.3,4.3,0,0,0-.554,2.443"/>
          <path id="Path_192950" data-name="Path 192950" d="M481.115,49.906a.886.886,0,0,0-.5-.8,5.664,5.664,0,0,0-1.608-.521q-3.687-.772-3.685-3.131a2.835,2.835,0,0,1,1.142-2.3,4.6,4.6,0,0,1,2.982-.922,4.959,4.959,0,0,1,3.147.926,2.922,2.922,0,0,1,1.178,2.406H481.01a1.337,1.337,0,0,0-.382-.978,1.615,1.615,0,0,0-1.193-.387,1.652,1.652,0,0,0-1.079.315,1,1,0,0,0-.382.8.85.85,0,0,0,.435.74,4.429,4.429,0,0,0,1.465.487,11.974,11.974,0,0,1,1.737.463,2.857,2.857,0,0,1,2.187,2.778,2.7,2.7,0,0,1-1.213,2.287,5.229,5.229,0,0,1-3.131.874,5.468,5.468,0,0,1-2.305-.463,3.879,3.879,0,0,1-1.581-1.27,2.952,2.952,0,0,1-.573-1.743h2.616a1.438,1.438,0,0,0,.544,1.127,2.159,2.159,0,0,0,1.356.391,1.993,1.993,0,0,0,1.2-.3.936.936,0,0,0,.407-.788"/>
          <path id="Path_192951" data-name="Path 192951" d="M35.613,416.38h-4.52l-.859,2.578H27.493l4.657-12.511h2.389l4.683,12.511H36.481Zm-3.824-2.087h3.128l-1.573-4.684Z"/>
          <path id="Path_192952" data-name="Path 192952" d="M45.451,411.99a6.726,6.726,0,0,0-.894-.069,1.818,1.818,0,0,0-1.847.953v6.084H40.227v-9.3h2.345l.069,1.11a2.3,2.3,0,0,1,2.071-1.281,2.612,2.612,0,0,1,.773.112Z"/>
          <path id="Path_192953" data-name="Path 192953" d="M50.349,417.129a1.629,1.629,0,0,0,1.117-.378,1.33,1.33,0,0,0,.447-1.006h2.329a3.2,3.2,0,0,1-.516,1.732,3.4,3.4,0,0,1-1.388,1.22,4.359,4.359,0,0,1-1.946.433,4.034,4.034,0,0,1-3.145-1.268,5.007,5.007,0,0,1-1.151-3.5V414.2a4.962,4.962,0,0,1,1.142-3.428,3.993,3.993,0,0,1,3.137-1.281,3.905,3.905,0,0,1,2.8.993,3.519,3.519,0,0,1,1.07,2.643H51.913a1.712,1.712,0,0,0-.447-1.18,1.662,1.662,0,0,0-2.445.179,3.668,3.668,0,0,0-.442,2.053v.258a3.719,3.719,0,0,0,.438,2.066,1.516,1.516,0,0,0,1.332.628"/>
          <path id="Path_192954" data-name="Path 192954" d="M58.082,410.675a3.1,3.1,0,0,1,2.483-1.186q3.027,0,3.069,3.516v5.953H61.15v-5.9a1.739,1.739,0,0,0-.344-1.186,1.476,1.476,0,0,0-1.144-.382,1.689,1.689,0,0,0-1.58.844v6.622H55.6v-13.2h2.483Z"/>
          <path id="Path_192955" data-name="Path 192955" d="M65.49,407.255a1.223,1.223,0,0,1,.375-.919,1.609,1.609,0,0,1,2.031,0,1.313,1.313,0,0,1,0,1.847,1.592,1.592,0,0,1-2.019,0,1.217,1.217,0,0,1-.384-.928m2.639,11.7H65.637v-9.3h2.492Z"/>
          <path id="Path_192956" data-name="Path 192956" d="M73.652,415.926l1.726-6.265h2.6l-3.137,9.3H72.466l-3.137-9.3h2.6Z"/>
          <path id="Path_192957" data-name="Path 192957" d="M78.552,414.224a5.521,5.521,0,0,1,.532-2.467,3.9,3.9,0,0,1,1.534-1.674,4.467,4.467,0,0,1,2.324-.594,4.231,4.231,0,0,1,3.072,1.151,4.615,4.615,0,0,1,1.327,3.128l.019.636a4.86,4.86,0,0,1-1.195,3.433,4.629,4.629,0,0,1-6.414,0,4.941,4.941,0,0,1-1.2-3.506Zm2.484.176a3.471,3.471,0,0,0,.5,2.026,1.791,1.791,0,0,0,2.838.01,3.826,3.826,0,0,0,.506-2.217,3.453,3.453,0,0,0-.506-2.013,1.651,1.651,0,0,0-1.428-.714,1.623,1.623,0,0,0-1.41.71,3.864,3.864,0,0,0-.5,2.2"/>
          <path id="Path_192958" data-name="Path 192958" d="M40.054,440.075a2.746,2.746,0,0,1-.25-.832,3,3,0,0,1-2.345,1,3.3,3.3,0,0,1-2.265-.79,2.543,2.543,0,0,1-.9-1.994,2.626,2.626,0,0,1,1.1-2.269,5.4,5.4,0,0,1,3.166-.8H39.7v-.532a1.532,1.532,0,0,0-.331-1.032,1.3,1.3,0,0,0-1.043-.387,1.479,1.479,0,0,0-.985.3,1.018,1.018,0,0,0-.356.824H34.5a2.5,2.5,0,0,1,.5-1.5A3.307,3.307,0,0,1,36.41,431a5.167,5.167,0,0,1,2.045-.391,4.065,4.065,0,0,1,2.729.863,3.029,3.029,0,0,1,1.009,2.429v4.029a4.445,4.445,0,0,0,.37,2v.145ZM38,438.349a2.129,2.129,0,0,0,1.014-.246,1.607,1.607,0,0,0,.687-.657v-1.6h-.928q-1.865,0-1.985,1.288l-.008.147a.993.993,0,0,0,.326.764,1.268,1.268,0,0,0,.894.3"/>
          <path id="Path_192959" data-name="Path 192959" d="M47.968,438.246a1.629,1.629,0,0,0,1.117-.378,1.33,1.33,0,0,0,.447-1.006h2.329a3.2,3.2,0,0,1-.516,1.732,3.41,3.41,0,0,1-1.388,1.22,4.359,4.359,0,0,1-1.946.433,4.034,4.034,0,0,1-3.145-1.268,5.007,5.007,0,0,1-1.151-3.5v-.164a4.962,4.962,0,0,1,1.142-3.428,3.993,3.993,0,0,1,3.137-1.281,3.907,3.907,0,0,1,2.8.993,3.519,3.519,0,0,1,1.07,2.643H49.532a1.712,1.712,0,0,0-.447-1.18,1.662,1.662,0,0,0-2.445.179,3.668,3.668,0,0,0-.442,2.053v.258a3.719,3.719,0,0,0,.438,2.066,1.516,1.516,0,0,0,1.332.628"/>
          <path id="Path_192960" data-name="Path 192960" d="M56.25,428.492v2.286h1.591V432.6H56.25v4.64a1.106,1.106,0,0,0,.2.739.99.99,0,0,0,.756.224,3.96,3.96,0,0,0,.729-.059v1.881a5.136,5.136,0,0,1-1.5.223,2.37,2.37,0,0,1-2.663-2.637V432.6H52.41v-1.821h1.358v-2.286Z"/>
          <path id="Path_192961" data-name="Path 192961" d="M59.206,428.372a1.224,1.224,0,0,1,.374-.918,1.61,1.61,0,0,1,2.032,0,1.311,1.311,0,0,1,0,1.846,1.591,1.591,0,0,1-2.018,0,1.217,1.217,0,0,1-.384-.928m2.639,11.7H59.353v-9.3h2.492Z"/>
          <path id="Path_192962" data-name="Path 192962" d="M67.369,437.043l1.726-6.265h2.6l-3.137,9.3H66.183l-3.137-9.3h2.6Z"/>
          <path id="Path_192963" data-name="Path 192963" d="M72.268,435.341a5.521,5.521,0,0,1,.531-2.467,3.907,3.907,0,0,1,1.534-1.674,4.47,4.47,0,0,1,2.325-.594,4.229,4.229,0,0,1,3.071,1.151,4.615,4.615,0,0,1,1.327,3.128l.02.636a4.865,4.865,0,0,1-1.195,3.433,4.63,4.63,0,0,1-6.415,0,4.941,4.941,0,0,1-1.2-3.506Zm2.484.176a3.472,3.472,0,0,0,.5,2.026,1.792,1.792,0,0,0,2.839.01,3.827,3.827,0,0,0,.505-2.217,3.453,3.453,0,0,0-.505-2.013,1.652,1.652,0,0,0-1.428-.714,1.624,1.624,0,0,0-1.411.71,3.865,3.865,0,0,0-.5,2.2"/>
          <path id="Path_192964" data-name="Path 192964" d="M200.312,416.38h-4.52l-.859,2.578h-2.741l4.657-12.511h2.389l4.683,12.511H201.18Zm-3.824-2.087h3.128l-1.573-4.684Z"/>
          <path id="Path_192965" data-name="Path 192965" d="M210.151,411.99a6.726,6.726,0,0,0-.894-.069,1.818,1.818,0,0,0-1.847.953v6.084h-2.483v-9.3h2.345l.069,1.11a2.3,2.3,0,0,1,2.071-1.281,2.612,2.612,0,0,1,.773.112Z"/>
          <path id="Path_192966" data-name="Path 192966" d="M215.049,417.129a1.629,1.629,0,0,0,1.117-.378,1.33,1.33,0,0,0,.447-1.006h2.329a3.2,3.2,0,0,1-.516,1.732,3.4,3.4,0,0,1-1.388,1.22,4.359,4.359,0,0,1-1.946.433,4.034,4.034,0,0,1-3.145-1.268,5.007,5.007,0,0,1-1.151-3.5V414.2a4.962,4.962,0,0,1,1.142-3.428,3.993,3.993,0,0,1,3.137-1.281,3.907,3.907,0,0,1,2.8.993,3.519,3.519,0,0,1,1.07,2.643h-2.329a1.712,1.712,0,0,0-.447-1.18,1.662,1.662,0,0,0-2.445.179,3.668,3.668,0,0,0-.442,2.053v.258a3.719,3.719,0,0,0,.438,2.066,1.516,1.516,0,0,0,1.332.628"/>
          <path id="Path_192967" data-name="Path 192967" d="M222.781,410.675a3.1,3.1,0,0,1,2.484-1.186q3.025,0,3.069,3.516v5.953H225.85v-5.9a1.739,1.739,0,0,0-.344-1.186,1.476,1.476,0,0,0-1.144-.382,1.691,1.691,0,0,0-1.581.844v6.622H220.3v-13.2h2.482Z"/>
          <path id="Path_192968" data-name="Path 192968" d="M230.19,407.255a1.226,1.226,0,0,1,.374-.919,1.61,1.61,0,0,1,2.032,0,1.312,1.312,0,0,1,0,1.847,1.591,1.591,0,0,1-2.018,0,1.217,1.217,0,0,1-.384-.928m2.639,11.7h-2.492v-9.3h2.492Z"/>
          <path id="Path_192969" data-name="Path 192969" d="M238.351,415.926l1.726-6.265h2.6l-3.137,9.3h-2.372l-3.137-9.3h2.6Z"/>
          <path id="Path_192970" data-name="Path 192970" d="M243.251,414.224a5.521,5.521,0,0,1,.532-2.467,3.9,3.9,0,0,1,1.534-1.674,4.467,4.467,0,0,1,2.324-.594,4.231,4.231,0,0,1,3.072,1.151,4.615,4.615,0,0,1,1.327,3.128l.019.636a4.86,4.86,0,0,1-1.2,3.433,4.629,4.629,0,0,1-6.414,0,4.941,4.941,0,0,1-1.2-3.506Zm2.484.176a3.471,3.471,0,0,0,.5,2.026,1.791,1.791,0,0,0,2.838.01,3.826,3.826,0,0,0,.506-2.217,3.453,3.453,0,0,0-.506-2.013,1.651,1.651,0,0,0-1.428-.714,1.623,1.623,0,0,0-1.41.71,3.864,3.864,0,0,0-.5,2.2"/>
          <path id="Path_192971" data-name="Path 192971" d="M185.171,437.507a.8.8,0,0,0-.453-.718,5.132,5.132,0,0,0-1.447-.468q-3.315-.7-3.317-2.818a2.556,2.556,0,0,1,1.028-2.068,4.141,4.141,0,0,1,2.684-.829,4.46,4.46,0,0,1,2.832.835,2.626,2.626,0,0,1,1.061,2.165h-2.483a1.207,1.207,0,0,0-.344-.882,1.458,1.458,0,0,0-1.074-.348,1.48,1.48,0,0,0-.97.285.892.892,0,0,0-.345.721.762.762,0,0,0,.391.665,3.96,3.96,0,0,0,1.319.439,10.933,10.933,0,0,1,1.564.416,2.572,2.572,0,0,1,1.968,2.5,2.42,2.42,0,0,1-1.092,2.056,4.693,4.693,0,0,1-2.818.787,4.928,4.928,0,0,1-2.075-.416,3.461,3.461,0,0,1-1.422-1.144,2.65,2.65,0,0,1-.516-1.568h2.354a1.3,1.3,0,0,0,.491,1.014,1.942,1.942,0,0,0,1.22.354,1.8,1.8,0,0,0,1.077-.272.842.842,0,0,0,.367-.708"/>
          <path id="Path_192972" data-name="Path 192972" d="M193.463,440.247a4.561,4.561,0,0,1-3.33-1.255,4.453,4.453,0,0,1-1.285-3.341v-.241a5.618,5.618,0,0,1,.542-2.505,3.97,3.97,0,0,1,1.534-1.7,4.3,4.3,0,0,1,2.264-.6,3.855,3.855,0,0,1,3,1.2,4.883,4.883,0,0,1,1.1,3.412v1.014h-5.92a2.307,2.307,0,0,0,.726,1.461,2.192,2.192,0,0,0,1.534.55,2.684,2.684,0,0,0,2.243-1.041l1.22,1.367a3.723,3.723,0,0,1-1.513,1.232,4.942,4.942,0,0,1-2.113.443m-.284-7.638a1.55,1.55,0,0,0-1.2.5,2.591,2.591,0,0,0-.588,1.432h3.454v-.2a1.841,1.841,0,0,0-.447-1.281,1.6,1.6,0,0,0-1.22-.453"/>
          <path id="Path_192973" data-name="Path 192973" d="M201.024,430.778l.077,1.041a3.269,3.269,0,0,1,2.673-1.213,2.481,2.481,0,0,1,2.466,1.419,3.193,3.193,0,0,1,2.792-1.419,2.777,2.777,0,0,1,2.252.88,4.062,4.062,0,0,1,.739,2.653v5.936h-2.492v-5.942a1.779,1.779,0,0,0-.309-1.159,1.374,1.374,0,0,0-1.092-.365,1.548,1.548,0,0,0-1.546,1.068l.008,6.4h-2.483v-5.932a1.758,1.758,0,0,0-.318-1.173,1.387,1.387,0,0,0-1.083-.361,1.607,1.607,0,0,0-1.529.879v6.587H198.7v-9.3Z"/>
          <path id="Path_192974" data-name="Path 192974" d="M213.913,428.372a1.22,1.22,0,0,1,.374-.918,1.61,1.61,0,0,1,2.032,0,1.311,1.311,0,0,1,0,1.846,1.592,1.592,0,0,1-2.019,0,1.216,1.216,0,0,1-.383-.928m2.638,11.7h-2.492v-9.3h2.492Z"/>
          <path id="Path_192975" data-name="Path 192975" d="M223.984,440.075a2.775,2.775,0,0,1-.25-.832,3,3,0,0,1-2.345,1,3.305,3.305,0,0,1-2.265-.79,2.546,2.546,0,0,1-.9-1.994,2.626,2.626,0,0,1,1.1-2.269,5.4,5.4,0,0,1,3.166-.8h1.141v-.532a1.526,1.526,0,0,0-.33-1.032,1.3,1.3,0,0,0-1.044-.387,1.478,1.478,0,0,0-.984.3,1.022,1.022,0,0,0-.357.824h-2.482a2.5,2.5,0,0,1,.5-1.5A3.307,3.307,0,0,1,220.34,431a5.167,5.167,0,0,1,2.045-.391,4.065,4.065,0,0,1,2.729.863,3.029,3.029,0,0,1,1.01,2.429v4.029a4.42,4.42,0,0,0,.369,2v.145Zm-2.053-1.726a2.127,2.127,0,0,0,1.012-.246,1.6,1.6,0,0,0,.687-.657v-1.6H222.7q-1.864,0-1.984,1.288l-.009.147a.988.988,0,0,0,.328.764,1.265,1.265,0,0,0,.894.3"/>
          <path id="Path_192976" data-name="Path 192976" d="M231.9,438.246a1.637,1.637,0,0,0,1.119-.378,1.344,1.344,0,0,0,.447-1.006h2.327a3.185,3.185,0,0,1-.515,1.732,3.4,3.4,0,0,1-1.388,1.22,4.359,4.359,0,0,1-1.946.433,4.034,4.034,0,0,1-3.145-1.268,5.007,5.007,0,0,1-1.151-3.5v-.164a4.953,4.953,0,0,1,1.143-3.428,3.988,3.988,0,0,1,3.136-1.281,3.907,3.907,0,0,1,2.8.993,3.515,3.515,0,0,1,1.069,2.643h-2.327a1.731,1.731,0,0,0-.447-1.18,1.663,1.663,0,0,0-2.446.179,3.678,3.678,0,0,0-.441,2.053v.258a3.72,3.72,0,0,0,.437,2.066,1.514,1.514,0,0,0,1.331.628"/>
          <path id="Path_192977" data-name="Path 192977" d="M240.18,428.492v2.286h1.591V432.6H240.18v4.64a1.106,1.106,0,0,0,.2.739.99.99,0,0,0,.756.224,3.96,3.96,0,0,0,.729-.059v1.881a5.136,5.136,0,0,1-1.5.223,2.37,2.37,0,0,1-2.663-2.637V432.6H236.34v-1.821H237.7v-2.286Z"/>
          <path id="Path_192978" data-name="Path 192978" d="M243.136,428.372a1.221,1.221,0,0,1,.375-.918,1.609,1.609,0,0,1,2.031,0,1.312,1.312,0,0,1,0,1.846,1.592,1.592,0,0,1-2.019,0,1.217,1.217,0,0,1-.384-.928m2.639,11.7h-2.492v-9.3h2.492Z"/>
          <path id="Path_192979" data-name="Path 192979" d="M251.3,437.043l1.726-6.265h2.6l-3.137,9.3h-2.372l-3.137-9.3h2.6Z"/>
          <path id="Path_192980" data-name="Path 192980" d="M256.2,435.341a5.522,5.522,0,0,1,.532-2.467,3.9,3.9,0,0,1,1.534-1.674,4.466,4.466,0,0,1,2.324-.594,4.231,4.231,0,0,1,3.072,1.151,4.615,4.615,0,0,1,1.327,3.128l.019.636a4.86,4.86,0,0,1-1.2,3.433,4.629,4.629,0,0,1-6.414,0,4.941,4.941,0,0,1-1.2-3.506Zm2.484.176a3.471,3.471,0,0,0,.5,2.026,1.791,1.791,0,0,0,2.838.01,3.826,3.826,0,0,0,.506-2.217,3.453,3.453,0,0,0-.506-2.013,1.651,1.651,0,0,0-1.428-.714,1.623,1.623,0,0,0-1.41.71,3.864,3.864,0,0,0-.5,2.2"/>
          <path id="Path_192981" data-name="Path 192981" d="M575.64,414.792a4.432,4.432,0,0,1-1.492,3.179,5.234,5.234,0,0,1-3.544,1.159,4.708,4.708,0,0,1-3.786-1.619,6.642,6.642,0,0,1-1.38-4.447V412.3a7.5,7.5,0,0,1,.637-3.179,4.747,4.747,0,0,1,1.818-2.11,5.678,5.678,0,0,1,6.235.426,4.752,4.752,0,0,1,1.528,3.255h-2.578a2.6,2.6,0,0,0-.676-1.756,2.49,2.49,0,0,0-1.764-.547,2.2,2.2,0,0,0-1.93.925,5.181,5.181,0,0,0-.656,2.866v.945a5.538,5.538,0,0,0,.613,2.964,2.153,2.153,0,0,0,1.939.937,2.528,2.528,0,0,0,1.781-.546,2.454,2.454,0,0,0,.677-1.688Z"/>
          <path id="Path_192982" data-name="Path 192982" d="M581.448,419.13a4.563,4.563,0,0,1-3.33-1.255,4.453,4.453,0,0,1-1.285-3.341v-.241a5.619,5.619,0,0,1,.543-2.505,3.968,3.968,0,0,1,1.533-1.7,4.307,4.307,0,0,1,2.265-.6,3.853,3.853,0,0,1,3,1.2,4.883,4.883,0,0,1,1.1,3.412v1.014h-5.919a2.3,2.3,0,0,0,.726,1.461,2.187,2.187,0,0,0,1.533.55,2.681,2.681,0,0,0,2.243-1.041l1.221,1.367a3.723,3.723,0,0,1-1.513,1.232,4.947,4.947,0,0,1-2.114.443m-.284-7.638a1.551,1.551,0,0,0-1.2.5,2.6,2.6,0,0,0-.588,1.432h3.454v-.2a1.841,1.841,0,0,0-.447-1.281,1.6,1.6,0,0,0-1.22-.453"/>
          <path id="Path_192983" data-name="Path 192983" d="M588.966,409.661l.078,1.075a3.246,3.246,0,0,1,2.672-1.247,2.7,2.7,0,0,1,2.2.869,4.043,4.043,0,0,1,.739,2.6v6.005h-2.482V413a1.618,1.618,0,0,0-.344-1.15,1.539,1.539,0,0,0-1.143-.357,1.705,1.705,0,0,0-1.572.9v6.57h-2.484v-9.3Z"/>
          <path id="Path_192984" data-name="Path 192984" d="M599.51,407.375v2.286H601.1v1.821H599.51v4.64a1.107,1.107,0,0,0,.2.739.991.991,0,0,0,.756.224,3.982,3.982,0,0,0,.731-.059v1.881a5.148,5.148,0,0,1-1.5.223,2.37,2.37,0,0,1-2.664-2.637v-5.011h-1.358v-1.821h1.358v-2.286Z"/>
          <path id="Path_192985" data-name="Path 192985" d="M607.708,411.99a6.726,6.726,0,0,0-.894-.069,1.819,1.819,0,0,0-1.848.953v6.084h-2.482v-9.3h2.344l.069,1.11a2.3,2.3,0,0,1,2.072-1.281,2.612,2.612,0,0,1,.773.112Z"/>
          <path id="Path_192986" data-name="Path 192986" d="M614.03,418.958a2.776,2.776,0,0,1-.248-.832,3,3,0,0,1-2.345,1,3.3,3.3,0,0,1-2.265-.79,2.54,2.54,0,0,1-.9-1.994,2.626,2.626,0,0,1,1.1-2.269,5.4,5.4,0,0,1,3.166-.8h1.141v-.532a1.527,1.527,0,0,0-.332-1.032,1.3,1.3,0,0,0-1.042-.387,1.484,1.484,0,0,0-.986.3,1.024,1.024,0,0,0-.355.824h-2.482a2.5,2.5,0,0,1,.5-1.495,3.3,3.3,0,0,1,1.407-1.079,5.178,5.178,0,0,1,2.047-.391,4.055,4.055,0,0,1,2.727.863,3.03,3.03,0,0,1,1.012,2.429v4.029a4.423,4.423,0,0,0,.367,2v.145Zm-2.051-1.726a2.133,2.133,0,0,0,1.012-.246,1.607,1.607,0,0,0,.687-.657v-1.6h-.928q-1.867,0-1.985,1.288l-.008.147a.981.981,0,0,0,.328.764,1.261,1.261,0,0,0,.894.3"/>
          <rect id="Rectangle_41501" data-name="Rectangle 41501" width="2.492" height="13.199" transform="translate(618.208 405.759)"/>
          <path id="Path_192987" data-name="Path 192987" d="M622.728,407.255a1.226,1.226,0,0,1,.374-.919,1.61,1.61,0,0,1,2.032,0,1.312,1.312,0,0,1,0,1.847,1.591,1.591,0,0,1-2.018,0,1.217,1.217,0,0,1-.384-.928m2.639,11.7h-2.492v-9.3h2.492Z"/>
          <path id="Path_192988" data-name="Path 192988" d="M630.267,416.957h4.545v2h-7.717v-1.512l4.375-5.782h-4.247v-2h7.451v1.462Z"/>
          <path id="Path_192989" data-name="Path 192989" d="M641.754,418.958a2.772,2.772,0,0,1-.25-.832,3,3,0,0,1-2.345,1,3.305,3.305,0,0,1-2.265-.79,2.546,2.546,0,0,1-.9-1.994,2.626,2.626,0,0,1,1.1-2.269,5.4,5.4,0,0,1,3.166-.8H641.4v-.532a1.527,1.527,0,0,0-.33-1.032,1.3,1.3,0,0,0-1.044-.387,1.478,1.478,0,0,0-.984.3,1.022,1.022,0,0,0-.357.824H636.2a2.5,2.5,0,0,1,.5-1.495,3.307,3.307,0,0,1,1.409-1.079,5.168,5.168,0,0,1,2.045-.391,4.064,4.064,0,0,1,2.729.863,3.029,3.029,0,0,1,1.01,2.429v4.029a4.42,4.42,0,0,0,.369,2v.145Zm-2.053-1.726a2.127,2.127,0,0,0,1.012-.246,1.6,1.6,0,0,0,.687-.657v-1.6h-.928q-1.864,0-1.984,1.288l-.009.147a.988.988,0,0,0,.328.764,1.265,1.265,0,0,0,.894.3"/>
          <path id="Path_192990" data-name="Path 192990" d="M645.415,414.241a5.6,5.6,0,0,1,.976-3.464,3.162,3.162,0,0,1,2.667-1.288A2.853,2.853,0,0,1,651.3,410.5v-4.744h2.49v13.2H651.55l-.12-.987a2.923,2.923,0,0,1-2.389,1.159,3.15,3.15,0,0,1-2.633-1.293,5.771,5.771,0,0,1-.993-3.6m2.484.176a3.706,3.706,0,0,0,.454,2.013,1.484,1.484,0,0,0,1.324.7,1.664,1.664,0,0,0,1.625-.976v-3.686a1.638,1.638,0,0,0-1.608-.975q-1.8,0-1.795,2.925"/>
          <path id="Path_192991" data-name="Path 192991" d="M661.1,418.958a2.776,2.776,0,0,1-.25-.832,3,3,0,0,1-2.345,1,3.3,3.3,0,0,1-2.265-.79,2.546,2.546,0,0,1-.9-1.994,2.626,2.626,0,0,1,1.1-2.269,5.4,5.4,0,0,1,3.166-.8h1.141v-.532a1.526,1.526,0,0,0-.33-1.032,1.3,1.3,0,0,0-1.044-.387,1.478,1.478,0,0,0-.984.3,1.022,1.022,0,0,0-.357.824h-2.482a2.5,2.5,0,0,1,.5-1.495,3.307,3.307,0,0,1,1.409-1.079,5.167,5.167,0,0,1,2.045-.391,4.065,4.065,0,0,1,2.729.863,3.029,3.029,0,0,1,1.01,2.429v4.029a4.42,4.42,0,0,0,.369,2v.145Zm-2.053-1.726a2.127,2.127,0,0,0,1.012-.246,1.607,1.607,0,0,0,.687-.657v-1.6h-.928q-1.864,0-1.984,1.288l-.009.147a.988.988,0,0,0,.328.764,1.265,1.265,0,0,0,.894.3"/>
          <path id="Path_192992" data-name="Path 192992" d="M716.9,418.958V406.447h3.85a5.855,5.855,0,0,1,2.952.743,5.2,5.2,0,0,1,2.032,2.114,6.536,6.536,0,0,1,.731,3.116v.575a6.558,6.558,0,0,1-.718,3.1,5.137,5.137,0,0,1-2.024,2.1,5.894,5.894,0,0,1-2.947.756Zm2.578-10.422v8.352h1.247a2.8,2.8,0,0,0,2.31-.989,4.465,4.465,0,0,0,.818-2.826v-.663a4.539,4.539,0,0,0-.791-2.891,2.793,2.793,0,0,0-2.312-.983Z"/>
          <path id="Path_192993" data-name="Path 192993" d="M732.456,419.13a4.558,4.558,0,0,1-3.329-1.255,4.453,4.453,0,0,1-1.285-3.341v-.241a5.618,5.618,0,0,1,.541-2.505,3.971,3.971,0,0,1,1.535-1.7,4.3,4.3,0,0,1,2.263-.6,3.857,3.857,0,0,1,3,1.2,4.883,4.883,0,0,1,1.1,3.412v1.014h-5.921a2.3,2.3,0,0,0,.728,1.461,2.188,2.188,0,0,0,1.533.55,2.681,2.681,0,0,0,2.242-1.041l1.22,1.367a3.723,3.723,0,0,1-1.513,1.232,4.942,4.942,0,0,1-2.113.443m-.283-7.638a1.548,1.548,0,0,0-1.2.5,2.584,2.584,0,0,0-.588,1.432h3.454v-.2a1.841,1.841,0,0,0-.447-1.281,1.6,1.6,0,0,0-1.22-.453"/>
          <path id="Path_192994" data-name="Path 192994" d="M742.725,416.39a.8.8,0,0,0-.453-.718,5.132,5.132,0,0,0-1.447-.468q-3.316-.7-3.317-2.818a2.556,2.556,0,0,1,1.028-2.068,4.141,4.141,0,0,1,2.684-.829,4.46,4.46,0,0,1,2.832.835,2.627,2.627,0,0,1,1.062,2.165h-2.485a1.206,1.206,0,0,0-.343-.882,1.456,1.456,0,0,0-1.073-.348,1.488,1.488,0,0,0-.972.285.894.894,0,0,0-.344.721.762.762,0,0,0,.391.665,3.966,3.966,0,0,0,1.32.439,10.977,10.977,0,0,1,1.564.416,2.571,2.571,0,0,1,1.967,2.5,2.419,2.419,0,0,1-1.091,2.056,4.693,4.693,0,0,1-2.818.787,4.933,4.933,0,0,1-2.076-.416,3.461,3.461,0,0,1-1.422-1.144,2.65,2.65,0,0,1-.516-1.568h2.354a1.3,1.3,0,0,0,.491,1.014,1.944,1.944,0,0,0,1.22.354,1.792,1.792,0,0,0,1.077-.272.839.839,0,0,0,.367-.708"/>
          <path id="Path_192995" data-name="Path 192995" d="M750.6,417.129a1.629,1.629,0,0,0,1.117-.378,1.327,1.327,0,0,0,.447-1.006H754.5a3.185,3.185,0,0,1-.515,1.732,3.416,3.416,0,0,1-1.388,1.22,4.363,4.363,0,0,1-1.946.433,4.034,4.034,0,0,1-3.145-1.268,5.007,5.007,0,0,1-1.152-3.5V414.2a4.962,4.962,0,0,1,1.142-3.428,4,4,0,0,1,3.138-1.281,3.907,3.907,0,0,1,2.8.993,3.515,3.515,0,0,1,1.069,2.643h-2.329a1.708,1.708,0,0,0-.447-1.18,1.661,1.661,0,0,0-2.444.179,3.659,3.659,0,0,0-.443,2.053v.258a3.718,3.718,0,0,0,.439,2.066,1.514,1.514,0,0,0,1.331.628"/>
          <path id="Path_192996" data-name="Path 192996" d="M760.194,419.13a4.559,4.559,0,0,1-3.329-1.255,4.453,4.453,0,0,1-1.285-3.341v-.241a5.618,5.618,0,0,1,.541-2.505,3.972,3.972,0,0,1,1.535-1.7,4.3,4.3,0,0,1,2.263-.6,3.857,3.857,0,0,1,3,1.2,4.883,4.883,0,0,1,1.1,3.412v1.014H758.1a2.308,2.308,0,0,0,.727,1.461,2.192,2.192,0,0,0,1.534.55,2.682,2.682,0,0,0,2.242-1.041l1.22,1.367a3.723,3.723,0,0,1-1.513,1.232,4.942,4.942,0,0,1-2.113.443m-.283-7.638a1.549,1.549,0,0,0-1.2.5,2.584,2.584,0,0,0-.588,1.432h3.454v-.2a1.841,1.841,0,0,0-.447-1.281,1.6,1.6,0,0,0-1.22-.453"/>
          <path id="Path_192997" data-name="Path 192997" d="M767.713,409.661l.076,1.075a3.25,3.25,0,0,1,2.674-1.247,2.7,2.7,0,0,1,2.2.869,4.043,4.043,0,0,1,.739,2.6v6.005h-2.484V413a1.614,1.614,0,0,0-.344-1.15,1.534,1.534,0,0,0-1.141-.357,1.709,1.709,0,0,0-1.574.9v6.57h-2.482v-9.3Z"/>
          <path id="Path_192998" data-name="Path 192998" d="M778.253,407.375v2.286h1.592v1.821h-1.592v4.64a1.117,1.117,0,0,0,.2.739,1,1,0,0,0,.756.224,3.945,3.945,0,0,0,.729-.059v1.881a5.114,5.114,0,0,1-1.5.223,2.371,2.371,0,0,1-2.665-2.637v-5.011h-1.356v-1.821h1.356v-2.286Z"/>
          <path id="Path_192999" data-name="Path 192999" d="M786.453,411.99a6.775,6.775,0,0,0-.894-.069,1.818,1.818,0,0,0-1.848.953v6.084h-2.482v-9.3h2.344l.069,1.11a2.3,2.3,0,0,1,2.07-1.281,2.625,2.625,0,0,1,.775.112Z"/>
          <path id="Path_193000" data-name="Path 193000" d="M792.777,418.958a2.776,2.776,0,0,1-.25-.832,3,3,0,0,1-2.345,1,3.305,3.305,0,0,1-2.265-.79,2.546,2.546,0,0,1-.9-1.994,2.626,2.626,0,0,1,1.1-2.269,5.4,5.4,0,0,1,3.166-.8h1.141v-.532a1.526,1.526,0,0,0-.33-1.032,1.3,1.3,0,0,0-1.044-.387,1.478,1.478,0,0,0-.984.3,1.022,1.022,0,0,0-.357.824h-2.482a2.5,2.5,0,0,1,.5-1.495,3.307,3.307,0,0,1,1.409-1.079,5.167,5.167,0,0,1,2.045-.391,4.065,4.065,0,0,1,2.729.863,3.029,3.029,0,0,1,1.01,2.429v4.029a4.42,4.42,0,0,0,.369,2v.145Zm-2.053-1.726a2.127,2.127,0,0,0,1.012-.246,1.6,1.6,0,0,0,.687-.657v-1.6h-.928q-1.864,0-1.984,1.288l-.009.147a.988.988,0,0,0,.328.764,1.265,1.265,0,0,0,.894.3"/>
          <rect id="Rectangle_41502" data-name="Rectangle 41502" width="2.492" height="13.199" transform="translate(796.953 405.759)"/>
          <path id="Path_193001" data-name="Path 193001" d="M801.471,407.255a1.226,1.226,0,0,1,.374-.919,1.61,1.61,0,0,1,2.032,0,1.312,1.312,0,0,1,0,1.847,1.591,1.591,0,0,1-2.018,0,1.217,1.217,0,0,1-.384-.928m2.639,11.7h-2.492v-9.3h2.492Z"/>
          <path id="Path_193002" data-name="Path 193002" d="M809.01,416.957h4.545v2h-7.717v-1.512l4.375-5.782h-4.247v-2h7.451v1.462Z"/>
          <path id="Path_193003" data-name="Path 193003" d="M820.5,418.958a2.8,2.8,0,0,1-.25-.832,3,3,0,0,1-2.345,1,3.3,3.3,0,0,1-2.264-.79,2.544,2.544,0,0,1-.9-1.994,2.626,2.626,0,0,1,1.1-2.269,5.4,5.4,0,0,1,3.167-.8h1.14v-.532a1.527,1.527,0,0,0-.33-1.032,1.3,1.3,0,0,0-1.044-.387,1.478,1.478,0,0,0-.984.3,1.022,1.022,0,0,0-.357.824h-2.482a2.492,2.492,0,0,1,.5-1.495,3.3,3.3,0,0,1,1.409-1.079,5.162,5.162,0,0,1,2.044-.391,4.069,4.069,0,0,1,2.73.863,3.032,3.032,0,0,1,1.01,2.429v4.029a4.422,4.422,0,0,0,.368,2v.145Zm-2.052-1.726a2.123,2.123,0,0,0,1.011-.246,1.6,1.6,0,0,0,.687-.657v-1.6h-.927c-1.244,0-1.9.429-1.984,1.288l-.01.147a.988.988,0,0,0,.328.764,1.266,1.266,0,0,0,.9.3"/>
          <path id="Path_193004" data-name="Path 193004" d="M824.158,414.241a5.6,5.6,0,0,1,.976-3.464,3.162,3.162,0,0,1,2.667-1.288,2.853,2.853,0,0,1,2.244,1.014v-4.744h2.49v13.2h-2.242l-.12-.987a2.923,2.923,0,0,1-2.389,1.159,3.15,3.15,0,0,1-2.633-1.293,5.771,5.771,0,0,1-.993-3.6m2.484.176a3.707,3.707,0,0,0,.454,2.013,1.484,1.484,0,0,0,1.324.7,1.664,1.664,0,0,0,1.625-.976v-3.686a1.638,1.638,0,0,0-1.608-.975q-1.8,0-1.795,2.925"/>
          <path id="Path_193005" data-name="Path 193005" d="M839.848,418.958a2.772,2.772,0,0,1-.25-.832,3,3,0,0,1-2.345,1,3.305,3.305,0,0,1-2.265-.79,2.546,2.546,0,0,1-.9-1.994,2.626,2.626,0,0,1,1.1-2.269,5.4,5.4,0,0,1,3.166-.8h1.141v-.532a1.527,1.527,0,0,0-.33-1.032,1.3,1.3,0,0,0-1.044-.387,1.478,1.478,0,0,0-.984.3,1.022,1.022,0,0,0-.357.824H834.3a2.5,2.5,0,0,1,.5-1.495,3.307,3.307,0,0,1,1.409-1.079,5.168,5.168,0,0,1,2.045-.391,4.065,4.065,0,0,1,2.729.863,3.029,3.029,0,0,1,1.01,2.429v4.029a4.421,4.421,0,0,0,.369,2v.145Zm-2.053-1.726a2.127,2.127,0,0,0,1.012-.246,1.607,1.607,0,0,0,.687-.657v-1.6h-.928q-1.864,0-1.984,1.288l-.009.147a.988.988,0,0,0,.328.764,1.265,1.265,0,0,0,.894.3"/>
          <path id="Path_193006" data-name="Path 193006" d="M331.389,416.38h-4.52l-.859,2.578h-2.741l4.657-12.511h2.389L335,418.958h-2.741Zm-3.824-2.087h3.128l-1.573-4.684Z"/>
          <path id="Path_193007" data-name="Path 193007" d="M341.228,411.99a6.725,6.725,0,0,0-.894-.069,1.818,1.818,0,0,0-1.847.953v6.084H336v-9.3h2.345l.069,1.11a2.3,2.3,0,0,1,2.071-1.281,2.612,2.612,0,0,1,.773.112Z"/>
          <path id="Path_193008" data-name="Path 193008" d="M346.126,417.129a1.629,1.629,0,0,0,1.117-.378,1.33,1.33,0,0,0,.447-1.006h2.329a3.2,3.2,0,0,1-.516,1.732,3.41,3.41,0,0,1-1.388,1.22,4.359,4.359,0,0,1-1.946.433,4.034,4.034,0,0,1-3.145-1.268,5.007,5.007,0,0,1-1.151-3.5V414.2a4.962,4.962,0,0,1,1.142-3.428,3.993,3.993,0,0,1,3.137-1.281,3.907,3.907,0,0,1,2.8.993,3.519,3.519,0,0,1,1.07,2.643H347.69a1.712,1.712,0,0,0-.447-1.18,1.662,1.662,0,0,0-2.445.179,3.668,3.668,0,0,0-.442,2.053v.258a3.719,3.719,0,0,0,.438,2.066,1.516,1.516,0,0,0,1.332.628"/>
          <path id="Path_193009" data-name="Path 193009" d="M353.859,410.675a3.1,3.1,0,0,1,2.483-1.186q3.025,0,3.068,3.516v5.953h-2.483v-5.9a1.739,1.739,0,0,0-.344-1.186,1.477,1.477,0,0,0-1.143-.382,1.69,1.69,0,0,0-1.581.844v6.622h-2.483v-13.2h2.483Z"/>
          <path id="Path_193010" data-name="Path 193010" d="M361.266,407.255a1.225,1.225,0,0,1,.373-.919,1.612,1.612,0,0,1,2.033,0,1.311,1.311,0,0,1-.005,1.847,1.591,1.591,0,0,1-2.018,0,1.217,1.217,0,0,1-.383-.928m2.638,11.7h-2.492v-9.3H363.9Z"/>
          <path id="Path_193011" data-name="Path 193011" d="M369.429,415.926l1.727-6.265h2.6l-3.136,9.3h-2.372l-3.136-9.3h2.6Z"/>
          <path id="Path_193012" data-name="Path 193012" d="M374.327,414.224a5.521,5.521,0,0,1,.532-2.467,3.9,3.9,0,0,1,1.534-1.674,4.468,4.468,0,0,1,2.325-.594,4.234,4.234,0,0,1,3.071,1.151,4.631,4.631,0,0,1,1.329,3.128l.015.636a4.859,4.859,0,0,1-1.193,3.433,4.629,4.629,0,0,1-6.414,0,4.941,4.941,0,0,1-1.2-3.506Zm2.483.176a3.471,3.471,0,0,0,.5,2.026,1.789,1.789,0,0,0,2.836.01,3.81,3.81,0,0,0,.507-2.217,3.438,3.438,0,0,0-.507-2.013,1.645,1.645,0,0,0-1.426-.714,1.623,1.623,0,0,0-1.41.71,3.862,3.862,0,0,0-.5,2.2"/>
          <path id="Path_193013" data-name="Path 193013" d="M397.414,414.4a5.58,5.58,0,0,1-.973,3.441,3.131,3.131,0,0,1-2.636,1.293,2.9,2.9,0,0,1-2.276-.98v4.382h-2.482V409.66h2.3l.084.911a2.923,2.923,0,0,1,2.356-1.082,3.151,3.151,0,0,1,2.672,1.271,5.735,5.735,0,0,1,.952,3.506Zm-2.482-.189a3.676,3.676,0,0,0-.46-2.009,1.494,1.494,0,0,0-1.335-.706,1.625,1.625,0,0,0-1.608.895v3.819a1.652,1.652,0,0,0,1.623.923q1.782,0,1.78-2.922"/>
          <path id="Path_193014" data-name="Path 193014" d="M403.232,419.13a4.559,4.559,0,0,1-3.329-1.255,4.453,4.453,0,0,1-1.285-3.341v-.241a5.591,5.591,0,0,1,.543-2.505,3.961,3.961,0,0,1,1.533-1.7,4.3,4.3,0,0,1,2.263-.6,3.857,3.857,0,0,1,3,1.2,4.883,4.883,0,0,1,1.1,3.412v1.014h-5.921a2.308,2.308,0,0,0,.727,1.461,2.192,2.192,0,0,0,1.534.55,2.682,2.682,0,0,0,2.242-1.041l1.222,1.367a3.75,3.75,0,0,1-1.513,1.232,4.951,4.951,0,0,1-2.115.443m-.283-7.638a1.551,1.551,0,0,0-1.2.5,2.6,2.6,0,0,0-.588,1.432h3.454v-.2a1.841,1.841,0,0,0-.447-1.281,1.6,1.6,0,0,0-1.22-.453"/>
          <path id="Path_193015" data-name="Path 193015" d="M413.691,411.99a6.775,6.775,0,0,0-.894-.069,1.818,1.818,0,0,0-1.848.953v6.084h-2.482v-9.3h2.344l.069,1.11a2.3,2.3,0,0,1,2.07-1.281,2.625,2.625,0,0,1,.775.112Z"/>
          <path id="Path_193016" data-name="Path 193016" d="M419,419.13a4.559,4.559,0,0,1-3.329-1.255,4.453,4.453,0,0,1-1.285-3.341v-.241a5.591,5.591,0,0,1,.543-2.505,3.961,3.961,0,0,1,1.533-1.7,4.3,4.3,0,0,1,2.263-.6,3.855,3.855,0,0,1,3,1.2,4.883,4.883,0,0,1,1.1,3.412v1.014H416.9a2.308,2.308,0,0,0,.727,1.461,2.192,2.192,0,0,0,1.534.55,2.68,2.68,0,0,0,2.241-1.041l1.222,1.367a3.75,3.75,0,0,1-1.513,1.232,4.947,4.947,0,0,1-2.114.443m-.283-7.638a1.551,1.551,0,0,0-1.2.5,2.6,2.6,0,0,0-.588,1.432h3.453v-.2a1.841,1.841,0,0,0-.446-1.281,1.6,1.6,0,0,0-1.22-.453"/>
          <path id="Path_193017" data-name="Path 193017" d="M426.521,409.661l.077,1.075a3.249,3.249,0,0,1,2.673-1.247,2.7,2.7,0,0,1,2.2.869,4.049,4.049,0,0,1,.741,2.6v6.005h-2.483V413a1.623,1.623,0,0,0-.344-1.15,1.537,1.537,0,0,0-1.143-.357,1.706,1.706,0,0,0-1.573.9v6.57h-2.483v-9.3Z"/>
          <path id="Path_193018" data-name="Path 193018" d="M436.377,409.661l.078,1.075a3.249,3.249,0,0,1,2.672-1.247,2.7,2.7,0,0,1,2.2.869,4.055,4.055,0,0,1,.741,2.6v6.005h-2.484V413a1.619,1.619,0,0,0-.344-1.15,1.536,1.536,0,0,0-1.143-.357,1.705,1.705,0,0,0-1.572.9v6.57H434.04v-9.3Z"/>
          <path id="Path_193019" data-name="Path 193019" d="M448.228,419.13a4.559,4.559,0,0,1-3.329-1.255,4.453,4.453,0,0,1-1.285-3.341v-.241a5.591,5.591,0,0,1,.543-2.505,3.961,3.961,0,0,1,1.533-1.7,4.3,4.3,0,0,1,2.263-.6,3.857,3.857,0,0,1,3,1.2,4.883,4.883,0,0,1,1.1,3.412v1.014h-5.921a2.308,2.308,0,0,0,.727,1.461,2.192,2.192,0,0,0,1.534.55,2.682,2.682,0,0,0,2.242-1.041l1.222,1.367a3.75,3.75,0,0,1-1.513,1.232,4.951,4.951,0,0,1-2.115.443m-.283-7.638a1.551,1.551,0,0,0-1.2.5,2.6,2.6,0,0,0-.588,1.432h3.454v-.2a1.841,1.841,0,0,0-.447-1.281,1.6,1.6,0,0,0-1.22-.453"/>
          <path id="Path_193020" data-name="Path 193020" d="M333.663,435.341a5.521,5.521,0,0,1,.531-2.467,3.9,3.9,0,0,1,1.534-1.674,4.473,4.473,0,0,1,2.325-.594,4.234,4.234,0,0,1,3.071,1.151,4.621,4.621,0,0,1,1.328,3.128l.017.636a4.855,4.855,0,0,1-1.194,3.433,4.629,4.629,0,0,1-6.414,0,4.941,4.941,0,0,1-1.2-3.506Zm2.483.176a3.471,3.471,0,0,0,.5,2.026,1.789,1.789,0,0,0,2.836.01,3.8,3.8,0,0,0,.507-2.217,3.431,3.431,0,0,0-.507-2.013,1.644,1.644,0,0,0-1.426-.714,1.624,1.624,0,0,0-1.41.71,3.863,3.863,0,0,0-.5,2.2"/>
          <path id="Path_193021" data-name="Path 193021" d="M356.751,435.514a5.58,5.58,0,0,1-.974,3.441,3.129,3.129,0,0,1-2.635,1.293,2.9,2.9,0,0,1-2.277-.98v4.382h-2.483V430.778h2.3l.086.911a2.919,2.919,0,0,1,2.354-1.082,3.151,3.151,0,0,1,2.673,1.271,5.734,5.734,0,0,1,.953,3.506Zm-2.483-.189a3.685,3.685,0,0,0-.46-2.009,1.5,1.5,0,0,0-1.336-.706,1.625,1.625,0,0,0-1.607.9v3.819a1.654,1.654,0,0,0,1.624.923q1.779,0,1.779-2.922"/>
          <path id="Path_193022" data-name="Path 193022" d="M362.569,440.247a4.561,4.561,0,0,1-3.33-1.255,4.453,4.453,0,0,1-1.285-3.341v-.241a5.618,5.618,0,0,1,.542-2.505,3.969,3.969,0,0,1,1.534-1.7,4.3,4.3,0,0,1,2.264-.6,3.855,3.855,0,0,1,3,1.2,4.883,4.883,0,0,1,1.1,3.412v1.014h-5.92a2.307,2.307,0,0,0,.726,1.461,2.192,2.192,0,0,0,1.534.55,2.684,2.684,0,0,0,2.243-1.041l1.22,1.367a3.723,3.723,0,0,1-1.513,1.232,4.942,4.942,0,0,1-2.113.443m-.284-7.638a1.55,1.55,0,0,0-1.2.5,2.592,2.592,0,0,0-.588,1.432h3.454v-.2a1.841,1.841,0,0,0-.447-1.281,1.6,1.6,0,0,0-1.22-.453"/>
          <path id="Path_193023" data-name="Path 193023" d="M373.026,433.108a6.726,6.726,0,0,0-.894-.069,1.818,1.818,0,0,0-1.847.953v6.084H367.8v-9.3h2.345l.069,1.11a2.3,2.3,0,0,1,2.071-1.281,2.612,2.612,0,0,1,.773.112Z"/>
          <path id="Path_193024" data-name="Path 193024" d="M376.549,430.778l.077,1.041a3.269,3.269,0,0,1,2.673-1.213,2.481,2.481,0,0,1,2.466,1.419,3.193,3.193,0,0,1,2.793-1.419,2.773,2.773,0,0,1,2.25.88,4.062,4.062,0,0,1,.741,2.653v5.936h-2.494v-5.942a1.779,1.779,0,0,0-.309-1.159,1.374,1.374,0,0,0-1.093-.365,1.547,1.547,0,0,0-1.544,1.068l.008,6.4h-2.483v-5.932a1.758,1.758,0,0,0-.318-1.173,1.387,1.387,0,0,0-1.083-.361,1.607,1.607,0,0,0-1.529.879v6.587H374.22v-9.3Z"/>
          <path id="Path_193025" data-name="Path 193025" d="M394.843,440.075a2.775,2.775,0,0,1-.25-.832,3,3,0,0,1-2.345,1,3.305,3.305,0,0,1-2.265-.79,2.546,2.546,0,0,1-.9-1.994,2.626,2.626,0,0,1,1.1-2.269,5.4,5.4,0,0,1,3.166-.8h1.141v-.532a1.526,1.526,0,0,0-.33-1.032,1.3,1.3,0,0,0-1.044-.387,1.478,1.478,0,0,0-.984.3,1.022,1.022,0,0,0-.357.824h-2.482a2.5,2.5,0,0,1,.5-1.5A3.307,3.307,0,0,1,391.2,431a5.167,5.167,0,0,1,2.045-.391,4.064,4.064,0,0,1,2.729.863,3.029,3.029,0,0,1,1.01,2.429v4.029a4.42,4.42,0,0,0,.369,2v.145Zm-2.053-1.726a2.127,2.127,0,0,0,1.012-.246,1.6,1.6,0,0,0,.687-.657v-1.6h-.928q-1.865,0-1.984,1.288l-.009.147a.988.988,0,0,0,.328.764,1.265,1.265,0,0,0,.894.3"/>
          <path id="Path_193026" data-name="Path 193026" d="M401.175,430.778l.078,1.075a3.249,3.249,0,0,1,2.672-1.247,2.7,2.7,0,0,1,2.2.869,4.055,4.055,0,0,1,.741,2.6v6.005h-2.484v-5.959a1.618,1.618,0,0,0-.344-1.15,1.536,1.536,0,0,0-1.143-.357,1.705,1.705,0,0,0-1.572.9v6.57h-2.484v-9.3Z"/>
          <path id="Path_193027" data-name="Path 193027" d="M413.025,440.247a4.559,4.559,0,0,1-3.329-1.255,4.453,4.453,0,0,1-1.285-3.341v-.241a5.591,5.591,0,0,1,.543-2.505,3.961,3.961,0,0,1,1.533-1.7,4.3,4.3,0,0,1,2.263-.6,3.857,3.857,0,0,1,3,1.2,4.883,4.883,0,0,1,1.1,3.412v1.014h-5.921a2.3,2.3,0,0,0,.728,1.461,2.188,2.188,0,0,0,1.533.55,2.681,2.681,0,0,0,2.242-1.041l1.222,1.367a3.75,3.75,0,0,1-1.513,1.232,4.951,4.951,0,0,1-2.115.443m-.283-7.638a1.551,1.551,0,0,0-1.2.5,2.6,2.6,0,0,0-.588,1.432h3.454v-.2a1.841,1.841,0,0,0-.447-1.281,1.6,1.6,0,0,0-1.22-.453"/>
          <path id="Path_193028" data-name="Path 193028" d="M420.544,430.778l.078,1.075a3.249,3.249,0,0,1,2.672-1.247,2.7,2.7,0,0,1,2.2.869,4.055,4.055,0,0,1,.741,2.6v6.005H423.75v-5.959a1.618,1.618,0,0,0-.344-1.15,1.536,1.536,0,0,0-1.143-.357,1.705,1.705,0,0,0-1.572.9v6.57h-2.483v-9.3Z"/>
          <path id="Path_193029" data-name="Path 193029" d="M431.088,428.492v2.286h1.591V432.6h-1.591v4.64a1.106,1.106,0,0,0,.2.739.99.99,0,0,0,.756.224,3.96,3.96,0,0,0,.729-.059v1.881a5.136,5.136,0,0,1-1.5.223,2.37,2.37,0,0,1-2.663-2.637V432.6h-1.358v-1.821h1.358v-2.286Z"/>
          <path id="Path_193030" data-name="Path 193030" d="M438.341,440.247a4.559,4.559,0,0,1-3.329-1.255,4.453,4.453,0,0,1-1.285-3.341v-.241a5.592,5.592,0,0,1,.543-2.505,3.961,3.961,0,0,1,1.533-1.7,4.3,4.3,0,0,1,2.263-.6,3.857,3.857,0,0,1,3,1.2,4.883,4.883,0,0,1,1.1,3.412v1.014h-5.921a2.308,2.308,0,0,0,.727,1.461,2.192,2.192,0,0,0,1.534.55,2.681,2.681,0,0,0,2.242-1.041l1.222,1.367a3.749,3.749,0,0,1-1.513,1.232,4.951,4.951,0,0,1-2.115.443m-.283-7.638a1.551,1.551,0,0,0-1.2.5,2.6,2.6,0,0,0-.588,1.432h3.454v-.2a1.841,1.841,0,0,0-.447-1.281,1.6,1.6,0,0,0-1.22-.453"/>
          <path id="Path_193031" data-name="Path 193031" d="M169.378,184.056a1.34,1.34,0,0,0-.516-1.13,6.187,6.187,0,0,0-1.859-.8,8.98,8.98,0,0,1-2.139-.9,2.855,2.855,0,0,1-1.52-2.49,2.713,2.713,0,0,1,1.1-2.215,4.437,4.437,0,0,1,2.845-.87,4.808,4.808,0,0,1,2.07.427,3.4,3.4,0,0,1,1.428,1.219,3.118,3.118,0,0,1,.52,1.752h-1.925a1.719,1.719,0,0,0-.546-1.351,2.265,2.265,0,0,0-1.562-.489,2.358,2.358,0,0,0-1.47.4,1.34,1.34,0,0,0-.524,1.125,1.211,1.211,0,0,0,.566,1.016,6.548,6.548,0,0,0,1.863.792,8.495,8.495,0,0,1,2.085.876,3.334,3.334,0,0,1,1.154,1.13,2.951,2.951,0,0,1,.366,1.494,2.646,2.646,0,0,1-1.065,2.211,4.623,4.623,0,0,1-2.891.821,5.431,5.431,0,0,1-2.219-.447,3.726,3.726,0,0,1-1.573-1.233A3.072,3.072,0,0,1,163,183.56h1.933a1.8,1.8,0,0,0,.626,1.466,2.738,2.738,0,0,0,1.795.519,2.386,2.386,0,0,0,1.516-.408,1.317,1.317,0,0,0,.508-1.081"/>
          <path id="Path_193032" data-name="Path 193032" d="M176.465,187.072a3.839,3.839,0,0,1-2.86-1.111,4.037,4.037,0,0,1-1.1-2.96v-.229a4.974,4.974,0,0,1,.476-2.211,3.639,3.639,0,0,1,1.341-1.516,3.545,3.545,0,0,1,1.926-.542,3.244,3.244,0,0,1,2.608,1.077,4.55,4.55,0,0,1,.92,3.047v.749h-5.4a2.5,2.5,0,0,0,.684,1.619,2.052,2.052,0,0,0,1.508.6,2.515,2.515,0,0,0,2.078-1.031l1,.954a3.351,3.351,0,0,1-1.326,1.15,4.156,4.156,0,0,1-1.861.408m-.22-7.08a1.569,1.569,0,0,0-1.235.535,2.779,2.779,0,0,0-.6,1.489h3.536v-.137a2.253,2.253,0,0,0-.5-1.41,1.549,1.549,0,0,0-1.206-.477"/>
          <path id="Path_193033" data-name="Path 193033" d="M180.9,182.727a4.832,4.832,0,0,1,.9-3.075,2.907,2.907,0,0,1,2.4-1.149,2.72,2.72,0,0,1,2.222.985l.084-.832h1.672v8.012a3.328,3.328,0,0,1-1.011,2.566,3.855,3.855,0,0,1-2.73.94,4.392,4.392,0,0,1-1.776-.378,3.166,3.166,0,0,1-1.319-.99l.879-1.115a2.653,2.653,0,0,0,2.108,1.016,2.052,2.052,0,0,0,1.459-.5,1.918,1.918,0,0,0,.534-1.47v-.558a2.73,2.73,0,0,1-2.138.894,2.9,2.9,0,0,1-2.372-1.154,4.985,4.985,0,0,1-.92-3.192m1.849.16a3.316,3.316,0,0,0,.508,1.959,1.629,1.629,0,0,0,1.408.714,1.785,1.785,0,0,0,1.665-.962v-3.636a1.759,1.759,0,0,0-1.65-.939,1.636,1.636,0,0,0-1.423.725,3.716,3.716,0,0,0-.508,2.139"/>
          <path id="Path_193034" data-name="Path 193034" d="M195.1,186.11a2.878,2.878,0,0,1-2.322.963,2.567,2.567,0,0,1-2.036-.787,3.344,3.344,0,0,1-.691-2.276v-5.354H191.9v5.331q0,1.573,1.306,1.573a1.835,1.835,0,0,0,1.826-.97v-5.934h1.856v8.264h-1.749Zm-1.062-10.922h2.116l-2.116,2.314-1.489,0Z"/>
          <path id="Path_193035" data-name="Path 193035" d="M200.5,178.656l.053.955a2.976,2.976,0,0,1,2.406-1.108q2.583,0,2.628,2.956v5.461h-1.856v-5.354a1.706,1.706,0,0,0-.34-1.165,1.429,1.429,0,0,0-1.111-.378,1.789,1.789,0,0,0-1.673,1.016v5.881h-1.856v-8.264Z"/>
          <rect id="Rectangle_41503" data-name="Rectangle 41503" width="1.856" height="11.732" transform="translate(211.494 175.188)"/>
          <path id="Path_193036" data-name="Path 193036" d="M220.308,186.92a2.9,2.9,0,0,1-.213-.772,3.123,3.123,0,0,1-4.2.214,2.27,2.27,0,0,1-.787-1.757,2.347,2.347,0,0,1,.981-2.028,4.763,4.763,0,0,1,2.807-.706h1.138v-.542a1.446,1.446,0,0,0-.359-1.028,1.422,1.422,0,0,0-1.092-.385,1.639,1.639,0,0,0-1.039.317.979.979,0,0,0-.4.8h-1.856a2.053,2.053,0,0,1,.45-1.271,3.008,3.008,0,0,1,1.226-.928,4.289,4.289,0,0,1,1.73-.336,3.468,3.468,0,0,1,2.314.729,2.6,2.6,0,0,1,.886,2.051v3.727a4.2,4.2,0,0,0,.314,1.78v.13Zm-2.039-1.337a2.114,2.114,0,0,0,1.035-.267,1.789,1.789,0,0,0,.729-.718V183.04h-1a2.733,2.733,0,0,0-1.551.359,1.161,1.161,0,0,0-.519,1.015,1.083,1.083,0,0,0,.355.852,1.378,1.378,0,0,0,.951.317"/>
          <path id="Path_193037" data-name="Path 193037" d="M228.382,186.92v-6.889h-1.26v-1.375h1.26V177.9a2.835,2.835,0,0,1,.764-2.123,2.926,2.926,0,0,1,2.138-.748,4.262,4.262,0,0,1,1.039.137l-.046,1.451a3.641,3.641,0,0,0-.71-.061,1.192,1.192,0,0,0-1.329,1.367v.734h1.68v1.375h-1.68v6.889Z"/>
          <path id="Path_193038" data-name="Path 193038" d="M238.281,186.11a2.878,2.878,0,0,1-2.323.962,2.566,2.566,0,0,1-2.035-.786,3.346,3.346,0,0,1-.692-2.276v-5.355h1.856v5.332q0,1.573,1.306,1.573a1.834,1.834,0,0,0,1.826-.97v-5.935h1.857v8.265h-1.75Z"/>
          <path id="Path_193039" data-name="Path 193039" d="M243.688,178.656l.053.955a2.974,2.974,0,0,1,2.406-1.108q2.581,0,2.628,2.956v5.461h-1.856v-5.354a1.7,1.7,0,0,0-.34-1.165,1.432,1.432,0,0,0-1.111-.378,1.789,1.789,0,0,0-1.673,1.016v5.881h-1.856v-8.264Z"/>
          <path id="Path_193040" data-name="Path 193040" d="M254.061,185.591a1.675,1.675,0,0,0,1.153-.4,1.383,1.383,0,0,0,.489-1h1.749a2.732,2.732,0,0,1-.481,1.439,3.146,3.146,0,0,1-1.222,1.058,3.636,3.636,0,0,1-1.665.39,3.525,3.525,0,0,1-2.75-1.123,4.452,4.452,0,0,1-1.016-3.1v-.191a4.377,4.377,0,0,1,1.009-3.021,3.49,3.49,0,0,1,2.749-1.134,3.391,3.391,0,0,1,2.4.859,3.075,3.075,0,0,1,.974,2.257H255.7a1.7,1.7,0,0,0-.485-1.168,1.56,1.56,0,0,0-1.157-.459,1.634,1.634,0,0,0-1.39.653,3.332,3.332,0,0,0-.5,1.982v.3a3.4,3.4,0,0,0,.485,2,1.634,1.634,0,0,0,1.4.661"/>
          <path id="Path_193041" data-name="Path 193041" d="M258.857,176.5a.992.992,0,0,1,.272-.716,1.023,1.023,0,0,1,.775-.285,1.036,1.036,0,0,1,.779.285.99.99,0,0,1,.275.716.967.967,0,0,1-.275.7,1.041,1.041,0,0,1-.779.281,1.029,1.029,0,0,1-.775-.281.968.968,0,0,1-.272-.7m1.971,10.418h-1.856v-8.264h1.856Z"/>
          <path id="Path_193042" data-name="Path 193042" d="M262.5,182.711a4.87,4.87,0,0,1,.481-2.188,3.521,3.521,0,0,1,1.352-1.5,3.816,3.816,0,0,1,2-.523,3.611,3.611,0,0,1,2.716,1.077,4.23,4.23,0,0,1,1.126,2.856l.008.436a4.917,4.917,0,0,1-.47,2.184,3.48,3.48,0,0,1-1.344,1.49,3.841,3.841,0,0,1-2.02.527,3.588,3.588,0,0,1-2.8-1.165,4.455,4.455,0,0,1-1.05-3.105Zm1.856.161a3.33,3.33,0,0,0,.527,2,1.714,1.714,0,0,0,1.467.722,1.693,1.693,0,0,0,1.462-.733,3.67,3.67,0,0,0,.523-2.147,3.283,3.283,0,0,0-.538-1.985,1.814,1.814,0,0,0-2.906-.012,3.6,3.6,0,0,0-.535,2.158m2.49-7.684h2.116l-2.116,2.314-1.489,0Z"/>
          <path id="Path_193043" data-name="Path 193043" d="M273.477,178.656l.052.955a2.976,2.976,0,0,1,2.406-1.108q2.582,0,2.628,2.956v5.461h-1.856v-5.354a1.7,1.7,0,0,0-.34-1.165,1.429,1.429,0,0,0-1.11-.378,1.791,1.791,0,0,0-1.674,1.016v5.881h-1.856v-8.264Z"/>
          <path id="Path_193044" data-name="Path 193044" d="M206.22,203.033l1.68-5.606h1.979l-3.285,9.517a2.669,2.669,0,0,1-2.566,2.085,3.281,3.281,0,0,1-.894-.139v-1.442l.352.023a1.8,1.8,0,0,0,1.057-.256,1.7,1.7,0,0,0,.562-.858l.267-.71-2.9-8.22h2Z"/>
          <path id="Path_193045" data-name="Path 193045" d="M219.846,204.882a2.877,2.877,0,0,1-2.322.962,2.566,2.566,0,0,1-2.035-.786,3.341,3.341,0,0,1-.692-2.276v-5.355h1.856v5.332q0,1.573,1.306,1.573a1.836,1.836,0,0,0,1.826-.97v-5.935h1.856v8.265h-1.749Z"/>
          <path id="Path_193046" data-name="Path 193046" d="M228.164,203.446a.84.84,0,0,0-.409-.756,4.334,4.334,0,0,0-1.355-.458,6.961,6.961,0,0,1-1.581-.5,2.109,2.109,0,0,1-1.391-1.947,2.2,2.2,0,0,1,.9-1.788,3.567,3.567,0,0,1,2.291-.718,3.711,3.711,0,0,1,2.4.734,2.325,2.325,0,0,1,.912,1.9h-1.856a1.14,1.14,0,0,0-.4-.89,1.523,1.523,0,0,0-1.054-.355,1.651,1.651,0,0,0-1,.282.889.889,0,0,0-.385.756.753.753,0,0,0,.359.665,4.938,4.938,0,0,0,1.451.477,6.934,6.934,0,0,1,1.715.573,2.443,2.443,0,0,1,.924.8,2.047,2.047,0,0,1,.3,1.131,2.151,2.151,0,0,1-.924,1.806,3.937,3.937,0,0,1-2.421.691,4.274,4.274,0,0,1-1.81-.366,2.993,2.993,0,0,1-1.238-1.009,2.378,2.378,0,0,1-.443-1.382h1.8a1.308,1.308,0,0,0,.5,1.012,1.931,1.931,0,0,0,1.215.355,1.866,1.866,0,0,0,1.115-.279.863.863,0,0,0,.382-.729"/>
          <path id="Path_193047" data-name="Path 193047" d="M231.257,201.483a4.875,4.875,0,0,1,.481-2.189,3.521,3.521,0,0,1,1.352-1.5,3.816,3.816,0,0,1,2-.523,3.612,3.612,0,0,1,2.716,1.077,4.231,4.231,0,0,1,1.126,2.857l.008.435a4.917,4.917,0,0,1-.47,2.184,3.474,3.474,0,0,1-1.344,1.49,3.841,3.841,0,0,1-2.02.527,3.588,3.588,0,0,1-2.8-1.165,4.455,4.455,0,0,1-1.05-3.1Zm1.856.16a3.33,3.33,0,0,0,.527,2,1.711,1.711,0,0,0,1.467.722,1.693,1.693,0,0,0,1.462-.733,3.668,3.668,0,0,0,.523-2.146,3.286,3.286,0,0,0-.538-1.986,1.814,1.814,0,0,0-2.906-.012,3.6,3.6,0,0,0-.535,2.158"/>
          <path id="Path_193048" data-name="Path 193048" d="M630.811,190.617v4.125h-1.932V183.621h4.254a4.309,4.309,0,0,1,2.96.97,3.27,3.27,0,0,1,1.1,2.569,3.159,3.159,0,0,1-1.073,2.546,4.513,4.513,0,0,1-3.006.911Zm0-1.559h2.322a2.289,2.289,0,0,0,1.573-.484,1.788,1.788,0,0,0,.543-1.4,1.924,1.924,0,0,0-.55-1.439,2.125,2.125,0,0,0-1.513-.555h-2.375Z"/>
          <path id="Path_193049" data-name="Path 193049" d="M638.25,190.533a4.874,4.874,0,0,1,.481-2.189,3.521,3.521,0,0,1,1.352-1.5,3.816,3.816,0,0,1,2-.523A3.613,3.613,0,0,1,644.8,187.4a4.24,4.24,0,0,1,1.126,2.857l.008.435a4.917,4.917,0,0,1-.47,2.184,3.474,3.474,0,0,1-1.344,1.49,3.848,3.848,0,0,1-2.021.527,3.585,3.585,0,0,1-2.8-1.165,4.455,4.455,0,0,1-1.05-3.105Zm1.856.16a3.33,3.33,0,0,0,.527,2,1.838,1.838,0,0,0,2.929-.011,3.684,3.684,0,0,0,.523-2.146,3.286,3.286,0,0,0-.538-1.986,1.722,1.722,0,0,0-1.463-.734,1.7,1.7,0,0,0-1.443.722,3.6,3.6,0,0,0-.535,2.158"/>
          <path id="Path_193050" data-name="Path 193050" d="M651.831,188.173a4.565,4.565,0,0,0-.756-.061,1.7,1.7,0,0,0-1.719.978v5.652H647.5v-8.265h1.772l.046.925a2.09,2.09,0,0,1,1.864-1.077,1.733,1.733,0,0,1,.657.107Z"/>
          <path id="Path_193051" data-name="Path 193051" d="M661.531,192.5a.844.844,0,0,0-.409-.756,4.354,4.354,0,0,0-1.355-.458,6.96,6.96,0,0,1-1.581-.505,2.108,2.108,0,0,1-1.391-1.947,2.2,2.2,0,0,1,.9-1.788,3.56,3.56,0,0,1,2.291-.718,3.713,3.713,0,0,1,2.4.734,2.331,2.331,0,0,1,.912,1.9h-1.856a1.146,1.146,0,0,0-.4-.89,1.523,1.523,0,0,0-1.054-.355,1.642,1.642,0,0,0-1,.282.889.889,0,0,0-.385.756.749.749,0,0,0,.359.665,4.915,4.915,0,0,0,1.451.477,6.962,6.962,0,0,1,1.715.573,2.458,2.458,0,0,1,.924.8,2.048,2.048,0,0,1,.3,1.131,2.157,2.157,0,0,1-.925,1.806,3.941,3.941,0,0,1-2.421.691,4.274,4.274,0,0,1-1.81-.366,2.974,2.974,0,0,1-1.238-1.009,2.378,2.378,0,0,1-.443-1.382h1.8a1.306,1.306,0,0,0,.5,1.012,1.926,1.926,0,0,0,1.214.355,1.871,1.871,0,0,0,1.115-.279.863.863,0,0,0,.382-.729"/>
          <path id="Path_193052" data-name="Path 193052" d="M669.979,193.932a2.879,2.879,0,0,1-2.322.962,2.563,2.563,0,0,1-2.035-.786,3.336,3.336,0,0,1-.692-2.276v-5.355h1.856v5.332q0,1.573,1.306,1.573a1.837,1.837,0,0,0,1.826-.97v-5.935h1.856v8.265h-1.749Z"/>
          <path id="Path_193053" data-name="Path 193053" d="M677.212,190.533a4.875,4.875,0,0,1,.481-2.189,3.521,3.521,0,0,1,1.352-1.5,3.816,3.816,0,0,1,2-.523,3.613,3.613,0,0,1,2.716,1.077,4.241,4.241,0,0,1,1.126,2.857l.008.435a4.917,4.917,0,0,1-.47,2.184,3.474,3.474,0,0,1-1.344,1.49,3.847,3.847,0,0,1-2.021.527,3.585,3.585,0,0,1-2.8-1.165,4.455,4.455,0,0,1-1.05-3.105Zm1.856.16a3.33,3.33,0,0,0,.527,2,1.838,1.838,0,0,0,2.929-.011,3.683,3.683,0,0,0,.523-2.146,3.286,3.286,0,0,0-.538-1.986,1.722,1.722,0,0,0-1.463-.734,1.7,1.7,0,0,0-1.443.722,3.6,3.6,0,0,0-.535,2.158"/>
          <path id="Path_193054" data-name="Path 193054" d="M690.792,188.173a4.556,4.556,0,0,0-.756-.061,1.7,1.7,0,0,0-1.719.978v5.652h-1.856v-8.265h1.772l.046.925a2.09,2.09,0,0,1,1.864-1.077,1.733,1.733,0,0,1,.657.107Z"/>
          <path id="Path_193055" data-name="Path 193055" d="M691.495,190.548a4.832,4.832,0,0,1,.905-3.075,2.9,2.9,0,0,1,2.4-1.149,2.725,2.725,0,0,1,2.223.985l.084-.832h1.672v8.012a3.325,3.325,0,0,1-1.012,2.566,3.854,3.854,0,0,1-2.73.94,4.389,4.389,0,0,1-1.776-.378,3.143,3.143,0,0,1-1.318-.99l.879-1.115a2.649,2.649,0,0,0,2.108,1.016,2.057,2.057,0,0,0,1.459-.5,1.922,1.922,0,0,0,.534-1.47V194a2.733,2.733,0,0,1-2.138.894,2.9,2.9,0,0,1-2.372-1.154,4.979,4.979,0,0,1-.92-3.192m1.848.16a3.316,3.316,0,0,0,.508,1.959,1.63,1.63,0,0,0,1.409.714,1.786,1.786,0,0,0,1.665-.962v-3.636a1.76,1.76,0,0,0-1.65-.939,1.637,1.637,0,0,0-1.424.725,3.716,3.716,0,0,0-.508,2.139"/>
          <path id="Path_193056" data-name="Path 193056" d="M705.625,194.742a2.861,2.861,0,0,1-.213-.772,3.123,3.123,0,0,1-4.2.214,2.267,2.267,0,0,1-.787-1.757,2.345,2.345,0,0,1,.981-2.028,4.767,4.767,0,0,1,2.807-.706h1.138v-.542a1.45,1.45,0,0,0-.359-1.028,1.421,1.421,0,0,0-1.092-.385,1.639,1.639,0,0,0-1.039.317.982.982,0,0,0-.4.805H700.6a2.059,2.059,0,0,1,.45-1.271,3,3,0,0,1,1.226-.928,4.3,4.3,0,0,1,1.73-.336,3.465,3.465,0,0,1,2.314.729,2.6,2.6,0,0,1,.886,2.051v3.727a4.219,4.219,0,0,0,.314,1.78v.13Zm-2.039-1.337a2.111,2.111,0,0,0,1.035-.267,1.789,1.789,0,0,0,.729-.718v-1.558h-1a2.73,2.73,0,0,0-1.551.359,1.163,1.163,0,0,0-.519,1.015,1.083,1.083,0,0,0,.355.852,1.378,1.378,0,0,0,.951.317"/>
          <path id="Path_193057" data-name="Path 193057" d="M710.873,186.477l.053.955a2.973,2.973,0,0,1,2.406-1.108q2.582,0,2.628,2.956v5.461H714.1v-5.354a1.7,1.7,0,0,0-.34-1.165,1.431,1.431,0,0,0-1.111-.378,1.789,1.789,0,0,0-1.673,1.016v5.881h-1.856v-8.264Z"/>
          <path id="Path_193058" data-name="Path 193058" d="M717.854,184.323a.993.993,0,0,1,.271-.716,1.023,1.023,0,0,1,.775-.285,1.035,1.035,0,0,1,.779.285.992.992,0,0,1,.275.716.969.969,0,0,1-.275.705,1.041,1.041,0,0,1-.779.28,1.028,1.028,0,0,1-.775-.28.97.97,0,0,1-.271-.705m1.97,10.418h-1.856v-8.264h1.856Z"/>
          <path id="Path_193059" data-name="Path 193059" d="M723.827,193.259h4.4v1.482H721.52v-1.215l4.194-5.553H721.6v-1.5h6.469v1.177Z"/>
          <path id="Path_193060" data-name="Path 193060" d="M734.649,194.742a2.861,2.861,0,0,1-.213-.772,3.123,3.123,0,0,1-4.2.214,2.267,2.267,0,0,1-.787-1.757,2.345,2.345,0,0,1,.981-2.028,4.767,4.767,0,0,1,2.807-.706h1.138v-.542a1.45,1.45,0,0,0-.359-1.028,1.421,1.421,0,0,0-1.092-.385,1.639,1.639,0,0,0-1.039.317.982.982,0,0,0-.4.805h-1.856a2.059,2.059,0,0,1,.45-1.271,3,3,0,0,1,1.226-.928,4.3,4.3,0,0,1,1.73-.336,3.465,3.465,0,0,1,2.314.729,2.6,2.6,0,0,1,.886,2.051v3.727a4.22,4.22,0,0,0,.314,1.78v.13ZM732.61,193.4a2.112,2.112,0,0,0,1.035-.267,1.789,1.789,0,0,0,.729-.718v-1.558h-1a2.73,2.73,0,0,0-1.551.359,1.164,1.164,0,0,0-.519,1.015,1.083,1.083,0,0,0,.355.852,1.378,1.378,0,0,0,.951.317"/>
          <path id="Path_193061" data-name="Path 193061" d="M741.57,193.412a1.675,1.675,0,0,0,1.153-.4,1.383,1.383,0,0,0,.489-1h1.749a2.731,2.731,0,0,1-.481,1.439,3.146,3.146,0,0,1-1.222,1.058,3.636,3.636,0,0,1-1.665.39,3.525,3.525,0,0,1-2.75-1.123,4.452,4.452,0,0,1-1.016-3.1v-.191a4.377,4.377,0,0,1,1.009-3.021,3.49,3.49,0,0,1,2.749-1.134,3.391,3.391,0,0,1,2.4.859,3.074,3.074,0,0,1,.974,2.257h-1.749a1.7,1.7,0,0,0-.485-1.168,1.56,1.56,0,0,0-1.157-.459,1.633,1.633,0,0,0-1.39.653,3.332,3.332,0,0,0-.5,1.982v.3a3.4,3.4,0,0,0,.485,2.005,1.634,1.634,0,0,0,1.4.661"/>
          <path id="Path_193062" data-name="Path 193062" d="M746.366,184.323a.994.994,0,0,1,.272-.716,1.023,1.023,0,0,1,.775-.285,1.035,1.035,0,0,1,.779.285.992.992,0,0,1,.275.716.969.969,0,0,1-.275.705,1.041,1.041,0,0,1-.779.28,1.028,1.028,0,0,1-.775-.28.971.971,0,0,1-.272-.705m1.971,10.418h-1.856v-8.264h1.856Z"/>
          <path id="Path_193063" data-name="Path 193063" d="M750.01,190.532a4.87,4.87,0,0,1,.481-2.188,3.521,3.521,0,0,1,1.352-1.5,3.816,3.816,0,0,1,2-.523,3.613,3.613,0,0,1,2.716,1.077,4.23,4.23,0,0,1,1.126,2.856l.008.436a4.917,4.917,0,0,1-.47,2.184,3.48,3.48,0,0,1-1.344,1.49,3.843,3.843,0,0,1-2.021.527,3.587,3.587,0,0,1-2.8-1.165,4.455,4.455,0,0,1-1.05-3.105Zm1.856.161a3.33,3.33,0,0,0,.527,2,1.713,1.713,0,0,0,1.466.722,1.694,1.694,0,0,0,1.463-.733,3.67,3.67,0,0,0,.523-2.147,3.283,3.283,0,0,0-.538-1.985,1.814,1.814,0,0,0-2.906-.012,3.6,3.6,0,0,0-.535,2.158m2.49-7.684h2.116l-2.116,2.314-1.489,0Z"/>
          <path id="Path_193064" data-name="Path 193064" d="M760.986,186.477l.053.955a2.974,2.974,0,0,1,2.406-1.108q2.582,0,2.628,2.956v5.461h-1.856v-5.354a1.7,1.7,0,0,0-.34-1.165,1.432,1.432,0,0,0-1.111-.378,1.789,1.789,0,0,0-1.673,1.016v5.881h-1.856v-8.264Z"/>
        </g>
      </g>
    </g>
  </g>
</svg>
