<svg id="Grupo_128309" data-name="Grupo 128309" xmlns="http://www.w3.org/2000/svg" xmlns:xlink="http://www.w3.org/1999/xlink" width="1116.55" height="590.368" viewBox="0 0 1116.55 590.368">
  <defs>
    <clipPath id="clip-path">
      <rect id="Rectángulo_41507" data-name="Rectángulo 41507" width="1116.55" height="590.368" fill="none"/>
    </clipPath>
  </defs>
  <g id="Grupo_128294" data-name="Grupo 128294">
    <g id="Grupo_128293" data-name="Grupo 128293" clip-path="url(#clip-path)">
      <path id="Trazado_193066" data-name="Trazado 193066" d="M171.2,461.526s-26.5,13.788-14.619,63.554l12.073-4.954-14.548,25.037-24.265-1.469,9.7-7.618c-27.609-41.054-.1-80.068-.1-80.068Z" fill="#abdbea"/>
      <path id="Trazado_193067" data-name="Trazado 193067" d="M171.2,461.526s-26.5,13.788-14.619,63.554l12.073-4.954-14.548,25.037-24.265-1.469,9.7-7.618c-27.609-41.054-.1-80.068-.1-80.068Z" fill="none" stroke="#39b1c5" stroke-miterlimit="10" stroke-width="1.752"/>
      <path id="Trazado_193068" data-name="Trazado 193068" d="M450.235,564.6s29.118,6.674,52.32-38.928l-12.4-4.05,27.3-9.641,17.528,16.845-12.325-.486c-5.58,49.159-51.812,61.045-51.812,61.045Z" fill="#ffefb0"/>
      <path id="Trazado_193069" data-name="Trazado 193069" d="M450.235,564.6s29.118,6.674,52.32-38.928l-12.4-4.05,27.3-9.641,17.528,16.845-12.325-.486c-5.58,49.159-51.812,61.045-51.812,61.045Z" fill="none" stroke="#ffce1d" stroke-miterlimit="10" stroke-width="1.752"/>
      <path id="Trazado_193070" data-name="Trazado 193070" d="M680.138,270.855l-.778,43.59c-25.693-1.223-46.8-14.728-46.8-14.728v100.4s26-22.053,51.2-20.825l-.793,45.516,51.992-78.021Z" fill="#fff7cb"/>
      <path id="Trazado_193071" data-name="Trazado 193071" d="M680.138,270.855l-.778,43.59c-25.693-1.223-46.8-14.728-46.8-14.728v100.4s26-22.053,51.2-20.825l-.793,45.516,51.992-78.021Z" fill="none" stroke="#ffce1d" stroke-miterlimit="10" stroke-width="1.752"/>
      <path id="Trazado_193072" data-name="Trazado 193072" d="M149.643,427.774H10.032a9.155,9.155,0,0,1-9.156-9.155V273.428a9.155,9.155,0,0,1,9.156-9.155H149.643a9.155,9.155,0,0,1,9.155,9.155V418.619a9.155,9.155,0,0,1-9.155,9.155" fill="#abdbea"/>
      <path id="Rectángulo_41506" data-name="Rectángulo 41506" d="M9.155,0H148.766a9.156,9.156,0,0,1,9.156,9.156V154.345a9.156,9.156,0,0,1-9.156,9.156H9.155A9.155,9.155,0,0,1,0,154.346V9.155A9.155,9.155,0,0,1,9.155,0Z" transform="translate(0.876 264.273)" fill="none" stroke="#39b1c5" stroke-miterlimit="10" stroke-width="1.752"/>
      <path id="Trazado_193073" data-name="Trazado 193073" d="M140.738,280.053H18.935A9.155,9.155,0,0,1,9.78,270.9V248.1a9.155,9.155,0,0,1,9.155-9.155h121.8a9.155,9.155,0,0,1,9.155,9.155v22.8a9.155,9.155,0,0,1-9.155,9.155" fill="#37b1c5"/>
    </g>
  </g>
  <path id="Trazado_193465" data-name="Trazado 193465" d="M1.375,0H4.52V-5.02A7.994,7.994,0,0,0,5.6-4.957a6.509,6.509,0,0,0,4.562-1.479,4.486,4.486,0,0,0,1.291-3.333,4.1,4.1,0,0,0-1.5-3.249,6.734,6.734,0,0,0-4.291-1.125,25.987,25.987,0,0,0-4.291.292ZM4.52-11.622a5.408,5.408,0,0,1,1.312-.125c1.583,0,2.479.771,2.479,2.062,0,1.437-1.041,2.291-2.729,2.291A4.852,4.852,0,0,1,4.52-7.478ZM13.476,0h3.145V-5.52h.958c1.291.021,1.9.5,2.27,2.25A17.567,17.567,0,0,0,20.829,0h3.249c-.271-.542-.708-2.374-1.146-3.957a3.541,3.541,0,0,0-1.875-2.624v-.062A3.725,3.725,0,0,0,23.537-10.1a3.564,3.564,0,0,0-1.291-2.937c-1-.791-2.458-1.1-4.541-1.1a27.9,27.9,0,0,0-4.228.292Zm3.145-11.685a7.925,7.925,0,0,1,1.437-.1c1.458.021,2.333.667,2.333,1.958,0,1.229-.937,2.02-2.52,2.02h-1.25ZM34.18-8.519H29.015v-2.916h5.478v-2.6H25.828V0h8.956V-2.6h-5.77V-5.936H34.18ZM49.031,0h3.1l-.771-14.039H47.219l-1.5,4.666c-.458,1.562-.937,3.416-1.333,5.041h-.062c-.312-1.645-.75-3.4-1.187-5.02l-1.375-4.686H37.534L36.638,0h2.937l.25-5.332c.1-1.75.167-3.916.25-5.811h.042c.333,1.833.812,3.832,1.271,5.478l1.5,5.436h2.479l1.708-5.478c.542-1.645,1.125-3.645,1.562-5.436H48.7c0,2.041.062,4.082.125,5.77ZM62.924-8.519H57.758v-2.916h5.478v-2.6H54.571V0h8.956V-2.6h-5.77V-5.936h5.166Zm2.77,8.456a27.49,27.49,0,0,0,3.6.208c2.749,0,5-.583,6.478-1.812a7.12,7.12,0,0,0,2.333-5.686,6.211,6.211,0,0,0-2.374-5.291c-1.354-1.021-3.083-1.5-5.749-1.5a28.338,28.338,0,0,0-4.291.292Zm3.187-11.518a6.6,6.6,0,0,1,1.437-.125c2.729,0,4.437,1.541,4.416,4.457,0,3.353-1.875,4.936-4.749,4.916a5.841,5.841,0,0,1-1.1-.062Zm11.31-2.458V0h3.187V-14.039ZM93.417-3.6,94.5,0h3.416L93.563-14.039H89.4L85.106,0H88.4l1-3.6ZM89.855-5.978l.833-2.979c.229-.812.437-1.875.646-2.708h.042c.208.833.458,1.875.708,2.708l.875,2.979Z" transform="translate(30.63 265.614)" fill="#040506"/>
  <path id="Trazado_193460" data-name="Trazado 193460" d="M1.583-.042A21.184,21.184,0,0,0,4.395.125c2.291,0,3.874-.417,4.853-1.312A3.784,3.784,0,0,0,10.435-4a3.618,3.618,0,0,0-2.9-3.52v-.042a3.334,3.334,0,0,0,2.374-3.083,2.943,2.943,0,0,0-1.166-2.479,5.8,5.8,0,0,0-3.853-1.021,17.559,17.559,0,0,0-3.312.292ZM3.4-12.622A7.773,7.773,0,0,1,5-12.747c1.833,0,3.083.646,3.083,2.291C8.082-9.1,6.957-8.1,5.041-8.1H3.4Zm0,5.895h1.5c1.979,0,3.624.791,3.624,2.708,0,2.041-1.729,2.729-3.6,2.729A9.683,9.683,0,0,1,3.4-1.375ZM12.81,0h1.833V-14.788H12.81ZM22-10.31c-2.791,0-5,1.979-5,5.353C17-1.77,19.1.229,21.829.229c2.437,0,5.02-1.625,5.02-5.353C26.848-8.207,24.89-10.31,22-10.31Zm-.042,1.375c2.166,0,3.02,2.166,3.02,3.874,0,2.27-1.312,3.916-3.062,3.916-1.791,0-3.062-1.666-3.062-3.874C18.85-6.936,19.787-8.936,21.954-8.936Zm14.289-1.146-.083,1.521h-.042a3.353,3.353,0,0,0-3.145-1.75c-2.312,0-4.541,1.937-4.541,5.353,0,2.791,1.791,4.916,4.291,4.916A3.6,3.6,0,0,0,35.93-1.729h.042V-.6c0,2.541-1.375,3.52-3.249,3.52a5.685,5.685,0,0,1-2.958-.791l-.458,1.4a6.507,6.507,0,0,0,3.353.833,5.344,5.344,0,0,0,3.666-1.208c.979-.875,1.437-2.291,1.437-4.6V-7.311c0-1.229.042-2.041.083-2.77Zm-.292,5.79a3.189,3.189,0,0,1-.146.979,2.68,2.68,0,0,1-2.541,1.875c-1.979,0-2.979-1.645-2.979-3.624,0-2.333,1.25-3.812,3-3.812a2.64,2.64,0,0,1,2.562,1.937,2.61,2.61,0,0,1,.1.833ZM40.1-.479a5.749,5.749,0,0,0,2.833.687c2.4,0,3.77-1.25,3.77-3.02,0-1.5-.9-2.374-2.645-3.041-1.312-.5-1.916-.875-1.916-1.708,0-.75.6-1.375,1.687-1.375a3.923,3.923,0,0,1,2.062.583l.458-1.333a5.032,5.032,0,0,0-2.479-.625c-2.166,0-3.478,1.333-3.478,2.958,0,1.208.854,2.208,2.666,2.854,1.354.5,1.875.979,1.875,1.854,0,.833-.625,1.5-1.958,1.5a4.8,4.8,0,0,1-2.416-.729Z" transform="translate(50.459 305.834)" fill="#040506"/>
  <path id="Trazado_193461" data-name="Trazado 193461" d="M1.583-14.039V0H3.4V-14.039ZM6.915,0H8.706V-6.082a2.527,2.527,0,0,1,.146-.9,2.5,2.5,0,0,1,2.27-1.833c1.4,0,2.1,1.166,2.1,2.77V0h1.791V-6.228a3.019,3.019,0,0,1,.146-.916A2.373,2.373,0,0,1,17.33-8.811c1.479,0,2.187,1.166,2.187,3.1V0h1.791V-5.936c0-3.5-1.979-4.374-3.312-4.374a3.44,3.44,0,0,0-2.229.708A4.153,4.153,0,0,0,14.643-8.29H14.6a2.98,2.98,0,0,0-2.854-2.02A3.475,3.475,0,0,0,8.581-8.456H8.519l-.083-1.625h-1.6c.062.833.083,1.687.083,2.729Zm24.62,0a14.194,14.194,0,0,1-.167-2.416v-3.77c0-2.02-.75-4.124-3.832-4.124a6.257,6.257,0,0,0-3.312.9l.417,1.208a5.023,5.023,0,0,1,2.624-.75,2.078,2.078,0,0,1,2.291,2.333v.208c-3.895-.021-6.061,1.312-6.061,3.749a2.872,2.872,0,0,0,3.083,2.9,3.755,3.755,0,0,0,3.083-1.5h.062L29.868,0ZM29.6-3.4a1.913,1.913,0,0,1-.1.583,2.508,2.508,0,0,1-2.437,1.687,1.622,1.622,0,0,1-1.729-1.75c0-1.958,2.27-2.312,4.27-2.27Zm-1.1-11.039-1.833,2.979h1.312l2.541-2.979Zm12.914,4.353-.083,1.521h-.042a3.353,3.353,0,0,0-3.145-1.75c-2.312,0-4.541,1.937-4.541,5.353,0,2.791,1.791,4.916,4.291,4.916A3.6,3.6,0,0,0,41.1-1.729h.042V-.6c0,2.541-1.375,3.52-3.249,3.52a5.685,5.685,0,0,1-2.958-.791l-.458,1.4a6.507,6.507,0,0,0,3.353.833,5.344,5.344,0,0,0,3.666-1.208c.979-.875,1.437-2.291,1.437-4.6V-7.311c0-1.229.042-2.041.083-2.77Zm-.292,5.79a3.189,3.189,0,0,1-.146.979,2.68,2.68,0,0,1-2.541,1.875c-1.979,0-2.979-1.645-2.979-3.624,0-2.333,1.25-3.812,3-3.812a2.64,2.64,0,0,1,2.562,1.937,2.61,2.61,0,0,1,.1.833Zm12.956-.417a6.913,6.913,0,0,0,.062-.854c0-1.854-.875-4.749-4.166-4.749-2.937,0-4.728,2.4-4.728,5.436S47.094.208,50.2.208a8.165,8.165,0,0,0,3.353-.625l-.312-1.312a6.628,6.628,0,0,1-2.791.521,3.23,3.23,0,0,1-3.458-3.5ZM47.011-6.02C47.156-7.29,47.969-9,49.822-9c2.062,0,2.562,1.812,2.541,2.979ZM56.4,0h1.833V-6.061a2.636,2.636,0,0,1,.125-.854A2.6,2.6,0,0,1,60.82-8.79c1.729,0,2.333,1.354,2.333,2.979V0h1.833V-6.02c0-3.458-2.166-4.291-3.562-4.291a3.707,3.707,0,0,0-3.333,1.9H58.05l-.1-1.666H56.321c.062.833.083,1.687.083,2.729ZM76.067-4.707a6.912,6.912,0,0,0,.062-.854c0-1.854-.875-4.749-4.166-4.749-2.937,0-4.728,2.4-4.728,5.436S69.089.208,72.193.208a8.165,8.165,0,0,0,3.353-.625l-.312-1.312a6.628,6.628,0,0,1-2.791.521,3.23,3.23,0,0,1-3.458-3.5ZM69.006-6.02C69.152-7.29,69.964-9,71.818-9,73.88-9,74.38-7.186,74.359-6.02Zm8.686,5.54a5.749,5.749,0,0,0,2.833.687c2.4,0,3.77-1.25,3.77-3.02,0-1.5-.9-2.374-2.645-3.041-1.312-.5-1.916-.875-1.916-1.708,0-.75.6-1.375,1.687-1.375a3.923,3.923,0,0,1,2.062.583l.458-1.333a5.032,5.032,0,0,0-2.479-.625c-2.166,0-3.478,1.333-3.478,2.958,0,1.208.854,2.208,2.666,2.854C82-4,82.524-3.52,82.524-2.645c0,.833-.625,1.5-1.958,1.5a4.8,4.8,0,0,1-2.416-.729Z" transform="translate(50.459 328.621)" fill="#040506"/>
  <path id="Trazado_193462" data-name="Trazado 193462" d="M.646,0H2.354L3.416-5.624a10.123,10.123,0,0,0,1.437.1A6.763,6.763,0,0,0,9.1-6.853a4.833,4.833,0,0,0,1.687-3.666A3.277,3.277,0,0,0,9.769-13.06a5.042,5.042,0,0,0-3.437-1.083,13.939,13.939,0,0,0-3.041.312ZM4.728-12.581a6.364,6.364,0,0,1,1.521-.146c1.6,0,2.791.667,2.791,2.333,0,1.979-1.583,3.458-3.957,3.458a6.355,6.355,0,0,1-1.4-.146Zm11.248,2.27c-3.27,0-5.582,3.083-5.582,6.394A3.848,3.848,0,0,0,14.33.229C17.7.229,19.912-3,19.912-6.1,19.912-8.248,18.7-10.31,15.976-10.31Zm-.187,1.375c1.812,0,2.354,1.645,2.354,2.812,0,2.354-1.541,4.978-3.583,4.978-1.479,0-2.374-1.187-2.374-2.833C12.164-6.29,13.622-8.936,15.788-8.936Zm14.393-5.853-.9,4.832a4.567,4.567,0,0,0-1.791-.354c-3.562,0-6.228,3.291-6.228,6.874,0,2.062,1.062,3.666,3.02,3.666A4.3,4.3,0,0,0,27.911-2h.042l-.271,2h1.583A25.386,25.386,0,0,1,29.7-3.187l2.208-11.6Zm-1.854,9.81c-.437,2.27-2.041,3.791-3.374,3.791-1.479,0-1.9-1.271-1.9-2.479,0-2.687,1.875-5.249,4.291-5.249a3.144,3.144,0,0,1,1.666.417ZM38.887-1.77a5.3,5.3,0,0,1-2.333.562,2.375,2.375,0,0,1-2.5-2.687c0-2.374,1.645-4.957,4.27-4.957a3.918,3.918,0,0,1,1.708.375l.5-1.375a5.144,5.144,0,0,0-2.1-.437,6.383,6.383,0,0,0-6.165,6.6A3.637,3.637,0,0,0,36.138.229,6.9,6.9,0,0,0,39.054-.4ZM48.906,0a23.044,23.044,0,0,1,.437-4.666l1.021-5.249a9.4,9.4,0,0,0-2.708-.4A7.04,7.04,0,0,0,40.679-3.1c0,1.916,1.125,3.333,2.9,3.333,1.437,0,2.812-.75,3.916-2.833h.042A26.014,26.014,0,0,0,47.3,0ZM47.844-5.749c-.5,2.687-2.208,4.562-3.645,4.562-1.333,0-1.729-1.1-1.729-2.229.021-2.791,2.145-5.52,4.749-5.52a4.669,4.669,0,0,1,1.208.146Zm3.249,5.27a4.578,4.578,0,0,0,2.5.708c2.125,0,3.853-1.208,3.853-3.333a3.172,3.172,0,0,0-1.9-2.645c-.9-.5-1.375-.958-1.375-1.687a1.619,1.619,0,0,1,1.791-1.521,3.6,3.6,0,0,1,1.75.458L58.2-9.81a4.192,4.192,0,0,0-2.1-.5c-2.125,0-3.645,1.354-3.645,3.124a3.009,3.009,0,0,0,1.812,2.562c1.041.583,1.4,1.062,1.4,1.854a1.739,1.739,0,0,1-1.916,1.645,4.59,4.59,0,0,1-2.166-.625ZM61.9-11.935l-.354,1.854H60.112l-.271,1.354H61.3l-1,5.1a9.382,9.382,0,0,0-.208,1.9A1.874,1.874,0,0,0,62.216.229,4.656,4.656,0,0,0,63.549.042l.083-1.375a3.248,3.248,0,0,1-.812.083.864.864,0,0,1-.958-.979,8.828,8.828,0,0,1,.187-1.6l.937-4.895H65.4l.271-1.354H63.257l.458-2.416ZM65.382-.479a4.578,4.578,0,0,0,2.5.708c2.125,0,3.853-1.208,3.853-3.333a3.172,3.172,0,0,0-1.9-2.645c-.9-.5-1.375-.958-1.375-1.687a1.619,1.619,0,0,1,1.791-1.521,3.6,3.6,0,0,1,1.75.458l.479-1.312a4.192,4.192,0,0,0-2.1-.5c-2.125,0-3.645,1.354-3.645,3.124a3.009,3.009,0,0,0,1.812,2.562c1.041.583,1.4,1.062,1.4,1.854a1.739,1.739,0,0,1-1.916,1.645,4.59,4.59,0,0,1-2.166-.625Z" transform="translate(50.459 351.407)" fill="#040506"/>
  <path id="Trazado_193463" data-name="Trazado 193463" d="M4.457-4.791c0,2.749-.958,3.478-2.583,3.478A4.322,4.322,0,0,1,.354-1.583L.083-.1A5.868,5.868,0,0,0,2.02.229c2.416,0,4.249-1.146,4.249-4.874v-9.394H4.457Zm13.205-5.291H15.83v6.186a2.68,2.68,0,0,1-.167.937,2.65,2.65,0,0,1-2.416,1.666C11.581-1.291,11-2.583,11-4.5v-5.582H9.165v5.895c0,3.541,1.9,4.416,3.478,4.416a3.793,3.793,0,0,0,3.333-1.875h.042L16.121,0h1.625c-.062-.791-.083-1.708-.083-2.749ZM28.806-4.707a6.913,6.913,0,0,0,.062-.854c0-1.854-.875-4.749-4.166-4.749-2.937,0-4.728,2.4-4.728,5.436S21.829.208,24.932.208a8.165,8.165,0,0,0,3.353-.625l-.312-1.312a6.628,6.628,0,0,1-2.791.521,3.23,3.23,0,0,1-3.458-3.5ZM21.745-6.02C21.891-7.29,22.7-9,24.557-9,26.619-9,27.119-7.186,27.1-6.02Zm16.476-4.062-.083,1.521H38.1a3.353,3.353,0,0,0-3.145-1.75c-2.312,0-4.541,1.937-4.541,5.353C30.41-2.166,32.2-.042,34.7-.042a3.6,3.6,0,0,0,3.208-1.687h.042V-.6c0,2.541-1.375,3.52-3.249,3.52a5.685,5.685,0,0,1-2.958-.791l-.458,1.4a6.507,6.507,0,0,0,3.353.833A5.344,5.344,0,0,0,38.3,3.145c.979-.875,1.437-2.291,1.437-4.6V-7.311c0-1.229.042-2.041.083-2.77Zm-.292,5.79a3.189,3.189,0,0,1-.146.979,2.68,2.68,0,0,1-2.541,1.875c-1.979,0-2.979-1.645-2.979-3.624,0-2.333,1.25-3.812,3-3.812a2.64,2.64,0,0,1,2.562,1.937,2.61,2.61,0,0,1,.1.833Zm9.123-6.02c-2.791,0-5,1.979-5,5.353,0,3.187,2.1,5.186,4.832,5.186,2.437,0,5.02-1.625,5.02-5.353C51.905-8.207,49.947-10.31,47.052-10.31Zm-.042,1.375c2.166,0,3.02,2.166,3.02,3.874,0,2.27-1.312,3.916-3.062,3.916-1.791,0-3.062-1.666-3.062-3.874C43.907-6.936,44.844-8.936,47.011-8.936Zm6.5,8.456a5.749,5.749,0,0,0,2.833.687c2.4,0,3.77-1.25,3.77-3.02,0-1.5-.9-2.374-2.645-3.041-1.312-.5-1.916-.875-1.916-1.708,0-.75.6-1.375,1.687-1.375a3.923,3.923,0,0,1,2.062.583l.458-1.333a5.032,5.032,0,0,0-2.479-.625c-2.166,0-3.478,1.333-3.478,2.958,0,1.208.854,2.208,2.666,2.854,1.354.5,1.875.979,1.875,1.854,0,.833-.625,1.5-1.958,1.5a4.8,4.8,0,0,1-2.416-.729Z" transform="translate(50.459 374.194)" fill="#040506"/>
  <path id="Trazado_193464" data-name="Trazado 193464" d="M11.018-1.9a7.254,7.254,0,0,1-2.958.583c-3.416,0-5.395-2.208-5.395-5.645,0-3.687,2.187-5.79,5.478-5.79a6.6,6.6,0,0,1,2.833.583l.437-1.479a7.525,7.525,0,0,0-3.333-.625A6.986,6.986,0,0,0,.75-6.894c0,4.6,2.979,7.1,6.936,7.1a9,9,0,0,0,3.708-.667Zm6.415-8.415c-2.791,0-5,1.979-5,5.353,0,3.187,2.1,5.186,4.832,5.186,2.437,0,5.02-1.625,5.02-5.353C22.287-8.207,20.329-10.31,17.434-10.31Zm-.042,1.375c2.166,0,3.02,2.166,3.02,3.874,0,2.27-1.312,3.916-3.062,3.916-1.791,0-3.062-1.666-3.062-3.874C14.289-6.936,15.226-8.936,17.392-8.936ZM24.6,0h1.812V-5.374a5.159,5.159,0,0,1,.083-.854,2.571,2.571,0,0,1,2.458-2.354,2.753,2.753,0,0,1,.625.062v-1.729a1.983,1.983,0,0,0-.521-.062A3.025,3.025,0,0,0,26.265-8.1h-.083l-.062-1.979h-1.6c.062.937.083,1.958.083,3.145Zm6.978,0h1.812V-5.374a5.159,5.159,0,0,1,.083-.854A2.571,2.571,0,0,1,35.93-8.581a2.753,2.753,0,0,1,.625.062v-1.729a1.983,1.983,0,0,0-.521-.062A3.025,3.025,0,0,0,33.243-8.1h-.083L33.1-10.081h-1.6c.062.937.083,1.958.083,3.145Zm14.5-4.707a6.913,6.913,0,0,0,.062-.854c0-1.854-.875-4.749-4.166-4.749-2.937,0-4.728,2.4-4.728,5.436S39.1.208,42.2.208a8.165,8.165,0,0,0,3.353-.625L45.24-1.729a6.628,6.628,0,0,1-2.791.521,3.23,3.23,0,0,1-3.458-3.5ZM39.012-6.02C39.158-7.29,39.97-9,41.824-9c2.062,0,2.562,1.812,2.541,2.979ZM52.676-10.31c-2.791,0-5,1.979-5,5.353,0,3.187,2.1,5.186,4.832,5.186,2.437,0,5.02-1.625,5.02-5.353C57.529-8.207,55.571-10.31,52.676-10.31Zm-.042,1.375c2.166,0,3.02,2.166,3.02,3.874,0,2.27-1.312,3.916-3.062,3.916-1.791,0-3.062-1.666-3.062-3.874C49.531-6.936,50.468-8.936,52.634-8.936Zm6.5,8.456a5.749,5.749,0,0,0,2.833.687c2.4,0,3.77-1.25,3.77-3.02,0-1.5-.9-2.374-2.645-3.041-1.312-.5-1.916-.875-1.916-1.708,0-.75.6-1.375,1.687-1.375a3.923,3.923,0,0,1,2.062.583l.458-1.333A5.032,5.032,0,0,0,62.9-10.31c-2.166,0-3.478,1.333-3.478,2.958,0,1.208.854,2.208,2.666,2.854,1.354.5,1.875.979,1.875,1.854,0,.833-.625,1.5-1.958,1.5a4.8,4.8,0,0,1-2.416-.729Z" transform="translate(50.459 396.981)" fill="#040506"/>
  <g id="Grupo_128296" data-name="Grupo 128296">
    <g id="Grupo_128295" data-name="Grupo 128295" clip-path="url(#clip-path)">
      <path id="Trazado_193074" data-name="Trazado 193074" d="M610.064,483.068H194.977a9.155,9.155,0,0,1-9.156-9.155V209.5a9.155,9.155,0,0,1,9.156-9.155H610.064a9.155,9.155,0,0,1,9.155,9.155V473.913a9.155,9.155,0,0,1-9.155,9.155" fill="#ffefb0"/>
      <path id="Rectángulo_41508" data-name="Rectángulo 41508" d="M9.155,0H424.242A9.156,9.156,0,0,1,433.4,9.156V273.572a9.155,9.155,0,0,1-9.155,9.155H9.155A9.155,9.155,0,0,1,0,273.572V9.155A9.155,9.155,0,0,1,9.155,0Z" transform="translate(185.821 200.341)" fill="none" stroke="#ffce1d" stroke-miterlimit="10" stroke-width="1.752"/>
    </g>
  </g>
  <path id="Trazado_193450" data-name="Trazado 193450" d="M7.269-14.268C3.52-14.268.75-11.352.75-6.894.75-2.645,3.353.229,7.061.229c3.583,0,6.519-2.562,6.519-7.394C13.58-11.331,11.1-14.268,7.269-14.268Zm-.083,1.479c3.02,0,4.478,2.916,4.478,5.707,0,3.187-1.625,5.832-4.5,5.832-2.854,0-4.478-2.687-4.478-5.686C2.687-10.019,4.187-12.789,7.186-12.789ZM15.872,0h1.812V-5.374a5.159,5.159,0,0,1,.083-.854,2.571,2.571,0,0,1,2.458-2.354,2.753,2.753,0,0,1,.625.062v-1.729a1.983,1.983,0,0,0-.521-.062A3.025,3.025,0,0,0,17.538-8.1h-.083l-.062-1.979h-1.6c.062.937.083,1.958.083,3.145Zm8.207-12.5v2.416H22.516v1.4h1.562v5.5a3.735,3.735,0,0,0,.708,2.624,2.54,2.54,0,0,0,1.979.771,4.487,4.487,0,0,0,1.625-.25l-.083-1.375a4.077,4.077,0,0,1-1.062.125c-1.021,0-1.375-.708-1.375-1.958V-8.686h2.624v-1.4H25.869v-2.9Zm10.5,2.187c-2.791,0-5,1.979-5,5.353,0,3.187,2.1,5.186,4.832,5.186,2.437,0,5.02-1.625,5.02-5.353C39.429-8.207,37.471-10.31,34.576-10.31Zm-.042,1.375c2.166,0,3.02,2.166,3.02,3.874,0,2.27-1.312,3.916-3.062,3.916-1.791,0-3.062-1.666-3.062-3.874C31.431-6.936,32.368-8.936,34.534-8.936Zm14.289-1.146-.083,1.521H48.7a3.353,3.353,0,0,0-3.145-1.75c-2.312,0-4.541,1.937-4.541,5.353,0,2.791,1.791,4.916,4.291,4.916A3.6,3.6,0,0,0,48.51-1.729h.042V-.6c0,2.541-1.375,3.52-3.249,3.52a5.685,5.685,0,0,1-2.958-.791l-.458,1.4a6.507,6.507,0,0,0,3.353.833,5.344,5.344,0,0,0,3.666-1.208c.979-.875,1.437-2.291,1.437-4.6V-7.311c0-1.229.042-2.041.083-2.77Zm-.292,5.79a3.189,3.189,0,0,1-.146.979,2.68,2.68,0,0,1-2.541,1.875c-1.979,0-2.979-1.645-2.979-3.624,0-2.333,1.25-3.812,3-3.812a2.64,2.64,0,0,1,2.562,1.937,2.61,2.61,0,0,1,.1.833ZM53.155,0h1.812V-5.374a5.159,5.159,0,0,1,.083-.854,2.571,2.571,0,0,1,2.458-2.354,2.753,2.753,0,0,1,.625.062v-1.729a1.983,1.983,0,0,0-.521-.062A3.025,3.025,0,0,0,54.821-8.1h-.083l-.062-1.979h-1.6c.062.937.083,1.958.083,3.145ZM67.006,0a14.194,14.194,0,0,1-.167-2.416v-3.77c0-2.02-.75-4.124-3.833-4.124a6.257,6.257,0,0,0-3.312.9l.417,1.208a5.023,5.023,0,0,1,2.624-.75,2.078,2.078,0,0,1,2.291,2.333v.208c-3.895-.021-6.061,1.312-6.061,3.749a2.872,2.872,0,0,0,3.083,2.9,3.755,3.755,0,0,0,3.083-1.5h.062L65.34,0ZM65.069-3.4a1.913,1.913,0,0,1-.1.583,2.508,2.508,0,0,1-2.437,1.687A1.622,1.622,0,0,1,60.8-2.874c0-1.958,2.27-2.312,4.27-2.27ZM71.8,0V-8.686h2.437v-1.4H71.8v-.542c0-1.541.4-2.916,1.958-2.916a2.737,2.737,0,0,1,1.166.229l.25-1.416a4.25,4.25,0,0,0-1.562-.292,3.507,3.507,0,0,0-2.458.937,4.752,4.752,0,0,0-1.166,3.52v.479H68.568v1.4h1.416V0Zm5.915,0V-10.081H75.879V0Zm-.125-14.434-1.833,2.979h1.312l2.541-2.979ZM88,0a14.194,14.194,0,0,1-.167-2.416v-3.77c0-2.02-.75-4.124-3.832-4.124a6.257,6.257,0,0,0-3.312.9l.417,1.208a5.023,5.023,0,0,1,2.624-.75,2.078,2.078,0,0,1,2.291,2.333v.208c-3.895-.021-6.061,1.312-6.061,3.749a2.872,2.872,0,0,0,3.083,2.9,3.755,3.755,0,0,0,3.083-1.5h.062L86.335,0ZM86.065-3.4a1.913,1.913,0,0,1-.1.583,2.508,2.508,0,0,1-2.437,1.687,1.622,1.622,0,0,1-1.729-1.75c0-1.958,2.27-2.312,4.27-2.27Zm7.811-6.686L97.6-.791a1.6,1.6,0,0,1,.125.479,1.316,1.316,0,0,1-.146.437,5.557,5.557,0,0,1-1.541,2.041,4.848,4.848,0,0,1-1.6.9L94.9,4.6a4.967,4.967,0,0,0,2.25-1.187C98.4,2.333,99.291.562,100.6-2.9l2.749-7.186h-1.937l-2,5.915c-.25.729-.458,1.5-.646,2.1h-.042c-.167-.6-.417-1.4-.646-2.062l-2.208-5.957Zm22.433-4.707v6.02h-.042a3.371,3.371,0,0,0-3.041-1.541c-2.458,0-4.541,2.062-4.52,5.415,0,3.062,1.875,5.124,4.312,5.124a3.729,3.729,0,0,0,3.437-1.979h.042L116.579,0h1.645c-.062-.687-.083-1.708-.083-2.6V-14.788Zm0,10.56a3.184,3.184,0,0,1-.083.791,2.755,2.755,0,0,1-2.687,2.187c-1.979,0-2.979-1.687-2.979-3.728,0-2.229,1.125-3.895,3.02-3.895a2.7,2.7,0,0,1,2.645,2.125,3.236,3.236,0,0,1,.083.771ZM123.015,0V-10.081h-1.833V0ZM122.1-14.059a1.117,1.117,0,0,0-1.146,1.146,1.09,1.09,0,0,0,1.1,1.125,1.082,1.082,0,0,0,1.166-1.125A1.088,1.088,0,0,0,122.1-14.059Zm11.039,3.978-.083,1.521h-.042a3.353,3.353,0,0,0-3.145-1.75c-2.312,0-4.541,1.937-4.541,5.353,0,2.791,1.791,4.916,4.291,4.916a3.6,3.6,0,0,0,3.208-1.687h.042V-.6c0,2.541-1.375,3.52-3.249,3.52a5.685,5.685,0,0,1-2.958-.791l-.458,1.4a6.507,6.507,0,0,0,3.353.833,5.344,5.344,0,0,0,3.666-1.208c.979-.875,1.437-2.291,1.437-4.6V-7.311c0-1.229.042-2.041.083-2.77Zm-.292,5.79a3.189,3.189,0,0,1-.146.979,2.68,2.68,0,0,1-2.541,1.875c-1.979,0-2.979-1.645-2.979-3.624,0-2.333,1.25-3.812,3-3.812a2.64,2.64,0,0,1,2.562,1.937,2.61,2.61,0,0,1,.1.833ZM139.3,0V-10.081H137.47V0Zm-.916-14.059a1.117,1.117,0,0,0-1.146,1.146,1.09,1.09,0,0,0,1.1,1.125,1.082,1.082,0,0,0,1.166-1.125A1.088,1.088,0,0,0,138.387-14.059Zm4.374,1.562v2.416H141.2v1.4h1.562v5.5a3.735,3.735,0,0,0,.708,2.624,2.54,2.54,0,0,0,1.979.771,4.487,4.487,0,0,0,1.625-.25l-.083-1.375a4.077,4.077,0,0,1-1.062.125c-1.021,0-1.375-.708-1.375-1.958V-8.686h2.624v-1.4h-2.624v-2.9ZM156.487,0a14.2,14.2,0,0,1-.167-2.416v-3.77c0-2.02-.75-4.124-3.833-4.124a6.257,6.257,0,0,0-3.312.9l.417,1.208a5.023,5.023,0,0,1,2.624-.75,2.078,2.078,0,0,1,2.291,2.333v.208c-3.895-.021-6.061,1.312-6.061,3.749a2.872,2.872,0,0,0,3.083,2.9,3.755,3.755,0,0,0,3.083-1.5h.062L154.82,0ZM154.55-3.4a1.913,1.913,0,0,1-.1.583,2.508,2.508,0,0,1-2.437,1.687,1.622,1.622,0,0,1-1.729-1.75c0-1.958,2.27-2.312,4.27-2.27Zm11.6,1.645a5.207,5.207,0,0,1-2.25.5,3.456,3.456,0,0,1-3.5-3.77,3.488,3.488,0,0,1,3.562-3.812,4.25,4.25,0,0,1,2.125.479l.417-1.416a6.127,6.127,0,0,0-2.541-.521,5.122,5.122,0,0,0-5.415,5.353,4.789,4.789,0,0,0,5.02,5.145,6.751,6.751,0,0,0,2.9-.583ZM170.442,0V-10.081h-1.833V0Zm-.916-14.059a1.117,1.117,0,0,0-1.146,1.146,1.09,1.09,0,0,0,1.1,1.125,1.082,1.082,0,0,0,1.166-1.125A1.088,1.088,0,0,0,169.526-14.059Zm8.227,3.749c-2.791,0-5,1.979-5,5.353,0,3.187,2.1,5.186,4.832,5.186,2.437,0,5.02-1.625,5.02-5.353C182.606-8.207,180.648-10.31,177.753-10.31Zm-.042,1.375c2.166,0,3.02,2.166,3.02,3.874,0,2.27-1.312,3.916-3.062,3.916-1.791,0-3.062-1.666-3.062-3.874C174.608-6.936,175.545-8.936,177.711-8.936Zm.687-5.5-1.833,2.979h1.312l2.541-2.979ZM184.918,0h1.833V-6.061a2.636,2.636,0,0,1,.125-.854,2.6,2.6,0,0,1,2.458-1.875c1.729,0,2.333,1.354,2.333,2.979V0H193.5V-6.02c0-3.458-2.166-4.291-3.562-4.291a3.707,3.707,0,0,0-3.333,1.9h-.042l-.1-1.666h-1.625c.062.833.083,1.687.083,2.729Z" transform="translate(257.602 287.769)" fill="#040506"/>
  <path id="Trazado_193451" data-name="Trazado 193451" d="M13.768,0h1.77l-.875-14.039H12.351l-2.5,6.79C9.227-5.478,8.727-3.937,8.373-2.52H8.311c-.354-1.458-.833-3-1.416-4.728l-2.4-6.79H2.187L1.208,0H2.937l.375-6.02c.125-2.1.229-4.457.271-6.207h.042c.4,1.666.958,3.478,1.625,5.457L7.519-.083H8.894l2.479-6.811c.708-1.937,1.291-3.687,1.77-5.332h.062c-.021,1.75.1,4.1.208,6.061Zm12,0A14.194,14.194,0,0,1,25.6-2.416v-3.77c0-2.02-.75-4.124-3.832-4.124a6.257,6.257,0,0,0-3.312.9l.417,1.208a5.023,5.023,0,0,1,2.624-.75,2.078,2.078,0,0,1,2.291,2.333v.208c-3.895-.021-6.061,1.312-6.061,3.749a2.872,2.872,0,0,0,3.083,2.9,3.755,3.755,0,0,0,3.083-1.5h.062L24.1,0ZM23.828-3.4a1.913,1.913,0,0,1-.1.583,2.508,2.508,0,0,1-2.437,1.687,1.622,1.622,0,0,1-1.729-1.75c0-1.958,2.27-2.312,4.27-2.27ZM28.556,0h1.833V-6.061a2.635,2.635,0,0,1,.125-.854A2.6,2.6,0,0,1,32.972-8.79C34.7-8.79,35.3-7.436,35.3-5.811V0h1.833V-6.02c0-3.458-2.166-4.291-3.562-4.291a3.707,3.707,0,0,0-3.333,1.9H30.2l-.1-1.666H28.473c.062.833.083,1.687.083,2.729ZM48.219-4.707a6.913,6.913,0,0,0,.062-.854c0-1.854-.875-4.749-4.166-4.749-2.937,0-4.728,2.4-4.728,5.436S41.241.208,44.345.208A8.165,8.165,0,0,0,47.7-.417l-.312-1.312a6.628,6.628,0,0,1-2.791.521,3.23,3.23,0,0,1-3.458-3.5ZM41.158-6.02C41.3-7.29,42.116-9,43.97-9c2.062,0,2.562,1.812,2.541,2.979ZM48.281,4.353a4.652,4.652,0,0,0,3.124-1.146c.9-.916,1.208-2.187,1.208-4.145v-9.144H50.781v8.436c0,2.416-.187,3.208-.687,3.791a2.966,2.966,0,0,1-2,.771Zm3.437-18.413a1.122,1.122,0,0,0-1.166,1.146,1.094,1.094,0,0,0,1.125,1.125,1.076,1.076,0,0,0,1.146-1.125A1.083,1.083,0,0,0,51.718-14.059Zm8.165,3.749c-2.791,0-5,1.979-5,5.353,0,3.187,2.1,5.186,4.832,5.186,2.437,0,5.02-1.625,5.02-5.353C64.736-8.207,62.778-10.31,59.883-10.31Zm-.042,1.375c2.166,0,3.02,2.166,3.02,3.874,0,2.27-1.312,3.916-3.062,3.916-1.791,0-3.062-1.666-3.062-3.874C56.738-6.936,57.675-8.936,59.841-8.936Zm18.5-5.853v6.02H78.3a3.371,3.371,0,0,0-3.041-1.541c-2.458,0-4.541,2.062-4.52,5.415,0,3.062,1.875,5.124,4.312,5.124A3.729,3.729,0,0,0,78.483-1.75h.042L78.608,0h1.645c-.062-.687-.083-1.708-.083-2.6V-14.788Zm0,10.56a3.184,3.184,0,0,1-.083.791A2.755,2.755,0,0,1,75.567-1.25c-1.979,0-2.979-1.687-2.979-3.728,0-2.229,1.125-3.895,3.02-3.895a2.7,2.7,0,0,1,2.645,2.125,3.236,3.236,0,0,1,.083.771Zm12.976-.479a6.913,6.913,0,0,0,.062-.854c0-1.854-.875-4.749-4.166-4.749-2.937,0-4.728,2.4-4.728,5.436S84.336.208,87.439.208a8.165,8.165,0,0,0,3.353-.625L90.48-1.729a6.628,6.628,0,0,1-2.791.521,3.23,3.23,0,0,1-3.458-3.5ZM84.252-6.02C84.4-7.29,85.211-9,87.064-9c2.062,0,2.562,1.812,2.541,2.979ZM97.645-12.5v2.416H96.083v1.4h1.562v5.5a3.735,3.735,0,0,0,.708,2.624,2.54,2.54,0,0,0,1.979.771,4.487,4.487,0,0,0,1.625-.25l-.083-1.375a4.077,4.077,0,0,1-1.062.125c-1.021,0-1.375-.708-1.375-1.958V-8.686h2.624v-1.4H99.437v-2.9Zm13.622,7.79a6.912,6.912,0,0,0,.062-.854c0-1.854-.875-4.749-4.166-4.749-2.937,0-4.728,2.4-4.728,5.436S104.29.208,107.393.208a8.165,8.165,0,0,0,3.353-.625l-.312-1.312a6.628,6.628,0,0,1-2.791.521,3.23,3.23,0,0,1-3.458-3.5ZM104.206-6.02C104.352-7.29,105.165-9,107.018-9c2.062,0,2.562,1.812,2.541,2.979Zm8.082-4.062L115.7-5.145,112.121,0h2.02L115.6-2.27c.375-.6.729-1.146,1.062-1.75h.042c.354.6.687,1.166,1.083,1.75L119.266,0h2.083l-3.541-5.207,3.437-4.874h-1.979l-1.416,2.145c-.333.542-.667,1.062-1,1.666h-.062c-.333-.562-.646-1.083-1.021-1.645l-1.437-2.166ZM124.056-12.5v2.416h-1.562v1.4h1.562v5.5a3.735,3.735,0,0,0,.708,2.624,2.54,2.54,0,0,0,1.979.771,4.487,4.487,0,0,0,1.625-.25l-.083-1.375a4.078,4.078,0,0,1-1.062.125c-1.021,0-1.375-.708-1.375-1.958V-8.686h2.624v-1.4h-2.624v-2.9Zm10.5,2.187c-2.791,0-5,1.979-5,5.353,0,3.187,2.1,5.186,4.832,5.186,2.437,0,5.02-1.625,5.02-5.353C139.407-8.207,137.449-10.31,134.554-10.31Zm-.042,1.375c2.166,0,3.02,2.166,3.02,3.874,0,2.27-1.312,3.916-3.062,3.916-1.791,0-3.062-1.666-3.062-3.874C131.409-6.936,132.346-8.936,134.512-8.936Zm6.5,8.456a5.749,5.749,0,0,0,2.833.687c2.4,0,3.77-1.25,3.77-3.02,0-1.5-.9-2.374-2.645-3.041-1.312-.5-1.916-.875-1.916-1.708,0-.75.6-1.375,1.687-1.375a3.923,3.923,0,0,1,2.062.583l.458-1.333a5.032,5.032,0,0,0-2.479-.625c-2.166,0-3.478,1.333-3.478,2.958,0,1.208.854,2.208,2.666,2.854,1.354.5,1.875.979,1.875,1.854,0,.833-.625,1.5-1.958,1.5a4.8,4.8,0,0,1-2.416-.729Z" transform="translate(257.602 310.555)" fill="#040506"/>
  <path id="Trazado_193452" data-name="Trazado 193452" d="M.875-.687a7.255,7.255,0,0,0,3.583.9c3.312,0,4.916-1.875,4.916-4.041,0-2.062-1.208-3.208-3.583-4.124C3.853-8.706,3-9.352,3-10.664c0-.958.729-2.1,2.645-2.1a5.591,5.591,0,0,1,2.666.667l.5-1.479a6.379,6.379,0,0,0-3.1-.687c-2.729,0-4.541,1.625-4.541,3.812,0,1.979,1.416,3.166,3.708,3.978C6.769-5.749,7.519-5,7.519-3.687c0,1.416-1.083,2.4-2.937,2.4a6.422,6.422,0,0,1-3.249-.916ZM19.142,0a14.194,14.194,0,0,1-.167-2.416v-3.77c0-2.02-.75-4.124-3.832-4.124a6.257,6.257,0,0,0-3.312.9l.417,1.208a5.023,5.023,0,0,1,2.624-.75,2.078,2.078,0,0,1,2.291,2.333v.208C13.268-6.436,11.1-5.1,11.1-2.666a2.872,2.872,0,0,0,3.083,2.9,3.755,3.755,0,0,0,3.083-1.5h.062L17.475,0ZM17.2-3.4a1.913,1.913,0,0,1-.1.583,2.508,2.508,0,0,1-2.437,1.687,1.622,1.622,0,0,1-1.729-1.75c0-1.958,2.27-2.312,4.27-2.27ZM21.933,0h1.833V-6.061a2.636,2.636,0,0,1,.125-.854A2.6,2.6,0,0,1,26.348-8.79c1.729,0,2.333,1.354,2.333,2.979V0h1.833V-6.02c0-3.458-2.166-4.291-3.562-4.291a3.707,3.707,0,0,0-3.333,1.9h-.042l-.1-1.666H21.849c.062.833.083,1.687.083,2.729ZM40.575-10.081l-.083,1.521H40.45A3.353,3.353,0,0,0,37.3-10.31c-2.312,0-4.541,1.937-4.541,5.353,0,2.791,1.791,4.916,4.291,4.916a3.6,3.6,0,0,0,3.208-1.687H40.3V-.6c0,2.541-1.375,3.52-3.249,3.52A5.685,5.685,0,0,1,34.1,2.125l-.458,1.4a6.507,6.507,0,0,0,3.353.833,5.344,5.344,0,0,0,3.666-1.208C41.637,2.27,42.1.854,42.1-1.458V-7.311c0-1.229.042-2.041.083-2.77Zm-.292,5.79a3.189,3.189,0,0,1-.146.979A2.68,2.68,0,0,1,37.6-1.437c-1.979,0-2.979-1.645-2.979-3.624,0-2.333,1.25-3.812,3-3.812a2.64,2.64,0,0,1,2.562,1.937,2.61,2.61,0,0,1,.1.833ZM44.907,0h1.812V-5.374a5.159,5.159,0,0,1,.083-.854A2.571,2.571,0,0,1,49.26-8.581a2.753,2.753,0,0,1,.625.062v-1.729a1.983,1.983,0,0,0-.521-.062A3.025,3.025,0,0,0,46.573-8.1H46.49l-.062-1.979h-1.6c.062.937.083,1.958.083,3.145ZM58.758,0a14.194,14.194,0,0,1-.167-2.416v-3.77c0-2.02-.75-4.124-3.833-4.124a6.257,6.257,0,0,0-3.312.9l.417,1.208a5.023,5.023,0,0,1,2.624-.75,2.078,2.078,0,0,1,2.291,2.333v.208c-3.895-.021-6.061,1.312-6.061,3.749A2.872,2.872,0,0,0,53.8.229a3.755,3.755,0,0,0,3.083-1.5h.062L57.092,0ZM56.821-3.4a1.913,1.913,0,0,1-.1.583A2.508,2.508,0,0,1,54.28-1.125a1.622,1.622,0,0,1-1.729-1.75c0-1.958,2.27-2.312,4.27-2.27Zm11.6-11.393v6.02h-.042A3.371,3.371,0,0,0,65.34-10.31c-2.458,0-4.541,2.062-4.52,5.415,0,3.062,1.875,5.124,4.312,5.124A3.729,3.729,0,0,0,68.568-1.75h.042L68.693,0h1.645c-.062-.687-.083-1.708-.083-2.6V-14.788Zm0,10.56a3.184,3.184,0,0,1-.083.791A2.755,2.755,0,0,1,65.652-1.25c-1.979,0-2.979-1.687-2.979-3.728,0-2.229,1.125-3.895,3.02-3.895a2.7,2.7,0,0,1,2.645,2.125,3.236,3.236,0,0,1,.083.771Zm9.144-6.082c-2.791,0-5,1.979-5,5.353,0,3.187,2.1,5.186,4.832,5.186,2.437,0,5.02-1.625,5.02-5.353C82.42-8.207,80.462-10.31,77.566-10.31Zm-.042,1.375c2.166,0,3.02,2.166,3.02,3.874,0,2.27-1.312,3.916-3.062,3.916-1.791,0-3.062-1.666-3.062-3.874C74.421-6.936,75.359-8.936,77.525-8.936Zm6.5,8.456a5.749,5.749,0,0,0,2.833.687c2.4,0,3.77-1.25,3.77-3.02,0-1.5-.9-2.374-2.645-3.041-1.312-.5-1.916-.875-1.916-1.708,0-.75.6-1.375,1.687-1.375a3.923,3.923,0,0,1,2.062.583l.458-1.333a5.032,5.032,0,0,0-2.479-.625c-2.166,0-3.478,1.333-3.478,2.958,0,1.208.854,2.208,2.666,2.854,1.354.5,1.875.979,1.875,1.854,0,.833-.625,1.5-1.958,1.5a4.8,4.8,0,0,1-2.416-.729Z" transform="translate(257.602 333.343)" fill="#040506"/>
  <path id="Trazado_193453" data-name="Trazado 193453" d="M.875-.687a7.255,7.255,0,0,0,3.583.9c3.312,0,4.916-1.875,4.916-4.041,0-2.062-1.208-3.208-3.583-4.124C3.853-8.706,3-9.352,3-10.664c0-.958.729-2.1,2.645-2.1a5.591,5.591,0,0,1,2.666.667l.5-1.479a6.379,6.379,0,0,0-3.1-.687c-2.729,0-4.541,1.625-4.541,3.812,0,1.979,1.416,3.166,3.708,3.978C6.769-5.749,7.519-5,7.519-3.687c0,1.416-1.083,2.4-2.937,2.4a6.422,6.422,0,0,1-3.249-.916ZM16.309-10.31c-2.791,0-5,1.979-5,5.353,0,3.187,2.1,5.186,4.832,5.186,2.437,0,5.02-1.625,5.02-5.353C21.162-8.207,19.2-10.31,16.309-10.31Zm-.042,1.375c2.166,0,3.02,2.166,3.02,3.874,0,2.27-1.312,3.916-3.062,3.916-1.791,0-3.062-1.666-3.062-3.874C13.164-6.936,14.1-8.936,16.267-8.936ZM24.974,0l.083-1.666h.062a3.591,3.591,0,0,0,3.374,1.9c2.25,0,4.52-1.791,4.52-5.395.021-3.062-1.75-5.145-4.249-5.145a3.755,3.755,0,0,0-3.437,1.854h-.042v-6.332H23.474V-2.6c0,.9-.042,1.916-.083,2.6Zm.312-5.853a3.612,3.612,0,0,1,.1-.75,2.922,2.922,0,0,1,2.791-2.25c1.958,0,3,1.729,3,3.749,0,2.312-1.146,3.874-3.062,3.874a2.828,2.828,0,0,1-2.749-2.145,3.432,3.432,0,0,1-.083-.667ZM35.326,0h1.812V-5.374a5.159,5.159,0,0,1,.083-.854,2.571,2.571,0,0,1,2.458-2.354,2.753,2.753,0,0,1,.625.062v-1.729a1.983,1.983,0,0,0-.521-.062A3.025,3.025,0,0,0,36.992-8.1h-.083l-.062-1.979h-1.6c.062.937.083,1.958.083,3.145Zm14.5-4.707a6.913,6.913,0,0,0,.062-.854c0-1.854-.875-4.749-4.166-4.749-2.937,0-4.728,2.4-4.728,5.436S42.845.208,45.948.208A8.165,8.165,0,0,0,49.3-.417l-.312-1.312a6.628,6.628,0,0,1-2.791.521,3.23,3.23,0,0,1-3.458-3.5ZM42.762-6.02C42.907-7.29,43.72-9,45.573-9c2.062,0,2.562,1.812,2.541,2.979ZM53.988,0V-10.081H52.155V0Zm-.916-14.059a1.117,1.117,0,0,0-1.146,1.146,1.09,1.09,0,0,0,1.1,1.125A1.082,1.082,0,0,0,54.2-12.914,1.088,1.088,0,0,0,53.072-14.059ZM57.029,0h1.791V-6.082a2.526,2.526,0,0,1,.146-.9,2.5,2.5,0,0,1,2.27-1.833c1.4,0,2.1,1.166,2.1,2.77V0h1.791V-6.228a3.018,3.018,0,0,1,.146-.916,2.373,2.373,0,0,1,2.166-1.666c1.479,0,2.187,1.166,2.187,3.1V0h1.791V-5.936c0-3.5-1.979-4.374-3.312-4.374a3.44,3.44,0,0,0-2.229.708A4.153,4.153,0,0,0,64.757-8.29h-.042a2.98,2.98,0,0,0-2.854-2.02A3.475,3.475,0,0,0,58.7-8.456h-.062l-.083-1.625h-1.6c.062.833.083,1.687.083,2.729ZM74.4,4.124h1.812V-1.354h.042a3.535,3.535,0,0,0,3.1,1.583c2.374,0,4.582-1.791,4.582-5.415,0-3.062-1.833-5.124-4.27-5.124a3.963,3.963,0,0,0-3.583,1.958h-.042l-.083-1.729H74.317c.042.958.083,2,.083,3.291Zm1.812-9.956a2.973,2.973,0,0,1,.125-.75,2.925,2.925,0,0,1,2.77-2.27c1.937,0,3,1.729,3,3.749,0,2.312-1.125,3.895-3.062,3.895A2.828,2.828,0,0,1,76.3-3.353a4.128,4.128,0,0,1-.083-.75ZM86.252,0h1.812V-5.374a5.159,5.159,0,0,1,.083-.854,2.571,2.571,0,0,1,2.458-2.354,2.753,2.753,0,0,1,.625.062v-1.729a1.983,1.983,0,0,0-.521-.062A3.025,3.025,0,0,0,87.918-8.1h-.083l-.062-1.979h-1.6c.062.937.083,1.958.083,3.145Zm14.5-4.707a6.912,6.912,0,0,0,.062-.854c0-1.854-.875-4.749-4.166-4.749-2.937,0-4.728,2.4-4.728,5.436S93.771.208,96.875.208a8.165,8.165,0,0,0,3.353-.625l-.312-1.312a6.628,6.628,0,0,1-2.791.521,3.23,3.23,0,0,1-3.458-3.5ZM93.688-6.02C93.834-7.29,94.646-9,96.5-9c2.062,0,2.562,1.812,2.541,2.979Zm8.686,5.54a5.749,5.749,0,0,0,2.833.687c2.4,0,3.77-1.25,3.77-3.02,0-1.5-.9-2.374-2.645-3.041-1.312-.5-1.916-.875-1.916-1.708,0-.75.6-1.375,1.687-1.375a3.923,3.923,0,0,1,2.062.583l.458-1.333a5.032,5.032,0,0,0-2.479-.625c-2.166,0-3.478,1.333-3.478,2.958,0,1.208.854,2.208,2.666,2.854,1.354.5,1.875.979,1.875,1.854,0,.833-.625,1.5-1.958,1.5a4.8,4.8,0,0,1-2.416-.729ZM113.163,0V-10.081H111.33V0Zm-.916-14.059a1.117,1.117,0,0,0-1.146,1.146,1.09,1.09,0,0,0,1.1,1.125,1.082,1.082,0,0,0,1.166-1.125A1.088,1.088,0,0,0,112.246-14.059Zm8.227,3.749c-2.791,0-5,1.979-5,5.353,0,3.187,2.1,5.186,4.832,5.186,2.437,0,5.02-1.625,5.02-5.353C125.327-8.207,123.369-10.31,120.474-10.31Zm-.042,1.375c2.166,0,3.02,2.166,3.02,3.874,0,2.27-1.312,3.916-3.062,3.916-1.791,0-3.062-1.666-3.062-3.874C117.329-6.936,118.266-8.936,120.432-8.936Zm.687-5.5-1.833,2.979H120.6l2.541-2.979ZM127.639,0h1.833V-6.061a2.635,2.635,0,0,1,.125-.854,2.6,2.6,0,0,1,2.458-1.875c1.729,0,2.333,1.354,2.333,2.979V0h1.833V-6.02c0-3.458-2.166-4.291-3.562-4.291a3.707,3.707,0,0,0-3.333,1.9h-.042l-.1-1.666h-1.625c.062.833.083,1.687.083,2.729Zm14.643-10.081,3.728,9.29a1.6,1.6,0,0,1,.125.479,1.316,1.316,0,0,1-.146.437,5.557,5.557,0,0,1-1.541,2.041,4.848,4.848,0,0,1-1.6.9L143.3,4.6a4.967,4.967,0,0,0,2.25-1.187C146.8,2.333,147.7.562,149.009-2.9l2.749-7.186h-1.937l-2,5.915c-.25.729-.458,1.5-.646,2.1h-.042c-.167-.6-.417-1.4-.646-2.062l-2.208-5.957Zm17.267-1.854-.354,1.854h-1.437l-.271,1.354h1.458l-1,5.1a9.382,9.382,0,0,0-.208,1.9A1.874,1.874,0,0,0,159.861.229a4.656,4.656,0,0,0,1.333-.187l.083-1.375a3.248,3.248,0,0,1-.812.083.864.864,0,0,1-.958-.979,8.828,8.828,0,0,1,.187-1.6l.937-4.895h2.416l.271-1.354H160.9l.458-2.416ZM165.152,0l.833-4.437c.437-2.354,1.77-4.166,3.27-4.166a2.457,2.457,0,0,1,.458.042l.333-1.708a3.419,3.419,0,0,0-.479-.042,3.643,3.643,0,0,0-3.083,2.416h-.062c.1-.771.187-1.479.271-2.187h-1.521c-.1.937-.271,2.27-.521,3.583L163.423,0ZM177.92,0a23.044,23.044,0,0,1,.437-4.666l1.021-5.249a9.4,9.4,0,0,0-2.708-.4A7.04,7.04,0,0,0,169.692-3.1c0,1.916,1.125,3.333,2.9,3.333,1.437,0,2.812-.75,3.916-2.833h.042a26.015,26.015,0,0,0-.229,2.6Zm-1.062-5.749c-.5,2.687-2.208,4.562-3.645,4.562-1.333,0-1.729-1.1-1.729-2.229.021-2.791,2.145-5.52,4.749-5.52a4.669,4.669,0,0,1,1.208.146Zm4.457,9.873.812-4.353h.042a4.431,4.431,0,0,0,2.187.458c3.353,0,5.895-3.353,5.895-6.894,0-1.854-.916-3.645-3.1-3.645a4.561,4.561,0,0,0-3.624,2.125h-.042l.292-1.916H182.19c-.146,1.021-.354,2.4-.562,3.6l-2.02,10.623ZM182.939-4.5c.521-2.812,2.229-4.374,3.583-4.374,1.458,0,1.937,1.271,1.937,2.333,0,2.645-1.875,5.395-4.1,5.395a3.041,3.041,0,0,1-1.916-.542Zm9.31,8.623.812-4.353h.042a4.431,4.431,0,0,0,2.187.458c3.353,0,5.895-3.353,5.895-6.894,0-1.854-.916-3.645-3.1-3.645a4.561,4.561,0,0,0-3.624,2.125h-.042l.292-1.916h-1.583c-.146,1.021-.354,2.4-.562,3.6l-2.02,10.623ZM193.874-4.5c.521-2.812,2.229-4.374,3.583-4.374,1.458,0,1.937,1.271,1.937,2.333,0,2.645-1.875,5.395-4.1,5.395a3.041,3.041,0,0,1-1.916-.542ZM204.1,0l1.937-10.081H204.31L202.373,0Zm1.521-11.81a1.139,1.139,0,0,0,1.166-1.166,1,1,0,0,0-1.021-1.083,1.16,1.16,0,0,0-1.146,1.166.993.993,0,0,0,.979,1.083ZM208.871,0l.916-4.895c.458-2.5,2.208-3.978,3.437-3.978,1.187,0,1.583.75,1.583,1.77a6.629,6.629,0,0,1-.146,1.291L213.558,0h1.729l1.125-5.874A9.732,9.732,0,0,0,216.6-7.5a2.481,2.481,0,0,0-2.562-2.812A4.408,4.408,0,0,0,210.308-8.1h-.042l.25-1.979h-1.541c-.125.833-.25,1.812-.479,2.937L207.142,0Zm9,3.645a5.98,5.98,0,0,0,3.02.708,5.313,5.313,0,0,0,3.52-1.125c1.062-.9,1.625-2.374,2.041-4.5L227.992-9.6a8.2,8.2,0,0,0-3.228-.708A6.575,6.575,0,0,0,218.369-3.5c0,1.791,1.041,3.5,3.062,3.5a4.021,4.021,0,0,0,3.5-2.145h.062l-.333,1.5c-.6,2.729-1.937,3.6-3.624,3.6a5.343,5.343,0,0,1-2.666-.667Zm7.582-8.873c-.354,1.979-1.875,3.853-3.353,3.853-1.541,0-1.937-1.312-1.937-2.416.021-2.5,1.75-5.124,4.27-5.124a4.208,4.208,0,0,1,1.666.333Z" transform="translate(257.602 355.146)" fill="#040506"/>
  <path id="Trazado_193454" data-name="Trazado 193454" d="M13.768,0h1.77l-.875-14.039H12.351l-2.5,6.79C9.227-5.478,8.727-3.937,8.373-2.52H8.311c-.354-1.458-.833-3-1.416-4.728l-2.4-6.79H2.187L1.208,0H2.937l.375-6.02c.125-2.1.229-4.457.271-6.207h.042c.4,1.666.958,3.478,1.625,5.457L7.519-.083H8.894l2.479-6.811c.708-1.937,1.291-3.687,1.77-5.332h.062c-.021,1.75.1,4.1.208,6.061Zm9.019-10.31c-2.791,0-5,1.979-5,5.353,0,3.187,2.1,5.186,4.832,5.186,2.437,0,5.02-1.625,5.02-5.353C27.64-8.207,25.682-10.31,22.787-10.31Zm-.042,1.375c2.166,0,3.02,2.166,3.02,3.874,0,2.27-1.312,3.916-3.062,3.916-1.791,0-3.062-1.666-3.062-3.874C19.642-6.936,20.579-8.936,22.745-8.936Zm14.08-5.853v6.02h-.042a3.371,3.371,0,0,0-3.041-1.541c-2.458,0-4.541,2.062-4.52,5.415,0,3.062,1.875,5.124,4.312,5.124A3.729,3.729,0,0,0,36.971-1.75h.042L37.1,0h1.645c-.062-.687-.083-1.708-.083-2.6V-14.788Zm0,10.56a3.184,3.184,0,0,1-.083.791A2.755,2.755,0,0,1,34.055-1.25c-1.979,0-2.979-1.687-2.979-3.728,0-2.229,1.125-3.895,3.02-3.895a2.7,2.7,0,0,1,2.645,2.125,3.236,3.236,0,0,1,.083.771ZM49.8-4.707a6.913,6.913,0,0,0,.062-.854c0-1.854-.875-4.749-4.166-4.749-2.937,0-4.728,2.4-4.728,5.436S42.824.208,45.928.208a8.165,8.165,0,0,0,3.353-.625l-.312-1.312a6.628,6.628,0,0,1-2.791.521,3.23,3.23,0,0,1-3.458-3.5ZM42.741-6.02C42.887-7.29,43.7-9,45.553-9c2.062,0,2.562,1.812,2.541,2.979ZM52.134,0h1.833V-14.788H52.134ZM61.32-10.31c-2.791,0-5,1.979-5,5.353,0,3.187,2.1,5.186,4.832,5.186,2.437,0,5.02-1.625,5.02-5.353C66.173-8.207,64.215-10.31,61.32-10.31Zm-.042,1.375c2.166,0,3.02,2.166,3.02,3.874,0,2.27-1.312,3.916-3.062,3.916-1.791,0-3.062-1.666-3.062-3.874C58.175-6.936,59.112-8.936,61.278-8.936Zm6.5,8.456A5.749,5.749,0,0,0,70.61.208c2.4,0,3.77-1.25,3.77-3.02,0-1.5-.9-2.374-2.645-3.041-1.312-.5-1.916-.875-1.916-1.708,0-.75.6-1.375,1.687-1.375a3.923,3.923,0,0,1,2.062.583l.458-1.333a5.032,5.032,0,0,0-2.479-.625c-2.166,0-3.478,1.333-3.478,2.958,0,1.208.854,2.208,2.666,2.854,1.354.5,1.875.979,1.875,1.854,0,.833-.625,1.5-1.958,1.5a4.8,4.8,0,0,1-2.416-.729ZM88.023-14.788v6.02h-.042A3.371,3.371,0,0,0,84.94-10.31c-2.458,0-4.541,2.062-4.52,5.415,0,3.062,1.875,5.124,4.312,5.124A3.729,3.729,0,0,0,88.168-1.75h.042L88.293,0h1.645c-.062-.687-.083-1.708-.083-2.6V-14.788Zm0,10.56a3.184,3.184,0,0,1-.083.791A2.755,2.755,0,0,1,85.252-1.25c-1.979,0-2.979-1.687-2.979-3.728,0-2.229,1.125-3.895,3.02-3.895a2.7,2.7,0,0,1,2.645,2.125,3.236,3.236,0,0,1,.083.771ZM101-4.707a6.913,6.913,0,0,0,.062-.854c0-1.854-.875-4.749-4.166-4.749-2.937,0-4.728,2.4-4.728,5.436S94.021.208,97.125.208a8.165,8.165,0,0,0,3.353-.625l-.312-1.312a6.628,6.628,0,0,1-2.791.521,3.23,3.23,0,0,1-3.458-3.5ZM93.938-6.02C94.084-7.29,94.9-9,96.75-9c2.062,0,2.562,1.812,2.541,2.979Zm20.683,4.27a5.207,5.207,0,0,1-2.25.5,3.456,3.456,0,0,1-3.5-3.77,3.488,3.488,0,0,1,3.562-3.812,4.25,4.25,0,0,1,2.125.479l.417-1.416a6.127,6.127,0,0,0-2.541-.521,5.122,5.122,0,0,0-5.415,5.353,4.789,4.789,0,0,0,5.02,5.145,6.751,6.751,0,0,0,2.9-.583ZM121.1-10.31c-2.791,0-5,1.979-5,5.353,0,3.187,2.1,5.186,4.832,5.186,2.437,0,5.02-1.625,5.02-5.353C125.952-8.207,123.994-10.31,121.1-10.31Zm-.042,1.375c2.166,0,3.02,2.166,3.02,3.874,0,2.27-1.312,3.916-3.062,3.916-1.791,0-3.062-1.666-3.062-3.874C117.953-6.936,118.891-8.936,121.057-8.936ZM128.264,0H130.1V-14.788h-1.833Zm9.186-10.31c-2.791,0-5,1.979-5,5.353,0,3.187,2.1,5.186,4.832,5.186,2.437,0,5.02-1.625,5.02-5.353C142.3-8.207,140.344-10.31,137.449-10.31Zm-.042,1.375c2.166,0,3.02,2.166,3.02,3.874,0,2.27-1.312,3.916-3.062,3.916-1.791,0-3.062-1.666-3.062-3.874C134.3-6.936,135.241-8.936,137.408-8.936ZM144.614,0h1.812V-5.374a5.159,5.159,0,0,1,.083-.854,2.571,2.571,0,0,1,2.458-2.354,2.753,2.753,0,0,1,.625.062v-1.729a1.983,1.983,0,0,0-.521-.062A3.025,3.025,0,0,0,146.281-8.1H146.2l-.062-1.979h-1.6c.062.937.083,1.958.083,3.145Z" transform="translate(257.602 378.916)" fill="#040506"/>
  <path id="Trazado_193455" data-name="Trazado 193455" d="M6.665,0l5.02-14.039H9.748L7.373-7.1C6.749-5.27,6.165-3.5,5.77-1.875H5.728c-.375-1.645-.9-3.353-1.5-5.249L2.041-14.039H.083L4.666,0ZM14.33,0V-10.081H12.5V0Zm-.125-14.434-1.833,2.979h1.312l2.541-2.979ZM17.371,0H19.2V-6.061a2.636,2.636,0,0,1,.125-.854A2.6,2.6,0,0,1,21.787-8.79c1.729,0,2.333,1.354,2.333,2.979V0h1.833V-6.02c0-3.458-2.166-4.291-3.562-4.291a3.707,3.707,0,0,0-3.333,1.9h-.042l-.1-1.666H17.288c.062.833.083,1.687.083,2.729ZM35.8-1.75a5.207,5.207,0,0,1-2.25.5,3.456,3.456,0,0,1-3.5-3.77,3.488,3.488,0,0,1,3.562-3.812,4.25,4.25,0,0,1,2.125.479l.417-1.416a6.127,6.127,0,0,0-2.541-.521A5.122,5.122,0,0,0,28.2-4.936,4.789,4.789,0,0,0,33.222.208a6.751,6.751,0,0,0,2.9-.583ZM46.7-10.081H44.865v6.186a2.681,2.681,0,0,1-.167.937,2.65,2.65,0,0,1-2.416,1.666c-1.666,0-2.25-1.291-2.25-3.208v-5.582H38.2v5.895C38.2-.646,40.1.229,41.678.229a3.793,3.793,0,0,0,3.333-1.875h.042L45.157,0h1.625c-.062-.791-.083-1.708-.083-2.749ZM49.739,0h1.833V-14.788H49.739Zm9.185-10.31c-2.791,0-5,1.979-5,5.353,0,3.187,2.1,5.186,4.832,5.186,2.437,0,5.02-1.625,5.02-5.353C63.778-8.207,61.82-10.31,58.925-10.31Zm-.042,1.375c2.166,0,3.02,2.166,3.02,3.874,0,2.27-1.312,3.916-3.062,3.916-1.791,0-3.062-1.666-3.062-3.874C55.78-6.936,56.717-8.936,58.883-8.936Zm6.5,8.456a5.749,5.749,0,0,0,2.833.687c2.4,0,3.77-1.25,3.77-3.02,0-1.5-.9-2.374-2.645-3.041-1.312-.5-1.916-.875-1.916-1.708,0-.75.6-1.375,1.687-1.375a3.923,3.923,0,0,1,2.062.583l.458-1.333a5.032,5.032,0,0,0-2.479-.625c-2.166,0-3.478,1.333-3.478,2.958,0,1.208.854,2.208,2.666,2.854,1.354.5,1.875.979,1.875,1.854,0,.833-.625,1.5-1.958,1.5a4.8,4.8,0,0,1-2.416-.729ZM86.856-4.707a6.912,6.912,0,0,0,.062-.854c0-1.854-.875-4.749-4.166-4.749-2.937,0-4.728,2.4-4.728,5.436S79.878.208,82.982.208a8.165,8.165,0,0,0,3.353-.625l-.312-1.312a6.628,6.628,0,0,1-2.791.521,3.23,3.23,0,0,1-3.458-3.5ZM79.8-6.02C79.941-7.29,80.753-9,82.607-9c2.062,0,2.562,1.812,2.541,2.979ZM93.6,0h1.833V-6.082a2.219,2.219,0,0,1,.125-.875A2.633,2.633,0,0,1,98.02-8.79c1.729,0,2.333,1.375,2.333,3V0h1.833V-6c0-3.478-2.166-4.312-3.52-4.312a3.772,3.772,0,0,0-1.875.521A3.4,3.4,0,0,0,95.479-8.5h-.042v-6.29H93.6ZM107,0V-10.081h-1.833V0Zm-.916-14.059a1.117,1.117,0,0,0-1.146,1.146,1.09,1.09,0,0,0,1.1,1.125,1.082,1.082,0,0,0,1.166-1.125A1.088,1.088,0,0,0,106.081-14.059Zm3.957,18.184h1.812V-1.354h.042A3.535,3.535,0,0,0,115,.229c2.374,0,4.582-1.791,4.582-5.415,0-3.062-1.833-5.124-4.27-5.124a3.963,3.963,0,0,0-3.583,1.958h-.042l-.083-1.729h-1.645c.042.958.083,2,.083,3.291Zm1.812-9.956a2.973,2.973,0,0,1,.125-.75,2.925,2.925,0,0,1,2.77-2.27c1.937,0,3,1.729,3,3.749,0,2.312-1.125,3.895-3.062,3.895a2.828,2.828,0,0,1-2.749-2.145,4.128,4.128,0,0,1-.083-.75Zm18.142,1.125a6.913,6.913,0,0,0,.062-.854c0-1.854-.875-4.749-4.166-4.749-2.937,0-4.728,2.4-4.728,5.436S123.015.208,126.118.208a8.165,8.165,0,0,0,3.353-.625l-.312-1.312a6.628,6.628,0,0,1-2.791.521,3.23,3.23,0,0,1-3.458-3.5ZM122.932-6.02C123.077-7.29,123.89-9,125.743-9c2.062,0,2.562,1.812,2.541,2.979ZM132.325,0h1.812V-5.374a5.159,5.159,0,0,1,.083-.854,2.571,2.571,0,0,1,2.458-2.354,2.753,2.753,0,0,1,.625.062v-1.729a1.983,1.983,0,0,0-.521-.062A3.025,3.025,0,0,0,133.992-8.1h-.083l-.062-1.979h-1.6c.062.937.083,1.958.083,3.145Zm6.6-10.081L142.761,0h1.75l3.957-10.081h-1.916l-1.958,5.665c-.333.916-.625,1.75-.854,2.583h-.062a25.926,25.926,0,0,0-.812-2.583l-1.979-5.665ZM152.029,0V-10.081H150.2V0ZM151.9-14.434l-1.833,2.979h1.312l2.541-2.979ZM155.07,0H156.9V-6.061a2.636,2.636,0,0,1,.125-.854,2.6,2.6,0,0,1,2.458-1.875c1.729,0,2.333,1.354,2.333,2.979V0h1.833V-6.02c0-3.458-2.166-4.291-3.562-4.291a3.707,3.707,0,0,0-3.333,1.9h-.042l-.1-1.666h-1.625c.062.833.083,1.687.083,2.729ZM173.5-1.75a5.207,5.207,0,0,1-2.25.5,3.456,3.456,0,0,1-3.5-3.77,3.488,3.488,0,0,1,3.562-3.812,4.251,4.251,0,0,1,2.125.479l.417-1.416a6.127,6.127,0,0,0-2.541-.521A5.122,5.122,0,0,0,165.9-4.936a4.789,4.789,0,0,0,5.02,5.145,6.751,6.751,0,0,0,2.9-.583ZM184.4-10.081h-1.833v6.186a2.681,2.681,0,0,1-.167.937,2.65,2.65,0,0,1-2.416,1.666c-1.666,0-2.25-1.291-2.25-3.208v-5.582H175.9v5.895c0,3.541,1.9,4.416,3.478,4.416a3.793,3.793,0,0,0,3.333-1.875h.042l.1,1.645h1.625c-.062-.791-.083-1.708-.083-2.749ZM187.438,0h1.833V-14.788h-1.833Zm9.186-10.31c-2.791,0-5,1.979-5,5.353,0,3.187,2.1,5.186,4.832,5.186,2.437,0,5.02-1.625,5.02-5.353C201.477-8.207,199.519-10.31,196.624-10.31Zm-.042,1.375c2.166,0,3.02,2.166,3.02,3.874,0,2.27-1.312,3.916-3.062,3.916-1.791,0-3.062-1.666-3.062-3.874C193.479-6.936,194.416-8.936,196.582-8.936Zm6.5,8.456a5.749,5.749,0,0,0,2.833.687c2.4,0,3.77-1.25,3.77-3.02,0-1.5-.9-2.374-2.645-3.041-1.312-.5-1.916-.875-1.916-1.708,0-.75.6-1.375,1.687-1.375a3.923,3.923,0,0,1,2.062.583l.458-1.333a5.032,5.032,0,0,0-2.479-.625c-2.166,0-3.478,1.333-3.478,2.958,0,1.208.854,2.208,2.666,2.854,1.354.5,1.875.979,1.875,1.854,0,.833-.625,1.5-1.958,1.5a4.8,4.8,0,0,1-2.416-.729Z" transform="translate(257.602 401.702)" fill="#040506"/>
  <path id="Trazado_193075" data-name="Trazado 193075" d="M259.185,410.618a20.97,20.97,0,0,1,3.478-.271,5.766,5.766,0,0,1,3.937,1.166,3.774,3.774,0,0,1,1.229,2.937,4.133,4.133,0,0,1-1.083,3,5.817,5.817,0,0,1-4.291,1.542,6.249,6.249,0,0,1-1.458-.125v5.623h-1.812ZM261,417.387a6.087,6.087,0,0,0,1.5.146c2.187,0,3.52-1.063,3.52-3,0-1.853-1.312-2.749-3.312-2.749a7.568,7.568,0,0,0-1.708.146Zm9.706,2.4a3.23,3.23,0,0,0,3.458,3.5,6.624,6.624,0,0,0,2.791-.521l.312,1.313a8.172,8.172,0,0,1-3.353.624c-3.1,0-4.957-2.041-4.957-5.082s1.791-5.436,4.728-5.436c3.291,0,4.165,2.9,4.165,4.749a6.893,6.893,0,0,1-.062.854Zm5.374-1.312c.021-1.167-.479-2.979-2.541-2.979-1.854,0-2.666,1.708-2.812,2.979Zm4.041-.917c0-1.187-.021-2.207-.083-3.145h1.6l.062,1.979h.083a3.025,3.025,0,0,1,2.791-2.208,1.968,1.968,0,0,1,.521.063v1.728a2.791,2.791,0,0,0-.625-.062,2.572,2.572,0,0,0-2.458,2.354,5.213,5.213,0,0,0-.083.853v5.374h-1.812Zm7.623,6.936V415.8h-1.416v-1.4h1.416v-.541a4.04,4.04,0,0,1,4.395-4.4,5.046,5.046,0,0,1,2.562.667l-.521,1.395a3.855,3.855,0,0,0-2.124-.583c-1.937,0-2.5,1.354-2.5,2.957v.5h5.853v10.081h-1.812V415.8h-4.041v8.685ZM298.447,409.7h1.833v14.788h-1.833Zm5.936,10.081a3.23,3.23,0,0,0,3.458,3.5,6.624,6.624,0,0,0,2.791-.521l.312,1.313a8.176,8.176,0,0,1-3.353.624c-3.1,0-4.957-2.041-4.957-5.082s1.791-5.436,4.728-5.436c3.291,0,4.165,2.9,4.165,4.749a6.892,6.892,0,0,1-.062.854Zm5.374-1.312c.021-1.167-.479-2.979-2.541-2.979-1.854,0-2.666,1.708-2.812,2.979Zm3.791,4.145a4.807,4.807,0,0,0,2.416.729c1.333,0,1.958-.667,1.958-1.5,0-.875-.521-1.354-1.874-1.854-1.813-.645-2.666-1.645-2.666-2.853,0-1.625,1.312-2.958,3.478-2.958a5.033,5.033,0,0,1,2.478.625l-.458,1.333a3.925,3.925,0,0,0-2.062-.583c-1.083,0-1.687.625-1.687,1.375,0,.833.6,1.208,1.916,1.707,1.75.667,2.645,1.542,2.645,3.041,0,1.771-1.374,3.02-3.769,3.02a5.745,5.745,0,0,1-2.833-.687Zm13.581-8.207,2.207,5.957c.229.667.479,1.458.646,2.062h.042c.187-.6.4-1.374.645-2.1l2-5.916h1.937l-2.749,7.186c-1.313,3.458-2.208,5.228-3.458,6.311a4.969,4.969,0,0,1-2.249,1.187l-.459-1.541a4.828,4.828,0,0,0,1.6-.9,5.545,5.545,0,0,0,1.541-2.041,1.3,1.3,0,0,0,.146-.437,1.577,1.577,0,0,0-.125-.479l-3.728-9.29Zm19.141,10.081-.146-1.27h-.062a3.758,3.758,0,0,1-3.083,1.5,2.872,2.872,0,0,1-3.082-2.895c0-2.437,2.166-3.77,6.061-3.749v-.208a2.078,2.078,0,0,0-2.291-2.333,5.025,5.025,0,0,0-2.625.75l-.416-1.208a6.251,6.251,0,0,1,3.311-.9c3.083,0,3.833,2.1,3.833,4.124v3.77a14.19,14.19,0,0,0,.166,2.416ZM346,419.345c-2-.042-4.27.312-4.27,2.27a1.622,1.622,0,0,0,1.729,1.749,2.508,2.508,0,0,0,2.437-1.687,1.89,1.89,0,0,0,.1-.583Zm11.914,4.769a6.749,6.749,0,0,1-2.895.583,4.789,4.789,0,0,1-5.02-5.144,5.122,5.122,0,0,1,5.416-5.353,6.126,6.126,0,0,1,2.541.521l-.417,1.416a4.246,4.246,0,0,0-2.124-.479,3.8,3.8,0,0,0-.063,7.581,5.212,5.212,0,0,0,2.25-.5Zm11.144-4.749c0,3.729-2.583,5.353-5.02,5.353-2.729,0-4.832-2-4.832-5.186,0-3.374,2.208-5.353,5-5.353C367.1,414.179,369.057,416.283,369.057,419.365Zm-8,.105c0,2.207,1.271,3.874,3.062,3.874,1.75,0,3.062-1.646,3.062-3.916,0-1.708-.854-3.874-3.02-3.874S361.058,417.553,361.058,419.47Zm10.311-1.771c0-1.291-.042-2.333-.084-3.291h1.646l.083,1.729h.042a3.963,3.963,0,0,1,3.582-1.958c2.437,0,4.27,2.062,4.27,5.124,0,3.624-2.208,5.415-4.582,5.415a3.536,3.536,0,0,1-3.1-1.583h-.041v5.478h-1.812Zm1.812,2.687a4.094,4.094,0,0,0,.083.75,2.828,2.828,0,0,0,2.749,2.145c1.937,0,3.062-1.583,3.062-3.9,0-2.02-1.062-3.749-3-3.749a2.925,2.925,0,0,0-2.77,2.27,2.958,2.958,0,0,0-.125.75ZM383.22,409.7h1.833v14.788H383.22Zm10.5,14.788-.146-1.27h-.063a3.754,3.754,0,0,1-3.082,1.5,2.872,2.872,0,0,1-3.083-2.895c0-2.437,2.166-3.77,6.061-3.749v-.208a2.078,2.078,0,0,0-2.291-2.333,5.024,5.024,0,0,0-2.624.75l-.417-1.208a6.252,6.252,0,0,1,3.312-.9c3.082,0,3.832,2.1,3.832,4.124v3.77a14.184,14.184,0,0,0,.167,2.416Zm-.271-5.144c-2-.042-4.27.312-4.27,2.27a1.622,1.622,0,0,0,1.729,1.749,2.509,2.509,0,0,0,2.437-1.687,1.921,1.921,0,0,0,.1-.583Zm4.728-2.208c0-1.042-.021-1.9-.083-2.729h1.6l.083,1.625h.062a3.476,3.476,0,0,1,3.166-1.854,2.981,2.981,0,0,1,2.854,2.021h.041a4.17,4.17,0,0,1,1.125-1.313,3.443,3.443,0,0,1,2.229-.708c1.333,0,3.311.875,3.311,4.374v5.936h-1.791v-5.707c0-1.937-.708-3.1-2.187-3.1a2.372,2.372,0,0,0-2.166,1.666,3.028,3.028,0,0,0-.146.917v6.227h-1.791v-6.04c0-1.6-.708-2.77-2.1-2.77a2.733,2.733,0,0,0-2.416,2.728v6.082h-1.791Zm19.412-5.561a1.135,1.135,0,0,1-2.27,0,1.117,1.117,0,0,1,1.146-1.146A1.088,1.088,0,0,1,417.587,411.576Zm-2.041,12.913V414.408h1.833v10.081Zm5.9-4.707a3.228,3.228,0,0,0,3.457,3.5,6.621,6.621,0,0,0,2.791-.521l.313,1.313a8.182,8.182,0,0,1-3.354.624c-3.1,0-4.957-2.041-4.957-5.082s1.791-5.436,4.728-5.436c3.291,0,4.166,2.9,4.166,4.749a6.851,6.851,0,0,1-.063.854Zm5.373-1.312c.021-1.167-.479-2.979-2.541-2.979-1.853,0-2.666,1.708-2.812,2.979Zm4.041-1.333c0-1.042-.02-1.9-.083-2.729H432.4l.1,1.667h.042a3.7,3.7,0,0,1,3.332-1.9c1.4,0,3.562.833,3.562,4.291v6.019H437.6v-5.811c0-1.625-.6-2.978-2.333-2.978a2.605,2.605,0,0,0-2.458,1.874,2.646,2.646,0,0,0-.125.854v6.061h-1.833Zm13.685-5.624v2.895h2.624v1.4H444.54v5.436c0,1.25.354,1.958,1.374,1.958a4.1,4.1,0,0,0,1.063-.125l.083,1.375a4.507,4.507,0,0,1-1.625.249,2.537,2.537,0,0,1-1.978-.77,3.735,3.735,0,0,1-.708-2.625v-5.5h-1.563v-1.4h1.563v-2.416Zm13.684,7.852c0,3.729-2.583,5.353-5.02,5.353-2.728,0-4.832-2-4.832-5.186,0-3.374,2.208-5.353,5-5.353C456.266,414.179,458.224,416.283,458.224,419.365Zm-8,.105c0,2.207,1.27,3.874,3.062,3.874,1.749,0,3.061-1.646,3.061-3.916,0-1.708-.854-3.874-3.02-3.874S450.226,417.553,450.226,419.47Zm10.06,3.145a4.807,4.807,0,0,0,2.416.729c1.333,0,1.958-.667,1.958-1.5,0-.875-.521-1.354-1.874-1.854-1.812-.645-2.666-1.645-2.666-2.853,0-1.625,1.312-2.958,3.478-2.958a5.033,5.033,0,0,1,2.478.625l-.458,1.333a3.919,3.919,0,0,0-2.062-.583c-1.083,0-1.687.625-1.687,1.375,0,.833.6,1.208,1.916,1.707,1.75.667,2.646,1.542,2.646,3.041,0,1.771-1.375,3.02-3.77,3.02a5.745,5.745,0,0,1-2.833-.687Z" fill="#040506"/>
  <path id="Trazado_193456" data-name="Trazado 193456" d="M1.583,0H3.4V-5.624A6.237,6.237,0,0,0,4.853-5.5,5.817,5.817,0,0,0,9.144-7.04a4.133,4.133,0,0,0,1.083-3A3.774,3.774,0,0,0,9-12.976a5.767,5.767,0,0,0-3.937-1.166,21,21,0,0,0-3.478.271ZM3.4-12.56A7.6,7.6,0,0,1,5.1-12.706c2,0,3.312.9,3.312,2.749,0,1.937-1.333,3-3.52,3A6.077,6.077,0,0,1,3.4-7.1ZM11.956,0h1.812V-5.374a5.159,5.159,0,0,1,.083-.854,2.571,2.571,0,0,1,2.458-2.354,2.753,2.753,0,0,1,.625.062v-1.729a1.983,1.983,0,0,0-.521-.062A3.025,3.025,0,0,0,13.622-8.1h-.083l-.062-1.979h-1.6c.062.937.083,1.958.083,3.145Zm14.5-4.707a6.913,6.913,0,0,0,.062-.854c0-1.854-.875-4.749-4.166-4.749-2.937,0-4.728,2.4-4.728,5.436S19.475.208,22.578.208a8.165,8.165,0,0,0,3.353-.625l-.312-1.312a6.628,6.628,0,0,1-2.791.521,3.23,3.23,0,0,1-3.458-3.5ZM19.392-6.02C19.537-7.29,20.35-9,22.2-9c2.062,0,2.562,1.812,2.541,2.979ZM28.785,4.124H30.6V-1.354h.042a3.535,3.535,0,0,0,3.1,1.583c2.374,0,4.582-1.791,4.582-5.415,0-3.062-1.833-5.124-4.27-5.124a3.963,3.963,0,0,0-3.583,1.958h-.042l-.083-1.729H28.7c.042.958.083,2,.083,3.291ZM30.6-5.832a2.973,2.973,0,0,1,.125-.75,2.925,2.925,0,0,1,2.77-2.27c1.937,0,3,1.729,3,3.749,0,2.312-1.125,3.895-3.062,3.895a2.828,2.828,0,0,1-2.749-2.145A4.127,4.127,0,0,1,30.6-4.1ZM47.885,0a14.194,14.194,0,0,1-.167-2.416v-3.77c0-2.02-.75-4.124-3.833-4.124a6.257,6.257,0,0,0-3.312.9l.417,1.208a5.023,5.023,0,0,1,2.624-.75,2.078,2.078,0,0,1,2.291,2.333v.208c-3.895-.021-6.061,1.312-6.061,3.749a2.872,2.872,0,0,0,3.083,2.9,3.755,3.755,0,0,0,3.083-1.5h.062L46.219,0ZM45.948-3.4a1.913,1.913,0,0,1-.1.583,2.508,2.508,0,0,1-2.437,1.687,1.622,1.622,0,0,1-1.729-1.75c0-1.958,2.27-2.312,4.27-2.27ZM50.676,0h1.812V-5.374a5.159,5.159,0,0,1,.083-.854A2.571,2.571,0,0,1,55.03-8.581a2.753,2.753,0,0,1,.625.062v-1.729a1.983,1.983,0,0,0-.521-.062A3.025,3.025,0,0,0,52.343-8.1h-.083L52.2-10.081h-1.6c.062.937.083,1.958.083,3.145ZM64.528,0a14.194,14.194,0,0,1-.167-2.416v-3.77c0-2.02-.75-4.124-3.833-4.124a6.257,6.257,0,0,0-3.312.9l.417,1.208a5.023,5.023,0,0,1,2.624-.75,2.078,2.078,0,0,1,2.291,2.333v.208c-3.895-.021-6.061,1.312-6.061,3.749A2.872,2.872,0,0,0,59.57.229a3.755,3.755,0,0,0,3.083-1.5h.062L62.861,0ZM62.591-3.4a1.913,1.913,0,0,1-.1.583,2.508,2.508,0,0,1-2.437,1.687,1.622,1.622,0,0,1-1.729-1.75c0-1.958,2.27-2.312,4.27-2.27Zm11.6,1.645a5.207,5.207,0,0,1-2.25.5,3.456,3.456,0,0,1-3.5-3.77,3.488,3.488,0,0,1,3.562-3.812,4.25,4.25,0,0,1,2.125.479l.417-1.416a6.127,6.127,0,0,0-2.541-.521A5.122,5.122,0,0,0,66.59-4.936,4.789,4.789,0,0,0,71.609.208a6.751,6.751,0,0,0,2.9-.583ZM78.483,0V-10.081H76.65V0Zm-.916-14.059a1.117,1.117,0,0,0-1.146,1.146,1.09,1.09,0,0,0,1.1,1.125,1.082,1.082,0,0,0,1.166-1.125A1.088,1.088,0,0,0,77.566-14.059Zm8.227,3.749c-2.791,0-5,1.979-5,5.353,0,3.187,2.1,5.186,4.832,5.186,2.437,0,5.02-1.625,5.02-5.353C90.647-8.207,88.689-10.31,85.794-10.31Zm-.042,1.375c2.166,0,3.02,2.166,3.02,3.874,0,2.27-1.312,3.916-3.062,3.916-1.791,0-3.062-1.666-3.062-3.874C82.649-6.936,83.586-8.936,85.752-8.936Zm.687-5.5-1.833,2.979h1.312l2.541-2.979ZM92.959,0h1.833V-6.061a2.636,2.636,0,0,1,.125-.854A2.6,2.6,0,0,1,97.375-8.79c1.729,0,2.333,1.354,2.333,2.979V0h1.833V-6.02c0-3.458-2.166-4.291-3.562-4.291a3.707,3.707,0,0,0-3.333,1.9H94.6l-.1-1.666H92.876c.062.833.083,1.687.083,2.729Zm22.849-14.788v6.02h-.042a3.371,3.371,0,0,0-3.041-1.541c-2.458,0-4.541,2.062-4.52,5.415,0,3.062,1.875,5.124,4.312,5.124a3.729,3.729,0,0,0,3.437-1.979H116L116.079,0h1.645c-.062-.687-.083-1.708-.083-2.6V-14.788Zm0,10.56a3.184,3.184,0,0,1-.083.791,2.755,2.755,0,0,1-2.687,2.187c-1.979,0-2.979-1.687-2.979-3.728,0-2.229,1.125-3.895,3.02-3.895a2.7,2.7,0,0,1,2.645,2.125,3.236,3.236,0,0,1,.083.771Zm12.976-.479a6.913,6.913,0,0,0,.062-.854c0-1.854-.875-4.749-4.166-4.749-2.937,0-4.728,2.4-4.728,5.436S121.807.208,124.91.208a8.165,8.165,0,0,0,3.353-.625l-.312-1.312a6.628,6.628,0,0,1-2.791.521,3.23,3.23,0,0,1-3.458-3.5ZM121.724-6.02C121.869-7.29,122.682-9,124.535-9c2.062,0,2.562,1.812,2.541,2.979ZM142.781,0a14.2,14.2,0,0,1-.167-2.416v-3.77c0-2.02-.75-4.124-3.833-4.124a6.257,6.257,0,0,0-3.312.9l.417,1.208a5.023,5.023,0,0,1,2.624-.75A2.078,2.078,0,0,1,140.8-6.624v.208c-3.895-.021-6.061,1.312-6.061,3.749a2.872,2.872,0,0,0,3.083,2.9,3.755,3.755,0,0,0,3.083-1.5h.062L141.115,0Zm-1.937-3.4a1.913,1.913,0,0,1-.1.583A2.508,2.508,0,0,1,138.3-1.125a1.622,1.622,0,0,1-1.729-1.75c0-1.958,2.27-2.312,4.27-2.27ZM145.572,0h1.812V-5.374a5.159,5.159,0,0,1,.083-.854,2.571,2.571,0,0,1,2.458-2.354,2.753,2.753,0,0,1,.625.062v-1.729a1.983,1.983,0,0,0-.521-.062A3.025,3.025,0,0,0,147.239-8.1h-.083l-.062-1.979h-1.6c.062.937.083,1.958.083,3.145ZM158.84-1.75a5.207,5.207,0,0,1-2.25.5,3.456,3.456,0,0,1-3.5-3.77,3.488,3.488,0,0,1,3.562-3.812,4.25,4.25,0,0,1,2.125.479l.417-1.416a6.127,6.127,0,0,0-2.541-.521,5.122,5.122,0,0,0-5.415,5.353,4.789,4.789,0,0,0,5.02,5.145,6.751,6.751,0,0,0,2.9-.583ZM161.3,0h1.833V-6.082a2.219,2.219,0,0,1,.125-.875,2.633,2.633,0,0,1,2.458-1.833c1.729,0,2.333,1.375,2.333,3V0h1.833V-6c0-3.478-2.166-4.312-3.52-4.312a3.772,3.772,0,0,0-1.875.521A3.4,3.4,0,0,0,163.173-8.5h-.042v-6.29H161.3Zm13.393,0V-10.081h-1.833V0Zm-.916-14.059a1.117,1.117,0,0,0-1.146,1.146,1.09,1.09,0,0,0,1.1,1.125,1.082,1.082,0,0,0,1.166-1.125A1.088,1.088,0,0,0,173.775-14.059Zm2.708,3.978L180.315,0h1.75l3.957-10.081h-1.916l-1.958,5.665c-.333.916-.625,1.75-.854,2.583h-.062a25.926,25.926,0,0,0-.812-2.583l-1.979-5.665Zm15.143-.229c-2.791,0-5,1.979-5,5.353,0,3.187,2.1,5.186,4.832,5.186,2.437,0,5.02-1.625,5.02-5.353C196.478-8.207,194.52-10.31,191.625-10.31Zm-.042,1.375c2.166,0,3.02,2.166,3.02,3.874,0,2.27-1.312,3.916-3.062,3.916-1.791,0-3.062-1.666-3.062-3.874C188.48-6.936,189.417-8.936,191.583-8.936Zm6.5,8.456a5.749,5.749,0,0,0,2.833.687c2.4,0,3.77-1.25,3.77-3.02,0-1.5-.9-2.374-2.645-3.041-1.312-.5-1.916-.875-1.916-1.708,0-.75.6-1.375,1.687-1.375a3.923,3.923,0,0,1,2.062.583l.458-1.333a5.032,5.032,0,0,0-2.479-.625c-2.166,0-3.478,1.333-3.478,2.958,0,1.208.854,2.208,2.666,2.854,1.354.5,1.875.979,1.875,1.854,0,.833-.625,1.5-1.958,1.5a4.8,4.8,0,0,1-2.416-.729Zm13.372,4.6h1.812V-1.354h.042a3.535,3.535,0,0,0,3.1,1.583c2.374,0,4.582-1.791,4.582-5.415,0-3.062-1.833-5.124-4.27-5.124a3.963,3.963,0,0,0-3.583,1.958H213.1l-.083-1.729h-1.645c.042.958.083,2,.083,3.291Zm1.812-9.956a2.973,2.973,0,0,1,.125-.75,2.925,2.925,0,0,1,2.77-2.27c1.937,0,3,1.729,3,3.749,0,2.312-1.125,3.895-3.062,3.895a2.828,2.828,0,0,1-2.749-2.145,4.128,4.128,0,0,1-.083-.75ZM230.554,0a14.2,14.2,0,0,1-.167-2.416v-3.77c0-2.02-.75-4.124-3.833-4.124a6.257,6.257,0,0,0-3.312.9l.417,1.208a5.023,5.023,0,0,1,2.624-.75,2.078,2.078,0,0,1,2.291,2.333v.208c-3.895-.021-6.061,1.312-6.061,3.749A2.872,2.872,0,0,0,225.6.229a3.755,3.755,0,0,0,3.083-1.5h.062L228.888,0Zm-1.937-3.4a1.913,1.913,0,0,1-.1.583,2.508,2.508,0,0,1-2.437,1.687,1.622,1.622,0,0,1-1.729-1.75c0-1.958,2.27-2.312,4.27-2.27ZM233.345,0h1.812V-5.374a5.159,5.159,0,0,1,.083-.854A2.571,2.571,0,0,1,237.7-8.581a2.753,2.753,0,0,1,.625.062v-1.729a1.983,1.983,0,0,0-.521-.062A3.025,3.025,0,0,0,235.011-8.1h-.083l-.062-1.979h-1.6c.062.937.083,1.958.083,3.145ZM247.2,0a14.2,14.2,0,0,1-.167-2.416v-3.77c0-2.02-.75-4.124-3.833-4.124a6.257,6.257,0,0,0-3.312.9l.417,1.208a5.023,5.023,0,0,1,2.624-.75,2.078,2.078,0,0,1,2.291,2.333v.208c-3.895-.021-6.061,1.312-6.061,3.749a2.872,2.872,0,0,0,3.083,2.9,3.755,3.755,0,0,0,3.083-1.5h.062L245.53,0Zm-1.937-3.4a1.913,1.913,0,0,1-.1.583,2.508,2.508,0,0,1-2.437,1.687,1.622,1.622,0,0,1-1.729-1.75c0-1.958,2.27-2.312,4.27-2.27ZM256.236,0V-10.081H254.4V0Zm-.916-14.059a1.117,1.117,0,0,0-1.146,1.146,1.09,1.09,0,0,0,1.1,1.125,1.082,1.082,0,0,0,1.166-1.125A1.088,1.088,0,0,0,255.319-14.059ZM259.277,0h1.791V-6.082a2.526,2.526,0,0,1,.146-.9,2.5,2.5,0,0,1,2.27-1.833c1.4,0,2.1,1.166,2.1,2.77V0h1.791V-6.228a3.019,3.019,0,0,1,.146-.916,2.373,2.373,0,0,1,2.166-1.666c1.479,0,2.187,1.166,2.187,3.1V0h1.791V-5.936c0-3.5-1.979-4.374-3.312-4.374a3.44,3.44,0,0,0-2.229.708A4.153,4.153,0,0,0,267-8.29h-.042a2.98,2.98,0,0,0-2.854-2.02,3.475,3.475,0,0,0-3.166,1.854h-.062l-.083-1.625h-1.6c.062.833.083,1.687.083,2.729Zm17.371,4.124h1.812V-1.354h.042a3.535,3.535,0,0,0,3.1,1.583c2.374,0,4.582-1.791,4.582-5.415,0-3.062-1.833-5.124-4.27-5.124a3.963,3.963,0,0,0-3.583,1.958h-.042l-.083-1.729h-1.645c.042.958.083,2,.083,3.291Zm1.812-9.956a2.972,2.972,0,0,1,.125-.75,2.925,2.925,0,0,1,2.77-2.27c1.937,0,3,1.729,3,3.749,0,2.312-1.125,3.895-3.062,3.895a2.828,2.828,0,0,1-2.749-2.145,4.128,4.128,0,0,1-.083-.75ZM288.5,0h1.812V-5.374a5.159,5.159,0,0,1,.083-.854,2.571,2.571,0,0,1,2.458-2.354,2.754,2.754,0,0,1,.625.062v-1.729a1.983,1.983,0,0,0-.521-.062A3.025,3.025,0,0,0,290.166-8.1h-.083l-.062-1.979h-1.6c.062.937.083,1.958.083,3.145ZM303-4.707a6.91,6.91,0,0,0,.063-.854c0-1.854-.875-4.749-4.166-4.749-2.937,0-4.728,2.4-4.728,5.436S296.019.208,299.122.208a8.165,8.165,0,0,0,3.353-.625l-.312-1.312a6.628,6.628,0,0,1-2.791.521,3.23,3.23,0,0,1-3.458-3.5ZM295.936-6.02C296.081-7.29,296.894-9,298.747-9c2.062,0,2.562,1.812,2.541,2.979Zm8.686,5.54a5.749,5.749,0,0,0,2.833.687c2.4,0,3.77-1.25,3.77-3.02,0-1.5-.9-2.374-2.645-3.041-1.312-.5-1.916-.875-1.916-1.708,0-.75.6-1.375,1.687-1.375a3.923,3.923,0,0,1,2.062.583l.458-1.333a5.032,5.032,0,0,0-2.479-.625c-2.166,0-3.478,1.333-3.478,2.958,0,1.208.854,2.208,2.666,2.854,1.354.5,1.875.979,1.875,1.854,0,.833-.625,1.5-1.958,1.5a4.8,4.8,0,0,1-2.416-.729ZM315.411,0V-10.081h-1.833V0Zm-.916-14.059a1.117,1.117,0,0,0-1.146,1.146,1.09,1.09,0,0,0,1.1,1.125,1.082,1.082,0,0,0,1.166-1.125A1.088,1.088,0,0,0,314.494-14.059Zm8.227,3.749c-2.791,0-5,1.979-5,5.353,0,3.187,2.1,5.186,4.832,5.186,2.437,0,5.02-1.625,5.02-5.353C327.575-8.207,325.617-10.31,322.721-10.31Zm-.042,1.375c2.166,0,3.02,2.166,3.02,3.874,0,2.27-1.312,3.916-3.062,3.916-1.791,0-3.062-1.666-3.062-3.874C319.576-6.936,320.514-8.936,322.68-8.936Zm.687-5.5-1.833,2.979h1.312l2.541-2.979ZM329.887,0h1.833V-6.061a2.635,2.635,0,0,1,.125-.854A2.6,2.6,0,0,1,334.3-8.79c1.729,0,2.333,1.354,2.333,2.979V0h1.833V-6.02c0-3.458-2.166-4.291-3.562-4.291a3.707,3.707,0,0,0-3.333,1.9h-.042l-.1-1.666H329.8c.062.833.083,1.687.083,2.729Z" transform="translate(257.602 447.276)" fill="#040506"/>
  <g id="Grupo_128298" data-name="Grupo 128298">
    <g id="Grupo_128297" data-name="Grupo 128297" clip-path="url(#clip-path)">
      <path id="Trazado_193076" data-name="Trazado 193076" d="M245.947,283.052a4.225,4.225,0,1,1-4.225-4.224,4.225,4.225,0,0,1,4.225,4.224" fill="#ffbb07"/>
      <path id="Trazado_193077" data-name="Trazado 193077" d="M245.947,305.366a4.225,4.225,0,1,1-4.225-4.224,4.225,4.225,0,0,1,4.225,4.224" fill="#ffbb07"/>
      <path id="Trazado_193078" data-name="Trazado 193078" d="M245.947,327.68a4.225,4.225,0,1,1-4.225-4.224,4.225,4.225,0,0,1,4.225,4.224" fill="#ffbb07"/>
      <path id="Trazado_193079" data-name="Trazado 193079" d="M245.947,349.994a4.225,4.225,0,1,1-4.225-4.224,4.226,4.226,0,0,1,4.225,4.224" fill="#ffbb07"/>
      <path id="Trazado_193080" data-name="Trazado 193080" d="M245.947,372.5a4.225,4.225,0,1,1-4.225-4.224,4.225,4.225,0,0,1,4.225,4.224" fill="#ffbb07"/>
      <path id="Trazado_193081" data-name="Trazado 193081" d="M245.947,394.935a4.225,4.225,0,1,1-4.225-4.224,4.226,4.226,0,0,1,4.225,4.224" fill="#ffbb07"/>
      <path id="Trazado_193082" data-name="Trazado 193082" d="M245.947,417.25a4.225,4.225,0,1,1-4.225-4.224,4.226,4.226,0,0,1,4.225,4.224" fill="#ffbb07"/>
      <path id="Trazado_193083" data-name="Trazado 193083" d="M245.947,439.752a4.225,4.225,0,1,1-4.225-4.225,4.225,4.225,0,0,1,4.225,4.225" fill="#ffbb07"/>
      <path id="Trazado_193084" data-name="Trazado 193084" d="M577.487,229.628H227.554a9.155,9.155,0,0,1-9.155-9.155V152.63a9.155,9.155,0,0,1,9.155-9.156H577.487a9.155,9.155,0,0,1,9.155,9.156v67.843a9.155,9.155,0,0,1-9.155,9.155" fill="#ffce1d"/>
    </g>
  </g>
  <path id="Trazado_193448" data-name="Trazado 193448" d="M8.013-6.384H5.151V0H1.557V-17.44h6.48A7.325,7.325,0,0,1,12.8-16.062a4.754,4.754,0,0,1,1.677,3.893,5.365,5.365,0,0,1-.773,2.977,5.269,5.269,0,0,1-2.342,1.9L15.14-.168V0H11.283ZM5.151-9.295h2.9a2.968,2.968,0,0,0,2.1-.689,2.462,2.462,0,0,0,.743-1.9,2.635,2.635,0,0,0-.7-1.94,2.912,2.912,0,0,0-2.15-.707H5.151ZM27.705-7.558h-6.9v4.671h8.1V0H17.212V-17.44H28.879v2.911H20.806v4.156h6.9Zm9.75,3.234L41.408-17.44h4L39.336,0H35.587L29.538-17.44h3.989ZM50.87,0H47.277V-17.44H50.87ZM63.244-4.576a1.844,1.844,0,0,0-.719-1.563,9.426,9.426,0,0,0-2.587-1.15A18.341,18.341,0,0,1,56.979-8.48q-2.971-1.605-2.971-4.324a4.211,4.211,0,0,1,.8-2.521,5.2,5.2,0,0,1,2.288-1.731,8.611,8.611,0,0,1,3.348-.623,7.838,7.838,0,0,1,3.33.677,5.3,5.3,0,0,1,2.27,1.91,5,5,0,0,1,.809,2.8H63.256a2.352,2.352,0,0,0-.755-1.863,3.1,3.1,0,0,0-2.12-.665,3.314,3.314,0,0,0-2.048.557,1.757,1.757,0,0,0-.731,1.467,1.683,1.683,0,0,0,.856,1.425,9.676,9.676,0,0,0,2.521,1.078A10.894,10.894,0,0,1,65.448-8a4.556,4.556,0,0,1,1.4,3.4,4.2,4.2,0,0,1-1.713,3.551A7.5,7.5,0,0,1,60.525.24,8.9,8.9,0,0,1,56.859-.5a5.8,5.8,0,0,1-2.521-2.018,5.169,5.169,0,0,1-.868-2.971h3.605q0,2.887,3.45,2.887a3.356,3.356,0,0,0,2-.521A1.7,1.7,0,0,0,63.244-4.576ZM73.1,0H69.508V-17.44H73.1ZM90.757-8.325a10.528,10.528,0,0,1-.91,4.516A6.856,6.856,0,0,1,87.242-.815,7.207,7.207,0,0,1,83.355.24,7.256,7.256,0,0,1,79.486-.8a6.923,6.923,0,0,1-2.635-2.977,10.227,10.227,0,0,1-.946-4.45v-.862a10.473,10.473,0,0,1,.928-4.534,6.912,6.912,0,0,1,2.623-3.006,7.216,7.216,0,0,1,3.875-1.048,7.216,7.216,0,0,1,3.875,1.048,6.912,6.912,0,0,1,2.623,3.006A10.443,10.443,0,0,1,90.757-9.1Zm-3.641-.791a7.339,7.339,0,0,0-.982-4.168,3.2,3.2,0,0,0-2.8-1.425A3.2,3.2,0,0,0,80.54-13.3a7.255,7.255,0,0,0-.994,4.126v.85a7.431,7.431,0,0,0,.982,4.144,3.192,3.192,0,0,0,2.827,1.473,3.164,3.164,0,0,0,2.779-1.419,7.388,7.388,0,0,0,.982-4.138Zm-3.09-13H87.8L84.481-18.4H81.666ZM107.55,0h-3.593l-7-11.475V0H93.368V-17.44h3.593l7.007,11.5v-11.5h3.581ZM116.8,0V-17.44h5.366a8.149,8.149,0,0,1,4.114,1.036,7.225,7.225,0,0,1,2.833,2.947,9.088,9.088,0,0,1,1.018,4.342v.8a9.114,9.114,0,0,1-1,4.324,7.163,7.163,0,0,1-2.821,2.935A8.211,8.211,0,0,1,122.2,0Zm3.593-14.529V-2.887h1.737a3.9,3.9,0,0,0,3.222-1.377A6.225,6.225,0,0,0,126.487-8.2v-.922a6.324,6.324,0,0,0-1.1-4.031,3.889,3.889,0,0,0-3.222-1.371Zm22.842,6.971h-6.9v4.671h8.1V0H132.74V-17.44h11.667v2.911h-8.073v4.156h6.9Zm19.261,3.965h-6.3L155,0h-3.821l6.492-17.44H161L167.524,0H163.7ZM157.163-6.5h4.36l-2.192-6.528Zm18.446.12h-2.863V0h-3.593V-17.44h6.48a7.325,7.325,0,0,1,4.767,1.377,4.754,4.754,0,0,1,1.677,3.893,5.366,5.366,0,0,1-.773,2.977,5.269,5.269,0,0,1-2.342,1.9l3.773,7.127V0h-3.857Zm-2.863-2.911h2.9a2.968,2.968,0,0,0,2.1-.689,2.462,2.462,0,0,0,.743-1.9,2.635,2.635,0,0,0-.7-1.94,2.912,2.912,0,0,0-2.15-.707h-2.887ZM198.5-5.809a6.171,6.171,0,0,1-2.078,4.432A7.3,7.3,0,0,1,191.48.24,6.563,6.563,0,0,1,186.2-2.018a9.258,9.258,0,0,1-1.922-6.2V-9.283a10.454,10.454,0,0,1,.886-4.432,6.642,6.642,0,0,1,2.533-2.941,7.1,7.1,0,0,1,3.827-1.024,7.11,7.11,0,0,1,4.863,1.617,6.632,6.632,0,0,1,2.132,4.54H194.93a3.642,3.642,0,0,0-.94-2.449,3.482,3.482,0,0,0-2.461-.761,3.053,3.053,0,0,0-2.689,1.288,7.216,7.216,0,0,0-.916,3.995v1.318A7.724,7.724,0,0,0,188.779-4a3,3,0,0,0,2.7,1.306,3.548,3.548,0,0,0,2.485-.761,3.435,3.435,0,0,0,.94-2.354ZM215.053,0h-3.593V-7.474h-7.007V0h-3.593V-17.44h3.593v7.067h7.007V-17.44h3.593Zm6.959,0h-3.593V-17.44h3.593Zm9.774-4.324,3.953-13.116h4L233.666,0h-3.749l-6.049-17.44h3.989Zm23.617-4a10.528,10.528,0,0,1-.91,4.516,6.856,6.856,0,0,1-2.605,2.994A7.207,7.207,0,0,1,248,.24,7.255,7.255,0,0,1,244.132-.8,6.923,6.923,0,0,1,241.5-3.779a10.227,10.227,0,0,1-.946-4.45v-.862a10.473,10.473,0,0,1,.928-4.534,6.912,6.912,0,0,1,2.623-3.006,7.216,7.216,0,0,1,3.875-1.048,7.216,7.216,0,0,1,3.875,1.048,6.912,6.912,0,0,1,2.623,3.006A10.443,10.443,0,0,1,255.4-9.1Zm-3.641-.791a7.339,7.339,0,0,0-.982-4.168,3.2,3.2,0,0,0-2.8-1.425,3.2,3.2,0,0,0-2.791,1.407,7.255,7.255,0,0,0-.994,4.126v.85a7.431,7.431,0,0,0,.982,4.144A3.192,3.192,0,0,0,248-2.707a3.164,3.164,0,0,0,2.779-1.419,7.388,7.388,0,0,0,.982-4.138Zm15.3,4.54a1.844,1.844,0,0,0-.719-1.563,9.427,9.427,0,0,0-2.587-1.15,18.341,18.341,0,0,1-2.959-1.192q-2.971-1.605-2.971-4.324a4.211,4.211,0,0,1,.8-2.521,5.2,5.2,0,0,1,2.288-1.731,8.611,8.611,0,0,1,3.348-.623,7.838,7.838,0,0,1,3.33.677,5.3,5.3,0,0,1,2.27,1.91,5,5,0,0,1,.809,2.8H267.07a2.352,2.352,0,0,0-.755-1.863,3.1,3.1,0,0,0-2.12-.665,3.314,3.314,0,0,0-2.048.557,1.757,1.757,0,0,0-.731,1.467,1.683,1.683,0,0,0,.856,1.425,9.676,9.676,0,0,0,2.521,1.078A10.894,10.894,0,0,1,269.262-8a4.556,4.556,0,0,1,1.4,3.4,4.2,4.2,0,0,1-1.713,3.551A7.5,7.5,0,0,1,264.339.24,8.9,8.9,0,0,1,260.673-.5a5.8,5.8,0,0,1-2.521-2.018,5.169,5.169,0,0,1-.868-2.971h3.605q0,2.887,3.45,2.887a3.356,3.356,0,0,0,2-.521A1.7,1.7,0,0,0,267.058-4.576Z" transform="translate(269.915 183.178)" fill="#040506"/>
  <path id="Trazado_193449" data-name="Trazado 193449" d="M5.151-6.145V0H1.557V-17.44h6.8a7.871,7.871,0,0,1,3.456.719,5.3,5.3,0,0,1,2.294,2.042,5.694,5.694,0,0,1,.8,3.012,5.008,5.008,0,0,1-1.755,4.043A7.309,7.309,0,0,1,8.3-6.145Zm0-2.911h3.21a3.156,3.156,0,0,0,2.174-.671,2.44,2.44,0,0,0,.749-1.916,2.877,2.877,0,0,0-.755-2.072,2.819,2.819,0,0,0-2.084-.815H5.151ZM22.984-3.593h-6.3L15.486,0H11.665l6.492-17.44h3.33L28.015,0H24.194ZM17.654-6.5h4.36l-2.192-6.528Zm18.446.12H33.237V0H29.644V-17.44h6.48a7.325,7.325,0,0,1,4.767,1.377,4.754,4.754,0,0,1,1.677,3.893A5.365,5.365,0,0,1,41.8-9.193a5.269,5.269,0,0,1-2.342,1.9L43.227-.168V0H39.37ZM33.237-9.295h2.9a2.968,2.968,0,0,0,2.1-.689,2.462,2.462,0,0,0,.743-1.9,2.635,2.635,0,0,0-.7-1.94,2.912,2.912,0,0,0-2.15-.707H33.237Zm21.908,5.7h-6.3L47.647,0H43.826l6.492-17.44h3.33L60.176,0H56.355ZM49.815-6.5h4.36l-2.192-6.528ZM71.735,0H68.141V-17.44h3.593ZM79.76-17.44,84.24-4.791,88.7-17.44h4.719V0H89.809V-4.767L90.169-13,85.461,0H82.994L78.3-12.984l.359,8.217V0H75.064V-17.44Zm20.387,11.3V0H96.553V-17.44h6.8a7.871,7.871,0,0,1,3.456.719,5.3,5.3,0,0,1,2.294,2.042,5.694,5.694,0,0,1,.8,3.012,5.008,5.008,0,0,1-1.755,4.043A7.309,7.309,0,0,1,103.3-6.145Zm0-2.911h3.21a3.156,3.156,0,0,0,2.174-.671,2.44,2.44,0,0,0,.749-1.916,2.877,2.877,0,0,0-.755-2.072,2.819,2.819,0,0,0-2.084-.815h-3.294Zm18.686,2.671h-2.863V0h-3.593V-17.44h6.48a7.325,7.325,0,0,1,4.767,1.377A4.754,4.754,0,0,1,125.3-12.17a5.365,5.365,0,0,1-.773,2.977,5.269,5.269,0,0,1-2.342,1.9l3.773,7.127V0H122.1Zm-2.863-2.911h2.9a2.968,2.968,0,0,0,2.1-.689,2.462,2.462,0,0,0,.743-1.9,2.635,2.635,0,0,0-.7-1.94,2.912,2.912,0,0,0-2.15-.707h-2.887Zm22.555,1.737h-6.9v4.671h8.1V0H128.031V-17.44H139.7v2.911h-8.073v4.156h6.9Zm12.349,2.983a1.844,1.844,0,0,0-.719-1.563,9.427,9.427,0,0,0-2.587-1.15,18.341,18.341,0,0,1-2.959-1.192q-2.971-1.605-2.971-4.324a4.211,4.211,0,0,1,.8-2.521,5.2,5.2,0,0,1,2.288-1.731,8.611,8.611,0,0,1,3.348-.623A7.838,7.838,0,0,1,151.4-17a5.3,5.3,0,0,1,2.27,1.91,5,5,0,0,1,.809,2.8h-3.593a2.352,2.352,0,0,0-.755-1.863,3.1,3.1,0,0,0-2.12-.665,3.314,3.314,0,0,0-2.048.557,1.757,1.757,0,0,0-.731,1.467,1.683,1.683,0,0,0,.856,1.425,9.676,9.676,0,0,0,2.521,1.078A10.894,10.894,0,0,1,153.077-8a4.556,4.556,0,0,1,1.4,3.4,4.2,4.2,0,0,1-1.713,3.551A7.5,7.5,0,0,1,148.154.24,8.9,8.9,0,0,1,144.489-.5a5.8,5.8,0,0,1-2.521-2.018,5.169,5.169,0,0,1-.868-2.971H144.7q0,2.887,3.45,2.887a3.356,3.356,0,0,0,2-.521A1.7,1.7,0,0,0,150.873-4.576ZM160.731,0h-3.593V-17.44h3.593Zm17.656-8.325a10.528,10.528,0,0,1-.91,4.516,6.856,6.856,0,0,1-2.605,2.994A7.207,7.207,0,0,1,170.984.24,7.255,7.255,0,0,1,167.115-.8a6.923,6.923,0,0,1-2.635-2.977,10.227,10.227,0,0,1-.946-4.45v-.862a10.473,10.473,0,0,1,.928-4.534,6.912,6.912,0,0,1,2.623-3.006,7.216,7.216,0,0,1,3.875-1.048,7.216,7.216,0,0,1,3.875,1.048,6.912,6.912,0,0,1,2.623,3.006,10.443,10.443,0,0,1,.928,4.522Zm-3.641-.791a7.339,7.339,0,0,0-.982-4.168,3.2,3.2,0,0,0-2.8-1.425,3.2,3.2,0,0,0-2.791,1.407,7.255,7.255,0,0,0-.994,4.126v.85a7.431,7.431,0,0,0,.982,4.144,3.192,3.192,0,0,0,2.827,1.473,3.164,3.164,0,0,0,2.779-1.419,7.388,7.388,0,0,0,.982-4.138Zm-3.09-13h3.773L172.11-18.4H169.3ZM195.18,0h-3.593l-7-11.475V0H181V-17.44h3.593l7.007,11.5v-11.5h3.581Z" transform="translate(306.319 213.572)" fill="#040506"/>
  <g id="Grupo_128300" data-name="Grupo 128300">
    <g id="Grupo_128299" data-name="Grupo 128299" clip-path="url(#clip-path)">
      <path id="Trazado_193085" data-name="Trazado 193085" d="M1042.742,413.743H812.055a9.155,9.155,0,0,1-9.155-9.155V330.866a9.155,9.155,0,0,1,9.155-9.155h230.687a9.155,9.155,0,0,1,9.155,9.155v73.722a9.155,9.155,0,0,1-9.155,9.155" fill="#fdc08d"/>
      <rect id="Rectángulo_41511" data-name="Rectángulo 41511" width="248.997" height="92.032" rx="9.155" transform="translate(802.9 321.711)" fill="none" stroke="#f8911a" stroke-miterlimit="10" stroke-width="1.752"/>
    </g>
  </g>
  <path id="Trazado_193086" data-name="Trazado 193086" d="M889.083,365.142a9.005,9.005,0,0,1-3.708.666c-3.957,0-6.935-2.5-6.935-7.1a6.985,6.985,0,0,1,7.331-7.373,7.529,7.529,0,0,1,3.333.624l-.438,1.479a6.6,6.6,0,0,0-2.832-.583c-3.291,0-5.478,2.1-5.478,5.79,0,3.437,1.979,5.645,5.394,5.645a7.256,7.256,0,0,0,2.958-.583Zm2.208-14.33h1.833V365.6h-1.833Zm10.5,14.788-.145-1.271h-.063a3.752,3.752,0,0,1-3.082,1.5,2.872,2.872,0,0,1-3.083-2.9c0-2.437,2.166-3.77,6.061-3.749v-.208a2.078,2.078,0,0,0-2.291-2.333,5.015,5.015,0,0,0-2.624.75l-.417-1.208a6.252,6.252,0,0,1,3.312-.9c3.082,0,3.832,2.1,3.832,4.124v3.77a14.184,14.184,0,0,0,.167,2.416Zm-.27-5.145c-2-.041-4.27.313-4.27,2.271a1.621,1.621,0,0,0,1.729,1.749,2.509,2.509,0,0,0,2.437-1.687,1.926,1.926,0,0,0,.1-.583Zm4.478,3.27a4.8,4.8,0,0,0,2.416.729c1.333,0,1.958-.666,1.958-1.5,0-.875-.521-1.354-1.875-1.854-1.812-.646-2.666-1.645-2.666-2.853,0-1.625,1.312-2.958,3.479-2.958a5.022,5.022,0,0,1,2.478.625l-.458,1.333a3.925,3.925,0,0,0-2.062-.583c-1.083,0-1.687.624-1.687,1.374,0,.833.6,1.208,1.916,1.708,1.75.667,2.645,1.541,2.645,3.041,0,1.77-1.374,3.02-3.77,3.02a5.752,5.752,0,0,1-2.832-.687Zm10.539-11.039a1.135,1.135,0,0,1-2.27,0,1.117,1.117,0,0,1,1.145-1.145A1.088,1.088,0,0,1,916.535,352.686ZM914.494,365.6V355.519h1.833V365.6Zm5.061,0v-8.685h-1.416v-1.4h1.416v-.542a4.04,4.04,0,0,1,4.4-4.394,5.046,5.046,0,0,1,2.562.666l-.521,1.4a3.847,3.847,0,0,0-2.124-.583c-1.937,0-2.5,1.353-2.5,2.957v.5h5.853V365.6h-1.812v-8.685h-4.041V365.6Zm17.892-.375a6.749,6.749,0,0,1-2.9.583,4.789,4.789,0,0,1-5.02-5.144,5.122,5.122,0,0,1,5.416-5.353,6.128,6.128,0,0,1,2.541.52l-.417,1.417a4.249,4.249,0,0,0-2.124-.479,3.8,3.8,0,0,0-.063,7.581,5.214,5.214,0,0,0,2.25-.5Zm7.727.375-.145-1.271h-.063a3.752,3.752,0,0,1-3.082,1.5,2.872,2.872,0,0,1-3.083-2.9c0-2.437,2.166-3.77,6.061-3.749v-.208a2.078,2.078,0,0,0-2.291-2.333,5.014,5.014,0,0,0-2.624.75l-.417-1.208a6.252,6.252,0,0,1,3.312-.9c3.082,0,3.832,2.1,3.832,4.124v3.77a14.184,14.184,0,0,0,.167,2.416Zm-.27-5.145c-2-.041-4.27.313-4.27,2.271a1.621,1.621,0,0,0,1.729,1.749,2.506,2.506,0,0,0,2.436-1.687,1.9,1.9,0,0,0,.1-.583Zm11.914,4.77a6.755,6.755,0,0,1-2.9.583,4.789,4.789,0,0,1-5.019-5.144,5.122,5.122,0,0,1,5.415-5.353,6.128,6.128,0,0,1,2.541.52l-.416,1.417a4.253,4.253,0,0,0-2.125-.479,3.8,3.8,0,0,0-.062,7.581,5.209,5.209,0,0,0,2.249-.5ZM961,352.686a1.135,1.135,0,0,1-2.27,0,1.117,1.117,0,0,1,1.146-1.145A1.087,1.087,0,0,1,961,352.686ZM958.963,365.6V355.519H960.8V365.6Zm14-5.124c0,3.728-2.583,5.353-5.02,5.353-2.728,0-4.832-2-4.832-5.186,0-3.374,2.208-5.353,5-5.353C971,355.29,972.96,357.394,972.96,360.476Zm-8,.1c0,2.208,1.27,3.874,3.061,3.874,1.75,0,3.062-1.645,3.062-3.915,0-1.708-.854-3.874-3.02-3.874S964.962,358.664,964.962,360.58Zm5.811-9.414-2.541,2.978h-1.313l1.833-2.978Zm4.5,7.082c0-1.042-.021-1.9-.084-2.729h1.625l.1,1.666h.042a3.707,3.707,0,0,1,3.332-1.895c1.4,0,3.562.833,3.562,4.291V365.6H982.02v-5.811c0-1.625-.6-2.979-2.333-2.979a2.688,2.688,0,0,0-2.582,2.729V365.6h-1.833Z" fill="#040506"/>
  <path id="Trazado_193459" data-name="Trazado 193459" d="M8.852-8.082H3.4v-4.437h5.77v-1.521H1.583V0H9.477V-1.521H3.4V-6.582H8.852ZM11.768,0H13.56V-6.082a2.527,2.527,0,0,1,.146-.9,2.5,2.5,0,0,1,2.27-1.833c1.4,0,2.1,1.166,2.1,2.77V0h1.791V-6.228a3.019,3.019,0,0,1,.146-.916,2.373,2.373,0,0,1,2.166-1.666c1.479,0,2.187,1.166,2.187,3.1V0h1.791V-5.936c0-3.5-1.979-4.374-3.312-4.374a3.44,3.44,0,0,0-2.229.708A4.153,4.153,0,0,0,19.5-8.29h-.042A2.98,2.98,0,0,0,16.6-10.31a3.475,3.475,0,0,0-3.166,1.854h-.062l-.083-1.625h-1.6c.062.833.083,1.687.083,2.729ZM29.139,4.124h1.812V-1.354h.042A3.535,3.535,0,0,0,34.1.229c2.374,0,4.582-1.791,4.582-5.415,0-3.062-1.833-5.124-4.27-5.124a3.963,3.963,0,0,0-3.583,1.958h-.042L30.7-10.081H29.056c.042.958.083,2,.083,3.291Zm1.812-9.956a2.973,2.973,0,0,1,.125-.75,2.925,2.925,0,0,1,2.77-2.27c1.937,0,3,1.729,3,3.749,0,2.312-1.125,3.895-3.062,3.895a2.828,2.828,0,0,1-2.749-2.145,4.127,4.127,0,0,1-.083-.75ZM48.239,0a14.194,14.194,0,0,1-.167-2.416v-3.77c0-2.02-.75-4.124-3.833-4.124a6.257,6.257,0,0,0-3.312.9l.417,1.208a5.023,5.023,0,0,1,2.624-.75,2.078,2.078,0,0,1,2.291,2.333v.208C42.366-6.436,40.2-5.1,40.2-2.666a2.872,2.872,0,0,0,3.083,2.9,3.755,3.755,0,0,0,3.083-1.5h.062L46.573,0ZM46.3-3.4a1.913,1.913,0,0,1-.1.583,2.508,2.508,0,0,1-2.437,1.687,1.622,1.622,0,0,1-1.729-1.75c0-1.958,2.27-2.312,4.27-2.27ZM57.9,4.124h1.833V-7.311c0-1.041.021-1.916.062-2.77H58.071l-.062,1.521h-.042a3.313,3.313,0,0,0-3.1-1.75c-2.125,0-4.562,1.666-4.562,5.436,0,3.062,1.916,5.1,4.27,5.1a3.588,3.588,0,0,0,3.291-1.791H57.9Zm0-8.227a3.079,3.079,0,0,1-.146.875,2.73,2.73,0,0,1-2.624,2c-2.02,0-2.979-1.75-2.979-3.749,0-2.27,1.146-3.874,3.041-3.874a2.679,2.679,0,0,1,2.624,2.083A3.123,3.123,0,0,1,57.9-6Zm13.289-5.978H69.36v6.186a2.681,2.681,0,0,1-.167.937,2.65,2.65,0,0,1-2.416,1.666c-1.666,0-2.25-1.291-2.25-3.208v-5.582H62.695v5.895c0,3.541,1.9,4.416,3.478,4.416a3.793,3.793,0,0,0,3.333-1.875h.042L69.652,0h1.625c-.062-.791-.083-1.708-.083-2.749ZM82.336-4.707a6.912,6.912,0,0,0,.062-.854c0-1.854-.875-4.749-4.166-4.749-2.937,0-4.728,2.4-4.728,5.436S75.359.208,78.462.208a8.165,8.165,0,0,0,3.353-.625L81.5-1.729a6.628,6.628,0,0,1-2.791.521,3.23,3.23,0,0,1-3.458-3.5ZM75.275-6.02C75.421-7.29,76.233-9,78.087-9c2.062,0,2.562,1.812,2.541,2.979Zm9.81-6.478v2.416H83.523v1.4h1.562v5.5a3.735,3.735,0,0,0,.708,2.624,2.54,2.54,0,0,0,1.979.771A4.487,4.487,0,0,0,89.4-.042l-.083-1.375a4.077,4.077,0,0,1-1.062.125c-1.021,0-1.375-.708-1.375-1.958V-8.686H89.5v-1.4H86.877v-2.9ZM98.812,0a14.194,14.194,0,0,1-.167-2.416v-3.77c0-2.02-.75-4.124-3.832-4.124a6.257,6.257,0,0,0-3.312.9l.417,1.208a5.023,5.023,0,0,1,2.624-.75,2.078,2.078,0,0,1,2.291,2.333v.208c-3.895-.021-6.061,1.312-6.061,3.749a2.872,2.872,0,0,0,3.083,2.9,3.755,3.755,0,0,0,3.083-1.5H97L97.146,0ZM96.875-3.4a1.913,1.913,0,0,1-.1.583,2.508,2.508,0,0,1-2.437,1.687A1.622,1.622,0,0,1,92.6-2.874c0-1.958,2.27-2.312,4.27-2.27Zm11.6-11.393v6.02h-.042a3.371,3.371,0,0,0-3.041-1.541c-2.458,0-4.541,2.062-4.52,5.415,0,3.062,1.875,5.124,4.312,5.124a3.729,3.729,0,0,0,3.437-1.979h.042L108.747,0h1.645c-.062-.687-.083-1.708-.083-2.6V-14.788Zm0,10.56a3.184,3.184,0,0,1-.083.791,2.755,2.755,0,0,1-2.687,2.187c-1.979,0-2.979-1.687-2.979-3.728,0-2.229,1.125-3.895,3.02-3.895a2.7,2.7,0,0,1,2.645,2.125,3.236,3.236,0,0,1,.083.771Zm9.144-6.082c-2.791,0-5,1.979-5,5.353,0,3.187,2.1,5.186,4.832,5.186,2.437,0,5.02-1.625,5.02-5.353C122.473-8.207,120.515-10.31,117.62-10.31Zm-.042,1.375c2.166,0,3.02,2.166,3.02,3.874,0,2.27-1.312,3.916-3.062,3.916-1.791,0-3.062-1.666-3.062-3.874C114.475-6.936,115.412-8.936,117.579-8.936Z" transform="translate(877.689 388.387)" fill="#040506"/>
  <g id="Grupo_128302" data-name="Grupo 128302">
    <g id="Grupo_128301" data-name="Grupo 128301" clip-path="url(#clip-path)">
      <path id="Trazado_193087" data-name="Trazado 193087" d="M863.381,359.522a4.224,4.224,0,1,1-4.224-4.224,4.224,4.224,0,0,1,4.224,4.224" fill="#f8911a"/>
      <path id="Trazado_193088" data-name="Trazado 193088" d="M863.381,381.837a4.224,4.224,0,1,1-4.224-4.224,4.224,4.224,0,0,1,4.224,4.224" fill="#f8911a"/>
      <path id="Trazado_193089" data-name="Trazado 193089" d="M1107.4,327.771H757.462a9.155,9.155,0,0,1-9.155-9.155V250.773a9.155,9.155,0,0,1,9.155-9.156H1107.4a9.155,9.155,0,0,1,9.155,9.156v67.843a9.155,9.155,0,0,1-9.155,9.155" fill="#f8911a"/>
    </g>
  </g>
  <path id="Trazado_193457" data-name="Trazado 193457" d="M12.05-7.127h-6.9V0H1.557V-17.44H12.912v2.911H5.151v4.5h6.9ZM18.817,0H15.224V-17.44h3.593ZM36.329,0H32.736l-7-11.475V0H22.147V-17.44h3.593l7.007,11.5v-11.5h3.581Zm13.4-3.593h-6.3L42.227,0H38.406L44.9-17.44h3.33L54.756,0H50.935ZM44.395-6.5h4.36l-2.192-6.528ZM59.978-2.887h7.63V0H56.385V-17.44h3.593ZM73.489,0H69.9V-17.44h3.593Zm7.139-2.887H89.42V0H76.137V-2.108l8.624-12.421H76.149V-17.44h13.08v2.06Zm21.2-.707h-6.3L94.335,0H90.514l6.492-17.44h3.33L106.864,0h-3.821ZM96.5-6.5h4.36l-2.192-6.528Zm25.184.695a6.171,6.171,0,0,1-2.078,4.432A7.3,7.3,0,0,1,114.667.24a6.563,6.563,0,0,1-5.276-2.258,9.258,9.258,0,0,1-1.922-6.2V-9.283a10.454,10.454,0,0,1,.886-4.432,6.642,6.642,0,0,1,2.533-2.941,7.1,7.1,0,0,1,3.827-1.024,7.11,7.11,0,0,1,4.863,1.617,6.632,6.632,0,0,1,2.132,4.54h-3.593a3.642,3.642,0,0,0-.94-2.449,3.482,3.482,0,0,0-2.461-.761,3.053,3.053,0,0,0-2.689,1.288,7.216,7.216,0,0,0-.916,3.995v1.318A7.724,7.724,0,0,0,111.966-4a3,3,0,0,0,2.7,1.306,3.548,3.548,0,0,0,2.485-.761,3.435,3.435,0,0,0,.94-2.354ZM127.867,0h-3.593V-17.44h3.593Zm17.656-8.325a10.528,10.528,0,0,1-.91,4.516,6.856,6.856,0,0,1-2.605,2.994A7.207,7.207,0,0,1,138.12.24,7.255,7.255,0,0,1,134.251-.8a6.923,6.923,0,0,1-2.635-2.977,10.227,10.227,0,0,1-.946-4.45v-.862a10.473,10.473,0,0,1,.928-4.534,6.912,6.912,0,0,1,2.623-3.006,7.216,7.216,0,0,1,3.875-1.048,7.216,7.216,0,0,1,3.875,1.048,6.912,6.912,0,0,1,2.623,3.006,10.443,10.443,0,0,1,.928,4.522Zm-3.641-.791a7.339,7.339,0,0,0-.982-4.168,3.2,3.2,0,0,0-2.8-1.425,3.2,3.2,0,0,0-2.791,1.407,7.255,7.255,0,0,0-.994,4.126v.85a7.431,7.431,0,0,0,.982,4.144,3.192,3.192,0,0,0,2.827,1.473A3.164,3.164,0,0,0,140.9-4.126a7.388,7.388,0,0,0,.982-4.138Zm-3.09-13h3.773L139.246-18.4h-2.815ZM162.316,0h-3.593l-7-11.475V0h-3.593V-17.44h3.593l7.007,11.5v-11.5h3.581Zm9.247,0V-17.44h5.366a8.149,8.149,0,0,1,4.114,1.036,7.225,7.225,0,0,1,2.833,2.947,9.088,9.088,0,0,1,1.018,4.342v.8a9.114,9.114,0,0,1-1,4.324,7.163,7.163,0,0,1-2.821,2.935A8.211,8.211,0,0,1,176.965,0Zm3.593-14.529V-2.887h1.737a3.9,3.9,0,0,0,3.222-1.377A6.225,6.225,0,0,0,181.253-8.2v-.922a6.324,6.324,0,0,0-1.1-4.031,3.889,3.889,0,0,0-3.222-1.371ZM198-7.558h-6.9v4.671h8.1V0H187.506V-17.44h11.667v2.911H191.1v4.156H198Z" transform="translate(834.09 279.569)" fill="#040506"/>
  <path id="Trazado_193458" data-name="Trazado 193458" d="M17.512-3.593h-6.3L10.014,0H6.193l6.492-17.44h3.33L22.543,0H18.722ZM12.182-6.5h4.36L14.35-13.032Zm18.446.12H27.765V0H24.172V-17.44h6.48a7.325,7.325,0,0,1,4.767,1.377A4.754,4.754,0,0,1,37.1-12.17a5.365,5.365,0,0,1-.773,2.977,5.269,5.269,0,0,1-2.342,1.9L37.755-.168V0H33.9ZM27.765-9.295h2.9a2.968,2.968,0,0,0,2.1-.689,2.462,2.462,0,0,0,.743-1.9,2.635,2.635,0,0,0-.7-1.94,2.912,2.912,0,0,0-2.15-.707H27.765ZM53.518-5.809a6.171,6.171,0,0,1-2.078,4.432A7.3,7.3,0,0,1,46.5.24a6.563,6.563,0,0,1-5.276-2.258,9.258,9.258,0,0,1-1.922-6.2V-9.283a10.454,10.454,0,0,1,.886-4.432,6.642,6.642,0,0,1,2.533-2.941,7.1,7.1,0,0,1,3.827-1.024,7.11,7.11,0,0,1,4.863,1.617,6.632,6.632,0,0,1,2.132,4.54H49.948a3.642,3.642,0,0,0-.94-2.449,3.482,3.482,0,0,0-2.461-.761,3.053,3.053,0,0,0-2.689,1.288,7.216,7.216,0,0,0-.916,3.995v1.318A7.724,7.724,0,0,0,43.8-4,3,3,0,0,0,46.5-2.7a3.548,3.548,0,0,0,2.485-.761,3.435,3.435,0,0,0,.94-2.354ZM70.071,0H66.478V-7.474H59.471V0H55.877V-17.44h3.593v7.067h7.007V-17.44h3.593ZM77.03,0H73.437V-17.44H77.03ZM86.8-4.324,90.757-17.44h4L88.685,0H84.936L78.887-17.44h3.989Zm23.617-4a10.528,10.528,0,0,1-.91,4.516,6.856,6.856,0,0,1-2.605,2.994A7.207,7.207,0,0,1,103.019.24,7.256,7.256,0,0,1,99.15-.8a6.923,6.923,0,0,1-2.635-2.977,10.227,10.227,0,0,1-.946-4.45v-.862a10.473,10.473,0,0,1,.928-4.534,6.912,6.912,0,0,1,2.623-3.006A7.216,7.216,0,0,1,103-17.679a7.216,7.216,0,0,1,3.875,1.048,6.912,6.912,0,0,1,2.623,3.006,10.443,10.443,0,0,1,.928,4.522Zm-3.641-.791a7.339,7.339,0,0,0-.982-4.168,3.2,3.2,0,0,0-2.8-1.425A3.2,3.2,0,0,0,100.2-13.3a7.255,7.255,0,0,0-.994,4.126v.85a7.431,7.431,0,0,0,.982,4.144,3.192,3.192,0,0,0,2.827,1.473A3.164,3.164,0,0,0,105.8-4.126a7.388,7.388,0,0,0,.982-4.138Z" transform="translate(870.813 309.963)" fill="#040506"/>
  <text id="S" transform="translate(982.414 309.963)" fill="#040506" font-size="24.531" font-family="Roboto-Bold, Roboto" font-weight="700"><tspan x="0" y="0">S</tspan></text>
  <g id="Grupo_128304" data-name="Grupo 128304">
    <g id="Grupo_128303" data-name="Grupo 128303" clip-path="url(#clip-path)">
      <path id="Trazado_193090" data-name="Trazado 193090" d="M417.091,588.836H194.531a9.155,9.155,0,0,1-9.155-9.155V541.994a9.155,9.155,0,0,1,9.155-9.155h222.56a9.155,9.155,0,0,1,9.155,9.155v37.687a9.155,9.155,0,0,1-9.155,9.155" fill="#ffe26c"/>
    </g>
  </g>
  <path id="Trazado_193466" data-name="Trazado 193466" d="M1.375-14.039V0H4.562V-14.039ZM7.332,0h3.083V-5.936a2.1,2.1,0,0,1,.125-.791,1.612,1.612,0,0,1,1.479-1.146c1,0,1.458.875,1.458,2.166V0h3.083V-5.957a2.649,2.649,0,0,1,.125-.812,1.549,1.549,0,0,1,1.458-1.1c1.021,0,1.5.854,1.5,2.333V0h3.083V-6c0-3.041-1.479-4.416-3.437-4.416a3.675,3.675,0,0,0-1.937.5,4.558,4.558,0,0,0-1.312,1.229H16a2.886,2.886,0,0,0-2.791-1.729,3.532,3.532,0,0,0-3.083,1.6H10.06l-.146-1.375H7.248c.042.9.083,1.979.083,3.249ZM25.245,4.124H28.41V-.937h.042A3.164,3.164,0,0,0,31.1.229c2.27,0,4.624-1.75,4.624-5.457,0-3.249-2-5.186-4.228-5.186a3.909,3.909,0,0,0-3.4,1.645h-.042l-.146-1.416H25.161c.042.937.083,2.083.083,3.416ZM28.41-5.77a2.449,2.449,0,0,1,.062-.562,1.989,1.989,0,0,1,1.9-1.6c1.416,0,2.145,1.229,2.145,2.854,0,1.729-.812,2.874-2.187,2.874a1.916,1.916,0,0,1-1.854-1.5,3.153,3.153,0,0,1-.062-.667Zm14.247-4.645A5.084,5.084,0,0,0,37.221-5.02,4.989,4.989,0,0,0,42.491.229a5.11,5.11,0,0,0,5.374-5.436A4.953,4.953,0,0,0,42.657-10.414Zm-.083,2.25c1.437,0,2.02,1.541,2.02,3.062,0,1.833-.791,3.062-2.02,3.062-1.354,0-2.083-1.312-2.083-3.062C40.491-6.6,41.054-8.165,42.574-8.165ZM49.239-.5A7.212,7.212,0,0,0,52.53.208c2.916,0,4.416-1.4,4.416-3.291-.021-1.5-.833-2.479-2.77-3.145-1.25-.437-1.645-.687-1.645-1.166,0-.521.437-.833,1.208-.833a5,5,0,0,1,2.208.583l.562-2.187a6.833,6.833,0,0,0-2.874-.583c-2.52,0-4.145,1.437-4.145,3.333-.021,1.208.791,2.354,2.9,3.062,1.187.4,1.5.646,1.5,1.166S53.488-2,52.53-2A6.189,6.189,0,0,1,49.8-2.77ZM62.028,0V-10.185H58.862V0ZM60.445-14.622a1.548,1.548,0,0,0-1.666,1.6,1.548,1.548,0,0,0,1.645,1.583,1.59,1.59,0,0,0,1.708-1.583A1.588,1.588,0,0,0,60.445-14.622ZM71.839-2.583a4.884,4.884,0,0,1-1.812.312,2.65,2.65,0,0,1-2.791-2.854,2.636,2.636,0,0,1,2.729-2.854,4.332,4.332,0,0,1,1.77.312l.5-2.354a7.344,7.344,0,0,0-2.416-.4c-3.791,0-5.832,2.437-5.832,5.415,0,3.208,2.1,5.207,5.395,5.207A7.723,7.723,0,0,0,72.213-.25ZM77.129,0V-10.185H73.963V0ZM75.546-14.622a1.548,1.548,0,0,0-1.666,1.6,1.548,1.548,0,0,0,1.645,1.583,1.59,1.59,0,0,0,1.708-1.583A1.588,1.588,0,0,0,75.546-14.622Zm8.977,4.207A5.084,5.084,0,0,0,79.087-5.02,4.989,4.989,0,0,0,84.357.229,5.11,5.11,0,0,0,89.73-5.207,4.953,4.953,0,0,0,84.523-10.414Zm-.083,2.25c1.437,0,2.02,1.541,2.02,3.062,0,1.833-.791,3.062-2.02,3.062-1.354,0-2.083-1.312-2.083-3.062C82.357-6.6,82.919-8.165,84.44-8.165Zm.354-6.457L83-11.456H85.19l2.541-3.166ZM91.688,0h3.166V-5.874a2.175,2.175,0,0,1,.125-.791,1.69,1.69,0,0,1,1.6-1.187c1.146,0,1.6.9,1.6,2.208V0h3.166V-6.04c0-3-1.562-4.374-3.645-4.374A3.729,3.729,0,0,0,94.563-8.79H94.5l-.146-1.4H91.605c.042.9.083,1.979.083,3.249Zm15.268-10.185,3.728,9.31a1.15,1.15,0,0,1,.146.521.826.826,0,0,1-.167.458,3.638,3.638,0,0,1-1.312,1.271,3.992,3.992,0,0,1-1.375.542l.667,2.687a5.837,5.837,0,0,0,3.062-1.4c1.146-1.021,2.125-2.645,3.583-6.686l2.374-6.707h-3.4l-1.25,5c-.146.583-.312,1.354-.458,1.9H112.5c-.125-.542-.333-1.291-.5-1.9l-1.521-5ZM123.2,4.124h3.166V-.937h.042A3.164,3.164,0,0,0,129.055.229c2.27,0,4.624-1.75,4.624-5.457,0-3.249-2-5.186-4.228-5.186a3.909,3.909,0,0,0-3.4,1.645h-.042l-.146-1.416h-2.749c.042.937.083,2.083.083,3.416Zm3.166-9.894a2.449,2.449,0,0,1,.062-.562,1.989,1.989,0,0,1,1.9-1.6c1.416,0,2.145,1.229,2.145,2.854,0,1.729-.812,2.874-2.187,2.874a1.916,1.916,0,0,1-1.854-1.5,3.153,3.153,0,0,1-.062-.667ZM135.658,0h3.166V-14.788h-3.166Zm14.726-4.082a7.521,7.521,0,0,0,.1-1.25c0-2.52-1.25-5.082-4.541-5.082-3.541,0-5.145,2.854-5.145,5.436,0,3.187,1.979,5.186,5.436,5.186a10.054,10.054,0,0,0,3.687-.625l-.417-2.145a8.971,8.971,0,0,1-2.812.417c-1.479,0-2.77-.625-2.874-1.937ZM143.8-6.249a2.078,2.078,0,0,1,1.958-2.062,1.839,1.839,0,0,1,1.791,2.062Zm15.559-3.937-.1,1.208h-.042a3.07,3.07,0,0,0-2.791-1.437c-2.5,0-4.624,2.083-4.624,5.353,0,2.937,1.791,4.978,4.312,4.978a3.257,3.257,0,0,0,2.749-1.333h.042V-.75a2.431,2.431,0,0,1-2.645,2.687,6.262,6.262,0,0,1-2.958-.771l-.625,2.4a7.939,7.939,0,0,0,3.666.791,6.283,6.283,0,0,0,4.145-1.25c1.146-1.021,1.541-2.624,1.541-4.582V-7.165c0-1.521.042-2.374.083-3.02Zm-.5,5.645a2.69,2.69,0,0,1-.1.833,1.719,1.719,0,0,1-1.666,1.291c-1.333,0-2.083-1.187-2.083-2.708,0-1.854.937-2.9,2.083-2.9a1.736,1.736,0,0,1,1.708,1.4,2.5,2.5,0,0,1,.062.583ZM173.212,0a15.781,15.781,0,0,1-.146-2.479V-6.02c0-2.4-1.083-4.395-4.478-4.395a8.408,8.408,0,0,0-3.957.9l.583,2.041a5.728,5.728,0,0,1,2.812-.771c1.562,0,1.854.771,1.854,1.312v.146c-3.6-.021-5.978,1.25-5.978,3.895A3.122,3.122,0,0,0,167.193.229a3.669,3.669,0,0,0,2.916-1.25h.062L170.359,0Zm-3.228-3.708a2.27,2.27,0,0,1-.062.542A1.73,1.73,0,0,1,168.276-2a1.137,1.137,0,0,1-1.25-1.208c0-1.229,1.291-1.625,2.958-1.6Zm12.289-11.081v5.52h-.042a3.1,3.1,0,0,0-2.687-1.146c-2.437,0-4.582,1.979-4.562,5.415,0,3.166,1.937,5.228,4.353,5.228A3.556,3.556,0,0,0,182.523-1.5h.042L182.71,0h2.812c-.042-.687-.083-1.9-.083-3.041V-14.788Zm0,10.248a2.7,2.7,0,0,1-.083.729,1.854,1.854,0,0,1-1.833,1.521c-1.312,0-2.166-1.083-2.166-2.812,0-1.6.75-2.9,2.187-2.9a1.9,1.9,0,0,1,1.854,1.562,5.107,5.107,0,0,1,.042.562Zm10.56-5.874A5.084,5.084,0,0,0,187.4-5.02a4.989,4.989,0,0,0,5.27,5.249,5.11,5.11,0,0,0,5.374-5.436A4.953,4.953,0,0,0,192.833-10.414Zm-.083,2.25c1.437,0,2.02,1.541,2.02,3.062,0,1.833-.791,3.062-2.02,3.062-1.354,0-2.083-1.312-2.083-3.062C190.667-6.6,191.229-8.165,192.75-8.165Z" transform="translate(206.679 566.952)" fill="#040506"/>
  <g id="Grupo_128306" data-name="Grupo 128306">
    <g id="Grupo_128305" data-name="Grupo 128305" clip-path="url(#clip-path)">
      <path id="Trazado_193091" data-name="Trazado 193091" d="M204.823,183.217s-32.871-15.411-72.152,32.79l13.693,8-34.911,4.433L94.964,203.927l14.514,3.744c19.263-56.956,77.233-59.191,77.233-59.191Z" fill="#ffefb0"/>
      <path id="Trazado_193092" data-name="Trazado 193092" d="M204.823,183.217s-32.871-15.411-72.152,32.79l13.693,8-34.911,4.433L94.964,203.927l14.514,3.744c19.263-56.956,77.233-59.191,77.233-59.191Z" fill="none" stroke="#ffce1d" stroke-miterlimit="10" stroke-width="1.752"/>
      <path id="Trazado_193093" data-name="Trazado 193093" d="M474.609,75.612S433.554,53.147,385.048,110.2l17.115,11.348-43.43,2.338L338,91.481l18.1,6.065C379.61,27.6,451.768,30.179,451.768,30.179Z" fill="#fdc08d"/>
      <path id="Trazado_193094" data-name="Trazado 193094" d="M474.609,75.612S433.554,53.147,385.048,110.2l17.115,11.348-43.43,2.338L338,91.481l18.1,6.065C379.61,27.6,451.768,30.179,451.768,30.179Z" fill="none" stroke="#f8911a" stroke-miterlimit="10" stroke-width="1.752"/>
      <path id="Trazado_193095" data-name="Trazado 193095" d="M852.128,99.721s38.8,17.838,22.089,83.41l-17.659-6.381,21.513,32.763,35.357-2.2-14.236-9.91c39.746-54.291-.832-105.289-.832-105.289Z" fill="#fdc08d"/>
      <path id="Trazado_193096" data-name="Trazado 193096" d="M852.128,99.721s38.8,17.838,22.089,83.41l-17.659-6.381,21.513,32.763,35.357-2.2-14.236-9.91c39.746-54.291-.832-105.289-.832-105.289Z" fill="none" stroke="#f8911a" stroke-miterlimit="10" stroke-width="1.752"/>
      <path id="Rectángulo_41515" data-name="Rectángulo 41515" d="M14.6,0H384.641a14.6,14.6,0,0,1,14.6,14.6v55a14.6,14.6,0,0,1-14.6,14.6H14.6A14.6,14.6,0,0,1,0,69.6V14.6A14.6,14.6,0,0,1,14.6,0Z" transform="translate(479.155 0.876)" fill="#ec6500"/>
      <path id="Trazado_193097" data-name="Trazado 193097" d="M863.8,1.752a13.741,13.741,0,0,1,13.725,13.725v55A13.741,13.741,0,0,1,863.8,84.2H493.757a13.741,13.741,0,0,1-13.725-13.725v-55A13.741,13.741,0,0,1,493.757,1.752ZM863.8,0H493.757A15.477,15.477,0,0,0,478.28,15.477v55A15.477,15.477,0,0,0,493.757,85.95H863.8a15.477,15.477,0,0,0,15.477-15.477v-55A15.477,15.477,0,0,0,863.8,0" fill="#c65409"/>
    </g>
  </g>
  <path id="Trazado_193467" data-name="Trazado 193467" d="M15.816-8.932H7.1V0H1.694V-22.423h15v4.173H7.1v5.159h8.717ZM24.7,0h-5.39V-22.423H24.7ZM47.186,0H41.812L33.865-13.953V0H28.46V-22.423h5.405L41.8-8.47V-22.423h5.39ZM63.871-4.189H56.463L55.17,0H49.394l8.224-22.423H62.7L70.986,0H65.18ZM57.757-8.362h4.82l-2.418-7.777Zm20.267,4.2h9.41V0H72.618V-22.423h5.405ZM95.472,0h-5.39V-22.423h5.39ZM105.3-4.158h10.719V0H98.552V-2.849l10.688-15.4H98.49v-4.173h17.418v2.772Zm26.293-.031h-7.408L122.889,0h-5.775l8.224-22.423h5.082L138.7,0H132.9Zm-6.114-4.173h4.82l-2.418-7.777Zm32.364.77a8.189,8.189,0,0,1-1.263,4.135,7.621,7.621,0,0,1-3.242,2.78,11.034,11.034,0,0,1-4.766.986,8.805,8.805,0,0,1-6.961-2.88q-2.541-2.88-2.541-8.131v-1.109a13.573,13.573,0,0,1,1.147-5.767,8.693,8.693,0,0,1,3.3-3.819,9.217,9.217,0,0,1,4.99-1.348,9.665,9.665,0,0,1,6.561,2.148,8.488,8.488,0,0,1,2.818,5.921H152.5a4.016,4.016,0,0,0-1.032-2.941,4.244,4.244,0,0,0-2.957-.893A3.229,3.229,0,0,0,145.551-17a9.7,9.7,0,0,0-.986,4.82V-10.6a10.733,10.733,0,0,0,.9,5.128,3.3,3.3,0,0,0,3.1,1.54,4.151,4.151,0,0,0,2.849-.878,3.726,3.726,0,0,0,1.047-2.787ZM166.156,0h-5.39V-22.423h5.39ZM188.9-10.749a13.223,13.223,0,0,1-1.217,5.806,8.992,8.992,0,0,1-3.457,3.889A9.627,9.627,0,0,1,179.123.308a9.763,9.763,0,0,1-5.082-1.317,8.976,8.976,0,0,1-3.457-3.765,12.842,12.842,0,0,1-1.3-5.621v-1.263a13.281,13.281,0,0,1,1.209-5.814,8.97,8.97,0,0,1,3.465-3.889,9.694,9.694,0,0,1,5.136-1.371,9.6,9.6,0,0,1,5.082,1.355,9.131,9.131,0,0,1,3.473,3.858,12.9,12.9,0,0,1,1.255,5.737Zm-5.5-.939a9.429,9.429,0,0,0-1.117-5.074,3.581,3.581,0,0,0-3.2-1.733q-4.066,0-4.3,6.1l-.015,1.648a9.7,9.7,0,0,0,1.093,5.067,3.576,3.576,0,0,0,3.249,1.771,3.533,3.533,0,0,0,3.157-1.74,9.433,9.433,0,0,0,1.124-5.005Zm-3.681-16.74h5.482l-4.281,4.836L176.69-23.6ZM210.416,0h-5.375L197.1-13.953V0H191.69V-22.423H197.1L205.026-8.47V-22.423h5.39Z" transform="translate(563.006 54.313)" fill="#fff"/>
  <g id="Grupo_128308" data-name="Grupo 128308">
    <g id="Grupo_128307" data-name="Grupo 128307" clip-path="url(#clip-path)">
      <path id="Trazado_193098" data-name="Trazado 193098" d="M41.4,301.3a4.225,4.225,0,1,1-4.224-4.224A4.225,4.225,0,0,1,41.4,301.3" fill="#37b1c5"/>
      <path id="Trazado_193099" data-name="Trazado 193099" d="M41.4,323.616a4.225,4.225,0,1,1-4.224-4.224,4.225,4.225,0,0,1,4.224,4.224" fill="#37b1c5"/>
      <path id="Trazado_193100" data-name="Trazado 193100" d="M41.4,345.93a4.225,4.225,0,1,1-4.224-4.225A4.224,4.224,0,0,1,41.4,345.93" fill="#37b1c5"/>
      <path id="Trazado_193101" data-name="Trazado 193101" d="M41.4,368.244a4.225,4.225,0,1,1-4.224-4.225,4.224,4.224,0,0,1,4.224,4.225" fill="#37b1c5"/>
      <path id="Trazado_193102" data-name="Trazado 193102" d="M41.4,390.746a4.225,4.225,0,1,1-4.224-4.224,4.225,4.225,0,0,1,4.224,4.224" fill="#37b1c5"/>
    </g>
  </g>
</svg>
